<svg width="24" height="663" viewBox="0 0 24 663" fill="none" xmlns="http://www.w3.org/2000/svg">
<path d="M11 641.339L11 2.33914" stroke="#734D37" stroke-width="3" stroke-linecap="round"/>
<path fill-rule="evenodd" clip-rule="evenodd" d="M20.317 643.012C18.345 640.634 14.6264 641.659 12.577 644.168C12.2664 644.534 11.525 644.597 11.121 644.162C10.729 644.264 10.337 644.136 10.0143 643.693C6.98101 639.794 1.10503 638.404 1.9077 644.928C2.54155 649.384 6.05093 654.395 8.41679 657.774C9.03197 658.652 9.56983 659.42 9.95972 660.04C14.6597 656.103 24.061 648.08 20.317 643.012ZM11.6003 637.339C11.7116 638.807 11.8475 640.291 12.0117 641.8C15.961 638.397 20.857 639.474 22.381 642.622C25.461 648.943 17.465 656.31 12.153 660.774C12.0762 660.839 11.9748 660.93 11.8569 661.036C11.3091 661.527 10.4039 662.339 9.94637 662.339C9.50904 662.339 9.133 662.046 9.04233 661.709C8.81167 661.639 8.60769 661.483 8.46636 661.271C8.02902 660.636 7.58637 660.001 7.1437 659.37C-7.92697 637.799 4.72503 635.551 9.93836 640.806C9.8116 639.635 9.70307 638.481 9.61067 637.339L11.6003 637.339Z" fill="#734D37"/>
</svg>
