<svg width="180" height="180" viewBox="0 0 180 180" fill="none" xmlns="http://www.w3.org/2000/svg">
<circle cx="90" cy="90" r="90" fill="#FFFCF9"/>
<path d="M38.6189 45.024H46.9209V42.854H43.0009L45.2829 40.81C45.7029 40.446 46.0436 40.0447 46.3049 39.606C46.5662 39.158 46.6969 38.668 46.6969 38.136C46.6969 37.7627 46.6176 37.394 46.4589 37.03C46.3002 36.666 46.0622 36.3347 45.7449 36.036C45.4369 35.728 45.0496 35.4853 44.5829 35.308C44.1162 35.1213 43.5796 35.028 42.9729 35.028C42.1329 35.028 41.4189 35.2007 40.8309 35.546C40.2522 35.8913 39.8182 36.3533 39.5289 36.932C39.2396 37.5107 39.0949 38.15 39.0949 38.85H41.4189C41.4189 38.4953 41.4749 38.1827 41.5869 37.912C41.7082 37.6413 41.8809 37.4313 42.1049 37.282C42.3382 37.1327 42.6042 37.058 42.9029 37.058C43.1269 37.058 43.3229 37.0953 43.4909 37.17C43.6589 37.2353 43.7989 37.3287 43.9109 37.45C44.0229 37.562 44.1069 37.6927 44.1629 37.842C44.2189 37.9913 44.2469 38.1407 44.2469 38.29C44.2469 38.5513 44.1956 38.7987 44.0929 39.032C43.9996 39.256 43.8549 39.4847 43.6589 39.718C43.4722 39.9513 43.2482 40.2127 42.9869 40.502L38.6189 45.024Z" fill="#263238"/>
<path d="M52.7764 40.278C53.5511 40.278 54.2511 40.1847 54.8764 39.998C55.5017 39.8113 55.9964 39.5313 56.3604 39.158C56.7337 38.7847 56.9204 38.318 56.9204 37.758C56.9204 37.254 56.7851 36.7967 56.5144 36.386C56.2531 35.9753 55.8657 35.6487 55.3524 35.406C54.8391 35.1633 54.2137 35.042 53.4764 35.042C52.7857 35.042 52.1791 35.1773 51.6564 35.448C51.1337 35.7093 50.7277 36.0733 50.4384 36.54C50.1584 36.9973 50.0184 37.5153 50.0184 38.094H52.1884C52.1884 37.7487 52.3097 37.4687 52.5524 37.254C52.7951 37.0393 53.1031 36.932 53.4764 36.932C53.7284 36.932 53.9337 36.974 54.0924 37.058C54.2511 37.1327 54.3724 37.2447 54.4564 37.394C54.5404 37.5433 54.5824 37.7113 54.5824 37.898C54.5824 38.0753 54.5404 38.2433 54.4564 38.402C54.3724 38.5607 54.2464 38.7007 54.0784 38.822C53.9197 38.9433 53.7284 39.0413 53.5044 39.116C53.2897 39.1813 53.0471 39.214 52.7764 39.214V40.278ZM53.3644 45.248C54.1671 45.248 54.8531 45.1267 55.4224 44.884C55.9917 44.632 56.4304 44.2913 56.7384 43.862C57.0464 43.4233 57.2004 42.9193 57.2004 42.35C57.2004 41.8553 57.0931 41.4307 56.8784 41.076C56.6637 40.7213 56.3557 40.432 55.9544 40.208C55.5531 39.9747 55.0817 39.8067 54.5404 39.704C54.0084 39.592 53.4204 39.536 52.7764 39.536V40.74C53.1311 40.74 53.4391 40.7727 53.7004 40.838C53.9617 40.9033 54.1764 41.0013 54.3444 41.132C54.5217 41.2533 54.6524 41.398 54.7364 41.566C54.8204 41.734 54.8624 41.9207 54.8624 42.126C54.8624 42.3967 54.8017 42.6253 54.6804 42.812C54.5591 42.9987 54.3911 43.134 54.1764 43.218C53.9711 43.302 53.7284 43.344 53.4484 43.344C53.1871 43.344 52.9351 43.2927 52.6924 43.19C52.4591 43.0873 52.2724 42.9287 52.1324 42.714C51.9924 42.4993 51.9224 42.2333 51.9224 41.916H49.5984C49.5984 42.3453 49.6824 42.7607 49.8504 43.162C50.0277 43.5633 50.2751 43.9227 50.5924 44.24C50.9191 44.5573 51.3157 44.8047 51.7824 44.982C52.2491 45.1593 52.7764 45.248 53.3644 45.248Z" fill="#263238"/>
<path d="M70.891 35.224L64.829 47.124H66.943L72.921 35.224H70.891Z" fill="#263238"/>
<path d="M82.9758 40.124C82.9758 39.6667 83.0178 39.2513 83.1018 38.878C83.1858 38.4953 83.3072 38.1733 83.4658 37.912C83.6245 37.6413 83.8112 37.436 84.0258 37.296C84.2498 37.1467 84.4972 37.072 84.7678 37.072C85.0385 37.072 85.2812 37.1467 85.4958 37.296C85.7198 37.436 85.9112 37.6413 86.0698 37.912C86.2285 38.1733 86.3498 38.4953 86.4338 38.878C86.5178 39.2513 86.5598 39.6667 86.5598 40.124C86.5598 40.5813 86.5178 41.0013 86.4338 41.384C86.3498 41.7573 86.2285 42.0793 86.0698 42.35C85.9112 42.6113 85.7198 42.8167 85.4958 42.966C85.2812 43.106 85.0385 43.176 84.7678 43.176C84.4972 43.176 84.2498 43.106 84.0258 42.966C83.8112 42.8167 83.6245 42.6113 83.4658 42.35C83.3072 42.0793 83.1858 41.7573 83.1018 41.384C83.0178 41.0013 82.9758 40.5813 82.9758 40.124ZM80.6938 40.124C80.6938 41.188 80.8618 42.098 81.1978 42.854C81.5431 43.61 82.0238 44.1933 82.6398 44.604C83.2558 45.0053 83.9652 45.206 84.7678 45.206C85.6078 45.206 86.3312 45.0053 86.9378 44.604C87.5445 44.1933 88.0111 43.61 88.3378 42.854C88.6738 42.098 88.8418 41.188 88.8418 40.124C88.8418 39.06 88.6738 38.15 88.3378 37.394C88.0111 36.638 87.5445 36.0593 86.9378 35.658C86.3312 35.2473 85.6078 35.042 84.7678 35.042C83.9652 35.042 83.2558 35.2473 82.6398 35.658C82.0238 36.0593 81.5431 36.638 81.1978 37.394C80.8618 38.15 80.6938 39.06 80.6938 40.124Z" fill="#263238"/>
<path d="M97.1314 38.668C97.1314 38.9947 97.0567 39.284 96.9074 39.536C96.7674 39.788 96.5714 39.984 96.3194 40.124C96.0767 40.264 95.8014 40.334 95.4934 40.334C95.176 40.334 94.8914 40.264 94.6394 40.124C94.3967 39.984 94.2007 39.788 94.0514 39.536C93.9114 39.284 93.8414 38.9947 93.8414 38.668C93.8414 38.332 93.9114 38.0427 94.0514 37.8C94.2007 37.548 94.3967 37.3567 94.6394 37.226C94.8914 37.086 95.176 37.016 95.4934 37.016C95.8014 37.016 96.0767 37.086 96.3194 37.226C96.5714 37.3567 96.7674 37.548 96.9074 37.8C97.0567 38.0427 97.1314 38.332 97.1314 38.668ZM95.5074 44.982L98.3354 41.384C98.6527 40.992 98.9187 40.572 99.1334 40.124C99.3574 39.676 99.4694 39.1907 99.4694 38.668C99.4694 37.856 99.2874 37.1793 98.9234 36.638C98.5687 36.0967 98.088 35.6907 97.4814 35.42C96.884 35.14 96.2214 35 95.4934 35C94.756 35 94.084 35.14 93.4774 35.42C92.88 35.6907 92.3994 36.0967 92.0354 36.638C91.6807 37.1793 91.5034 37.856 91.5034 38.668C91.5034 39.1627 91.592 39.606 91.7694 39.998C91.9467 40.39 92.18 40.726 92.4694 41.006C92.7587 41.2767 93.0807 41.4867 93.4354 41.636C93.7994 41.776 94.1634 41.846 94.5274 41.846C94.882 41.846 95.176 41.8087 95.4094 41.734C95.652 41.65 95.904 41.482 96.1654 41.23L95.6894 41.44L92.5114 44.982H95.5074Z" fill="#263238"/>
<path d="M113.438 35.224L107.376 47.124H109.49L115.468 35.224H113.438Z" fill="#263238"/>
<path d="M122.961 45.024H131.263V42.854H127.343L129.625 40.81C130.045 40.446 130.385 40.0447 130.647 39.606C130.908 39.158 131.039 38.668 131.039 38.136C131.039 37.7627 130.959 37.394 130.801 37.03C130.642 36.666 130.404 36.3347 130.087 36.036C129.779 35.728 129.391 35.4853 128.925 35.308C128.458 35.1213 127.921 35.028 127.315 35.028C126.475 35.028 125.761 35.2007 125.173 35.546C124.594 35.8913 124.16 36.3533 123.871 36.932C123.581 37.5107 123.437 38.15 123.437 38.85H125.761C125.761 38.4953 125.817 38.1827 125.929 37.912C126.05 37.6413 126.223 37.4313 126.447 37.282C126.68 37.1327 126.946 37.058 127.245 37.058C127.469 37.058 127.665 37.0953 127.833 37.17C128.001 37.2353 128.141 37.3287 128.253 37.45C128.365 37.562 128.449 37.6927 128.505 37.842C128.561 37.9913 128.589 38.1407 128.589 38.29C128.589 38.5513 128.537 38.7987 128.435 39.032C128.341 39.256 128.197 39.4847 128.001 39.718C127.814 39.9513 127.59 40.2127 127.329 40.502L122.961 45.024Z" fill="#263238"/>
<path d="M137.118 40.278C137.893 40.278 138.593 40.1847 139.218 39.998C139.844 39.8113 140.338 39.5313 140.702 39.158C141.076 38.7847 141.262 38.318 141.262 37.758C141.262 37.254 141.127 36.7967 140.856 36.386C140.595 35.9753 140.208 35.6487 139.694 35.406C139.181 35.1633 138.556 35.042 137.818 35.042C137.128 35.042 136.521 35.1773 135.998 35.448C135.476 35.7093 135.07 36.0733 134.78 36.54C134.5 36.9973 134.36 37.5153 134.36 38.094H136.53C136.53 37.7487 136.652 37.4687 136.894 37.254C137.137 37.0393 137.445 36.932 137.818 36.932C138.07 36.932 138.276 36.974 138.434 37.058C138.593 37.1327 138.714 37.2447 138.798 37.394C138.882 37.5433 138.924 37.7113 138.924 37.898C138.924 38.0753 138.882 38.2433 138.798 38.402C138.714 38.5607 138.588 38.7007 138.42 38.822C138.262 38.9433 138.07 39.0413 137.846 39.116C137.632 39.1813 137.389 39.214 137.118 39.214V40.278ZM137.706 45.248C138.509 45.248 139.195 45.1267 139.764 44.884C140.334 44.632 140.772 44.2913 141.08 43.862C141.388 43.4233 141.542 42.9193 141.542 42.35C141.542 41.8553 141.435 41.4307 141.22 41.076C141.006 40.7213 140.698 40.432 140.296 40.208C139.895 39.9747 139.424 39.8067 138.882 39.704C138.35 39.592 137.762 39.536 137.118 39.536V40.74C137.473 40.74 137.781 40.7727 138.042 40.838C138.304 40.9033 138.518 41.0013 138.686 41.132C138.864 41.2533 138.994 41.398 139.078 41.566C139.162 41.734 139.204 41.9207 139.204 42.126C139.204 42.3967 139.144 42.6253 139.022 42.812C138.901 42.9987 138.733 43.134 138.518 43.218C138.313 43.302 138.07 43.344 137.79 43.344C137.529 43.344 137.277 43.2927 137.034 43.19C136.801 43.0873 136.614 42.9287 136.474 42.714C136.334 42.4993 136.264 42.2333 136.264 41.916H133.94C133.94 42.3453 134.024 42.7607 134.192 43.162C134.37 43.5633 134.617 43.9227 134.934 44.24C135.261 44.5573 135.658 44.8047 136.124 44.982C136.591 45.1593 137.118 45.248 137.706 45.248Z" fill="#263238"/>
<path d="M103.123 102.25C95.2587 101.112 91.248 97.7362 88.652 91.7375C85.8573 84.9509 86.9413 79.3109 86.8853 79.6082C87.2813 76.7976 88.2027 74.1976 90.1013 72.0722C91.916 74.5309 92.2573 75.7109 92.6827 77.0442C90.8013 78.7816 87.104 92.9363 101.005 97.6883C117.071 103.178 127.121 81.5936 112.229 73.0576C108.928 71.1789 104.923 70.3349 101.363 71.8603C100.531 69.5336 99.6667 67.9576 98.624 66.3856C99.9573 65.7643 103.853 62.3763 113.215 66.2909C131.552 74.3123 129.072 105.583 103.123 102.25ZM87.0907 93.0442C81.0453 96.4162 74.1067 95.2469 68.5787 91.0669C59.2387 83.7922 62.2773 74.5575 61.8067 77.0762C63.4373 65.5082 78.768 59.9056 88.848 70.6269C83.5333 76.4336 84 86.1496 87.0907 93.0442ZM93.3987 80.3163C93.5907 82.3749 93.4827 84.3975 92.8773 86.3762C92.516 84.1615 92.8547 82.1549 93.3987 80.3163ZM109.705 74.0309C126.228 81.1949 114.165 103.976 98.3267 94.3202C102.992 88.3722 103.865 80.6949 101.961 73.7229C104.503 72.6362 107.111 72.9962 109.705 74.0309ZM55.7347 81.9095C56.4347 85.8602 51.628 66.1603 68.5027 58.9189C70.3507 58.1656 72.3453 57.6189 74.4267 57.3362C74.4013 57.3402 74.3747 57.3456 74.3493 57.3496C77.7853 56.9336 80.5933 57.3789 80.448 57.3523C84.7053 57.9456 88.424 59.4883 91.792 62.0216C91.7747 62.0069 91.7573 61.9922 91.74 61.9776C91.78 62.0082 91.9187 62.1162 91.948 62.1389C91.932 62.1282 91.9173 62.1162 91.9027 62.1056C104.317 71.8989 100.049 87.0683 100.704 83.3936C99.8507 89.6709 96.744 92.9736 97.12 92.5296C96.9107 92.7936 96.832 92.8829 96.6667 93.1216C95.3373 91.9656 94.2587 90.6722 93.572 88.9416C93.816 88.8722 94.072 88.7136 94.1667 88.4936C100.288 74.3536 85.0453 58.9309 70.9947 63.7789C54.2493 69.5856 57.1653 91.4695 74.7707 96.2735C79.048 97.4509 83.6533 97.1136 87.9466 94.7669C88.6906 96.1389 89.4453 97.2576 90.72 98.6082C76.292 105.171 57.916 97.8242 55.7347 81.9095ZM114.011 64.4416C105.7 60.8656 99.2373 62.9389 97.5187 64.8562C89.8 55.0762 76.264 52.4403 65.7453 57.9829C43.056 69.9629 53.6506 107.955 84.7133 102.503C87.3413 102.044 89.9773 101.146 92.2747 100.022C99.624 105.804 113.021 106.038 120.371 100.15C130.588 91.9549 129.46 71.0936 114.011 64.4416Z" fill="#734D37"/>
<path d="M46.1038 65.6989C44.3278 64.8709 42.5572 64.0522 40.7398 63.3295C39.6105 62.8975 38.7532 64.7615 40.1932 65.3082C42.0198 66.0335 43.6758 66.7495 45.0985 67.4175C45.7025 67.6935 46.2052 67.4948 46.4585 67.0588C46.7132 66.6255 46.5932 65.9282 46.1038 65.6989Z" fill="#734D37"/>
<path d="M41.7585 72.883C40.8959 72.7563 39.0759 72.3763 39.0759 72.3763C37.7985 72.3763 37.6065 74.1523 38.7812 74.467C40.5932 74.9523 42.4678 75.139 44.3385 75.1604C44.9105 75.1657 45.3905 74.6763 45.3905 74.1083C45.3905 72.7657 43.9972 73.1537 41.7585 72.883Z" fill="#734D37"/>
<path d="M44.1399 81.7721C43.6545 81.7721 40.5226 82.5361 40.0372 82.6614C38.7012 83.0054 39.1879 85.1001 40.6105 84.7347C41.8705 84.4227 43.1359 84.1308 44.4119 83.8801C44.9852 83.7668 45.3079 83.0895 45.1625 82.5521C45.0439 82.1215 44.6465 81.7721 44.1399 81.7721Z" fill="#734D37"/>
<path d="M138.94 71.3164C139.385 71.1284 139.834 70.9523 140.29 70.7803C140.932 70.5363 141.145 70.0163 141.009 69.5096C140.624 68.127 139.37 68.707 133.129 71.7604C132.624 72.0097 132.488 72.7176 132.76 73.1763C133.484 74.415 134.501 73.2204 138.94 71.3164Z" fill="#734D37"/>
<path d="M135.125 78.9097C134.452 78.9603 134.099 79.4164 134.099 79.9364C134.099 81.3764 135.407 81.0003 141.136 80.3737C141.832 80.295 142.161 79.855 142.161 79.347C142.161 77.7937 140.779 78.455 135.125 78.9097Z" fill="#734D37"/>
<path d="M134.801 86.7243C133.541 86.0217 132.587 87.8857 133.745 88.5323C135.651 89.5963 140.651 91.327 140.651 89.147C140.651 87.363 138.651 88.8697 134.801 86.7243Z" fill="#734D37"/>
</svg>
