<svg width="150" height="108" viewBox="0 0 150 108" fill="none" xmlns="http://www.w3.org/2000/svg">
<path d="M1.38242 23.1492H13.2424V20.0492H7.64242L10.9024 17.1292C11.5024 16.6092 11.9891 16.0358 12.3624 15.4092C12.7358 14.7692 12.9224 14.0692 12.9224 13.3092C12.9224 12.7758 12.8091 12.2492 12.5824 11.7292C12.3558 11.2092 12.0158 10.7358 11.5624 10.3092C11.1224 9.86917 10.5691 9.5225 9.90242 9.26917C9.23576 9.0025 8.46909 8.86917 7.60242 8.86917C6.40242 8.86917 5.38242 9.11584 4.54242 9.60917C3.71576 10.1025 3.09576 10.7625 2.68242 11.5892C2.26909 12.4158 2.06242 13.3292 2.06242 14.3292H5.38242C5.38242 13.8225 5.46242 13.3758 5.62242 12.9892C5.79576 12.6025 6.04242 12.3025 6.36242 12.0892C6.69576 11.8758 7.07576 11.7692 7.50242 11.7692C7.82242 11.7692 8.10242 11.8225 8.34242 11.9292C8.58242 12.0225 8.78242 12.1558 8.94242 12.3292C9.10242 12.4892 9.22242 12.6758 9.30242 12.8892C9.38242 13.1025 9.42242 13.3158 9.42242 13.5292C9.42242 13.9025 9.34909 14.2558 9.20242 14.5892C9.06909 14.9092 8.86242 15.2358 8.58242 15.5692C8.31576 15.9025 7.99576 16.2758 7.62242 16.6892L1.38242 23.1492ZM21.6074 16.3692C22.7141 16.3692 23.7141 16.2358 24.6074 15.9692C25.5008 15.7025 26.2074 15.3025 26.7274 14.7692C27.2608 14.2358 27.5274 13.5692 27.5274 12.7692C27.5274 12.0492 27.3341 11.3958 26.9474 10.8092C26.5741 10.2225 26.0208 9.75584 25.2874 9.40917C24.5541 9.0625 23.6608 8.88917 22.6074 8.88917C21.6208 8.88917 20.7541 9.0825 20.0074 9.46917C19.2608 9.8425 18.6808 10.3625 18.2674 11.0292C17.8674 11.6825 17.6674 12.4225 17.6674 13.2492H20.7674C20.7674 12.7558 20.9408 12.3558 21.2874 12.0492C21.6341 11.7425 22.0741 11.5892 22.6074 11.5892C22.9674 11.5892 23.2608 11.6492 23.4874 11.7692C23.7141 11.8758 23.8874 12.0358 24.0074 12.2492C24.1274 12.4625 24.1874 12.7025 24.1874 12.9692C24.1874 13.2225 24.1274 13.4625 24.0074 13.6892C23.8874 13.9158 23.7074 14.1158 23.4674 14.2892C23.2408 14.4625 22.9674 14.6025 22.6474 14.7092C22.3408 14.8025 21.9941 14.8492 21.6074 14.8492V16.3692ZM22.4474 23.4692C23.5941 23.4692 24.5741 23.2958 25.3874 22.9492C26.2008 22.5892 26.8274 22.1025 27.2674 21.4892C27.7074 20.8625 27.9274 20.1425 27.9274 19.3292C27.9274 18.6225 27.7741 18.0158 27.4674 17.5092C27.1608 17.0025 26.7208 16.5892 26.1474 16.2692C25.5741 15.9358 24.9008 15.6958 24.1274 15.5492C23.3674 15.3892 22.5274 15.3092 21.6074 15.3092V17.0292C22.1141 17.0292 22.5541 17.0758 22.9274 17.1692C23.3008 17.2625 23.6074 17.4025 23.8474 17.5892C24.1008 17.7625 24.2874 17.9692 24.4074 18.2092C24.5274 18.4492 24.5874 18.7158 24.5874 19.0092C24.5874 19.3958 24.5008 19.7225 24.3274 19.9892C24.1541 20.2558 23.9141 20.4492 23.6074 20.5692C23.3141 20.6892 22.9674 20.7492 22.5674 20.7492C22.1941 20.7492 21.8341 20.6758 21.4874 20.5292C21.1541 20.3825 20.8874 20.1558 20.6874 19.8492C20.4874 19.5425 20.3874 19.1625 20.3874 18.7092H17.0674C17.0674 19.3225 17.1874 19.9158 17.4274 20.4892C17.6808 21.0625 18.0341 21.5758 18.4874 22.0292C18.9541 22.4825 19.5208 22.8358 20.1874 23.0892C20.8541 23.3425 21.6074 23.4692 22.4474 23.4692ZM47.4854 9.14917L38.8254 26.1492H41.8454L50.3854 9.14917H47.4854ZM64.7495 16.1492C64.7495 15.4958 64.8095 14.9025 64.9295 14.3692C65.0495 13.8225 65.2228 13.3625 65.4495 12.9892C65.6761 12.6025 65.9428 12.3092 66.2495 12.1092C66.5695 11.8958 66.9228 11.7892 67.3095 11.7892C67.6961 11.7892 68.0428 11.8958 68.3495 12.1092C68.6695 12.3092 68.9428 12.6025 69.1695 12.9892C69.3961 13.3625 69.5695 13.8225 69.6895 14.3692C69.8095 14.9025 69.8695 15.4958 69.8695 16.1492C69.8695 16.8025 69.8095 17.4025 69.6895 17.9492C69.5695 18.4825 69.3961 18.9425 69.1695 19.3292C68.9428 19.7025 68.6695 19.9958 68.3495 20.2092C68.0428 20.4092 67.6961 20.5092 67.3095 20.5092C66.9228 20.5092 66.5695 20.4092 66.2495 20.2092C65.9428 19.9958 65.6761 19.7025 65.4495 19.3292C65.2228 18.9425 65.0495 18.4825 64.9295 17.9492C64.8095 17.4025 64.7495 16.8025 64.7495 16.1492ZM61.4895 16.1492C61.4895 17.6692 61.7295 18.9692 62.2095 20.0492C62.7028 21.1292 63.3895 21.9625 64.2695 22.5492C65.1495 23.1225 66.1628 23.4092 67.3095 23.4092C68.5095 23.4092 69.5428 23.1225 70.4095 22.5492C71.2761 21.9625 71.9428 21.1292 72.4095 20.0492C72.8895 18.9692 73.1295 17.6692 73.1295 16.1492C73.1295 14.6292 72.8895 13.3292 72.4095 12.2492C71.9428 11.1692 71.2761 10.3425 70.4095 9.76917C69.5428 9.1825 68.5095 8.88917 67.3095 8.88917C66.1628 8.88917 65.1495 9.1825 64.2695 9.76917C63.3895 10.3425 62.7028 11.1692 62.2095 12.2492C61.7295 13.3292 61.4895 14.6292 61.4895 16.1492ZM84.9716 14.0692C84.9716 14.5358 84.865 14.9492 84.6516 15.3092C84.4516 15.6692 84.1716 15.9492 83.8116 16.1492C83.465 16.3492 83.0716 16.4492 82.6316 16.4492C82.1783 16.4492 81.7716 16.3492 81.4116 16.1492C81.065 15.9492 80.785 15.6692 80.5716 15.3092C80.3716 14.9492 80.2716 14.5358 80.2716 14.0692C80.2716 13.5892 80.3716 13.1758 80.5716 12.8292C80.785 12.4692 81.065 12.1958 81.4116 12.0092C81.7716 11.8092 82.1783 11.7092 82.6316 11.7092C83.0716 11.7092 83.465 11.8092 83.8116 12.0092C84.1716 12.1958 84.4516 12.4692 84.6516 12.8292C84.865 13.1758 84.9716 13.5892 84.9716 14.0692ZM82.6516 23.0892L86.6916 17.9492C87.145 17.3892 87.525 16.7892 87.8316 16.1492C88.1516 15.5092 88.3116 14.8158 88.3116 14.0692C88.3116 12.9092 88.0516 11.9425 87.5316 11.1692C87.025 10.3958 86.3383 9.81584 85.4716 9.42917C84.6183 9.02917 83.6716 8.82917 82.6316 8.82917C81.5783 8.82917 80.6183 9.02917 79.7516 9.42917C78.8983 9.81584 78.2116 10.3958 77.6916 11.1692C77.185 11.9425 76.9316 12.9092 76.9316 14.0692C76.9316 14.7758 77.0583 15.4092 77.3116 15.9692C77.565 16.5292 77.8983 17.0092 78.3116 17.4092C78.725 17.7958 79.185 18.0958 79.6916 18.3092C80.2116 18.5092 80.7316 18.6092 81.2516 18.6092C81.7583 18.6092 82.1783 18.5558 82.5116 18.4492C82.8583 18.3292 83.2183 18.0892 83.5916 17.7292L82.9116 18.0292L78.3716 23.0892H82.6516ZM108.267 9.14917L99.6066 26.1492H102.627L111.167 9.14917H108.267ZM121.871 23.1492H133.731V20.0492H128.131L131.391 17.1292C131.991 16.6092 132.477 16.0358 132.851 15.4092C133.224 14.7692 133.411 14.0692 133.411 13.3092C133.411 12.7758 133.297 12.2492 133.071 11.7292C132.844 11.2092 132.504 10.7358 132.051 10.3092C131.611 9.86917 131.057 9.5225 130.391 9.26917C129.724 9.0025 128.957 8.86917 128.091 8.86917C126.891 8.86917 125.871 9.11584 125.031 9.60917C124.204 10.1025 123.584 10.7625 123.171 11.5892C122.757 12.4158 122.551 13.3292 122.551 14.3292H125.871C125.871 13.8225 125.951 13.3758 126.111 12.9892C126.284 12.6025 126.531 12.3025 126.851 12.0892C127.184 11.8758 127.564 11.7692 127.991 11.7692C128.311 11.7692 128.591 11.8225 128.831 11.9292C129.071 12.0225 129.271 12.1558 129.431 12.3292C129.591 12.4892 129.711 12.6758 129.791 12.8892C129.871 13.1025 129.911 13.3158 129.911 13.5292C129.911 13.9025 129.837 14.2558 129.691 14.5892C129.557 14.9092 129.351 15.2358 129.071 15.5692C128.804 15.9025 128.484 16.2758 128.111 16.6892L121.871 23.1492ZM142.096 16.3692C143.202 16.3692 144.202 16.2358 145.096 15.9692C145.989 15.7025 146.696 15.3025 147.216 14.7692C147.749 14.2358 148.016 13.5692 148.016 12.7692C148.016 12.0492 147.822 11.3958 147.436 10.8092C147.062 10.2225 146.509 9.75584 145.776 9.40917C145.042 9.0625 144.149 8.88917 143.096 8.88917C142.109 8.88917 141.242 9.0825 140.496 9.46917C139.749 9.8425 139.169 10.3625 138.756 11.0292C138.356 11.6825 138.156 12.4225 138.156 13.2492H141.256C141.256 12.7558 141.429 12.3558 141.776 12.0492C142.122 11.7425 142.562 11.5892 143.096 11.5892C143.456 11.5892 143.749 11.6492 143.976 11.7692C144.202 11.8758 144.376 12.0358 144.496 12.2492C144.616 12.4625 144.676 12.7025 144.676 12.9692C144.676 13.2225 144.616 13.4625 144.496 13.6892C144.376 13.9158 144.196 14.1158 143.956 14.2892C143.729 14.4625 143.456 14.6025 143.136 14.7092C142.829 14.8025 142.482 14.8492 142.096 14.8492V16.3692ZM142.936 23.4692C144.082 23.4692 145.062 23.2958 145.876 22.9492C146.689 22.5892 147.316 22.1025 147.756 21.4892C148.196 20.8625 148.416 20.1425 148.416 19.3292C148.416 18.6225 148.262 18.0158 147.956 17.5092C147.649 17.0025 147.209 16.5892 146.636 16.2692C146.062 15.9358 145.389 15.6958 144.616 15.5492C143.856 15.3892 143.016 15.3092 142.096 15.3092V17.0292C142.602 17.0292 143.042 17.0758 143.416 17.1692C143.789 17.2625 144.096 17.4025 144.336 17.5892C144.589 17.7625 144.776 17.9692 144.896 18.2092C145.016 18.4492 145.076 18.7158 145.076 19.0092C145.076 19.3958 144.989 19.7225 144.816 19.9892C144.642 20.2558 144.402 20.4492 144.096 20.5692C143.802 20.6892 143.456 20.7492 143.056 20.7492C142.682 20.7492 142.322 20.6758 141.976 20.5292C141.642 20.3825 141.376 20.1558 141.176 19.8492C140.976 19.5425 140.876 19.1625 140.876 18.7092H137.556C137.556 19.3225 137.676 19.9158 137.916 20.4892C138.169 21.0625 138.522 21.5758 138.976 22.0292C139.442 22.4825 140.009 22.8358 140.676 23.0892C141.342 23.3425 142.096 23.4692 142.936 23.4692Z" fill="#263238"/>
<path d="M92.1491 104.635C81.8086 103.139 76.5349 98.7 73.1214 90.8122C69.4466 81.8883 70.872 74.4722 70.7984 74.8632C71.3191 71.1674 72.5306 67.7486 75.0271 64.954C77.4133 68.1869 77.8621 69.7385 78.4214 71.4918C75.9476 73.7762 71.0859 92.3884 89.365 98.6369C110.49 105.855 123.705 77.4738 104.124 66.2496C99.7826 63.7793 94.516 62.6696 89.8349 64.6752C88.7408 61.6159 87.6048 59.5436 86.2337 57.4765C87.987 56.6595 93.1099 52.2046 105.419 57.352C129.531 67.8994 126.27 109.018 92.1491 104.635ZM71.0684 92.5304C63.1192 96.9643 53.9955 95.4267 46.7266 89.9304C34.4453 80.3648 38.4409 68.2219 37.822 71.5338C39.9662 56.3228 60.1247 48.9558 73.3791 63.0535C66.3907 70.6888 67.0044 83.4645 71.0684 92.5304ZM79.3629 75.7942C79.6153 78.5011 79.4733 81.1607 78.6774 83.7625C78.2022 80.8504 78.6475 78.2119 79.3629 75.7942ZM100.805 67.5294C122.531 76.9495 106.669 106.905 85.8428 94.2082C91.9773 86.3871 93.1257 76.292 90.6221 67.1244C93.9637 65.6956 97.393 66.1689 100.805 67.5294ZM29.8378 77.8892C30.7583 83.084 24.4379 57.1802 46.6267 47.6585C49.0567 46.6679 51.6795 45.949 54.4162 45.5774C54.3829 45.5826 54.3479 45.5896 54.3145 45.5949C58.8326 45.0479 62.5249 45.6335 62.3338 45.5984C67.9318 46.3786 72.8216 48.4071 77.2502 51.7382C77.2274 51.7189 77.2047 51.6996 77.1819 51.6803C77.2345 51.7207 77.4168 51.8627 77.4553 51.8925C77.4343 51.8784 77.415 51.8627 77.3958 51.8486C93.72 64.7261 88.1079 84.6725 88.9688 79.8406C87.8467 88.0948 83.7617 92.4375 84.2561 91.8537C83.9808 92.2008 83.8774 92.3183 83.66 92.6321C81.912 91.1121 80.4937 89.4114 79.5908 87.1358C79.9116 87.0446 80.2482 86.836 80.3727 86.5467C88.4218 67.9538 68.3789 47.6742 49.9035 54.0489C27.8847 61.6842 31.719 90.4598 54.8686 96.7767C60.4929 98.3248 66.5485 97.8812 72.1939 94.7956C73.1722 96.5996 74.1645 98.0706 75.8406 99.8466C56.869 108.476 32.7061 98.8157 29.8378 77.8892ZM106.466 54.9203C95.5381 50.2181 87.0402 52.9444 84.7803 55.4655C74.6309 42.6056 56.8322 39.1395 43.001 46.4277C13.1664 62.1804 27.0975 112.137 67.9423 104.968C71.3979 104.365 74.8641 103.183 77.8849 101.705C87.5487 109.309 105.165 109.616 114.829 101.873C128.264 91.098 126.781 63.6671 106.466 54.9203Z" fill="#734D37"/>
<path d="M17.1745 56.5736C14.8392 55.4849 12.5109 54.4084 10.1213 53.4582C8.63629 52.8901 7.50898 55.3411 9.40246 56.0599C11.8044 57.0137 13.9819 57.9551 15.8526 58.8335C16.6468 59.1964 17.3077 58.9352 17.6409 58.3619C17.9757 57.7921 17.8179 56.8752 17.1745 56.5736Z" fill="#734D37"/>
<path d="M11.4607 66.0202C10.3264 65.8536 7.93321 65.3539 7.93321 65.3539C6.25362 65.3539 6.00117 67.6892 7.54576 68.103C9.92839 68.7412 12.3934 68.9867 14.8532 69.0147C15.6053 69.0217 16.2365 68.3783 16.2365 67.6314C16.2365 65.8659 14.4044 66.3761 11.4607 66.0202Z" fill="#734D37"/>
<path d="M14.5918 77.7085C13.9536 77.7085 9.83529 78.7131 9.19711 78.8779C7.44039 79.3302 8.0803 82.0845 9.95099 81.6041C11.6078 81.1939 13.2716 80.81 14.9494 80.4804C15.7033 80.3314 16.1276 79.4407 15.9365 78.7342C15.7805 78.1679 15.258 77.7085 14.5918 77.7085Z" fill="#734D37"/>
<path d="M139.246 63.9598C139.832 63.7126 140.423 63.4812 141.022 63.255C141.866 62.9342 142.146 62.2504 141.967 61.5842C141.461 59.7661 139.813 60.5288 131.606 64.5437C130.941 64.8715 130.763 65.8024 131.12 66.4055C132.072 68.0343 133.41 66.4634 139.246 63.9598Z" fill="#734D37"/>
<path d="M134.23 73.9445C133.344 74.0111 132.88 74.6108 132.88 75.2945C132.88 77.188 134.6 76.6936 142.133 75.8695C143.049 75.7661 143.482 75.1876 143.482 74.5196C143.482 72.4771 141.664 73.3467 134.23 73.9445Z" fill="#734D37"/>
<path d="M133.804 84.2204C132.148 83.2964 130.892 85.7474 132.416 86.5978C134.921 87.9968 141.496 90.2725 141.496 87.406C141.496 85.0602 138.866 87.0413 133.804 84.2204Z" fill="#734D37"/>
</svg>
