<svg width="477" height="410" viewBox="0 0 477 410" fill="none" xmlns="http://www.w3.org/2000/svg">
<path d="M261.029 72.5593C261.029 73.0662 257.919 73.4786 254.088 73.4786C250.256 73.4786 247.146 73.0662 247.146 72.5593C247.146 72.0525 250.256 71.6401 254.088 71.6401C257.919 71.6401 261.029 72.0525 261.029 72.5593Z" fill="#C3A28E"/>
<path d="M300.37 72.5599C300.37 73.187 296.547 73.6939 291.83 73.6939C287.114 73.6939 283.291 73.187 283.291 72.5599C283.291 71.9328 287.114 71.4345 291.83 71.4345C296.547 71.4345 300.37 71.9413 300.37 72.5599Z" fill="#D9D9D9"/>
<path d="M339.714 72.5598C339.714 73.3072 335.17 73.9085 329.569 73.9085C323.967 73.9085 319.423 73.3072 319.423 72.5598C319.423 71.8124 323.967 71.2196 329.569 71.2196C335.17 71.2196 339.714 71.8209 339.714 72.5598Z" fill="#C3A28E"/>
<path d="M257.13 63.3072C257.594 63.7797 255.069 64.613 251.495 65.1629C247.921 65.7127 244.622 65.7728 244.193 65.3003C243.763 64.8278 246.254 63.9945 249.828 63.4447C253.402 62.8949 256.675 62.8004 257.13 63.3072Z" fill="#D9D9D9"/>
<path d="M293.806 57.6456C294.373 58.2298 291.229 59.2435 286.864 59.9222C282.5 60.6008 278.437 60.6782 277.87 60.094C277.303 59.5098 280.447 58.4875 284.811 57.8174C289.175 57.1473 293.247 57.0786 293.806 57.6456Z" fill="#D9D9D9"/>
<path d="M330.505 52.0094C331.175 52.7052 327.489 53.9165 322.266 54.7241C317.043 55.5316 312.258 55.5831 311.588 54.9216C310.918 54.2602 314.594 53.0231 319.818 52.2155C325.041 51.408 329.826 51.3221 330.505 52.0094Z" fill="#C3A28E"/>
<path d="M245.085 55.2327C245.944 55.6107 244.347 56.7447 241.512 57.81C238.677 58.8752 235.687 59.3649 234.828 58.9869C233.969 58.6089 235.567 57.4749 238.402 56.4097C241.237 55.3444 244.226 54.8633 245.085 55.2327Z" fill="#D9D9D9"/>
<path d="M274.158 44.7079C275.215 45.1632 273.247 46.5635 269.768 47.8264C266.289 49.0892 262.595 49.7421 261.538 49.2782C260.482 48.8143 262.44 47.414 265.928 46.1512C269.416 44.8883 273.101 44.244 274.158 44.7079Z" fill="#D9D9D9"/>
<path d="M303.256 34.1763C304.519 34.7261 302.182 36.3841 298.041 37.8789C293.9 39.3737 289.528 40.1555 288.265 39.5971C287.002 39.0387 289.347 37.3892 293.488 35.8858C297.629 34.3824 301.976 33.5921 303.256 34.1763Z" fill="#C3A28E"/>
<path d="M226.514 49.442C227.657 49.6654 227.202 50.954 225.492 52.32C223.782 53.6859 221.472 54.6051 220.338 54.3732C219.204 54.1412 219.65 52.8612 221.36 51.4952C223.069 50.1293 225.372 49.2101 226.514 49.442Z" fill="#D9D9D9"/>
<path d="M244.047 35.4464C245.456 35.7213 244.906 37.3106 242.793 38.9858C240.68 40.661 237.845 41.8036 236.436 41.5201C235.027 41.2366 235.577 39.6559 237.69 37.9807C239.803 36.3055 242.638 35.1629 244.047 35.4464Z" fill="#C3A28E"/>
<path d="M261.582 21.4532C263.257 21.7882 262.587 23.6696 260.096 25.6627C257.604 27.6558 254.22 28.9959 252.544 28.6695C250.869 28.343 251.539 26.4531 254.039 24.46C256.539 22.4669 259.915 21.1268 261.582 21.4532Z" fill="#D9D9D9"/>
<path d="M203.927 46.701C205.199 46.701 205.946 48.0154 205.585 49.5274C205.454 50.2316 205.096 50.8735 204.566 51.3546C204.035 51.8356 203.361 52.1293 202.647 52.1906C201.376 52.139 200.628 50.8762 200.981 49.3556C201.114 48.6516 201.474 48.0107 202.006 47.5312C202.538 47.0517 203.213 46.76 203.927 46.701Z" fill="#D9D9D9"/>
<path d="M207.555 31.1334C209.127 31.1936 210.038 32.7485 209.608 34.5698C209.179 36.391 207.546 37.903 205.983 37.8514C204.419 37.7999 203.5 36.2278 203.938 34.3636C204.377 32.4994 205.992 31.0733 207.555 31.1334Z" fill="#D9D9D9"/>
<path d="M211.189 15.5507C213.045 15.6195 214.136 17.4751 213.62 19.6915C213.105 21.9079 211.172 23.6433 209.325 23.5745C207.478 23.5058 206.378 21.6588 206.894 19.4424C207.409 17.2259 209.325 15.4992 211.189 15.5507Z" fill="#D9D9D9"/>
<path d="M214.813 0.00215527C216.97 0.0880633 218.25 2.22717 217.631 4.79582C217.013 7.36447 214.805 9.37472 212.648 9.2974C210.492 9.22009 209.212 7.07239 209.831 4.51233C210.449 1.95227 212.666 -0.0751619 214.813 0.00215527Z" fill="#C3A28E"/>
<path d="M180.405 47.389C181.633 47.2516 183.48 48.3254 184.528 49.7859C185.576 51.2463 185.43 52.5521 184.202 52.6896C182.973 52.827 181.126 51.7532 180.078 50.2927C179.03 48.8323 179.142 47.5265 180.405 47.389Z" fill="#D9D9D9"/>
<path d="M169.606 32.3545C171.118 32.1827 173.386 33.5057 174.683 35.3098C175.981 37.1138 175.792 38.7461 174.28 38.8835C172.768 39.021 170.491 37.7324 169.203 35.9283C167.914 34.1242 168.094 32.5263 169.606 32.3545Z" fill="#D9D9D9"/>
<path d="M165.537 24.5194C166.486 23.4024 165.504 21.0071 163.342 19.1694C161.18 17.3317 158.658 16.7473 157.709 17.8643C156.759 18.9813 157.742 21.3766 159.903 23.2143C162.065 25.052 164.587 25.6363 165.537 24.5194Z" fill="#C3A28E"/>
<path d="M148.07 2.28612C150.157 2.04558 153.276 3.86683 155.054 6.34098C156.832 8.81513 156.583 11.023 154.504 11.2635C152.425 11.5041 149.298 9.67421 147.52 7.20006C145.742 4.72591 145.991 2.51807 148.07 2.28612Z" fill="#D9D9D9"/>
<path d="M159.033 51.4085C160.055 51.0993 162.753 51.8381 165.046 53.058C167.34 54.2779 168.397 55.5064 167.383 55.807C166.369 56.1077 163.663 55.3775 161.369 54.1662C159.076 52.9549 158.01 51.7178 159.033 51.4085Z" fill="#D9D9D9"/>
<path d="M135.325 38.9349C136.588 38.5569 139.904 39.4675 142.747 40.9623C145.591 42.4571 146.879 43.9777 145.625 44.3471C144.371 44.7165 141.046 43.8231 138.203 42.3283C135.359 40.8335 134.07 39.3129 135.325 38.9349Z" fill="#C3A28E"/>
<path d="M111.621 26.4614C113.107 26.0147 117.051 27.0885 120.427 28.8668C123.803 30.6451 125.332 32.4492 123.863 32.8959C122.394 33.3426 118.425 32.2602 115.049 30.4905C111.673 28.7208 110.126 26.9081 111.621 26.4614Z" fill="#D9D9D9"/>
<path d="M142.796 58.2211C143.466 57.7916 146.653 58.0923 149.909 58.8912C153.165 59.6902 155.261 60.6953 154.591 61.1248C153.921 61.5544 150.734 61.2537 147.478 60.4548C144.222 59.6558 142.118 58.6507 142.796 58.2211Z" fill="#D9D9D9"/>
<path d="M109.344 49.9911C110.203 49.4585 114.095 49.8279 118.107 50.8502C122.119 51.8725 124.696 53.0666 123.871 53.5993C123.046 54.1319 119.12 53.7625 115.109 52.7402C111.097 51.7179 108.519 50.5237 109.344 49.9911Z" fill="#D9D9D9"/>
<path d="M75.8991 41.7612C76.8785 41.1341 81.5347 41.5722 86.3026 42.7405C91.0705 43.9089 94.1288 45.3779 93.1752 46.005C92.2217 46.6322 87.5311 46.2026 82.7632 45.0257C77.9953 43.8488 74.9112 42.3969 75.8991 41.7612Z" fill="#D9D9D9"/>
<path d="M133.844 66.9063C134.076 66.408 137.281 66.2276 141.086 66.5111C144.892 66.7946 147.761 67.4218 147.486 67.9544C147.212 68.487 144.007 68.6331 140.236 68.3496C136.464 68.0661 133.612 67.4046 133.844 66.9063Z" fill="#D9D9D9"/>
<path d="M111.964 65.2145C112.006 64.5849 108.276 63.8225 103.632 63.5116C98.9877 63.2007 95.1888 63.459 95.1466 64.0887C95.1045 64.7183 98.835 65.4807 103.479 65.7916C108.123 66.1025 111.922 65.8441 111.964 65.2145Z" fill="#C3A28E"/>
<path d="M56.5031 61.1597C56.8467 60.4295 61.5888 60.1718 67.0955 60.5841C72.6022 60.9965 76.786 61.9415 76.4595 62.6459C76.133 63.3504 71.3737 63.6339 65.867 63.2215C60.3603 62.8091 56.1594 61.8899 56.5031 61.1597Z" fill="#D9D9D9"/>
<path d="M133.389 76.2877C133.157 75.7894 136.018 75.1537 139.789 74.8788C143.561 74.6039 146.799 74.7757 147.031 75.274C147.263 75.7722 144.403 76.4079 140.64 76.6828C136.877 76.9578 133.63 76.7859 133.389 76.2877Z" fill="#C3A28E"/>
<path d="M94.7229 79.1224C94.4309 78.5124 97.9617 77.7306 102.601 77.4042C107.24 77.0777 111.192 77.2839 111.518 77.8939C111.844 78.5038 108.279 79.2856 103.64 79.612C99.0012 79.9385 95.015 79.7753 94.7229 79.1224Z" fill="#D9D9D9"/>
<path d="M56.0539 82.0348C55.7103 81.3046 59.894 80.3768 65.4007 79.973C70.9074 79.5692 75.6495 79.8184 75.9932 80.5486C76.3368 81.2788 72.1531 82.2066 66.6464 82.6104C61.1397 83.0142 56.3976 82.765 56.0539 82.0348Z" fill="#C3A28E"/>
<path d="M17.38 84.9038C16.9848 84.0448 21.83 82.9881 28.213 82.5156C34.5959 82.0431 40.0769 82.3438 40.4721 83.1857C40.8672 84.0276 36.022 85.1014 29.6476 85.5739C23.2733 86.0464 17.7837 85.7457 17.38 84.9038Z" fill="#D9D9D9"/>
<path d="M141.499 85.1361C140.829 84.7066 142.925 83.7015 146.189 82.9025C149.454 82.1036 152.632 81.8029 153.303 82.2324C153.973 82.662 151.876 83.6671 148.621 84.466C145.365 85.265 142.177 85.5313 141.499 85.1361Z" fill="#D9D9D9"/>
<path d="M108.054 93.3324C107.195 92.7998 109.772 91.5713 113.818 90.5834C117.865 89.5954 121.748 89.226 122.581 89.7243C123.414 90.2226 120.863 91.4854 116.816 92.4734C112.77 93.4613 108.879 93.8651 108.054 93.3324Z" fill="#D9D9D9"/>
<path d="M74.6098 101.562C73.6218 100.927 76.6888 99.4663 81.4824 98.298C86.2761 97.1296 90.9323 96.6829 91.8859 97.3186C92.8395 97.9543 89.8069 99.4062 85.0132 100.583C80.2196 101.76 75.5977 102.19 74.6098 101.562Z" fill="#C3A28E"/>
<path d="M41.1593 109.792C40.0253 109.062 43.5733 107.37 49.0886 106.012C54.6039 104.655 59.9989 104.148 61.1158 104.878C62.2326 105.608 58.7017 107.301 53.195 108.658C47.6883 110.016 42.3019 110.522 41.1593 109.792Z" fill="#D9D9D9"/>
<path d="M7.73174 118.014C6.43452 117.154 10.4722 115.264 16.7349 113.718C22.9976 112.172 29.1314 111.596 30.4286 112.421C31.7258 113.246 27.6882 115.179 21.4169 116.716C15.1456 118.254 9.00317 118.847 7.73174 118.014Z" fill="#D9D9D9"/>
<path d="M157.082 92.1548C156.06 91.8541 157.082 90.617 159.41 89.4057C161.739 88.1944 164.419 87.447 165.424 87.7563C166.429 88.0656 165.424 89.294 163.087 90.5053C160.751 91.7166 158.07 92.464 157.082 92.1548Z" fill="#D9D9D9"/>
<path d="M133.37 104.629C132.116 104.251 133.37 102.739 136.248 101.244C139.126 99.7491 142.407 98.8385 143.662 99.2165C144.916 99.5945 143.662 101.106 140.784 102.601C137.906 104.096 134.624 105.007 133.37 104.629Z" fill="#C3A28E"/>
<path d="M109.662 117.103C108.176 116.656 109.662 114.852 113.099 113.082C116.535 111.313 120.418 110.222 121.904 110.668C123.39 111.115 121.904 112.919 118.468 114.697C115.032 116.476 111.157 117.55 109.662 117.103Z" fill="#D9D9D9"/>
<path d="M85.9604 129.577C84.2422 129.062 85.9604 127 89.9121 124.921C93.8639 122.842 98.3827 121.614 100.109 122.129C101.836 122.645 100.066 124.706 96.1576 126.794C92.2488 128.882 87.6785 130.093 85.9604 129.577Z" fill="#C3A28E"/>
<path d="M62.2509 142.05C60.2922 141.466 62.3024 139.095 66.7439 136.758C71.1853 134.421 76.3742 132.995 78.3329 133.588C80.2916 134.181 78.2813 136.552 73.8399 138.889C69.3984 141.225 64.2096 142.643 62.2509 142.05Z" fill="#D9D9D9"/>
<path d="M38.5384 154.524C36.3477 153.871 38.5985 151.208 43.5726 148.596C48.5467 145.985 54.3626 144.387 56.5533 145.048C58.7439 145.71 56.5018 148.364 51.5277 150.976C46.5536 153.588 40.7376 155.185 38.5384 154.524Z" fill="#C3A28E"/>
<path d="M14.8368 166.998C12.4056 166.268 14.897 163.33 20.4037 160.435C25.9104 157.54 32.3535 155.779 34.7847 156.509C37.2159 157.239 34.716 160.177 29.2093 163.072C23.7025 165.968 17.268 167.729 14.8368 166.998Z" fill="#D9D9D9"/>
<path d="M178.019 96.5017C176.791 96.3557 176.645 95.0585 177.693 93.598C178.741 92.1376 180.588 91.0208 181.816 91.1926C183.045 91.3644 183.191 92.6359 182.143 94.0963C181.095 95.5568 179.248 96.6392 178.019 96.5017Z" fill="#D9D9D9"/>
<path d="M167.246 111.537C165.734 111.365 165.528 109.758 166.851 107.963C168.174 106.167 170.416 104.836 171.928 105.008C173.44 105.179 173.646 106.777 172.323 108.581C171 110.385 168.758 111.708 167.246 111.537Z" fill="#D9D9D9"/>
<path d="M160.945 124.052C163.101 122.208 164.077 119.809 163.124 118.695C162.171 117.581 159.651 118.173 157.494 120.017C155.338 121.861 154.362 124.259 155.315 125.374C156.268 126.488 158.789 125.896 160.945 124.052Z" fill="#D9D9D9"/>
<path d="M150.914 139.45C153.419 137.32 154.56 134.547 153.463 133.257C152.366 131.966 149.446 132.647 146.941 134.776C144.436 136.906 143.295 139.679 144.392 140.969C145.489 142.26 148.409 141.579 150.914 139.45Z" fill="#C3A28E"/>
<path d="M134.955 156.638C132.592 156.372 132.309 153.872 134.328 151.054C136.346 148.237 139.894 146.166 142.257 146.433C144.619 146.699 144.903 149.207 142.884 152.017C140.865 154.826 137.317 156.905 134.955 156.638Z" fill="#D9D9D9"/>
<path d="M124.188 171.672C121.542 171.371 121.224 168.571 123.484 165.418C125.743 162.265 129.721 159.945 132.367 160.263C135.013 160.581 135.33 163.365 133.071 166.517C130.812 169.67 126.834 171.973 124.188 171.672Z" fill="#D9D9D9"/>
<path d="M113.399 186.706C110.47 186.379 110.126 183.269 112.626 179.782C115.126 176.294 119.499 173.768 122.462 174.06C125.426 174.352 125.744 177.496 123.236 180.984C120.727 184.472 116.354 187.041 113.399 186.706Z" fill="#C3A28E"/>
<path d="M201.49 97.542C200.775 97.4826 200.099 97.1897 199.566 96.7085C199.034 96.2273 198.674 95.5844 198.543 94.8789C198.191 93.3669 198.938 92.0955 200.21 92.0525C200.924 92.1124 201.599 92.4056 202.13 92.8869C202.661 93.3682 203.018 94.0108 203.148 94.7157C203.5 96.2276 202.744 97.4991 201.49 97.542Z" fill="#D9D9D9"/>
<path d="M206.109 112.841C207.406 112.098 207.661 110.108 206.68 108.395C205.698 106.683 203.851 105.897 202.555 106.64C201.258 107.383 201.003 109.374 201.984 111.086C202.966 112.799 204.812 113.585 206.109 112.841Z" fill="#D9D9D9"/>
<path d="M208.757 128.674C206.892 128.743 204.968 126.956 204.461 124.783C203.954 122.609 205.028 120.711 206.892 120.642C208.757 120.573 210.681 122.317 211.188 124.534C211.695 126.75 210.604 128.606 208.757 128.674Z" fill="#D9D9D9"/>
<path d="M212.372 144.232C210.224 144.318 207.99 142.299 207.389 139.731C206.788 137.162 208.051 135.023 210.207 134.946C212.363 134.868 214.588 136.879 215.19 139.447C215.791 142.016 214.528 144.155 212.372 144.232Z" fill="#C3A28E"/>
<path d="M216.007 159.799C213.559 159.893 211.024 157.599 210.346 154.687C209.667 151.775 211.093 149.327 213.542 149.241C215.99 149.155 218.524 151.44 219.203 154.395C219.882 157.35 218.455 159.713 216.007 159.799Z" fill="#D9D9D9"/>
<path d="M219.632 175.34C216.891 175.443 214.056 172.875 213.292 169.61C212.527 166.346 214.151 163.597 216.874 163.511C219.597 163.425 222.458 165.976 223.214 169.241C223.97 172.505 222.372 175.263 219.632 175.34Z" fill="#C3A28E"/>
<path d="M223.266 190.932C220.234 191.044 217.09 188.2 216.248 184.584C215.406 180.967 217.175 177.943 220.208 177.831C223.241 177.719 226.385 180.563 227.235 184.18C228.086 187.796 226.299 190.803 223.266 190.932Z" fill="#D9D9D9"/>
<path d="M224.323 95.1451C223.181 95.377 220.887 94.4492 219.169 93.0919C217.45 91.7345 217.004 90.4373 218.146 90.214C219.289 89.9906 221.583 90.9098 223.301 92.2672C225.019 93.6245 225.466 94.9217 224.323 95.1451Z" fill="#D9D9D9"/>
<path d="M241.856 109.14C240.448 109.415 237.604 108.281 235.499 106.606C233.395 104.931 232.836 103.341 234.245 103.067C235.654 102.792 238.497 103.926 240.594 105.601C242.69 107.276 243.265 108.865 241.856 109.14Z" fill="#D9D9D9"/>
<path d="M259.391 123.133C257.725 123.46 254.34 122.111 251.849 120.127C249.357 118.142 248.679 116.244 250.354 115.917C252.029 115.591 255.405 116.931 257.896 118.924C260.388 120.917 261.066 122.798 259.391 123.133Z" fill="#C3A28E"/>
<path d="M276.924 137.128C274.991 137.506 271.083 135.951 268.187 133.64C265.292 131.329 264.519 129.155 266.469 128.769C268.419 128.382 272.311 129.946 275.206 132.257C278.101 134.568 278.866 136.741 276.924 137.128Z" fill="#D9D9D9"/>
<path d="M294.458 151.114C292.258 151.552 287.817 149.782 284.527 147.162C281.236 144.542 280.36 142.059 282.559 141.621C284.759 141.183 289.209 142.961 292.499 145.581C295.789 148.201 296.665 150.684 294.458 151.114Z" fill="#C3A28E"/>
<path d="M312 165.108C309.534 165.598 304.552 163.613 300.875 160.675C297.198 157.737 296.21 154.963 298.667 154.473C301.124 153.983 306.115 155.976 309.792 158.914C313.469 161.852 314.423 164.619 312 165.108Z" fill="#D9D9D9"/>
<path d="M329.533 179.103C326.801 179.644 321.295 177.445 317.214 174.189C313.134 170.933 312.06 167.866 314.774 167.316C317.489 166.766 323.022 168.983 327.094 172.23C331.166 175.478 332.257 178.562 329.533 179.103Z" fill="#C3A28E"/>
<path d="M243.437 89.6381C242.578 90.0075 239.579 89.4835 236.744 88.4612C233.91 87.4389 232.32 86.2963 233.179 85.8839C234.038 85.4716 237.037 86.0386 239.863 87.0609C242.689 88.0832 244.296 89.2601 243.437 89.6381Z" fill="#D9D9D9"/>
<path d="M272.509 100.162C271.452 100.626 267.767 99.9816 264.279 98.7188C260.791 97.4559 258.824 96.0556 259.88 95.5917C260.937 95.1278 264.631 95.7807 268.119 97.0436C271.607 98.3064 273.565 99.7411 272.509 100.162Z" fill="#D9D9D9"/>
<path d="M301.581 110.693C300.327 111.243 295.946 110.47 291.805 108.975C287.664 107.48 285.336 105.814 286.591 105.264C287.845 104.714 292.226 105.487 296.367 106.982C300.508 108.477 302.844 110.143 301.581 110.693Z" fill="#C3A28E"/>
<path d="M330.652 121.217C329.201 121.853 324.132 120.959 319.338 119.224C314.545 117.489 311.839 115.564 313.325 114.929C314.811 114.293 319.845 115.186 324.639 116.922C329.432 118.657 332.113 120.59 330.652 121.217Z" fill="#D9D9D9"/>
<path d="M359.724 131.758C358.075 132.48 352.319 131.466 346.838 129.49C341.357 127.514 338.325 125.332 339.965 124.611C341.606 123.889 347.379 124.903 352.852 126.879C358.324 128.855 361.382 131.037 359.724 131.758Z" fill="#D9D9D9"/>
<path d="M388.802 142.291C386.946 143.098 380.495 141.964 374.395 139.713C368.296 137.463 364.851 135.057 366.707 134.25C368.562 133.442 375.005 134.576 381.105 136.827C387.204 139.078 390.649 141.483 388.802 142.291Z" fill="#C3A28E"/>
<path d="M256.245 81.7521C255.789 82.2246 252.516 82.1645 248.942 81.6146C245.369 81.0648 242.843 80.2315 243.307 79.759C243.771 79.2865 247.035 79.3467 250.609 79.8965C254.183 80.4463 256.709 81.2796 256.245 81.7521Z" fill="#D9D9D9"/>
<path d="M292.945 87.3959C292.378 87.9801 288.358 87.9028 283.959 87.2241C279.561 86.5454 276.451 85.506 277.018 84.9476C277.585 84.3892 281.614 84.4407 286.012 85.1194C290.411 85.798 293.504 86.8547 292.945 87.3959Z" fill="#D9D9D9"/>
<path d="M329.622 93.0487C328.944 93.736 324.159 93.6501 318.936 92.8426C313.712 92.035 310.027 90.8237 310.706 90.1365C311.384 89.4492 316.161 89.5351 321.384 90.3341C326.607 91.133 330.293 92.3529 329.622 93.0487Z" fill="#C3A28E"/>
<path d="M366.304 98.6927C365.522 99.4916 359.981 99.3885 353.933 98.4607C347.885 97.5329 343.624 96.124 344.397 95.3165C345.17 94.509 350.711 94.6292 356.759 95.557C362.807 96.4849 367.086 97.8937 366.304 98.6927Z" fill="#D9D9D9"/>
<path opacity="0.41" d="M313.101 367.558C271.865 402.6 204.487 414.086 155.03 407.171C127.359 403.296 101.767 389.465 79.8348 372.61C78.5032 371.579 77.1802 370.531 75.8916 369.448C95.1522 358.28 141.792 350.402 196.275 350.402C247.656 350.402 292.088 357.404 313.101 367.558Z" fill="white"/>
<path d="M127.436 255.871C127.436 255.871 125.022 264.307 125.022 269.007C125.022 273.706 138.312 279.376 144.068 281.18C149.824 282.984 152.384 282.992 152.384 282.992L155.391 272.383C155.391 272.383 151.903 261.301 152.625 251.894C153.346 242.487 159.248 234.54 159.128 229.961C159.008 225.382 157.805 225.623 154.309 228.037C150.812 230.451 150.09 229.755 143.467 235.769C136.843 241.782 128.399 251.292 127.436 255.871Z" fill="#C7C7C7" stroke="#263238" stroke-width="0.848008" stroke-linecap="round" stroke-linejoin="round"/>
<path d="M145.872 376.365C145.872 376.365 141.413 380.343 140.331 381.906C139.249 383.47 140.331 385.763 140.572 386.124C140.812 386.485 142.857 387.336 146.353 387.095C149.85 386.854 153.947 382.8 154.669 381.786C155.391 380.772 155.15 383.719 155.15 383.719C155.15 383.719 157.203 383.599 158.045 382.757L158.904 381.898C158.904 381.898 158.784 378.41 158.664 375.635C158.562 373.843 158.274 372.067 157.805 370.334C157.805 370.334 147.195 376.271 145.872 376.365Z" fill="#263238"/>
<path d="M229.728 373.213C229.728 373.213 232.133 380.807 234.788 383.092C237.442 385.377 242.743 386.348 244.186 385.627C245.629 384.905 246.239 383.092 245.389 380.567C244.538 378.041 242.622 376.469 241.05 375.137C239.923 374.136 238.878 373.048 237.923 371.881L229.728 373.213Z" fill="#263238"/>
<path d="M152.265 275.638C152.265 275.638 146.475 287.209 146.836 288.524C147.197 289.838 148.889 292.501 149.009 292.982C149.13 293.464 144.551 305.396 143.099 312.028C141.647 318.66 141.535 335.163 141.535 335.163C141.535 335.163 138.159 340.223 138.28 341.916C138.4 343.608 141.415 355.893 142.016 359.389C142.618 362.886 144.551 375.3 144.551 376.502C144.551 377.705 144.551 379.638 145.633 379.157C146.716 378.676 151.415 378.298 154.31 376.382C157.205 374.466 159.61 369.87 159.731 369.509C159.851 369.149 158.013 356.975 157.806 353.118C157.6 349.261 157.205 345.051 157.205 345.051C157.872 343.562 158.278 341.97 158.408 340.344C158.52 338.743 158.274 337.138 157.686 335.644C157.446 335.163 161.423 323.617 163.829 318.411C166.234 313.205 169.619 309.735 171.303 309.013C172.986 308.291 176.122 308.291 177.694 308.412C179.266 308.532 193.45 322.827 195.133 325.593C196.817 328.359 218.878 367.052 219.841 368.745C220.803 370.437 221.413 372.722 222.134 373.203C222.856 373.684 228.036 375.128 231.412 375.248C233.476 375.318 235.543 375.215 237.589 374.939C237.589 374.939 240.69 368.504 240.57 364.888C240.45 361.271 238.766 359.587 234.789 354.158C230.811 348.728 219.325 332.827 216.705 328.007C214.085 323.188 197.487 293.292 197.487 293.292C197.487 293.292 188.536 283.704 187.574 279.607C186.611 275.509 186.371 273.945 186.371 273.945C186.371 273.945 176.242 276.48 168.382 276.711C162.989 276.791 157.6 276.431 152.265 275.638Z" fill="white" stroke="#263238" stroke-width="0.848008" stroke-linecap="round" stroke-linejoin="round"/>
<path d="M168.775 284.443C168.775 284.443 171.661 287.459 171.541 287.94C171.421 288.421 166.842 290.594 168.654 291.557C170.054 292.368 171.384 293.293 172.632 294.323" stroke="#263238" stroke-width="0.848008" stroke-linecap="round" stroke-linejoin="round"/>
<path d="M178.561 290.131C179.326 289.967 180.081 289.754 180.82 289.495" stroke="#263238" stroke-width="0.848008" stroke-linecap="round" stroke-linejoin="round"/>
<path d="M157.925 289.254C157.925 289.254 167.495 291.582 175.914 290.577" stroke="#263238" stroke-width="0.848008" stroke-linecap="round" stroke-linejoin="round"/>
<path d="M167.582 305.311C166.079 305.079 164.919 304.924 164.919 304.924" stroke="#263238" stroke-width="0.848008" stroke-linecap="round" stroke-linejoin="round"/>
<path d="M177.694 308.42C175.964 307.394 174.095 306.622 172.145 306.126C171.561 305.997 170.899 305.869 170.212 305.748" stroke="#263238" stroke-width="0.848008" stroke-linecap="round" stroke-linejoin="round"/>
<path d="M141.533 335.172L144.308 330.112" stroke="#263238" stroke-width="0.848008" stroke-linecap="round" stroke-linejoin="round"/>
<path d="M157.203 345.06L156.842 339.871" stroke="#263238" stroke-width="0.848008" stroke-linecap="round" stroke-linejoin="round"/>
<path d="M145.186 341.744C145.179 340.829 145.291 339.916 145.521 339.03" stroke="#263238" stroke-width="0.848008" stroke-linecap="round" stroke-linejoin="round"/>
<path d="M145.511 374.947C145.511 374.947 145.872 363.857 145.632 354.579C145.529 350.446 145.348 347.414 145.245 345.129" stroke="#263238" stroke-width="0.848008" stroke-linecap="round" stroke-linejoin="round"/>
<path d="M209.392 337.613C208.834 336.659 208.327 335.748 207.889 334.889" stroke="#263238" stroke-width="0.848008" stroke-linecap="round" stroke-linejoin="round"/>
<path d="M234.866 371.288C229.771 365.197 217.4 350.412 210.588 339.562" stroke="#263238" stroke-width="0.848008" stroke-linecap="round" stroke-linejoin="round"/>
<path d="M237.588 374.948L236.024 373.101" stroke="#263238" stroke-width="0.848008" stroke-linecap="round" stroke-linejoin="round"/>
<path d="M155.029 280.458C158.832 281.982 162.868 282.839 166.962 282.992C172.872 282.992 176.73 282.133 177.09 281.66C177.451 281.188 175.999 278.173 171.18 274.436C166.361 270.699 164.556 270.217 161.782 272.262C159.171 274.378 156.676 276.632 154.308 279.014L155.029 280.458Z" fill="#C3A28E" stroke="#263238" stroke-width="0.848008" stroke-linecap="round" stroke-linejoin="round"/>
<path d="M147.195 233.698C147.678 238.18 147.801 242.693 147.565 247.194C147.075 253.105 148.046 263.225 148.767 268.766C149.489 274.307 155.03 280.458 155.03 280.458L165.399 273.345L176.112 282.631C178.36 281.228 180.497 279.655 182.504 277.924C185.519 275.278 186.12 274.436 186.361 273.955C186.601 273.474 184.789 267.323 184.548 258.491C184.308 249.66 183.947 245.356 186.481 238.243C189.015 231.13 186.842 230.889 184.668 228.243C182.495 225.597 171.894 222.934 166.628 222.573C161.362 222.212 158.312 219.807 154.334 223.535C150.357 227.264 147.436 231.284 147.195 233.698Z" fill="white" stroke="#263238" stroke-width="0.848008" stroke-linecap="round" stroke-linejoin="round"/>
<path d="M153.108 224.901C153.108 224.901 153.469 226.103 153.108 233.577C152.747 241.051 150.092 245.785 149.482 246.592C148.875 247.312 148.186 247.957 147.429 248.517C147.429 248.517 147.558 242.735 147.678 240.785C147.613 238.124 147.409 235.469 147.068 232.83C147.068 232.83 150.934 225.742 153.108 224.901Z" fill="#C3A28E" stroke="#263238" stroke-width="0.848008" stroke-linecap="round" stroke-linejoin="round"/>
<path d="M235.578 274.702L238.241 274.797C238.241 274.797 239.1 272.443 239.959 272.34C241.287 272.229 242.587 271.901 243.808 271.369C245.15 270.507 246.333 269.42 247.305 268.156C247.473 267.994 247.69 267.89 247.922 267.86C248.155 267.831 248.39 267.877 248.595 267.991C248.799 268.106 248.961 268.283 249.056 268.497C249.152 268.711 249.176 268.95 249.126 269.178C248.9 270.509 248.252 271.731 247.279 272.666C246.776 273.098 246.337 273.598 245.973 274.152L250.32 275.209L257.691 277.348C257.884 277.402 258.048 277.53 258.149 277.703C258.25 277.876 258.28 278.081 258.232 278.276C258.183 278.47 258.061 278.638 257.892 278.746C257.722 278.853 257.518 278.891 257.321 278.851L249.994 277.339L249.83 278.439L258.232 281.016C258.426 281.076 258.589 281.209 258.685 281.388C258.781 281.566 258.804 281.775 258.748 281.97C258.693 282.162 258.566 282.326 258.392 282.426C258.219 282.525 258.013 282.553 257.82 282.503L248.877 280.269L248.516 281.308L255.956 283.937C256.049 283.969 256.135 284.02 256.207 284.087C256.279 284.154 256.337 284.236 256.376 284.327C256.415 284.417 256.434 284.515 256.433 284.614C256.431 284.712 256.409 284.81 256.368 284.899C256.299 285.06 256.174 285.191 256.015 285.265C255.857 285.339 255.677 285.353 255.509 285.303L247.734 283.319L250.629 285.578C250.717 285.646 250.787 285.735 250.833 285.836C250.88 285.937 250.902 286.047 250.896 286.158C250.891 286.269 250.86 286.378 250.804 286.474C250.749 286.57 250.671 286.652 250.578 286.712C250.483 286.774 250.376 286.812 250.264 286.824C250.152 286.836 250.039 286.821 249.933 286.781C248.043 286.025 240.183 282.829 239.35 281.944C238.516 281.059 237.777 280.226 237.777 280.226L234.058 279.547L235.578 274.702Z" fill="white" stroke="#263238" stroke-width="0.848008" stroke-linecap="round" stroke-linejoin="round"/>
<path d="M245.937 274.134C245.937 274.134 244.614 276.917 243.608 277.502C242.603 278.086 240.859 277.132 240.859 277.132" stroke="#263238" stroke-width="0.848008" stroke-linecap="round" stroke-linejoin="round"/>
<path d="M247.002 283.808C247.002 283.808 249.983 277.949 249.777 276.248" stroke="#263238" stroke-width="0.848008" stroke-linecap="round" stroke-linejoin="round"/>
<path d="M230.544 279.761L234.753 280.672L237.142 272.777L233.164 271.849L230.544 279.761Z" fill="#C3A28E" stroke="#263238" stroke-width="0.848008" stroke-linecap="round" stroke-linejoin="round"/>
<path d="M180.219 231.524C180.219 231.524 181.31 259.015 182.994 267.803C184.677 276.592 191.43 289.375 193.603 291.428C195.777 293.481 203.964 299.16 203.964 299.16C203.964 299.16 196.971 289.392 194.325 282.528C191.679 275.664 189.016 269.264 188.895 265.286C188.775 261.309 190.227 251.91 190.227 251.91C190.227 251.91 199.531 271.429 200.613 272.528C201.696 273.628 230.475 282.09 230.475 282.09L234.616 270.973C234.616 270.973 209.17 260.836 208.843 260.716C208.517 260.596 197.856 234.334 197.125 232.289C196.395 230.244 196.524 227.461 195.201 226.739C193.383 226.02 191.48 225.535 189.54 225.296C188.569 225.176 180.854 224.334 180.854 224.334L180.219 231.524Z" fill="white" stroke="#263238" stroke-width="0.848008" stroke-linecap="round" stroke-linejoin="round"/>
<path d="M192.538 240.346L193.036 237.898" stroke="#263238" stroke-width="0.848008" stroke-linecap="round" stroke-linejoin="round"/>
<path d="M190.228 251.892L191.963 243.241" stroke="#263238" stroke-width="0.848008" stroke-linecap="round" stroke-linejoin="round"/>
<path d="M114.706 162.222L114.491 159.447C114.491 159.447 116.905 158.459 116.974 157.608C117.033 156.218 117.323 154.848 117.833 153.554C118.681 152.13 119.761 150.858 121.029 149.791C121.191 149.61 121.291 149.381 121.313 149.139C121.335 148.897 121.278 148.654 121.15 148.447C121.023 148.24 120.831 148.08 120.605 147.991C120.378 147.901 120.129 147.888 119.895 147.952C118.522 148.236 117.277 148.957 116.347 150.006C115.916 150.547 115.413 151.027 114.852 151.432L113.563 146.99L111.046 139.413C110.981 139.215 110.841 139.051 110.657 138.955C110.472 138.858 110.258 138.838 110.058 138.898C109.857 138.952 109.685 139.083 109.579 139.263C109.473 139.443 109.441 139.657 109.491 139.86L111.364 147.411L110.23 147.626L107.223 139.035C107.19 138.935 107.138 138.843 107.069 138.763C107 138.684 106.916 138.619 106.821 138.573C106.727 138.526 106.624 138.499 106.519 138.493C106.414 138.487 106.309 138.502 106.21 138.537C106.012 138.602 105.847 138.742 105.751 138.926C105.655 139.111 105.634 139.325 105.694 139.525L108.383 148.717L107.318 149.146L104.277 141.518C104.24 141.422 104.183 141.336 104.111 141.264C104.038 141.192 103.951 141.135 103.856 141.099C103.76 141.063 103.658 141.047 103.556 141.052C103.454 141.058 103.354 141.085 103.263 141.131C103.108 141.206 102.984 141.333 102.915 141.491C102.846 141.648 102.835 141.826 102.885 141.99L105.256 149.988L102.799 146.99C102.724 146.901 102.628 146.832 102.52 146.788C102.412 146.744 102.296 146.726 102.18 146.736C102.064 146.746 101.952 146.784 101.853 146.846C101.755 146.908 101.673 146.993 101.613 147.093C101.561 147.196 101.533 147.309 101.533 147.424C101.533 147.539 101.561 147.652 101.613 147.755C102.473 149.696 106.115 157.737 107.069 158.562C108.022 159.387 108.916 160.126 108.916 160.126L109.775 163.957L114.706 162.222Z" fill="white" stroke="#263238" stroke-width="0.848008" stroke-linecap="round" stroke-linejoin="round"/>
<path d="M114.844 151.432C114.844 151.432 112.009 152.918 111.407 154.009C110.806 155.1 111.897 156.852 111.897 156.852" stroke="#263238" stroke-width="0.848008" stroke-linecap="round" stroke-linejoin="round"/>
<path d="M104.809 150.719C104.809 150.719 110.771 147.378 112.54 147.524" stroke="#263238" stroke-width="0.848008" stroke-linecap="round" stroke-linejoin="round"/>
<path d="M109.525 167.712L108.442 163.545L116.243 160.839L117.325 164.782L109.525 167.712Z" fill="#C3A28E" stroke="#263238" stroke-width="0.848008" stroke-linecap="round" stroke-linejoin="round"/>
<path d="M158.288 217.435C158.288 217.435 153.133 216.713 150.332 214.54C147.532 212.366 144.431 210.442 143.829 210.562C143.228 210.683 140.573 210.683 140.573 210.683L127.077 197.187L117.146 163.227L107.146 166.603C107.146 166.603 114.878 204.051 116.107 207.788C117.335 211.525 135.994 233.216 135.994 233.216C135.994 233.216 131.055 243.938 129.362 248.637C128.455 250.969 127.809 253.395 127.438 255.87C127.438 255.87 139.371 241.412 147.686 237.83C156.002 234.247 159.851 227.95 160.341 225.175C160.83 222.401 162.385 217.22 162.385 217.22L158.288 217.435Z" fill="white" stroke="#263238" stroke-width="0.848008" stroke-linecap="round" stroke-linejoin="round"/>
<path d="M143.028 217.804C143.664 215.923 143.948 214.772 143.948 214.772" stroke="#263238" stroke-width="0.848008" stroke-linecap="round" stroke-linejoin="round"/>
<path d="M135.994 233.216C135.994 233.216 139.611 226.223 141.415 222.005C141.587 221.605 141.75 221.209 141.905 220.82" stroke="#263238" stroke-width="0.848008" stroke-linecap="round" stroke-linejoin="round"/>
<path d="M187.28 205.099C188.281 204.559 189.156 203.812 189.847 202.909C190.539 202.006 191.031 200.966 191.292 199.859C192.074 196.182 189.17 195.289 188.715 193.725C188.26 192.162 190.39 188.485 187.719 185.478C185.047 182.471 172.324 180.787 166.86 183.356C161.396 185.925 156.938 189.37 156.491 194.619C156.044 199.868 159.721 205.211 158.939 206.105C158.158 206.998 153.699 206.663 152.926 209.67C152.153 212.676 155.933 218.372 159.498 218.931C161.525 219.272 163.593 219.31 165.632 219.042C166.931 218.807 168.129 218.184 169.068 217.255C170.958 215.537 173.192 214.678 173.527 211.903C173.862 209.128 173.415 208.226 176.104 205.769C178.793 203.312 180.786 196.964 183.346 198.295C185.906 199.627 185.751 205.546 187.28 205.099Z" fill="#263238" stroke="#263238" stroke-width="0.848008" stroke-linecap="round" stroke-linejoin="round"/>
<path d="M160.581 217.066C159.48 217.532 158.356 217.942 157.214 218.294C156.853 218.294 153.477 218.054 151.913 217.212C150.35 216.37 149.379 215.768 149.499 217.091C149.62 218.414 152.996 222.151 154.319 223.595C155.642 225.038 158.537 229.385 161.312 232.4C163.777 235.318 166.072 238.375 168.184 241.558C168.184 241.558 180.718 233.483 182.17 232.4C183.622 231.318 189.404 228.302 191.087 227.452C192.771 226.601 193.012 225.888 192.17 225.407C191.328 224.926 191.311 225.648 188.433 224.325C185.555 223.002 181.689 221.189 180.237 219.986C178.838 218.964 177.345 218.075 175.779 217.332C175.779 217.332 166.483 215.253 160.581 217.066Z" fill="#C3A28E" stroke="#263238" stroke-width="0.848008" stroke-linecap="round" stroke-linejoin="round"/>
<path d="M184.077 194.618C184.077 194.618 186.757 196.851 186.981 199.3C187.204 201.748 186.869 203.535 187.316 205.099C187.762 206.662 190.657 209.334 190.099 210.116C189.541 210.897 186.534 211.568 186.534 211.568C186.534 211.568 186.199 219.823 185.305 220.27C184.412 220.717 177.831 219.153 177.831 219.153L175.718 228.741C175.048 231.756 168.691 241.232 168.691 241.232C168.691 241.232 164.894 226.292 165.005 222.942C165.117 219.591 165.229 218.036 165.229 218.036C166.526 217.441 167.671 216.56 168.579 215.459C169.527 214.169 170.175 212.684 170.478 211.112C170.478 211.112 166.01 209.995 166.01 209.102V208.243C166.831 208.327 167.66 208.242 168.447 207.992C169.233 207.742 169.959 207.334 170.581 206.791C172.368 205.004 169.919 201.817 171.586 201.774C174.567 201.688 181.448 199.351 177.831 196.422C176.629 195.443 175.254 196.98 175.83 194.704C176.405 192.427 181.964 192.049 184.077 194.618Z" fill="white" stroke="#263238" stroke-width="0.848008" stroke-linecap="round" stroke-linejoin="round"/>
<path d="M184.857 204.6C184.857 205.305 184.582 205.881 184.247 205.881C183.912 205.881 183.629 205.305 183.629 204.6C183.629 203.896 183.904 203.312 184.247 203.312C184.591 203.312 184.857 203.887 184.857 204.6Z" fill="#263238"/>
<path d="M181.182 211.791C182.255 212.747 183.562 213.402 184.97 213.69" stroke="#263238" stroke-width="0.848008" stroke-linecap="round" stroke-linejoin="round"/>
<path d="M182.847 201.422C183.078 201.298 183.332 201.222 183.594 201.198C183.855 201.174 184.119 201.203 184.369 201.284C184.619 201.364 184.85 201.493 185.049 201.665C185.248 201.836 185.411 202.046 185.527 202.281" stroke="#263238" stroke-width="0.848008" stroke-linecap="round" stroke-linejoin="round"/>
<path d="M170.477 211.121C170.477 211.121 171.696 214.471 173.148 215.579" stroke="#263238" stroke-width="0.848008" stroke-linecap="round" stroke-linejoin="round"/>
<path d="M177.831 219.153L175.718 218.818L176.491 224.282L177.831 219.153Z" fill="#263238" stroke="#263238" stroke-width="0.848008" stroke-linecap="round" stroke-linejoin="round"/>
<path d="M216.611 215.717C216.611 215.717 213.888 220.45 212.599 222.89C211.311 225.33 213.029 229.342 218.759 229.763C224.489 230.184 226.791 225.751 226.791 224.454C226.791 223.157 226.07 222.59 223.776 221.877C221.482 221.164 221.482 221.877 219.334 219.583C217.187 217.289 217.754 214.248 216.611 215.717Z" fill="#263238" stroke="#263238" stroke-width="0.848008" stroke-linecap="round" stroke-linejoin="round"/>
<path d="M245.698 145.571C246.291 143.32 246.676 141.02 246.849 138.698C246.987 135.546 246.42 133.252 246.987 133.398C247.392 133.466 247.759 133.676 248.022 133.991C248.286 134.306 248.427 134.705 248.422 135.116C248.568 136.405 249.143 140.133 248.851 141.989" fill="white"/>
<path d="M245.698 145.571C246.291 143.32 246.676 141.02 246.849 138.698C246.987 135.546 246.42 133.252 246.987 133.398C247.392 133.466 247.759 133.676 248.022 133.991C248.286 134.306 248.427 134.705 248.422 135.116C248.568 136.405 249.143 140.133 248.851 141.989" stroke="#263238" stroke-width="0.848008" stroke-linecap="round" stroke-linejoin="round"/>
<path d="M220.787 200.337C220.787 200.337 218.063 205.491 217.917 206.789C217.771 208.086 218.493 209.22 218.063 210.517C217.634 211.814 214.765 212.948 214.911 213.807C215.057 214.666 216.912 216.677 216.912 216.677C216.912 216.677 216.912 223.549 218.347 223.987C219.782 224.426 224.086 223.987 224.086 223.987C224.086 223.987 225.658 226.565 225.082 227.716C224.507 228.867 222.934 229.726 221.646 230.439C219.918 231.215 218.145 231.886 216.337 232.449C219.695 239.013 225.441 244.04 232.393 246.495C243.862 250.37 250.03 246.641 250.03 246.641C250.03 246.641 250.03 242.63 250.313 242.054C250.597 241.478 257.487 223.558 258.775 219.83C260.064 216.101 260.923 209.082 260.923 205.784C260.923 202.485 257.341 183.276 256.336 179.152C255.33 175.028 251.748 162.529 250.322 159.943C248.896 157.357 247.315 154.213 248.028 153.491C248.741 152.77 250.038 150.622 251.903 149.763C253.767 148.904 255.915 145.751 256.198 144.033C256.482 142.315 255.915 142.023 254.909 143.603C253.904 145.184 252.908 146.61 252.049 146.043C251.19 145.476 250.331 144.608 250.751 142.315C251.172 140.021 252.616 138.878 253.045 136.722C253.475 134.566 252.908 133.286 252.186 134.428C251.465 135.571 248.458 139.445 247.315 142.315C246.173 145.184 243.157 151.198 243.303 153.354C243.449 155.51 246.74 170.269 246.74 170.269C246.74 170.269 248.32 184.745 248.604 189.332C248.887 193.92 250.614 204.1 250.614 204.1L248.604 214.993C248.604 214.993 242.874 225.749 242.436 226.161C241.997 226.573 238.14 226.59 238.14 226.59C238.14 226.59 236.706 223.867 235.992 222.003C235.588 220.716 235.507 219.349 235.755 218.023C236.004 216.697 236.575 215.453 237.419 214.4C239.429 211.823 241.293 208.67 239.429 203.937C237.565 199.203 231.405 198.206 228.536 198.206C225.666 198.206 221.912 199.186 220.787 200.337Z" fill="white" stroke="#263238" stroke-width="0.848008" stroke-linecap="round" stroke-linejoin="round"/>
<path d="M249.993 145.14C249.993 145.14 250.569 143.139 250.706 142.28C250.844 141.421 253 140.982 254.297 139.41C255.594 137.838 256.153 136.257 255.156 137.117C254.16 137.976 250.861 139.84 249.847 140.553C248.833 141.266 247.416 144.573 247.416 144.573" fill="white"/>
<path d="M249.993 145.14C249.993 145.14 250.569 143.139 250.706 142.28C250.844 141.421 253 140.982 254.297 139.41C255.594 137.838 256.153 136.257 255.156 137.117C254.16 137.976 250.861 139.84 249.847 140.553C248.833 141.266 247.416 144.573 247.416 144.573" stroke="#263238" stroke-width="0.848008" stroke-linecap="round" stroke-linejoin="round"/>
<path d="M250.295 242.056C250.295 242.056 248.293 234.454 248.86 231.017L250.295 242.056Z" fill="white"/>
<path d="M250.295 242.056C250.295 242.056 248.293 234.454 248.86 231.017" stroke="#263238" stroke-width="0.848008" stroke-linecap="round" stroke-linejoin="round"/>
<path d="M241.98 231.18C241.98 231.18 237.685 233.757 235.675 234.616" stroke="#263238" stroke-width="0.848008" stroke-linecap="round" stroke-linejoin="round"/>
<path d="M225.21 226.43C225.43 228.043 225.525 229.672 225.493 231.301" stroke="#263238" stroke-width="0.848008" stroke-linecap="round" stroke-linejoin="round"/>
<path d="M218.759 217.109C218.759 217.109 221.482 216.826 222.487 215.966" stroke="#263238" stroke-width="0.848008" stroke-linecap="round" stroke-linejoin="round"/>
<path d="M222.445 210.339C222.445 211.138 222.101 211.791 221.68 211.791C221.259 211.791 220.907 211.138 220.907 210.339C220.907 209.54 221.259 208.879 221.68 208.879C222.101 208.879 222.445 209.532 222.445 210.339Z" fill="#263238"/>
<path d="M220.047 207.503C220.047 207.503 221.894 205.665 223.526 207.297" stroke="#263238" stroke-width="0.848008" stroke-linecap="round" stroke-linejoin="round"/>
<path d="M223.363 199.189C224.102 199.506 224.765 199.976 225.308 200.569C225.852 201.161 226.263 201.862 226.516 202.625C227.521 205.348 226.233 207.925 228.673 210.795C231.112 213.664 233.26 217.1 233.398 219.386C233.535 221.671 230.966 223.406 231.533 225.983C232.1 228.561 238.277 232.856 243.148 232.143C248.019 231.43 250.605 228.131 252.177 224.119C253.749 220.107 254.9 218.673 251.894 214.085C248.887 209.498 245.588 207.35 245.442 203.621C245.296 199.893 245.588 198.888 241.567 194.172C237.547 189.455 230.399 190.16 227.822 191.019C225.681 191.906 223.66 193.061 221.809 194.455C221.809 194.455 214.781 192.015 212.487 195.744C210.194 199.472 211.628 203.914 214.498 204.773C217.367 205.632 218.939 204.919 218.939 204.919C218.939 204.919 222.204 199.764 223.363 199.189Z" fill="#263238" stroke="#263238" stroke-width="0.848008" stroke-linecap="round" stroke-linejoin="round"/>
<path d="M197.135 344.759C198.258 346.51 200.011 347.762 202.032 348.256C205.425 349.115 209.162 348.84 211.963 350.592C214.763 352.345 218.612 356.898 221.533 357.018C224.454 357.139 228.543 356.159 230.639 357.37C232.735 358.582 236.481 361.219 239.865 361.107C243.25 360.996 243.955 358.771 246.523 357.834C249.092 356.898 252.245 357.602 255.045 356.202C257.846 354.802 258.782 351.993 260.2 350.824C261.394 349.892 262.641 349.032 263.937 348.247L261.832 340.661C261.832 340.661 259.616 341.941 252.262 343.814C244.908 345.687 241.953 347.783 229.926 344.983C217.899 342.182 214.394 341.598 209.377 339.493C204.36 337.388 198.045 334.124 198.045 334.124L197.135 344.759Z" fill="#C3A28E" stroke="#263238" stroke-width="0.848008" stroke-linecap="round" stroke-linejoin="round"/>
<path d="M190.829 339.501C190.829 339.501 187.436 350.712 185.924 356.434C184.412 362.155 181.955 370.446 181.629 371.614C181.302 372.782 179.412 376.631 177.771 380.136C176.13 383.641 175.555 386.674 177.892 386.442C180.228 386.21 182.092 383.864 183.613 379.672C184.548 377.155 185.289 374.57 185.829 371.94C186.182 370.42 189.214 364.209 192.951 360.257C196.688 356.305 202.401 344.965 202.401 344.965L190.829 339.501Z" fill="white" stroke="#263238" stroke-width="0.848008" stroke-linecap="round" stroke-linejoin="round"/>
<path d="M186.121 371.03L182.126 369.81C181.869 370.669 181.671 371.348 181.594 371.614C181.594 371.691 181.542 371.777 181.508 371.872L185.451 373.504C185.588 372.92 185.692 372.422 185.795 371.966C185.881 371.647 185.99 371.334 186.121 371.03Z" fill="#263238" stroke="#263238" stroke-width="0.848008" stroke-linecap="round" stroke-linejoin="round"/>
<path d="M181.757 383.548C182.164 382.902 182.522 382.227 182.831 381.529L177.745 380.137C177.513 380.644 177.298 381.142 177.109 381.615L181.757 383.548Z" fill="#263238" stroke="#263238" stroke-width="0.848008" stroke-linecap="round" stroke-linejoin="round"/>
<path d="M255.75 343.591C255.75 343.591 244.307 369.363 243.371 371.262C242.435 373.161 241.971 375.351 242.203 376.167C242.435 376.984 245.235 381.537 246.636 382.473C248.036 383.409 251.197 385.153 250.373 385.506C249.548 385.858 245.587 385.858 244.187 385.626C242.869 385.361 241.677 384.663 240.802 383.641C239.998 382.864 239.094 382.197 238.113 381.657L238.002 385.153L236.017 385.042C236.017 385.042 234.849 380.368 234.961 378.504C235.072 376.64 234.961 375.695 236.481 374.209C238.002 372.722 239.058 366.855 239.514 363.9C239.969 360.944 242.435 346.615 242.435 346.615C242.435 346.615 250.261 341.366 255.75 343.591Z" fill="white" stroke="#263238" stroke-width="0.848008" stroke-linecap="round" stroke-linejoin="round"/>
<path d="M236.018 385.042L238.002 385.154L238.114 381.657C239.094 382.197 239.998 382.864 240.803 383.642C241.678 384.663 242.869 385.362 244.188 385.626C245.588 385.858 249.557 385.858 250.373 385.506C251.189 385.154 248.045 383.41 246.636 382.473C246.25 382.182 245.903 381.841 245.605 381.46C244.443 382.02 243.374 382.756 242.435 383.642C242.435 383.642 239.171 381.657 239.403 380.841C239.635 380.025 241.035 376.752 241.035 376.752C241.035 376.752 241.679 376.752 242.401 376.623C242.321 376.478 242.255 376.325 242.203 376.168C242.141 375.813 242.141 375.449 242.203 375.094C240.262 375.151 238.326 374.842 236.499 374.183C234.978 375.695 235.099 376.632 234.978 378.479C234.858 380.326 236.018 385.042 236.018 385.042Z" fill="#263238" stroke="#263238" stroke-width="0.848008" stroke-linecap="round" stroke-linejoin="round"/>
<path d="M212.308 270.294C212.308 270.294 207.884 280.449 202.987 291.411C198.09 302.372 196.724 320.765 195.745 324.288C194.765 327.81 189.68 340.73 189.68 340.73C189.68 340.73 196.14 343.471 198.88 345.026C201.621 346.581 202.205 347.182 205.925 346.787C209.645 346.392 214.344 346.985 215.907 349.141C216.706 350.391 217.859 351.375 219.219 351.967C220.58 352.559 222.085 352.733 223.545 352.465C227.256 351.881 230.589 352.268 232.135 353.642C233.682 355.017 238.201 356.383 240.159 354.227C242.118 352.07 241.139 350.12 244.455 349.931C247.771 349.742 248.75 350.318 250.717 348.368C252.685 346.418 254.635 345.034 256.009 345.034C257.384 345.034 261.482 344.648 262.659 342.689L263.835 340.73C263.835 340.73 253.269 305.302 249.351 294.933C245.434 284.564 243.87 278.688 244.068 277.906C244.266 277.124 242.53 272.88 242.53 272.88L212.308 270.294Z" fill="#C3A28E" stroke="#263238" stroke-width="0.848008" stroke-linecap="round" stroke-linejoin="round"/>
<path d="M249.135 255.527C248.771 257.173 248.194 258.764 247.417 260.26C246.266 262.271 243.981 262.984 243.543 266.136C243.105 269.289 243.826 271.291 242.538 272.88C241.249 274.47 229.78 275.741 222.899 273.877C216.018 272.013 213.011 271.729 212.289 270.294C211.568 268.86 209.137 248.938 209.566 244.35C209.996 239.763 209.137 238.045 210.571 236.318C211.054 235.633 211.699 235.078 212.448 234.703C213.198 234.328 214.029 234.145 214.867 234.17C216.439 234.17 218.733 241.481 227.194 244.78C235.656 248.079 241.953 250.372 243.818 250.226C245.682 250.08 249.866 252.374 249.135 255.527Z" fill="#C3A28E" stroke="#263238" stroke-width="0.848008" stroke-linecap="round" stroke-linejoin="round"/>
<path d="M220.477 231.017C220.477 231.017 231.645 242.34 239.549 244.35C242.986 245.306 246.474 246.072 249.995 246.644L254.153 255.235C254.153 255.235 254.299 255.664 252.435 255.948C251.029 256.142 249.668 256.581 248.415 257.245C247.272 257.812 246.55 258.534 245.554 258.241C244.557 257.949 242.538 256.523 240.245 256.815C237.951 257.107 234.944 259.247 232.221 257.812C229.498 256.377 230.357 255.381 227.633 254.376C224.91 253.37 222.187 254.092 221.62 251.936C221.053 249.779 221.62 247.494 218.604 245.484C217.547 244.876 216.631 244.051 215.916 243.064C215.201 242.076 214.703 240.948 214.455 239.754C213.879 237.744 214.309 236.739 213.158 235.313C212.432 234.426 211.496 233.735 210.435 233.302L220.477 231.017Z" fill="#C3A28E" stroke="#263238" stroke-width="0.848008" stroke-linecap="round" stroke-linejoin="round"/>
<path d="M212.598 311.865C212.66 313.07 212.803 314.27 213.027 315.456C213.327 316.44 213.709 317.397 214.17 318.317C214.17 318.317 213.165 319.605 212.306 318.463C211.701 317.575 211.218 316.61 210.871 315.594L212.598 311.865Z" stroke="#263238" stroke-width="0.848008" stroke-linecap="round" stroke-linejoin="round"/>
<path d="M212.023 233.165C212.023 233.165 208.149 233.311 206.869 241.051C205.589 248.792 206.869 260.406 207.152 266.283C207.436 272.159 208.45 292.914 208.733 295.955C208.955 299.202 208.955 302.459 208.733 305.706C208.587 306.419 203.287 311.006 203.14 312.295C202.994 313.584 202.573 317.75 203.57 317.321C204.567 316.891 204.721 314.743 204.721 314.743L205.726 313.025C205.726 313.025 205.434 317.613 205.434 318.326C205.434 319.039 207.298 320.336 207.298 320.336C207.298 320.336 206.585 321.908 207.444 321.771C208.042 321.567 208.586 321.228 209.033 320.781C209.479 320.335 209.818 319.791 210.022 319.193C210.597 317.767 211.74 315.903 212.178 313.609C212.616 311.316 212.745 306.866 213.037 303.3C213.329 299.735 214.755 286.119 215.039 281.368C215.322 276.617 215.468 267.752 215.614 264.453C215.76 261.154 215.468 256.137 215.468 256.137C215.468 256.137 218.046 248.405 218.046 243.809C218.046 239.213 217.35 232.589 212.023 233.165Z" fill="white" stroke="#263238" stroke-width="0.848008" stroke-linecap="round" stroke-linejoin="round"/>
<path d="M215.459 256.102L214.892 247.22" stroke="#263238" stroke-width="0.848008" stroke-linecap="round" stroke-linejoin="round"/>
<path d="M207.289 320.327C207.289 320.327 209.162 316.891 209.265 314.124" stroke="#263238" stroke-width="0.848008" stroke-linecap="round" stroke-linejoin="round"/>
<path d="M206.575 319.348C206.575 319.348 207.168 315.207 207.271 312.613" stroke="#263238" stroke-width="0.848008" stroke-linecap="round" stroke-linejoin="round"/>
<path d="M215.224 35.8862H212.553C208.064 33.4335 203.061 32.0738 197.948 31.9172C203.919 32.0349 209.801 33.3862 215.224 35.8862Z" fill="#C3A28E" stroke="#263238" stroke-width="0.848008" stroke-linecap="round" stroke-linejoin="round"/>
<path d="M196.008 31.9172C190.895 32.0725 185.891 33.4323 181.403 35.8862H178.688C184.125 33.3804 190.022 32.029 196.008 31.9172Z" fill="#C3A28E" stroke="#263238" stroke-width="0.848008" stroke-linecap="round" stroke-linejoin="round"/>
<path d="M196.11 31.9173C191.87 32.1199 187.769 33.4938 184.263 35.8862H181.394C185.882 33.4324 190.885 32.0726 195.998 31.9173H196.11Z" fill="#C3A28E" stroke="#263238" stroke-width="0.848008" stroke-linecap="round" stroke-linejoin="round"/>
<path d="M181.393 35.8858C178.505 37.4485 175.841 39.3932 173.472 41.6675H169.443C172.271 39.3618 175.376 37.4195 178.687 35.8858H181.393Z" fill="#C3A28E" stroke="#263238" stroke-width="0.848008" stroke-linecap="round" stroke-linejoin="round"/>
<path d="M224.493 41.6675H220.464C218.098 39.3934 215.437 37.4487 212.552 35.8858H215.223C218.543 37.4176 221.657 39.36 224.493 41.6675Z" fill="#C3A28E" stroke="#263238" stroke-width="0.848008" stroke-linecap="round" stroke-linejoin="round"/>
<path d="M231.213 48.4625H226.204C224.538 46.0002 222.614 43.7222 220.466 41.6671H224.495C226.974 43.6821 229.226 45.9606 231.213 48.4625Z" fill="#C3A28E" stroke="#263238" stroke-width="0.848008" stroke-linecap="round" stroke-linejoin="round"/>
<path d="M173.473 41.6671C171.322 43.7199 169.398 45.9981 167.734 48.4624H162.734C164.716 45.9587 166.965 43.6799 169.444 41.6671H173.473Z" fill="#C3A28E" stroke="#263238" stroke-width="0.848008" stroke-linecap="round" stroke-linejoin="round"/>
<path d="M167.736 48.4623C165.806 51.3344 164.207 54.4151 162.968 57.6459H157.144C158.62 54.365 160.499 51.2802 162.736 48.4623H167.736Z" fill="white" stroke="#263238" stroke-width="0.848008" stroke-linecap="round" stroke-linejoin="round"/>
<path d="M196.006 119.2C188.551 119.045 181.261 116.974 174.838 113.186H178.077C183.344 116.886 189.573 118.975 196.006 119.2Z" fill="#C3A28E" stroke="#263238" stroke-width="0.848008" stroke-linecap="round" stroke-linejoin="round"/>
<path d="M219.064 113.195C212.645 116.984 205.358 119.055 197.905 119.209C204.341 118.984 210.573 116.895 215.843 113.195H219.064Z" fill="#C3A28E" stroke="#263238" stroke-width="0.848008" stroke-linecap="round" stroke-linejoin="round"/>
<path d="M226.796 107.413C224.441 109.621 221.848 111.56 219.064 113.194H215.843C218.249 111.521 220.459 109.581 222.432 107.413H226.796Z" fill="#C3A28E" stroke="#263238" stroke-width="0.848008" stroke-linecap="round" stroke-linejoin="round"/>
<path d="M178.079 113.194H174.84C172.056 111.56 169.463 109.621 167.108 107.413H171.473C173.446 109.586 175.663 111.526 178.079 113.194Z" fill="#C3A28E" stroke="#263238" stroke-width="0.848008" stroke-linecap="round" stroke-linejoin="round"/>
<path d="M171.488 107.413H167.124C164.923 105.357 162.942 103.077 161.214 100.609H166.446C167.894 103.041 169.583 105.321 171.488 107.413Z" fill="#C3A28E" stroke="#263238" stroke-width="0.848008" stroke-linecap="round" stroke-linejoin="round"/>
<path d="M232.722 100.6C230.994 103.067 229.013 105.347 226.812 107.404H222.499C224.399 105.307 226.088 103.028 227.542 100.6H232.722Z" fill="#C3A28E" stroke="#263238" stroke-width="0.848008" stroke-linecap="round" stroke-linejoin="round"/>
<path d="M237.646 91.4339C236.384 94.6781 234.731 97.7563 232.723 100.6H227.5C229.233 97.7054 230.642 94.6286 231.701 91.4253L237.646 91.4339Z" fill="#263238" stroke="#263238" stroke-width="0.848008" stroke-linecap="round" stroke-linejoin="round"/>
<path d="M166.446 100.6H161.214C159.207 97.7519 157.551 94.6712 156.283 91.4253H162.237C163.295 94.6302 164.707 97.7075 166.446 100.6Z" fill="#C3A28E" stroke="#263238" stroke-width="0.848008" stroke-linecap="round" stroke-linejoin="round"/>
<path d="M162.236 91.4339H156.282C154.866 87.7875 153.944 83.9679 153.542 80.0769H159.899C160.229 83.9412 161.013 87.7532 162.236 91.4339Z" fill="#C3A28E" stroke="#263238" stroke-width="0.848008" stroke-linecap="round" stroke-linejoin="round"/>
<path d="M240.395 80.0769C239.998 83.9697 239.073 87.7904 237.646 91.4339H231.701C232.93 87.7546 233.718 83.9421 234.046 80.0769H240.395Z" fill="#C3A28E" stroke="#263238" stroke-width="0.848008" stroke-linecap="round" stroke-linejoin="round"/>
<path d="M240.627 75.5576C240.627 77.0669 240.55 78.5752 240.395 80.0764H234.046C234.175 78.5902 234.244 77.0868 234.244 75.5576C234.246 73.0881 234.068 70.6217 233.711 68.1781H239.999C240.422 70.6151 240.632 73.0843 240.627 75.5576Z" fill="white" stroke="#263238" stroke-width="0.848008" stroke-linecap="round" stroke-linejoin="round"/>
<path d="M159.701 75.5577C159.701 77.0868 159.761 78.5902 159.899 80.0764H153.542C153.386 78.5752 153.309 77.0669 153.31 75.5577C153.304 73.0843 153.514 70.6151 153.937 68.1782H160.234C159.877 70.6217 159.699 73.0881 159.701 75.5577Z" fill="#263238" stroke="#263238" stroke-width="0.848008" stroke-linecap="round" stroke-linejoin="round"/>
<path d="M240.001 68.1788H233.712C233.198 64.5771 232.281 61.0443 230.98 57.6465H236.796C238.311 61.0056 239.388 64.5453 240.001 68.1788Z" fill="white" stroke="#263238" stroke-width="0.848008" stroke-linecap="round" stroke-linejoin="round"/>
<path d="M162.965 57.6465C161.661 61.043 160.744 64.5763 160.234 68.1788H153.937C154.545 64.5444 155.622 61.0041 157.141 57.6465H162.965Z" fill="#263238" stroke="#263238" stroke-width="0.848008" stroke-linecap="round" stroke-linejoin="round"/>
<path d="M236.796 57.6459H230.98C229.742 54.4131 228.139 51.332 226.203 48.4623H231.212C233.443 51.2827 235.318 54.3671 236.796 57.6459Z" fill="#C3A28E" stroke="#263238" stroke-width="0.848008" stroke-linecap="round" stroke-linejoin="round"/>
<path d="M230.98 57.6459H224.682C223.69 54.4629 222.384 51.3866 220.782 48.4623H226.194C228.134 51.3316 229.739 54.4127 230.98 57.6459Z" fill="white" stroke="#263238" stroke-width="0.848008" stroke-linecap="round" stroke-linejoin="round"/>
<path d="M169.238 57.6465C168.164 61.0793 167.416 64.6057 167.004 68.1789H160.209C160.728 64.5753 161.653 61.042 162.967 57.6465H169.238Z" fill="#C3A28E" stroke="#263238" stroke-width="0.848008" stroke-linecap="round" stroke-linejoin="round"/>
<path d="M173.157 48.4623C171.547 51.3842 170.234 54.4609 169.24 57.6459H162.969C164.207 54.4151 165.807 51.3344 167.737 48.4623H173.157Z" fill="white" stroke="#263238" stroke-width="0.848008" stroke-linecap="round" stroke-linejoin="round"/>
<path d="M226.202 48.4625H220.781C219.455 46.0462 217.889 43.7696 216.107 41.6671H220.454C222.606 43.7218 224.533 45.9998 226.202 48.4625Z" fill="#C3A28E" stroke="#263238" stroke-width="0.848008" stroke-linecap="round" stroke-linejoin="round"/>
<path d="M184.262 35.8858C181.86 37.507 179.695 39.4526 177.827 41.6675H173.472C175.84 39.3932 178.504 37.4485 181.392 35.8858H184.262Z" fill="#C3A28E" stroke="#263238" stroke-width="0.848008" stroke-linecap="round" stroke-linejoin="round"/>
<path d="M212.553 35.8862H209.666C206.164 33.4928 202.066 32.1188 197.828 31.9173H197.931C203.049 32.0712 208.059 33.431 212.553 35.8862Z" fill="#C3A28E" stroke="#263238" stroke-width="0.848008" stroke-linecap="round" stroke-linejoin="round"/>
<path d="M233.711 68.1788H226.915C226.495 64.607 225.748 61.0814 224.682 57.6465H230.979C232.28 61.0443 233.196 64.5771 233.711 68.1788Z" fill="#C3A28E" stroke="#263238" stroke-width="0.848008" stroke-linecap="round" stroke-linejoin="round"/>
<path d="M234.244 75.5577C234.244 77.0868 234.175 78.5902 234.046 80.0764H227.174C227.277 78.5902 227.337 77.0868 227.337 75.5577C227.339 73.0915 227.195 70.6274 226.907 68.1782H233.703C234.063 70.6215 234.243 73.0879 234.244 75.5577Z" fill="white" stroke="#263238" stroke-width="0.848008" stroke-linecap="round" stroke-linejoin="round"/>
<path d="M168.672 91.4339H162.237C161.015 87.7532 160.23 83.9412 159.9 80.0769H166.773C167.03 83.9158 167.666 87.72 168.672 91.4339Z" fill="white" stroke="#263238" stroke-width="0.848008" stroke-linecap="round" stroke-linejoin="round"/>
<path d="M231.701 91.4339C230.641 94.6342 229.233 97.7081 227.5 100.6H221.848C223.283 97.6583 224.433 94.5861 225.284 91.4253L231.701 91.4339Z" fill="#C3A28E" stroke="#263238" stroke-width="0.848008" stroke-linecap="round" stroke-linejoin="round"/>
<path d="M176.204 107.413H171.488C169.583 105.321 167.893 103.041 166.445 100.609H172.089C173.247 103 174.625 105.278 176.204 107.413Z" fill="#C3A28E" stroke="#263238" stroke-width="0.848008" stroke-linecap="round" stroke-linejoin="round"/>
<path d="M222.499 107.413C220.527 109.581 218.317 111.521 215.91 113.194H212.362C214.369 111.478 216.173 109.538 217.74 107.413H222.499Z" fill="#C3A28E" stroke="#263238" stroke-width="0.848008" stroke-linecap="round" stroke-linejoin="round"/>
<path d="M215.869 113.195C210.599 116.895 204.367 118.984 197.931 119.209H197.828C203.211 118.894 208.332 116.775 212.364 113.195H215.869Z" fill="#C3A28E" stroke="#263238" stroke-width="0.848008" stroke-linecap="round" stroke-linejoin="round"/>
<path d="M196.11 119.2H196.007C189.574 118.975 183.345 116.886 178.078 113.186H181.575C185.605 116.769 190.726 118.888 196.11 119.2Z" fill="#C3A28E" stroke="#263238" stroke-width="0.848008" stroke-linecap="round" stroke-linejoin="round"/>
<path d="M175.921 57.6465C175.097 61.1116 174.523 64.6314 174.203 68.1789H167.013C167.422 64.6059 168.167 61.0796 169.238 57.6465H175.921Z" fill="#263238" stroke="#263238" stroke-width="0.848008" stroke-linecap="round" stroke-linejoin="round"/>
<path d="M178.876 48.4623C177.641 51.4373 176.652 54.5088 175.921 57.6459H169.237C170.223 54.4619 171.527 51.3852 173.129 48.4623H178.876Z" fill="#263238" stroke="#263238" stroke-width="0.848008" stroke-linecap="round" stroke-linejoin="round"/>
<path d="M220.782 48.4625H215.061C214.082 46.0964 212.895 43.8223 211.513 41.6671H216.109C217.891 43.7696 219.456 46.0462 220.782 48.4625Z" fill="#263238" stroke="#263238" stroke-width="0.848008" stroke-linecap="round" stroke-linejoin="round"/>
<path d="M187.321 35.8858C185.427 37.5772 183.776 39.5229 182.416 41.6675H177.828C179.696 39.4526 181.861 37.507 184.263 35.8858H187.321Z" fill="#C3A28E" stroke="#263238" stroke-width="0.848008" stroke-linecap="round" stroke-linejoin="round"/>
<path d="M196.341 31.9172C192.97 32.1717 189.787 33.5723 187.321 35.8862H184.263C187.769 33.4937 191.87 32.1199 196.109 31.9172H196.341Z" fill="#C3A28E" stroke="#263238" stroke-width="0.848008" stroke-linecap="round" stroke-linejoin="round"/>
<path d="M209.666 35.8862H206.616C204.148 33.5705 200.962 32.1698 197.587 31.9172H197.819C202.059 32.1172 206.161 33.4913 209.666 35.8862Z" fill="#C3A28E" stroke="#263238" stroke-width="0.848008" stroke-linecap="round" stroke-linejoin="round"/>
<path d="M226.917 68.1789H219.718C219.399 64.6314 218.824 61.1116 218 57.6465H224.658C225.733 61.0806 226.489 64.6062 226.917 68.1789Z" fill="#263238" stroke="#263238" stroke-width="0.848008" stroke-linecap="round" stroke-linejoin="round"/>
<path d="M227.346 75.5576C227.346 77.0868 227.286 78.5902 227.183 80.0764H219.924C220.001 78.5902 220.035 77.0868 220.035 75.5576C220.035 73.0405 219.932 70.5664 219.709 68.1781H226.908C227.199 70.6272 227.345 73.0913 227.346 75.5576Z" fill="#C3A28E" stroke="#263238" stroke-width="0.848008" stroke-linecap="round" stroke-linejoin="round"/>
<path d="M175.468 91.4339H168.673C167.665 87.7203 167.026 83.9161 166.766 80.0769H174.016C174.222 83.893 174.707 87.6889 175.468 91.4339Z" fill="#263238" stroke="#263238" stroke-width="0.848008" stroke-linecap="round" stroke-linejoin="round"/>
<path d="M225.276 91.4344C224.425 94.5951 223.275 97.6674 221.84 100.609H215.869C216.957 97.6198 217.818 94.5529 218.446 91.4344H225.276Z" fill="#C3A28E" stroke="#263238" stroke-width="0.848008" stroke-linecap="round" stroke-linejoin="round"/>
<path d="M181.196 107.413H176.205C174.625 105.278 173.248 103 172.09 100.609H178.103C178.955 102.954 179.989 105.229 181.196 107.413Z" fill="#C3A28E" stroke="#263238" stroke-width="0.848008" stroke-linecap="round" stroke-linejoin="round"/>
<path d="M217.74 107.413C216.173 109.538 214.369 111.478 212.362 113.194H208.668C210.233 111.421 211.602 109.482 212.749 107.413H217.74Z" fill="#263238" stroke="#263238" stroke-width="0.848008" stroke-linecap="round" stroke-linejoin="round"/>
<path d="M212.363 113.195C208.331 116.775 203.211 118.894 197.827 119.209H197.587C201.625 119.002 205.396 116.838 208.66 113.195H212.363Z" fill="#C3A28E" stroke="#263238" stroke-width="0.848008" stroke-linecap="round" stroke-linejoin="round"/>
<path d="M196.343 119.2H196.111C190.727 118.888 185.606 116.769 181.575 113.186H185.269C188.534 116.829 192.305 118.993 196.343 119.2Z" fill="#C3A28E" stroke="#263238" stroke-width="0.848008" stroke-linecap="round" stroke-linejoin="round"/>
<path d="M183.593 57.6465C183.095 60.954 182.734 64.5191 182.519 68.1788H174.221C174.54 64.6314 175.114 61.1116 175.939 57.6465H183.593Z" fill="#C3A28E" stroke="#263238" stroke-width="0.848008" stroke-linecap="round" stroke-linejoin="round"/>
<path d="M185.473 48.4623C184.678 51.4866 184.049 54.5525 183.592 57.6459H175.92C176.651 54.5088 177.64 51.4373 178.875 48.4623H185.473Z" fill="#C3A28E" stroke="#263238" stroke-width="0.848008" stroke-linecap="round" stroke-linejoin="round"/>
<path d="M215.071 48.4624H208.473C207.857 46.15 207.091 43.8801 206.18 41.6671H211.489C212.883 43.821 214.082 46.0951 215.071 48.4624Z" fill="#C3A28E" stroke="#263238" stroke-width="0.848008" stroke-linecap="round" stroke-linejoin="round"/>
<path d="M190.834 35.8858C189.576 37.6853 188.532 39.6256 187.724 41.6675H182.415C183.775 39.5229 185.426 37.5772 187.32 35.8858H190.834Z" fill="#C3A28E" stroke="#263238" stroke-width="0.848008" stroke-linecap="round" stroke-linejoin="round"/>
<path d="M196.97 31.874C194.779 31.874 192.674 33.3001 190.836 35.8602H187.322C189.788 33.5463 192.971 32.1457 196.343 31.8912H196.97V31.874Z" fill="#C3A28E" stroke="#263238" stroke-width="0.848008" stroke-linecap="round" stroke-linejoin="round"/>
<path d="M206.615 35.8857H203.093C201.229 33.3085 199.158 31.8996 196.968 31.8996H197.586C200.963 32.1569 204.15 33.5638 206.615 35.8857Z" fill="#C3A28E" stroke="#263238" stroke-width="0.848008" stroke-linecap="round" stroke-linejoin="round"/>
<path d="M219.717 68.1789H211.427C211.221 64.4848 210.852 60.954 210.345 57.6465H218.025C218.841 61.1122 219.406 64.6321 219.717 68.1789Z" fill="#263238" stroke="#263238" stroke-width="0.848008" stroke-linecap="round" stroke-linejoin="round"/>
<path d="M220.043 75.5577C220.043 77.0868 220.043 78.5902 219.932 80.0764H211.556C211.607 78.5902 211.633 77.0868 211.633 75.5577C211.633 73.0406 211.556 70.5664 211.427 68.1782H219.717C219.923 70.5321 220.043 73.0406 220.043 75.5577Z" fill="#C3A28E" stroke="#263238" stroke-width="0.848008" stroke-linecap="round" stroke-linejoin="round"/>
<path d="M183.301 91.4339H175.466C174.705 87.6889 174.22 83.893 174.015 80.0769H182.382C182.528 84.0458 182.837 87.8515 183.301 91.4339Z" fill="white" stroke="#263238" stroke-width="0.848008" stroke-linecap="round" stroke-linejoin="round"/>
<path d="M218.471 91.4344C217.843 94.5529 216.982 97.6198 215.894 100.609H209.021C209.735 97.5827 210.285 94.52 210.671 91.4344H218.471Z" fill="#C3A28E" stroke="#263238" stroke-width="0.848008" stroke-linecap="round" stroke-linejoin="round"/>
<path d="M186.944 107.413H181.196C179.978 105.23 178.932 102.956 178.069 100.609H184.942C185.482 102.913 186.15 105.184 186.944 107.413Z" fill="white" stroke="#263238" stroke-width="0.848008" stroke-linecap="round" stroke-linejoin="round"/>
<path d="M212.749 107.413C211.602 109.482 210.234 111.421 208.668 113.194H204.373C205.399 111.346 206.262 109.412 206.95 107.413H212.749Z" fill="#C3A28E" stroke="#263238" stroke-width="0.848008" stroke-linecap="round" stroke-linejoin="round"/>
<path d="M208.668 113.195C205.404 116.829 201.633 118.994 197.595 119.209H196.968C199.674 119.209 202.217 117.009 204.399 113.195H208.668Z" fill="#C3A28E" stroke="#263238" stroke-width="0.848008" stroke-linecap="round" stroke-linejoin="round"/>
<path d="M196.968 119.217H196.341C192.303 119.01 188.532 116.846 185.268 113.203H189.563C191.719 117.017 194.262 119.217 196.968 119.217Z" fill="#C3A28E" stroke="#263238" stroke-width="0.848008" stroke-linecap="round" stroke-linejoin="round"/>
<path d="M192.021 57.6465C191.832 60.954 191.703 64.5192 191.617 68.1789H182.52C182.726 64.4848 183.095 60.954 183.593 57.6465H192.021Z" fill="white" stroke="#263238" stroke-width="0.848008" stroke-linecap="round" stroke-linejoin="round"/>
<path d="M192.71 48.4623C192.435 51.2629 192.203 54.347 192.022 57.6459H183.595C184.053 54.5525 184.681 51.4866 185.476 48.4623H192.71Z" fill="#C3A28E" stroke="#263238" stroke-width="0.848008" stroke-linecap="round" stroke-linejoin="round"/>
<path d="M208.471 48.4625H201.229C200.98 45.9625 200.705 43.6774 200.37 41.6671H206.178C207.089 43.8801 207.855 46.15 208.471 48.4625Z" fill="#C3A28E" stroke="#263238" stroke-width="0.848008" stroke-linecap="round" stroke-linejoin="round"/>
<path d="M194.7 35.8858C194.211 37.7904 193.826 39.7206 193.549 41.6675H187.725C188.532 39.6256 189.576 37.6853 190.834 35.8858H194.7Z" fill="white" stroke="#263238" stroke-width="0.848008" stroke-linecap="round" stroke-linejoin="round"/>
<path d="M196.97 31.874C196.154 31.874 195.389 33.3001 194.702 35.8602H190.836C192.7 33.3259 194.779 31.874 196.97 31.874Z" fill="#C3A28E" stroke="#263238" stroke-width="0.848008" stroke-linecap="round" stroke-linejoin="round"/>
<path d="M203.093 35.8847H199.244C198.548 33.3075 197.775 31.8986 196.968 31.8986C199.158 31.8728 201.229 33.3247 203.093 35.8847Z" fill="#C3A28E" stroke="#263238" stroke-width="0.848008" stroke-linecap="round" stroke-linejoin="round"/>
<path d="M211.427 68.1789H202.33C202.244 64.4848 202.115 60.954 201.926 57.6465H210.345C210.852 60.954 211.221 64.5192 211.427 68.1789Z" fill="white" stroke="#263238" stroke-width="0.848008" stroke-linecap="round" stroke-linejoin="round"/>
<path d="M211.634 75.5576C211.634 77.0868 211.634 78.5902 211.557 80.0764H202.382C202.382 78.5902 202.382 77.0868 202.382 75.5576C202.382 73.0405 202.382 70.5664 202.305 68.1781H211.402C211.557 70.532 211.634 73.0405 211.634 75.5576Z" fill="#C3A28E" stroke="#263238" stroke-width="0.848008" stroke-linecap="round" stroke-linejoin="round"/>
<path d="M191.907 91.4339H183.317C182.853 87.8515 182.544 84.0458 182.397 80.0769H191.572C191.624 84.0458 191.744 87.8515 191.907 91.4339Z" fill="#263238" stroke="#263238" stroke-width="0.848008" stroke-linecap="round" stroke-linejoin="round"/>
<path d="M210.628 91.4339C210.242 94.5166 209.692 97.5765 208.979 100.6H201.419C201.668 97.7739 201.874 94.6984 202.037 91.4253L210.628 91.4339Z" fill="#C3A28E" stroke="#263238" stroke-width="0.848008" stroke-linecap="round" stroke-linejoin="round"/>
<path d="M193.292 107.412H186.978C186.178 105.181 185.504 102.906 184.959 100.6H192.527C192.734 103.074 192.991 105.359 193.292 107.412Z" fill="#C3A28E" stroke="#263238" stroke-width="0.848008" stroke-linecap="round" stroke-linejoin="round"/>
<path d="M207.038 107.413C206.349 109.412 205.487 111.346 204.461 113.194H199.787C200.131 111.554 200.457 109.612 200.749 107.413H207.038Z" fill="#C3A28E" stroke="#263238" stroke-width="0.848008" stroke-linecap="round" stroke-linejoin="round"/>
<path d="M204.399 113.195C202.217 117.018 199.674 119.209 196.968 119.209C197.981 119.209 198.918 117.009 199.725 113.195H204.399Z" fill="#C3A28E" stroke="#263238" stroke-width="0.848008" stroke-linecap="round" stroke-linejoin="round"/>
<path d="M196.968 119.217C194.262 119.217 191.719 117.017 189.537 113.203H194.219C195.009 117.017 195.963 119.217 196.968 119.217Z" fill="#C3A28E" stroke="#263238" stroke-width="0.848008" stroke-linecap="round" stroke-linejoin="round"/>
<path d="M199.243 35.8857H194.698C195.386 33.3085 196.15 31.8996 196.966 31.8996C197.782 31.8996 198.547 33.3256 199.243 35.8857Z" fill="#C3A28E" stroke="#263238" stroke-width="0.848008" stroke-linecap="round" stroke-linejoin="round"/>
<path d="M202.329 68.1789H191.616C191.702 64.4848 191.831 60.954 192.02 57.6465H201.925C202.114 60.954 202.243 64.5192 202.329 68.1789Z" fill="white" stroke="#263238" stroke-width="0.848008" stroke-linecap="round" stroke-linejoin="round"/>
<path d="M201.925 57.6459H192.02C192.2 54.347 192.432 51.2629 192.707 48.4623H201.229C201.504 51.2629 201.744 54.347 201.925 57.6459Z" fill="#C3A28E" stroke="#263238" stroke-width="0.848008" stroke-linecap="round" stroke-linejoin="round"/>
<path d="M201.229 48.4625H192.707C192.965 45.9625 193.24 43.6774 193.566 41.6671H200.439C200.705 43.6774 201.023 45.9625 201.229 48.4625Z" fill="white" stroke="#263238" stroke-width="0.848008" stroke-linecap="round" stroke-linejoin="round"/>
<path d="M200.396 41.6675H193.523C193.801 39.7206 194.185 37.7904 194.675 35.8858H199.219C199.713 37.7909 200.106 39.7208 200.396 41.6675Z" fill="#263238" stroke="#263238" stroke-width="0.848008" stroke-linecap="round" stroke-linejoin="round"/>
<path d="M202.407 75.5577C202.407 77.0868 202.407 78.5902 202.407 80.0764H191.574C191.574 78.5902 191.574 77.0868 191.574 75.5577C191.574 73.0406 191.574 70.5664 191.652 68.1782H202.364C202.381 70.5321 202.407 73.0406 202.407 75.5577Z" fill="white" stroke="#263238" stroke-width="0.848008" stroke-linecap="round" stroke-linejoin="round"/>
<path d="M202.38 80.0769C202.32 84.0458 202.2 87.8086 202.037 91.4339H191.908C191.745 87.8515 191.625 84.0458 191.564 80.0769H202.38Z" fill="#C3A28E" stroke="#263238" stroke-width="0.848008" stroke-linecap="round" stroke-linejoin="round"/>
<path d="M202.038 91.4344C201.875 94.7075 201.668 97.783 201.419 100.609H192.528C192.279 97.783 192.072 94.7075 191.909 91.4344H202.038Z" fill="#263238" stroke="#263238" stroke-width="0.848008" stroke-linecap="round" stroke-linejoin="round"/>
<path d="M201.418 100.6C201.203 103.065 200.954 105.35 200.687 107.403H193.291C193.024 105.35 192.767 103.065 192.561 100.6H201.418Z" fill="#C3A28E" stroke="#263238" stroke-width="0.848008" stroke-linecap="round" stroke-linejoin="round"/>
<path d="M200.69 107.413C200.398 109.612 200.071 111.554 199.728 113.194H194.221C193.877 111.554 193.551 109.612 193.259 107.413H200.69Z" fill="#C3A28E" stroke="#263238" stroke-width="0.848008" stroke-linecap="round" stroke-linejoin="round"/>
<path d="M199.726 113.195C198.919 117.018 198.008 119.209 196.969 119.209C195.929 119.209 195.027 117.009 194.22 113.195H199.726Z" fill="#C3A28E" stroke="#263238" stroke-width="0.848008" stroke-linecap="round" stroke-linejoin="round"/>
<path d="M220.466 41.6675H216.119C214.249 39.4481 212.077 37.502 209.667 35.8858H212.554C215.439 37.4487 218.1 39.3934 220.466 41.6675Z" fill="#C3A28E" stroke="#263238" stroke-width="0.848008" stroke-linecap="round" stroke-linejoin="round"/>
<path d="M216.118 41.6675H211.522C210.161 39.5229 208.511 37.5772 206.616 35.8858H209.666C212.076 37.502 214.248 39.4481 216.118 41.6675Z" fill="#C3A28E" stroke="#263238" stroke-width="0.848008" stroke-linecap="round" stroke-linejoin="round"/>
<path d="M211.522 41.6675H206.178C205.371 39.6236 204.324 37.6829 203.06 35.8858H206.582C208.488 37.5749 210.151 39.5207 211.522 41.6675Z" fill="white" stroke="#263238" stroke-width="0.848008" stroke-linecap="round" stroke-linejoin="round"/>
<path d="M206.178 41.6675H200.362C200.081 39.7213 199.697 37.7914 199.211 35.8858H203.06C204.324 37.6829 205.371 39.6236 206.178 41.6675Z" fill="#C3A28E" stroke="#263238" stroke-width="0.848008" stroke-linecap="round" stroke-linejoin="round"/>
<path d="M177.828 41.6671C176.037 43.763 174.471 46.0405 173.154 48.4624H167.733C169.397 45.9981 171.321 43.7199 173.472 41.6671H177.828Z" fill="white" stroke="#263238" stroke-width="0.848008" stroke-linecap="round" stroke-linejoin="round"/>
<path d="M182.414 41.6671C181.035 43.8225 179.85 46.0966 178.875 48.4624H173.153C174.47 46.0405 176.036 43.763 177.827 41.6671H182.414Z" fill="#C3A28E" stroke="#263238" stroke-width="0.848008" stroke-linecap="round" stroke-linejoin="round"/>
<path d="M187.725 41.6671C186.825 43.8798 186.073 46.1499 185.475 48.4625H178.877C179.853 46.0967 181.037 43.8226 182.416 41.6671H187.725Z" fill="#263238" stroke="#263238" stroke-width="0.848008" stroke-linecap="round" stroke-linejoin="round"/>
<path d="M193.55 41.6671C193.241 43.6774 192.966 45.9625 192.691 48.4625H185.475C186.073 46.1499 186.825 43.8798 187.725 41.6671H193.55Z" fill="#C3A28E" stroke="#263238" stroke-width="0.848008" stroke-linecap="round" stroke-linejoin="round"/>
<path d="M224.683 57.6459H218.026C217.29 54.5099 216.302 51.4387 215.07 48.4623H220.783C222.385 51.3866 223.691 54.4629 224.683 57.6459Z" fill="#C3A28E" stroke="#263238" stroke-width="0.848008" stroke-linecap="round" stroke-linejoin="round"/>
<path d="M218.025 57.6459H210.344C209.893 54.5519 209.268 51.4859 208.472 48.4623H215.069C216.301 51.4387 217.289 54.5099 218.025 57.6459Z" fill="#C3A28E" stroke="#263238" stroke-width="0.848008" stroke-linecap="round" stroke-linejoin="round"/>
<path d="M210.343 57.6459H201.924C201.744 54.347 201.503 51.2629 201.229 48.4623H208.471C209.267 51.4859 209.892 54.5519 210.343 57.6459Z" fill="#263238" stroke="#263238" stroke-width="0.848008" stroke-linecap="round" stroke-linejoin="round"/>
<path d="M181.574 113.194H178.077C175.668 111.525 173.457 109.585 171.488 107.413H176.205C177.766 109.54 179.568 111.48 181.574 113.194Z" fill="#263238" stroke="#263238" stroke-width="0.848008" stroke-linecap="round" stroke-linejoin="round"/>
<path d="M185.267 113.194H181.573C179.567 111.48 177.766 109.54 176.204 107.413H181.195C182.339 109.482 183.705 111.42 185.267 113.194Z" fill="#C3A28E" stroke="#263238" stroke-width="0.848008" stroke-linecap="round" stroke-linejoin="round"/>
<path d="M189.537 113.194H185.242C183.679 111.42 182.314 109.482 181.17 107.413H186.917C187.627 109.41 188.503 111.344 189.537 113.194Z" fill="#263238" stroke="#263238" stroke-width="0.848008" stroke-linecap="round" stroke-linejoin="round"/>
<path d="M194.218 113.194H189.536C188.517 111.343 187.655 109.409 186.959 107.413H193.29C193.548 109.612 193.875 111.554 194.218 113.194Z" fill="white" stroke="#263238" stroke-width="0.848008" stroke-linecap="round" stroke-linejoin="round"/>
<path d="M227.498 100.6C226.045 103.028 224.356 105.307 222.456 107.404H217.739C219.313 105.266 220.688 102.988 221.846 100.6H227.498Z" fill="#C3A28E" stroke="#263238" stroke-width="0.848008" stroke-linecap="round" stroke-linejoin="round"/>
<path d="M221.848 100.6C220.69 102.988 219.315 105.266 217.741 107.403H212.75C213.968 105.221 215.014 102.946 215.877 100.6H221.848Z" fill="#C3A28E" stroke="#263238" stroke-width="0.848008" stroke-linecap="round" stroke-linejoin="round"/>
<path d="M215.879 100.6C215.016 102.946 213.97 105.221 212.752 107.404H207.039C207.831 105.176 208.493 102.904 209.024 100.6H215.879Z" fill="white" stroke="#263238" stroke-width="0.848008" stroke-linecap="round" stroke-linejoin="round"/>
<path d="M208.979 100.6C208.448 102.904 207.786 105.176 206.994 107.404H200.688C200.955 105.35 201.204 103.065 201.419 100.6H208.979Z" fill="#C3A28E" stroke="#263238" stroke-width="0.848008" stroke-linecap="round" stroke-linejoin="round"/>
<path d="M172.09 100.6H166.446C164.707 97.7075 163.295 94.6302 162.236 91.4253H168.671C169.516 94.5855 170.661 97.6578 172.09 100.6Z" fill="#263238" stroke="#263238" stroke-width="0.848008" stroke-linecap="round" stroke-linejoin="round"/>
<path d="M178.069 100.6H172.055C170.62 97.6584 169.47 94.5861 168.619 91.4253H175.414C176.068 94.5459 176.955 97.6129 178.069 100.6Z" fill="#263238" stroke="#263238" stroke-width="0.848008" stroke-linecap="round" stroke-linejoin="round"/>
<path d="M184.96 100.6H178.087C177 97.6108 176.138 94.5438 175.51 91.4253H183.345C183.74 94.707 184.29 97.7825 184.96 100.6Z" fill="#C3A28E" stroke="#263238" stroke-width="0.848008" stroke-linecap="round" stroke-linejoin="round"/>
<path d="M192.529 100.6H184.961C184.291 97.7739 183.741 94.6984 183.303 91.4253H191.894C192.074 94.707 192.28 97.7825 192.529 100.6Z" fill="#C3A28E" stroke="#263238" stroke-width="0.848008" stroke-linecap="round" stroke-linejoin="round"/>
<path d="M234.046 80.0769C233.717 83.9421 232.93 87.7546 231.7 91.4339H225.274C226.283 87.7203 226.921 83.9161 227.182 80.0769H234.046Z" fill="white" stroke="#263238" stroke-width="0.848008" stroke-linecap="round" stroke-linejoin="round"/>
<path d="M227.182 80.0769C226.922 83.9161 226.283 87.7203 225.275 91.4339H218.471C219.239 87.6898 219.727 83.8936 219.931 80.0769H227.182Z" fill="#263238" stroke="#263238" stroke-width="0.848008" stroke-linecap="round" stroke-linejoin="round"/>
<path d="M219.924 80.0769C219.72 83.8936 219.232 87.6898 218.463 91.4339H210.62C211.101 87.8515 211.41 84.0458 211.548 80.0769H219.924Z" fill="#C3A28E" stroke="#263238" stroke-width="0.848008" stroke-linecap="round" stroke-linejoin="round"/>
<path d="M211.555 80.0769C211.417 84.0458 211.108 87.8086 210.627 91.4339H202.036C202.199 87.8515 202.32 84.0458 202.38 80.0769H211.555Z" fill="white" stroke="#263238" stroke-width="0.848008" stroke-linecap="round" stroke-linejoin="round"/>
<path d="M166.6 75.5576C166.6 77.0868 166.652 78.5902 166.764 80.0764H159.891C159.754 78.5902 159.693 77.0868 159.693 75.5576C159.691 73.0881 159.869 70.6217 160.226 68.1781H167.021C166.736 70.6276 166.595 73.0917 166.6 75.5576Z" fill="white" stroke="#263238" stroke-width="0.848008" stroke-linecap="round" stroke-linejoin="round"/>
<path d="M173.895 75.5576C173.895 77.0868 173.938 78.5902 174.015 80.0764H166.765C166.653 78.5902 166.602 77.0868 166.602 75.5576C166.6 73.0915 166.743 70.6274 167.031 68.1781H174.222C174.007 70.532 173.895 73.0405 173.895 75.5576Z" fill="#C3A28E" stroke="#263238" stroke-width="0.848008" stroke-linecap="round" stroke-linejoin="round"/>
<path d="M182.312 75.5576C182.312 77.0868 182.312 78.5902 182.38 80.0764H174.013C173.936 78.5902 173.893 77.0868 173.893 75.5576C173.893 73.0405 174.004 70.5664 174.219 68.1781H182.518C182.38 70.532 182.312 73.0405 182.312 75.5576Z" fill="#263238" stroke="#263238" stroke-width="0.848008" stroke-linecap="round" stroke-linejoin="round"/>
<path d="M191.572 75.5576C191.572 77.0868 191.572 78.5902 191.572 80.0764H182.38C182.329 78.5902 182.312 77.0868 182.312 75.5576C182.312 73.0405 182.38 70.5664 182.518 68.1781H191.615C191.572 70.532 191.572 73.0405 191.572 75.5576Z" fill="white" stroke="#263238" stroke-width="0.848008" stroke-linecap="round" stroke-linejoin="round"/>
<path d="M157.864 111.407C166.129 111.407 172.829 104.707 172.829 96.442C172.829 88.177 166.129 81.4769 157.864 81.4769C149.599 81.4769 142.898 88.177 142.898 96.442C142.898 104.707 149.599 111.407 157.864 111.407Z" fill="white"/>
<path d="M206.624 69.682C214.889 69.682 221.59 62.9818 221.59 54.7168C221.59 46.4517 214.889 39.7516 206.624 39.7516C198.359 39.7516 191.659 46.4517 191.659 54.7168C191.659 62.9818 198.359 69.682 206.624 69.682Z" fill="white"/>
<path d="M249.734 99.1973C250.696 95.1052 248.158 91.008 244.066 90.0459C239.974 89.0839 235.877 91.6213 234.915 95.7134C233.953 99.8055 236.49 103.903 240.582 104.865C244.674 105.827 248.772 103.289 249.734 99.1973Z" fill="white"/>
<path d="M252.991 104.949C255.964 101.976 255.964 97.1572 252.991 94.1847C250.019 91.2123 245.199 91.2123 242.227 94.1847C239.254 97.1572 239.254 101.976 242.227 104.949C245.199 107.921 250.019 107.921 252.991 104.949Z" fill="white"/>
<path d="M183.862 38.6713C184.534 34.5215 181.714 30.6132 177.564 29.9419C173.414 29.2705 169.506 32.0903 168.835 36.24C168.163 40.3897 170.983 44.298 175.133 44.9694C179.283 45.6408 183.191 42.821 183.862 38.6713Z" fill="white"/>
<path d="M265.465 343.023C265.465 343.023 277.893 353.653 310.559 352.964C343.225 352.276 370.918 334.524 409.618 343.023C448.318 351.521 455.778 357.577 476 351.543" stroke="#263238" stroke-width="1.76355" stroke-miterlimit="10"/>
<path d="M265.465 349.411C265.465 349.411 277.893 360.063 310.559 359.353C343.225 358.642 370.918 340.891 409.618 349.411C448.318 357.932 455.778 363.971 476 357.932" stroke="#263238" stroke-width="1.76355" stroke-miterlimit="10"/>
<path d="M265.465 355.801C265.465 355.801 277.893 366.453 310.559 365.742C343.225 365.032 370.918 347.28 409.618 355.801C448.318 364.321 455.778 370.36 476 364.321" stroke="#263238" stroke-width="1.76355" stroke-miterlimit="10"/>
<path d="M420.143 341.279C421.111 343.613 422.034 345.848 422.963 348.078C423.712 349.882 424.39 351.718 425.237 353.472C426.084 355.227 424.516 357.418 422.958 357.806C422.739 357.885 422.504 357.907 422.275 357.872C422.045 357.836 421.828 357.743 421.644 357.602C421.459 357.46 421.314 357.275 421.219 357.062C421.125 356.85 421.086 356.617 421.105 356.385C421.04 354.817 422.264 353.472 424.286 352.981C423.384 350.794 422.493 348.663 421.553 346.395C418.766 348.182 416.088 349.893 413.41 351.658C413.23 351.778 413.219 352.379 413.334 352.675C414.197 354.861 415.121 357.047 416.012 359.233C416.195 359.635 416.292 360.072 416.296 360.514C416.299 360.956 416.21 361.394 416.033 361.799C415.856 362.204 415.596 362.568 415.269 362.866C414.943 363.164 414.557 363.39 414.137 363.529C413.871 363.629 413.587 363.67 413.304 363.65C413.021 363.629 412.745 363.547 412.497 363.408C412.305 363.185 412.161 362.924 412.078 362.641C411.994 362.358 411.971 362.061 412.011 361.769C412.322 360.178 413.394 359.222 415.099 358.883L410.442 347.728L420.143 341.279ZM412.459 350.527L420.936 344.908L420.422 343.728L411.874 349.193C412.082 349.68 412.251 350.068 412.459 350.527Z" fill="#263238"/>
<path d="M339.875 345.012L328.266 345.416C327.638 349.428 327.026 353.368 326.403 357.363C324.763 356.757 323.359 357.008 322.266 358.205C322.073 358.435 321.933 358.703 321.854 358.991C321.774 359.28 321.758 359.582 321.806 359.878C321.946 360.123 322.137 360.336 322.366 360.501C322.595 360.666 322.857 360.78 323.135 360.834C323.564 360.932 324.01 360.939 324.442 360.854C324.875 360.769 325.285 360.594 325.645 360.34C326.006 360.087 326.309 359.761 326.536 359.382C326.762 359.004 326.907 358.583 326.96 358.145C327.343 355.822 327.693 353.489 328.097 351.171C328.157 350.86 328.48 350.351 328.693 350.346C331.863 350.226 335.038 350.177 338.323 350.111C337.958 352.406 337.594 354.706 337.23 357.008C335.59 356.402 334.185 356.653 333.092 357.85C332.956 358.013 332.847 358.198 332.77 358.396C332.632 358.585 332.544 358.804 332.514 359.035C332.483 359.266 332.511 359.501 332.595 359.719C332.679 359.936 332.816 360.129 332.993 360.28C333.171 360.431 333.383 360.535 333.612 360.583C335.142 361.063 337.618 360.08 337.814 358.079C337.858 357.648 337.913 357.216 337.973 356.79C338.295 354.8 338.601 352.805 338.951 350.821C339.006 350.51 339.328 350.002 339.541 349.996C342.733 349.876 345.93 349.827 349.237 349.761C348.854 352.188 348.488 354.489 348.144 356.806C346.165 356.167 344.416 356.675 343.657 358.041C343.519 358.229 343.431 358.448 343.4 358.679C343.369 358.91 343.397 359.144 343.48 359.362C343.563 359.579 343.699 359.772 343.876 359.923C344.053 360.075 344.265 360.179 344.493 360.227C346.023 360.708 348.499 359.724 348.701 357.724C348.903 355.724 349.281 353.866 349.581 351.936L350.729 344.662L339.875 345.012ZM328.496 348.838L328.682 347.417L338.793 347.209C338.722 347.635 338.656 348.061 338.59 348.482L328.496 348.838ZM349.521 348.127L339.356 348.482C339.416 348.056 339.465 347.673 339.52 347.258C339.52 347.193 339.52 347.127 339.547 347.061L349.696 346.854C349.636 347.324 349.581 347.706 349.521 348.149V348.127Z" fill="#263238"/>
<path d="M454.205 350.073C454.298 350.412 454.539 350.784 454.468 351.084C454.178 352.39 454.659 353.456 455.326 354.516C455.942 355.431 456.49 356.39 456.965 357.386C457.823 359.315 457.413 361.097 455.938 362.731C457.96 359.331 456.348 357.069 453.631 355.079C453.543 355.284 453.468 355.494 453.407 355.708C452.642 359.195 451.888 362.687 451.123 366.174C451.016 366.678 450.806 367.154 450.506 367.572C450.205 367.99 449.821 368.341 449.377 368.602C448.933 368.864 448.44 369.029 447.928 369.089C447.417 369.149 446.898 369.102 446.406 368.95C444.832 368.491 444.444 367.016 445.652 365.901C447.029 364.633 448.647 364.447 450.478 365.168C451.571 360.151 452.664 355.158 453.757 350.188L454.205 350.073Z" fill="#263238"/>
<path d="M293.009 340.842C293.107 341.181 293.342 341.547 293.277 341.848C292.982 343.159 293.468 344.225 294.135 345.285C294.747 346.201 295.295 347.158 295.775 348.149C296.627 350.084 296.223 351.866 294.747 353.5C296.769 350.1 295.157 347.838 292.441 345.848C292.352 346.052 292.277 346.262 292.217 346.477C291.451 349.964 290.697 353.456 289.927 356.943C289.82 357.446 289.609 357.922 289.308 358.34C289.007 358.757 288.623 359.108 288.179 359.369C287.736 359.63 287.243 359.796 286.732 359.856C286.22 359.917 285.702 359.87 285.21 359.719C283.642 359.255 283.248 357.784 284.461 356.67C285.839 355.402 287.451 355.216 289.287 355.937C290.38 350.92 291.473 345.927 292.566 340.957L293.009 340.842Z" fill="#263238"/>
<path d="M436.835 353.713L437.594 350.204C437.603 350.02 437.629 349.837 437.671 349.658C437.736 349.357 437.501 348.985 437.403 348.652L436.966 348.778C435.873 353.757 434.78 358.736 433.687 363.758C431.85 363.031 430.238 363.212 428.861 364.485C427.647 365.606 428.041 367.076 429.61 367.54C430.102 367.691 430.62 367.738 431.131 367.677C431.642 367.617 432.135 367.451 432.579 367.19C433.022 366.929 433.407 366.578 433.708 366.161C434.008 365.743 434.219 365.267 434.326 364.764C435.097 361.271 435.851 357.779 436.616 354.292C436.674 354.094 436.747 353.9 436.835 353.713Z" fill="#263238"/>
<path d="M315.139 354.079L315.898 350.57C315.913 350.387 315.939 350.204 315.975 350.024C316.046 349.723 315.805 349.352 315.712 349.013L315.27 349.138C314.177 354.123 313.084 359.102 311.991 364.119C310.16 363.397 308.542 363.572 307.165 364.851C305.957 365.944 306.345 367.442 307.919 367.901C308.411 368.053 308.93 368.102 309.441 368.043C309.953 367.983 310.447 367.818 310.891 367.557C311.336 367.297 311.721 366.946 312.022 366.528C312.323 366.11 312.534 365.634 312.641 365.13C313.406 361.643 314.16 358.151 314.925 354.664C314.983 354.464 315.054 354.269 315.139 354.079Z" fill="#263238"/>
</svg>
