<svg width="76" height="92" viewBox="0 0 76 92" fill="none" xmlns="http://www.w3.org/2000/svg">
<path d="M11.048 22.6609C11.7733 23.3383 12.9613 22.8343 12.8533 21.7756C12.8987 21.4863 12.8107 21.1956 12.76 20.877C12.6573 19.949 12.6653 18.605 13.144 17.805C14.9427 19.7636 14.4427 23.973 14.0813 26.601C14.092 26.505 14.108 26.4143 14.1173 26.3183C14.0373 26.9036 13.9547 27.4916 13.8787 28.0796C11.652 26.8516 6.66134 24.0836 6.18667 21.5649C6.02 18.8063 9.14667 20.9036 11.048 22.6609ZM14.3733 30.7169C15.0267 31.0023 15.824 30.6303 15.9093 29.7156C16.12 27.1916 16.6667 24.7063 16.6 22.165C16.4027 14.5889 10.8867 13.3583 10.6613 19.6036C8.35868 17.977 5.68132 17.0863 4.43599 19.4903C3.34265 21.6236 4.32533 23.5983 5.98267 25.309C8.28 27.693 13.7707 30.7076 14.3733 30.7169Z" fill="#734D37"/>
<path d="M3.65995 35.5822C4.61728 35.3275 5.9866 36.9369 6.97193 36.5489C7.40793 36.5969 7.76127 36.3822 7.95061 36.0569C8.15994 35.6942 8.06927 35.4316 8.01194 35.0356C7.99327 34.7796 7.97994 34.3796 8.0466 34.1302C9.27727 35.1929 8.82128 38.1382 8.75595 40.3396C6.82128 39.4702 3.05728 37.6075 3.65995 35.5822ZM8.00126 34.0569C7.99993 34.0582 7.99993 34.0582 8.00126 34.0569V34.0569ZM10.3946 41.6969C10.7013 41.5036 10.9159 41.1742 10.9346 40.7875C11.0319 38.3875 11.3973 35.5902 10.3813 33.5862C9.33861 31.5235 6.27329 31.0782 5.99729 34.0915C1.79595 32.1795 1.01194 35.3689 1.75061 37.3756C2.68927 39.9102 6.35595 41.6235 8.82929 42.6622C9.09862 42.7769 9.33192 42.8476 9.63192 42.7676C10.0733 42.6502 10.4186 42.2782 10.3946 41.6969Z" fill="#734D37"/>
<path d="M2.1852 4.19973C3.35587 4.24906 5.57988 6.70373 6.39721 6.66373C7.20788 6.88239 7.79319 6.19706 7.73452 5.66239C7.60252 4.59439 7.59319 3.13306 8.17453 2.22506C8.19453 2.24772 8.21585 2.27039 8.23719 2.29306C8.40386 2.53706 8.54118 2.7984 8.66518 3.06907C9.80785 5.97707 9.14786 8.21305 8.34119 11.6864C6.24386 10.3077 1.43987 6.61973 2.1852 4.19973ZM8.72921 14.0824C9.38521 14.3477 10.0452 13.9277 10.1599 13.3824C10.6319 11.069 11.3265 8.78905 11.4145 6.41438C11.5159 3.81838 10.1839 -0.6056 7.65587 0.069066C6.50521 0.375732 5.87588 1.85172 5.65854 3.02773C5.61988 3.24506 5.61721 3.46371 5.59588 3.68238C4.48921 2.85971 2.94386 1.78774 1.60519 2.14507C1.10786 2.27841 0.709211 2.59174 0.459878 2.97307C0.133211 3.47307 0.0678816 3.92373 0.0305482 4.33173C-0.0467851 5.07306 0.0158816 5.66374 0.297215 6.37841C1.64388 9.75174 7.73055 14.2544 8.72921 14.0824Z" fill="#734D37"/>
<path d="M25.8533 89.5437C29.564 81.529 33.0706 73.3277 38.248 66.121C39.8026 66.757 41.048 67.2917 42.6573 68.085C46.404 69.925 47.1373 70.949 48.1213 70.189C48.968 69.9063 53.4786 63.0623 53.9626 62.3077C60.4933 67.3863 66.7253 71.1957 71.9453 76.7303C67.536 78.3677 35.9066 88.337 25.8533 89.5437ZM17.272 45.3877C18.2746 46.981 19.664 48.0917 21.2173 49.1423C18.36 49.837 17.0133 49.9023 14.5013 50.617C15.3213 48.8223 16.356 47.1357 17.272 45.3877ZM23.796 42.973C24.0346 43.157 24.2626 43.2983 24.58 43.2997C25.3693 43.3063 26.0093 42.4983 25.564 41.6397C25.404 39.353 26.408 36.7223 27.9026 38.485C30.2493 41.8383 28.964 46.3597 27.9426 50.2463C25.004 49.1997 20.0453 46.4743 18.764 43.6303C17.64 40.425 21.0746 40.741 23.796 42.973ZM27.3546 37.949C13.8813 32.885 14.044 32.473 27.3546 37.949V37.949ZM27.356 37.9503H27.3546C27.4186 37.9757 27.432 37.9823 27.356 37.9503ZM27.408 27.6543C29.4253 28.721 33.8986 31.005 34.108 28.741C34.7693 27.8263 33.472 20.9397 32.952 19.3623C33.396 19.0637 33.42 18.5543 33.6973 17.993C42.856 25.2757 52.832 31.4263 62.3893 38.1597C62.3893 38.1597 58.1373 39.2517 44.7533 42.785C45.0933 40.553 45.976 36.0917 42.78 34.4063C41.7866 33.9063 40.6346 34.2183 40.2213 35.8517C35.968 34.0357 32.612 39.6383 41.472 43.6397C37.984 44.5557 34.4973 45.4757 31.0053 46.3663C32.9773 34.9157 24.2373 32.557 23.444 40.1357C22.6933 39.7303 22.2253 39.485 21.352 39.2383C23.5373 35.4663 25.4146 31.529 27.408 27.6543ZM26.164 19.733C27.0946 20.6103 28.524 19.5583 27.9186 18.413C27.7493 17.5063 27.5986 16.2157 27.8853 15.3423C30.98 17.1383 31.7173 23.733 32.0293 27.2583C19.6213 23.4277 18.948 12.7837 26.164 19.733ZM52.3413 60.7583C49.5586 59.7703 44.328 55.889 44.7546 54.285C44.756 54.2837 44.7573 54.2823 44.7573 54.2823C45.2906 53.721 47.5426 53.9463 48.3093 54.0423C48.816 54.113 49.268 54.2703 49.6933 54.013C50.2386 53.701 50.4786 52.941 49.924 52.3463C49.64 50.8357 49.904 47.4677 52.6506 49.2717C54.2786 50.681 54.9106 54.169 55.3813 55.533C54.4093 57.2983 53.404 59.0463 52.3413 60.7583ZM40.9733 38.541C41.708 38.6517 42.22 38.081 42.2133 37.4957C42.212 37.2503 42.2186 37.0037 42.2373 36.757C43.2186 37.9077 43.0573 39.4423 42.8706 40.9557C42.872 40.9437 42.8733 40.9317 42.876 40.9197C42.8346 41.221 42.7906 41.497 42.744 41.7983C37.6 39.5263 37.212 37.0663 39.372 37.8383C39.9693 38.1157 40.4626 38.597 40.9733 38.541ZM15.036 55.481C21.2066 60.017 28.6653 62.365 36.1946 65.301C31.344 71.9543 27.7333 80.3237 24.0386 88.3063C21.196 77.3223 18.1626 66.3863 15.036 55.481ZM47.4013 67.8743C33.1973 60.7903 23.008 59.4477 14.9173 52.641C16.2 52.2677 17.5173 52.0143 18.8333 51.761C19.6346 51.609 22.896 51.093 23.308 50.433C24.66 51.1797 26.2746 51.957 27.7266 52.4277C28.196 52.5823 28.692 52.3117 28.9253 51.893C30.176 51.877 30.1146 50.557 30.5786 48.517C30.8013 48.505 62.512 40.2783 62.8733 40.189C60.8973 44.629 59.6173 47.5437 56.828 52.841C55.936 49.9597 54.9946 48.0077 53.1386 47.0823C50.104 45.5357 47.412 47.665 47.6893 51.8117C38.6226 51.1383 43.036 59.333 51.152 62.601C49.4 65.2823 48.4066 66.605 47.4013 67.8743ZM72.812 74.4903C67.788 69.4703 61.672 65.529 56.1213 61.309C56.1346 61.321 56.1506 61.333 56.1653 61.345C56.1373 61.325 55.98 61.2023 55.9533 61.181C55.9533 61.1823 55.9546 61.1837 55.956 61.1837C55.6653 60.9597 55.3746 60.733 55.084 60.505C58.8506 54.349 61.5079 48.9517 64.568 42.4383C67.3479 54.2277 69.632 64.4957 72.812 74.4903ZM65.6826 38.0317C65.6426 37.8663 65.5546 37.7303 65.4466 37.6117C65.356 37.497 65.244 37.3997 65.116 37.3103C55.8226 30.6983 46.0106 24.8517 36.9253 17.941C36.94 17.9503 36.9533 17.961 36.9679 17.9717C35.9813 17.221 35.016 16.4543 34.0533 15.6823C33.24 15.0197 32.3333 15.557 32.3053 16.4117C32.0293 16.661 32.104 16.689 31.9466 17.0143C28.8906 11.2863 25.668 12.529 25.5693 16.3917C24.3426 15.569 22.9613 14.8023 21.496 15.193C19.22 15.7997 16.5106 20.9143 25.6253 26.6237C18.972 39.513 19.116 39.0957 19.116 39.0957C17.2506 39.461 16.348 41.1383 16.4386 42.9263C16.2573 43.0117 16.0946 43.1317 16.004 43.3197C15.3293 44.697 14.5399 46.0143 13.7986 47.353C13.3786 48.0983 11.8773 50.9637 11.8706 51.8183C11.84 51.973 11.8346 52.1343 11.8813 52.2957C23.2666 91.6957 21.8466 91.7743 23.5773 91.6983C26.7386 93.565 73.4546 78.9677 74.7066 78.077C75.548 78.1423 76.0893 77.3183 75.8733 76.6783C71.6266 64.0277 68.8093 50.9823 65.6826 38.0317Z" fill="#734D37"/>
<path d="M30.548 85.0985C30.0386 86.0078 30.9893 86.9732 31.7453 86.6652C35.3613 85.2251 37.3467 85.8665 36.8947 84.1732C36.8213 83.9025 36.6413 83.6651 36.4 83.5198C35.6613 83.1051 30.976 84.3598 30.548 85.0985Z" fill="#734D37"/>
<path d="M42.3372 82.0171C41.9066 82.1957 41.5119 82.2811 41.2879 82.6678C40.7879 83.5291 41.6919 84.4838 42.4559 84.1891C43.7279 83.7024 45.1666 83.2478 44.4719 82.0678C43.9439 81.1771 43.2452 81.6291 42.3372 82.0171Z" fill="#734D37"/>
<path d="M62.0319 75.6383C61.1612 75.8703 53.2265 78.165 52.7759 78.9423C52.2879 79.7863 53.1585 80.7503 53.9385 80.465C63.4425 76.9623 65.2719 77.7516 64.8105 76.0223C64.4905 74.825 63.2252 75.3197 62.0319 75.6383Z" fill="#734D37"/>
<path d="M65.5199 60.0143C65.9599 61.6636 66.1585 63.661 67.5292 63.2956C68.9199 62.925 68.0652 61.3543 67.5625 59.4703C67.2025 58.125 65.1612 58.669 65.5199 60.0143Z" fill="#734D37"/>
<path d="M24.5013 75.641C23.436 72.3063 22.264 68.9996 21.3173 65.6276C20.944 64.2823 18.9466 64.8623 19.3066 66.1636C20.2533 69.5356 21.4106 72.8463 22.4853 76.1783C22.932 77.5716 24.8986 76.8823 24.5013 75.641Z" fill="#734D37"/>
</svg>
