<svg width="220" height="95" viewBox="0 0 220 95" fill="none" xmlns="http://www.w3.org/2000/svg">
<path d="M193.274 4.89249C193.275 4.88983 194.109 2.7285 194.109 2.7285C194.253 2.8925 194.363 3.03517 194.498 3.20584C194.49 3.19517 194.481 3.18314 194.471 3.17114C198.889 8.93781 197.493 18.1205 195.489 22.2458C192.543 16.6191 191.975 8.66449 193.274 4.89249ZM210.506 7.04451C212.454 10.0138 204.485 17.5671 198.718 21.4071C200.099 19.0911 208.747 5.04585 210.506 7.04451ZM201.194 62.7552C200.695 62.6445 200.194 62.5378 199.695 62.4418C199.691 62.4405 187.815 60.5125 187.815 60.5125C187.374 60.5125 186.963 60.7805 186.835 61.2378C186.779 61.4392 186.811 61.6498 186.883 61.8432C186.095 66.8378 184.813 70.3591 182.909 74.5538C179.725 63.6738 172.663 54.4791 167.711 44.3831C174.246 41.4031 180.033 38.1378 185.85 33.9338C192.822 41.5085 197.974 52.9712 201.194 62.7552ZM166.85 84.2738C161.914 83.7592 157.345 80.9765 153.385 77.9818C153.319 77.4311 152.899 77.0032 152.195 77.1218C151.803 76.9258 151.375 77.0378 151.105 77.3085C150.922 77.4912 150.818 77.7405 150.818 77.9965C150.818 78.1712 150.889 78.3698 150.997 78.5298C148.882 82.8005 147.455 86.9378 144.305 90.2151C140.475 79.4951 137.419 70.9472 135.729 59.6778C135.767 60.0712 135.195 54.3285 135.195 54.3285C143.799 52.7845 150.801 50.8658 157.405 48.5365C158.549 60.8925 163.362 72.4605 166.85 84.2738ZM126.045 91.7525C120.766 89.6685 115.162 84.1752 111.734 79.5938C111.753 79.2578 111.638 79.0045 111.442 78.8098C111.002 78.3685 110.278 78.4418 109.979 78.8098C105.61 84.2752 101.601 87.8058 96.5474 91.1578C97.0114 88.8712 97.262 86.5338 97.4087 84.2125C97.606 81.1245 97.5594 78.0245 97.466 74.9312C96.9394 57.6258 97.3847 56.2912 97.3847 56.2912C105.51 56.8645 113.246 56.9085 122.574 56.0418C123.435 67.9698 124.407 79.9005 126.045 91.7525ZM84.8314 65.2365C83.7287 73.2698 81.586 81.0925 79.6154 88.9392C76.9394 87.2018 74.4754 85.1365 72.3474 82.4738C71.2394 81.0312 70.1767 79.3232 69.534 77.6258C69.3967 77.2685 69.2647 77.1525 69.0594 77.0365C69.0514 77.0272 69.0487 77.0165 69.0407 77.0085C68.1794 76.1458 67.198 77.4485 66.1927 78.2458C64.3634 79.6418 62.358 80.7618 60.2474 81.6738C57.5474 82.7952 54.722 83.5592 51.8527 84.0978C56.8487 74.1165 61.2327 61.9578 62.31 50.6898C70.258 52.7418 77.766 54.0952 85.566 55.1085C85.566 55.1085 85.5154 60.0498 84.8314 65.2365ZM36.926 73.7552C35.522 69.9472 33.6567 66.3032 32.738 62.3272C32.6367 61.8898 32.2034 61.6072 31.7714 61.6072C31.742 61.6072 31.714 61.6151 31.686 61.6178C31.6487 61.6138 31.618 61.5912 31.5807 61.5912C31.4074 61.5912 31.23 61.6352 31.0687 61.7245C27.6207 63.6552 23.1434 65.0138 19.522 65.5218C19.6034 65.5072 19.746 65.5191 18.4554 65.6165C23.9087 57.7551 28.9674 47.1618 31.0927 37.8965C36.9754 41.7365 43.5847 44.6831 50.178 47.0191C45.6127 56.9511 42.466 64.6965 36.926 73.7552ZM2.53137 19.0032C3.8647 18.5938 9.46603 19.2725 15.93 24.1925C15.7034 24.0378 17.03 25.0031 18.358 26.3485C13.6634 25.6805 3.6047 23.4752 2.53137 19.0032ZM17.122 12.9499C17.402 14.5432 16.202 8.68848 18.1087 8.84581C22.0167 9.56181 21.2647 20.4445 20.5287 24.4485C19.2874 21.8285 17.6074 16.5578 17.122 12.9499ZM219.33 45.7805C209.531 41.5858 202.259 36.5698 197.537 26.9698C201.422 30.7578 205.506 33.1005 212.191 33.3712C212.774 33.3978 213.259 32.8712 213.259 32.3085C213.259 30.3952 210.667 31.9912 205.149 29.7738C201.887 28.3645 199.789 26.5192 197.723 24.3498C205.195 19.9832 216.954 8.86319 211.349 5.29119C207.909 3.10053 201.465 13.3978 199.103 17.1338C200.93 5.43117 194.817 -1.51686 192.847 0.773809C192.245 1.47781 191.057 4.94583 190.853 6.05916C189.847 11.4525 191.53 19.5712 194.062 23.8805C149.741 69.3445 47.03 57.5178 21.966 27.3018C22.7834 25.9685 25.25 9.1245 19.018 7.00317C18.6514 6.87784 18.234 6.8245 17.8407 6.83117C12.7047 6.8925 15.7754 17.6858 17.5607 22.5338C8.54603 15.4592 -2.38463 14.8045 0.914036 20.7192C3.6927 25.7285 12.342 27.6032 18.0287 28.3925C16.0794 34.0938 9.57137 40.2298 3.06604 41.4885C2.18737 41.6632 1.89671 43.0018 2.80071 43.5298C4.33137 44.4245 13.6927 40.7578 18.4807 32.4191C16.3594 43.1245 11.8754 51.2672 2.43271 58.0125C1.07271 58.9965 2.49669 60.7351 3.56869 59.9551C14.454 52.0351 19.1234 42.9592 21.0194 29.2765C23.446 32.0925 26.274 34.5405 29.3194 36.6871C28.7954 38.0205 27.7527 45.4565 20.8647 57.8592C16.326 66.0525 11.8847 68.6472 20.454 67.4018C21.8247 67.2045 23.178 66.8965 24.5167 66.5325C26.6274 65.9512 28.9567 65.0992 31.134 63.9805C32.23 67.9538 34.1394 71.6485 35.4247 75.5618C35.4994 75.7885 35.646 75.9672 35.8247 76.0992C36.026 77.0338 37.1807 77.2285 37.71 76.4218C42.7287 68.7045 49.814 53.1445 52.062 47.6645C55.5554 48.8405 57.2407 49.3178 60.3154 50.1551C59.1847 63.0191 52.7754 77.4232 53.2714 76.0898C52.0674 78.9498 50.7554 81.7565 49.338 84.5165C49.246 84.7005 49.2207 84.8951 49.2274 85.0885C49.174 85.2605 49.154 85.4431 49.202 85.6165C49.2647 85.8578 49.426 86.0605 49.6394 86.1858C49.8794 86.3258 50.1087 86.3218 50.374 86.2831C56.8954 85.2991 63.0687 83.3418 68.1034 79.1752C68.982 81.1592 70.0434 83.0378 72.5074 85.6885C74.6127 87.9445 77.086 89.8818 79.722 91.4698C80.206 91.7672 80.862 91.5792 81.1434 91.1005C81.3007 90.8298 81.3087 90.5192 81.214 90.2418C82.0794 89.3525 87.9154 66.1032 87.4887 55.3472C90.158 55.6698 92.8327 55.9445 95.5127 56.1592C94.11 61.6378 97.1234 80.0698 94.106 92.8325C93.8834 93.7672 94.8154 94.5205 95.5527 94.0698C102.234 89.9698 106.579 86.1005 110.589 81.2965C114.63 86.5125 120.35 92.3218 126.649 94.2405C127.671 94.5498 128.485 93.2391 127.646 92.4498C127.662 92.4365 127.683 92.4311 127.699 92.4151C127.861 92.2538 128.017 91.9672 127.986 91.7285C126.403 79.8192 125.379 67.8485 124.514 55.8685C127.447 55.5578 130.367 55.1472 133.275 54.6645C133.633 60.9378 135.001 69.4712 139.546 82.9885C142.481 91.7671 143.17 93.8632 144.503 92.6432C145.553 91.8978 147.778 89.4365 149.629 86.0392C150.725 84.0338 151.65 81.9418 152.655 79.8885C157.019 83.2258 161.789 86.3485 167.911 86.5378C168.462 86.5525 168.914 86.0938 168.973 85.5632C169.47 84.8312 169.187 85.4912 163.745 68.1365C161.677 61.5472 159.853 54.7178 159.286 47.8645C161.523 47.0365 163.737 46.1432 165.922 45.1885C169.994 53.5565 175.369 61.2392 179.002 69.8218C181.714 76.3472 181.202 78.2965 182.822 77.6125C183.206 77.6765 183.642 77.5312 183.817 77.1658C184.971 74.7698 186.087 72.3645 186.994 69.8645C187.834 67.5432 188.433 65.1498 188.801 62.7125C192.726 63.5245 195.377 63.8018 198.873 64.4831C200.174 64.7431 201.461 65.0765 202.753 65.3845C203.315 65.5138 203.898 65.2125 204.054 64.6445C204.183 64.1752 203.97 63.7525 203.602 63.5005C200.311 52.9405 194.933 40.9578 187.437 32.7538C190.789 30.2178 193.503 27.8725 195.018 26.4219C199.731 37.2632 207.291 43.1192 218.149 47.8072C219.795 48.5165 220.563 46.3138 219.33 45.7805Z" fill="#734D37"/>
<path d="M108.102 66.8003C108.223 67.0723 108.325 67.2763 108.585 67.431C109.33 67.8683 110.175 67.1843 110.293 66.6603C110.398 66.167 110.539 65.687 110.719 65.2203C110.939 64.7257 111.29 64.0883 111.642 63.6923C112.05 66.2097 111.023 69.6577 110.082 72.0217C108.101 70.0177 106.131 66.6403 106.139 63.8403C107.006 64.683 107.607 65.691 108.102 66.8003ZM109.475 74.2897C110.003 74.7297 110.571 74.6577 110.939 74.2897C110.979 74.251 110.999 74.195 111.033 74.147C113.17 73.4097 115.381 58.783 111.71 61.0257C110.575 61.703 109.635 62.7257 108.99 64.1377C103.157 54.971 101.501 67.719 109.475 74.2897Z" fill="#734D37"/>
<path d="M70.3982 69.2257C69.9502 68.3217 69.5182 67.4084 69.1262 66.4791C69.1582 66.5617 69.1942 66.6404 69.2249 66.7244C68.8155 65.7377 67.2422 61.9084 68.1529 61.3524C68.1862 61.371 68.2195 61.3911 68.2529 61.4124C68.3715 61.5191 68.4809 61.6337 68.5835 61.755C69.2395 62.667 69.7382 63.931 69.9435 65.0097C70.0275 65.4684 70.5049 65.7377 70.9502 65.7324C72.3849 66.119 71.7715 64.455 73.9902 62.5884C73.7942 64.9497 71.9529 67.4524 70.3982 69.2257ZM71.2795 62.5537C70.6662 61.075 69.7195 59.3244 68.1075 59.3244C67.0915 59.3244 66.0822 60.1084 65.8755 61.7337C65.5529 64.0284 68.0449 69.1377 69.0955 71.1924C69.3329 71.655 69.9955 71.859 70.5182 71.5337C71.6715 71.647 74.2769 67.5217 74.8195 66.4924C76.0102 64.2044 76.2088 62.395 75.8982 60.627C75.5742 58.7204 72.4795 60.855 71.2795 62.5537Z" fill="#734D37"/>
<path d="M34.4633 54.8857C34.3073 53.4643 34.1287 52.043 34.1793 50.6177C34.4313 51.691 34.0767 52.8324 35.0713 53.1444C35.4153 53.363 35.7567 53.363 36.0793 53.191C35.5753 53.7884 35.0273 54.3457 34.4633 54.8857ZM36.17 50.3203C35.974 49.3483 35.1553 47.1137 34.378 46.6577C33.834 46.3417 33.1887 46.5977 32.9873 47.0217C31.538 50.079 32.358 53.2804 32.5913 56.3657C32.6367 56.9617 33.0007 57.299 33.5047 57.351C33.91 57.679 34.4793 57.6444 34.8593 57.2924C42.9073 49.855 40.3273 46.751 36.17 50.3203Z" fill="#734D37"/>
<path d="M145.152 62.0498C145.704 62.3365 146.254 62.7191 147.026 63.6831C147.094 63.7765 147.162 63.8698 147.229 63.9631C147.381 64.1818 147.557 64.3485 147.818 64.4218C148.078 64.4885 148.354 64.4525 148.584 64.3218C148.686 64.2618 148.773 64.1765 148.848 64.0831C148.753 65.0258 148.718 65.1325 148.556 66.1045C146.493 64.0765 145.746 63.0298 145.152 62.0498ZM148.689 58.5631C148.225 59.4485 147.85 60.3711 147.57 61.3231C144.838 58.7751 141.798 59.4885 142.329 61.0098C143.365 63.9365 145.701 66.4552 148.152 68.7125C148.72 69.2338 149.658 69.1032 149.92 68.2778C150.125 68.1498 150.29 67.9618 150.334 67.7138C150.866 64.8085 151.397 61.6938 150.506 58.8032C150.402 58.4698 150.158 58.2045 149.814 58.1098C149.393 57.9938 148.896 58.1765 148.689 58.5631Z" fill="#734D37"/>
<path d="M178.846 47.8004C179.989 48.1178 180.975 48.6938 181.921 49.4098C182.082 49.5031 182.249 49.5498 182.431 49.5498C183.21 49.5498 183.587 48.7764 183.453 48.0618C183.337 47.0218 183.433 46.3911 183.595 45.7858C184.446 48.8164 183.686 52.5884 183.849 51.7178C183.766 52.3164 183.754 52.2671 183.649 52.8418C181.778 51.3844 179.993 49.7738 178.846 47.8004ZM181.478 46.7058C178.942 45.2644 175.394 44.8658 176.077 46.8044C177.438 50.5578 180.095 52.8218 183.285 55.2004C183.525 55.3711 183.941 55.4218 184.349 55.1791C184.797 55.2018 185.262 54.9338 185.365 54.4738C186.165 50.8404 186.497 46.1258 184.495 42.9884C183.294 41.1711 181.611 44.3498 181.478 46.7058Z" fill="#734D37"/>
</svg>
