<svg width="106" height="180" viewBox="0 0 106 180" fill="none" xmlns="http://www.w3.org/2000/svg">
<path d="M59.8186 119.632C60.7367 119.898 61.652 120.143 62.5968 120.222C63.4396 120.291 64.0289 119.085 63.361 118.338C63.1534 118.107 62.9086 118.032 62.6112 117.998C61.8633 117.904 60.937 117.636 60.2113 117.435C60.1367 117.414 60.0624 117.392 59.9878 117.371C64.0867 116.49 67.9185 118.596 71.1925 121.338C71.1606 121.308 71.2008 121.344 71.2336 121.373C67.8652 123.699 62.7018 122.4 59.8186 119.632ZM47.6805 116.799C49.9635 119.465 53.2236 123.633 53.2315 127.259C50.1577 125.351 47.9264 120.97 47.4044 117.05C47.3662 116.681 47.3466 116.31 47.3397 115.942C47.3806 115.953 47.4228 115.964 47.4637 115.975C47.4176 116.264 47.4832 116.57 47.6805 116.799ZM40.7075 126.485C35.9117 123.167 34.5908 119.834 34.7721 115.373C37.6686 118.124 39.6173 122.484 40.7075 126.485ZM41.1449 108.184C41.1773 108.142 41.21 108.1 41.2414 108.058C41.2565 108.039 41.2704 108.02 41.2851 107.999C41.271 108.018 41.2573 108.038 41.2424 108.058C43.5369 105.086 45.7859 103.828 48.7117 103.194C47.2788 105.217 45.5388 107.038 43.7264 108.469C42.3706 109.497 40.9238 110.352 39.3945 111.047C39.9444 110.011 40.5469 109.005 41.2384 108.063C41.2082 108.104 41.1768 108.146 41.1449 108.184ZM30.0706 128.882C24.9664 126.03 21.5278 123.079 21.0264 116.815C24.441 121.111 28.0688 123.886 30.0706 128.882ZM14.1054 111.276C15.0028 110.112 16.0325 109.089 17.1635 108.188C17.7153 107.763 18.29 107.378 18.8736 107.009C18.7439 107.406 18.6115 107.8 18.4617 108.188C17.8274 109.764 17.0401 111.255 16.0496 112.612C14.6494 114.439 13.3125 115.458 11.7771 116.157C12.1645 114.697 12.7478 113.155 14.1054 111.276ZM28.5756 105.607C30.6277 102.883 32.6192 101.506 34.3554 100.474C34.2294 100.844 34.1982 100.96 34.0592 101.32C34.1448 101.072 33.3657 103.274 31.5007 105.822C31.5015 105.821 31.5023 105.82 31.5041 105.819C29.6415 108.272 27.3883 110.321 25.0983 112.312C25.2203 111.986 25.3387 111.658 25.4675 111.335C26.3016 109.306 27.3039 107.364 28.5756 105.607ZM14.922 130.614C10.1882 129.746 4.42317 126.243 3.21867 121.254C8.25726 122.813 11.8921 125.54 14.922 130.614ZM-0.485158 133.797C-5.87496 133.154 -9.89202 128.981 -11.5935 123.96C-7.05885 125.488 -2.8237 129.166 -0.485158 133.797ZM-27.6096 119.328C-25.036 117.511 -22.7295 115.877 -18.3787 112.336C-18.6336 112.716 -18.8659 112.939 -18.8411 113.352C-20.3876 114.723 -21.2649 115.525 -24.3162 117.92C-23.9908 117.641 -26.9439 119.958 -27.3031 120.237C-27.4052 119.934 -27.5075 119.631 -27.6096 119.328ZM-30.7393 122.987C-30.945 122.626 -31.1413 122.261 -31.3299 121.89C-31.1703 121.783 -31.0116 121.673 -30.852 121.566C-30.6248 121.883 -30.3821 122.187 -30.1423 122.493C-30.3419 122.656 -30.5406 122.821 -30.7393 122.987ZM-31.0884 116.956C-30.759 116.96 -30.6563 116.862 -30.5058 116.711C-30.0226 117.883 -30.2275 117.338 -29.8424 118.451C-30.0268 118.577 -30.2108 118.701 -30.3956 118.826C-30.8117 118.049 -30.9349 117.672 -31.0884 116.956ZM-10.8243 63.1486C-18.2287 78.523 -23.3141 93.9591 -26.768 114.133C-27.2701 94.7409 -21.7312 78.5038 -10.8243 63.1486ZM-23.0699 110.861C-18.4252 94.1259 -12.4639 79.9921 -7.33212 63.9512C-8.29071 79.9018 -14.8537 97.1494 -23.0699 110.861ZM-8.47154 62.1367C-13.2117 77.1358 -19.1213 91.4405 -23.592 106.528C-20.3371 90.9045 -15.8527 77.0299 -8.47154 62.1367ZM-29.1775 120.429C-29.1438 120.533 -29.1098 120.637 -29.0753 120.74C-29.1422 120.659 -29.2034 120.573 -29.2683 120.491C-29.2384 120.47 -29.2068 120.449 -29.1775 120.429ZM-21.0344 112.089C-21.4924 112.445 -21.9553 112.793 -22.4178 113.143C-15.7694 102.394 -10.4482 90.0758 -7.59516 77.4529C-10.6557 98.2627 -17.8472 106.986 -21.0344 112.089ZM3.05693 91.694C3.0439 91.7046 3.02987 91.7158 3.01734 91.7273C14.1018 83.0576 27.051 76.7451 41.9751 73.508C31.0348 77.4234 19.4012 83.2542 8.91432 90.5123C2.02538 95.2798 0.102451 97.2009 -14.1687 109.335C-13.7364 108.758 -13.2928 108.191 -12.8483 107.625C-11.0418 106.015 -9.25716 104.38 -7.51785 102.685C-4.41611 99.6627 -1.40678 96.4531 1.39167 93.0504C1.9438 92.595 2.49445 92.1366 3.05693 91.694ZM39.2026 79.1217C40.5047 78.0883 41.8089 77.0566 43.1071 76.0179C42.6003 76.9111 42.0768 77.7942 41.5312 78.6622C40.754 78.81 39.9757 78.9502 39.2026 79.1217ZM22.5964 99.3865C12.1956 107.487 -0.770438 113.897 -13.6916 114.641C-1.65168 108.769 10.9144 100.468 21.6894 92.5785C26.467 89.0822 31.0199 85.5843 35.7243 81.8872C37.1894 81.4791 38.6665 81.121 40.1517 80.7972C35.3047 87.9358 29.1221 94.2526 22.5964 99.3865ZM-17.3707 114.57C-17.3915 114.623 -17.3948 114.684 -17.405 114.742C-17.4605 114.746 -17.5164 114.744 -17.5726 114.747C-17.5052 114.688 -17.4378 114.63 -17.3707 114.57ZM31.1586 83.31C25.3895 87.7826 19.1495 92.4104 13.2271 96.4992C3.02071 103.536 -5.08816 108.247 -13.574 112.591C-2.21111 99.787 17.0636 88.1242 31.1586 83.31ZM40.521 75.9303C39.5206 76.727 36.3068 79.2964 35.2941 80.087C29.4655 81.6996 23.907 83.9524 18.5764 86.6231C17.5402 87.1421 16.5196 87.6924 15.4997 88.2439C23.2029 83.4704 31.5132 79.3197 40.521 75.9303ZM8.8869 56.6012C4.89792 50.782 4.71487 42.8897 5.61586 35.7511C5.6156 35.7611 5.6147 35.7697 5.61423 35.7793C5.88327 33.7046 6.27484 31.6497 6.71784 29.6086C9.30726 32.7552 10.4298 34.7894 13.4734 39.3689C13.5656 39.5109 13.7759 39.8073 13.9155 39.8951C14.338 40.1631 14.8583 39.994 15.1179 39.5664C17.2417 36.085 19.5816 32.7471 21.6315 29.2097C22.954 35.05 23.5979 37.6235 24.5797 42.633C24.8164 43.8412 26.6034 43.5525 26.4124 42.1927C28.5088 39.9855 30.8329 38.5458 33.3007 36.5309C32.7767 54.4131 21.6666 61.4155 23.501 60.096C14.2512 67.2614 7.36328 54.1982 8.8869 56.6012ZM29.938 59.7878C29.6174 63.1617 28.1214 66.8267 25.6298 69.4236C26.1664 65.8771 27.417 62.2007 29.938 59.7878ZM45.8503 33.4894C47.0417 38.1492 46.4667 44.3997 44.3131 48.4693C42.2139 43.8301 43.6842 38.0902 45.8503 33.4894ZM62.3652 23.933C62.0784 25.5258 61.639 27.0963 61.0258 28.6491C61.469 27.3631 59.6062 33.4536 55.0331 36.8824C55.9856 35.468 56.9323 34.0498 57.8559 32.6143C58.1165 32.2149 57.9382 31.6321 57.5649 31.3972C57.1541 31.1368 56.6775 31.3043 56.4168 31.7037C55.3056 33.4335 54.166 35.1407 53.0117 36.8394C53.4921 31.3376 58.0495 26.9899 62.3652 23.933ZM37.6166 46.4873C39.116 49.5968 38.512 55.5074 36.1905 58.7879C35.3245 54.8212 36.1871 50.2484 37.6166 46.4873ZM57.6679 46.4954C54.5662 49.3118 50.4271 50.3526 46.3571 50.0977C49.3049 47.4835 53.831 46.3554 57.6679 46.4954ZM46.3039 61.4069C46.2596 61.3995 46.7914 61.478 47.3648 61.5923C44.2116 64.5907 39.5258 64.6304 35.478 63.3388C38.5408 61.2073 42.6413 60.9197 46.3039 61.4069ZM79.2143 67.6797C77.2064 69.3687 74.8532 70.6279 72.4377 71.9324C72.1892 72.0663 72.051 72.3286 72.0112 72.6069C70.631 73.832 76.0477 79.2649 78.6218 84.3862C74.7412 85.4749 71.407 86.3136 67.8554 86.4551C67.3742 86.4696 66.9672 86.8595 66.9608 87.3872C66.9603 87.8353 67.2996 88.2532 67.7219 88.309C70.208 92.0878 70.92 93.912 71.5998 96.0844C64.1104 94.7515 57.6296 89.7375 55.3649 83.818C50.2223 69.1114 67.3884 63.7487 79.2143 67.6797ZM60.3909 109.258C57.8584 112.04 53.8956 113.818 49.6032 113.666C52.5309 110.706 56.2498 109.222 60.3909 109.258ZM73.1651 120.769C71.9378 119.685 70.7011 118.69 69.3263 117.821C65.3155 115.285 61.2675 114.614 57.0694 116.527C56.5646 116.377 53.0973 115.339 52.7893 115.25C52.8823 115.234 52.9767 115.232 53.0692 115.215C56.6758 114.585 60.5049 112.433 62.8741 108.911C63.1908 108.448 62.946 107.618 62.1442 107.539C56.0353 106.932 50.8221 109.276 47.2178 113.722C45.8255 113.38 44.4277 113.066 43.0162 112.816C42.2089 112.674 41.3985 112.554 40.5859 112.454C41.2896 112.123 41.9814 111.769 42.6527 111.363C43.799 110.664 44.876 109.837 45.896 108.941C47.9532 107.141 49.6798 104.944 51.1647 102.598C51.4084 102.217 51.2879 101.588 50.7867 101.349C50.6449 101.22 50.5733 101.114 50.2891 101.138C48.0545 101.312 45.9104 101.941 43.9651 103.159C42.0527 104.347 40.616 105.937 39.3689 107.753C38.4342 109.107 37.6744 110.587 36.9952 112.095C36.9825 112.124 36.9782 112.152 36.9667 112.181C35.5975 112.136 34.2288 112.154 32.8588 112.245C30.9263 112.374 29.0016 112.613 27.0862 112.914C28.7863 111.421 30.4383 109.863 31.9038 108.106C32.953 106.848 33.893 105.487 34.6769 104.029C35.1386 103.166 36.856 99.368 36.4628 98.5056C36.4151 98.3008 36.3529 98.1272 36.1088 97.9723C35.2183 97.4085 31.478 100.226 30.6556 100.897C29.3545 101.956 28.2215 103.212 27.2071 104.576C25.2072 107.268 23.8973 110.468 22.8365 113.688C22.8013 113.696 22.7659 113.701 22.7304 113.709C20.4804 114.179 18.2475 114.732 16.0228 115.323C16.6819 114.648 17.2723 113.893 17.811 113.11C18.5699 112.015 19.1859 110.812 19.713 109.576C20.2281 108.354 20.6514 107.091 20.9749 105.799C21.0742 105.409 20.9062 104.999 20.5932 104.8C20.5304 104.761 20.4637 104.73 20.3905 104.71C20.164 104.644 19.9296 104.692 19.7388 104.815C19.5206 104.733 19.2773 104.723 19.0585 104.843C16.9117 106.014 14.924 107.551 13.3197 109.48C11.6636 111.476 10.5059 113.884 9.95205 116.482C9.91296 116.662 9.93678 116.84 9.98981 117.006C3.29973 118.938 -8.09154 122.881 -24.7047 120.592C-20.5265 117.339 -20.1156 116.939 -18.8646 115.858C-18.8026 116.326 -18.4384 116.666 -17.9897 116.691C-17.6495 116.711 -17.3038 116.677 -16.9665 116.663C-16.6608 116.643 -16.3514 116.654 -16.0499 116.65C-15.3951 116.634 -14.7355 116.599 -14.0825 116.559C-4.73787 115.979 4.34992 112.747 12.6065 108.142C17.547 105.391 22.2134 102.088 26.5728 98.3869C32.5825 93.2712 38.155 87.1481 42.5746 80.3114C45.0897 79.8478 48.1004 79.3642 52.7159 79.1871C52.8588 93.9863 72.1094 99.9437 73.3086 97.7679C73.6103 97.5494 73.789 97.146 73.6846 96.7551C72.7656 93.3642 71.5232 90.7516 69.8434 88.139C71.3535 87.9694 80.0511 86.4237 80.5964 85.4482C81.2816 84.2214 76.3963 77.6806 75.4937 76.3851C74.8246 75.4142 74.1902 74.4209 73.6039 73.3932C74.9623 72.6757 81.2381 69.1323 81.6548 67.5687C81.6583 67.5574 81.6656 67.4047 81.6655 67.3994C81.6921 67.0164 81.5447 66.7381 81.2809 66.57C81.2124 66.5273 81.1382 66.4917 81.0576 66.459C71.4783 62.435 54.1938 64.5146 52.8034 77.3537C49.813 77.4651 46.8322 77.7577 43.8756 78.2263C44.2834 77.5433 47.0346 72.8923 46.8294 72.1098C46.867 72.002 46.8897 71.8933 46.8916 71.7873C46.8918 71.5423 46.8007 71.3006 46.6394 71.1201C46.5852 71.0589 46.5149 70.9998 46.4368 70.9511C46.3 70.8638 46.1397 70.8079 45.9959 70.8241C41.7699 71.3129 29.5491 73.9524 16.6948 80.723C25.4879 73.2763 24.9853 74.358 33.5233 64.6167C37.2446 66.2367 42.2502 66.7014 46.2094 64.6048C47.5119 63.9194 48.6757 62.908 49.5959 61.7139C49.7072 61.599 49.7832 61.4632 49.8244 61.305C49.8606 61.1555 49.8627 61.0002 49.8272 60.8485C49.7725 60.6221 49.6289 60.4141 49.4396 60.2952C49.3758 60.2542 49.3082 60.2239 49.2355 60.2069C45.2544 59.2127 40.7978 59.0618 36.9631 60.6311C40.374 56.6137 42.2019 54.3204 44.2886 51.6556C50.1446 52.5414 56.0786 51.0345 60.0567 46.417C60.5148 45.8838 60.3384 45.0595 59.5081 44.9473C55.6727 44.4265 51.3201 45.0964 47.8056 47.0637C49.4758 44.8295 51.1029 42.5615 52.7021 40.2692C59.2616 37.5682 63.4976 29.8484 64.2407 22.5204C64.3994 22.2547 64.4394 21.9245 64.2788 21.6227C64.2079 21.4813 64.0983 21.3671 63.9713 21.2863C63.7196 21.1265 63.3925 21.1011 63.1281 21.2685C56.7354 25.3779 50.8665 30.9937 51.2969 38.8856C50.8498 39.0621 50.5572 39.5416 50.7705 40.0817C49.6791 41.6342 48.5722 43.1744 47.4487 44.6995C48.1806 41.5634 48.3067 38.4674 47.9077 35.3561C47.7994 34.5137 47.1314 30.9966 46.4492 30.5659C46.0268 30.2984 45.5091 30.4594 45.2993 30.8636C42.3924 36.4654 40.1013 43.5896 43.0933 49.6877C43.1663 49.8357 43.2853 49.9347 43.4169 50.009C42.3275 51.4038 40.8869 53.2079 39.6795 54.6887C39.849 53.9014 39.9665 53.1017 40.0437 52.2998C40.1869 50.7864 40.1151 49.2334 39.7982 47.7427C39.5161 46.397 38.9493 45.0999 38.063 44.0824C38.014 44.0238 37.9554 43.9748 37.892 43.9346C37.7652 43.8542 37.6174 43.8102 37.4711 43.8083C37.1936 43.8059 36.8672 43.9672 36.7448 44.2428C35.6756 46.6153 34.8986 49.1236 34.4852 51.7224C34.0666 54.3788 34.0345 57.14 34.7092 59.7564C34.7608 59.9612 34.8837 60.1227 35.0335 60.2412C32.9543 62.6731 32.9908 62.6519 29.907 66.1019C31.1999 63.2982 31.7318 60.5988 31.7071 57.9438C31.7023 57.6184 31.5383 57.3279 31.2895 57.1714C31.1683 57.0943 31.0267 57.0496 30.874 57.048C30.574 57.0453 30.3085 57.2313 30.1592 57.4951C30.1029 57.5134 30.0396 57.5073 29.9884 57.5435C24.598 61.3535 23.2657 70.9872 23.7884 72.4575C21.5621 74.4865 19.2217 76.3691 16.9169 78.2833C15.045 79.8363 13.2034 81.4311 11.4584 83.1428C11.2784 83.3167 11.2044 83.566 11.2166 83.8122C9.27833 85.0003 7.39321 86.2839 5.53782 87.6138C10.5106 80.5562 14.3752 72.7959 16.2502 64.278C31.2122 66.9311 37.7733 34.6328 34.446 33.9786C34.0917 33.7318 33.667 33.8119 33.3644 34.0886C30.9405 36.2694 28.5126 37.7294 25.9657 40.041C24.8802 34.9919 23.968 31.7973 22.8952 26.8884C22.8411 26.6449 22.6913 26.448 22.4995 26.3267C22.1136 26.0821 21.3781 26.0859 21.0771 26.624C19.0117 30.3525 16.6042 33.8376 14.3527 37.435C13.6127 36.3542 8.06427 27.8803 6.88811 27.183C6.4214 26.5947 5.64313 26.9074 5.50086 27.5088C2.62169 39.641 1.48944 53.8563 10.762 61.551C12.2145 62.7625 13.3198 63.3264 14.5215 63.7822C12.4524 73.0801 8.39691 80.7418 2.86385 88.2203C2.86487 88.2197 2.86568 88.2187 2.86626 88.2173C-1.97508 94.6883 -4.88169 94.7946 -13.7071 105.942C-14.5724 106.718 -15.4479 107.479 -16.3306 108.234C-6.27822 92.1437 -4.54235 74.0847 -4.18473 54.7011C-4.17586 54.1704 -4.60168 53.721 -5.09845 53.715C-5.1787 53.7143 -5.25109 53.7422 -5.32541 53.7638C-5.63077 53.6824 -5.97103 53.7509 -6.19616 54.0044C-21.9566 71.6263 -29.8039 92.867 -28.407 117.064C-28.6841 116.319 -28.975 115.58 -29.3029 114.855C-29.5602 114.293 -30.4086 114.155 -30.8147 114.75C-34.0114 109.484 -38.2727 109.441 -42.4014 105.998C-46.8488 102.077 -50.5669 93.623 -57.8732 96.0861C-58.6713 96.354 -61.3901 97.5943 -61.6083 98.4543C-61.8372 99.3427 -60.891 100.012 -60.2622 99.5792C-57.8679 97.906 -55.6638 97.0965 -53.1431 98.1479C-51.8276 98.7678 -50.7748 99.7543 -51.223 99.3595C-51.1342 99.4348 -50.9538 99.5855 -51.0445 99.5117C-48.7152 101.537 -46.9526 104.181 -44.79 106.388C-39.9357 111.352 -35.2544 110.461 -32.0613 116.134C-33.5538 116.232 -32.6795 118.492 -31.9376 119.867C-32.02 119.922 -32.1031 119.975 -32.1858 120.03C-32.4325 119.434 -32.8596 118.279 -32.867 118.264C-32.473 115.891 -36.3235 118.256 -41.1128 116.149C-47.1403 113.209 -53.1073 98.5689 -62.3154 107.032C-63.1026 107.755 -62.0593 109.13 -61.1639 108.306C-57.9706 105.396 -55.1978 105.741 -51.9651 108.376C-46.1459 113.353 -45.294 119.592 -34.4105 119.125C-34.1964 119.771 -33.9612 120.407 -33.7056 121.034C-36.8408 123.094 -40.0038 125.11 -43.1581 127.135C-43.6018 127.42 -43.7854 128.012 -43.5299 128.503C-43.2808 128.979 -42.685 129.172 -42.2433 128.898C-39.0846 126.958 -35.9441 124.973 -32.8473 122.92C-32.4766 123.672 -32.865 122.989 -32.1828 124.216C-33.0257 124.951 -38.3082 129.767 -38.3097 130.926C-38.3116 131.462 -37.899 131.872 -37.4306 131.879C-37.22 131.879 -36.9459 131.793 -36.8096 131.613C-35.1305 129.488 -33.216 127.608 -31.2053 125.849C-30.7836 126.501 -30.3362 127.135 -29.8598 127.737C-29.3665 128.368 -28.2568 128.004 -28.2411 127.051C-28.2367 126.558 -29.4643 125.038 -29.7491 124.606C-29.5 124.397 -29.2486 124.188 -28.9968 123.983C-28.7794 124.262 -28.5551 124.534 -28.3499 124.823C-28.0747 125.233 -27.8165 125.657 -27.5786 126.092C-27.3134 126.584 -26.7233 126.779 -26.2468 126.499C-25.8499 126.267 -25.684 125.77 -25.7948 125.319C-25.7601 125.253 -25.7176 125.191 -25.697 125.117C-25.6308 124.847 -25.6808 124.609 -25.7855 124.364C-26.0269 123.791 -26.254 123.21 -26.4742 122.625C-26.5359 122.455 -26.5928 122.282 -26.6535 122.111C-26.6471 122.106 -26.5292 122.014 -26.4623 121.962C-25.6272 122.805 -15.4375 123.1 -13.5874 123.073C-13.5901 123.157 -13.5959 123.239 -13.5736 123.323C-12.7064 126.441 -11.1427 129.318 -8.91812 131.557C-7.7993 132.683 -6.51167 133.621 -5.12034 134.316C-3.66227 135.043 -2.12107 135.47 -0.523345 135.637C-0.221264 135.668 0.0372256 135.468 0.194323 135.204C0.389074 135.587 0.905967 135.774 1.3345 135.526C1.53737 135.409 1.68939 135.203 1.74756 134.966C2.07065 133.741 -1.94876 126.253 -9.42604 122.889C-6.31192 122.661 -3.11125 122.274 1.53057 121.228C1.94777 127.864 13.3592 133.342 16.1302 132.524C16.9319 133.036 17.7663 132.086 17.3355 131.301C15.7899 128.486 13.9412 125.847 11.5561 123.774C10.7762 123.093 9.95487 122.482 9.09364 121.938C8.66948 121.669 8.23398 121.417 7.79061 121.181C7.10378 120.814 6.39508 120.492 5.67433 120.204C11.0168 118.714 14.3522 117.703 19.3319 116.505C19.3326 116.525 19.3216 116.542 19.3228 116.563C19.3845 117.485 19.4941 118.398 19.6751 119.304C20.5013 123.534 22.8295 126.306 26.176 128.661C26.766 129.075 30.4874 131.512 31.1705 131.318C31.325 131.279 31.4531 131.182 31.5632 131.064C32.1211 130.973 32.4074 130.4 32.2783 129.926C30.5859 123.769 26.1966 120.433 22.449 115.803C27.2628 114.781 30.0504 114.45 33.1498 114.269C32.8515 117.39 33.2002 120.234 34.7189 122.885C36.4269 125.873 40.6115 128.985 41.5483 129.085C41.7588 129.252 42.031 129.332 42.2906 129.262C42.7669 129.133 43.0256 128.626 42.9259 128.127C42.3701 125.363 41.4372 122.673 40.2215 120.161C39.5786 118.832 38.8202 117.576 37.9722 116.387C37.3937 115.576 36.7281 114.857 36.0233 114.18C37.6837 114.206 39.3389 114.354 40.9848 114.589C42.5802 114.832 44.161 115.163 45.7324 115.539C45.6919 115.641 45.6678 115.752 45.6696 115.868C45.7091 118.691 46.6284 121.479 47.9671 123.895C48.6536 125.146 49.5027 126.314 50.489 127.311C50.9639 127.796 51.4887 128.229 52.0352 128.613C52.5634 128.993 53.1389 129.278 53.7272 129.522C54.1542 129.697 54.6921 129.328 54.79 128.881C55.3401 126.317 54.5609 123.92 53.3548 121.623C52.4672 119.924 51.1671 118.133 49.9615 116.662C52.8995 117.511 53.7467 117.803 56.7291 118.712C58.6654 123.066 68.0875 127.171 73.1405 122.033C73.5063 121.655 73.4539 121.024 73.1651 120.769Z" fill="#734D37"/>
</svg>
