<svg width="94" height="180" viewBox="0 0 94 180" fill="none" xmlns="http://www.w3.org/2000/svg">
<path d="M46.511 25.5957C46.5135 25.5999 46.5171 25.6035 46.5196 25.6078C46.511 25.5957 46.511 25.5957 46.511 25.5957Z" fill="#734D37"/>
<path d="M31.7638 63.5465C31.7444 63.5206 31.7233 63.4943 31.7011 63.4661C31.7143 63.4837 31.7638 63.5465 31.7638 63.5465Z" fill="#734D37"/>
<path d="M88.2606 86.6499C87.1057 89.116 85.8797 91.5414 84.5678 93.9281C83.5941 95.7011 82.571 97.4451 81.5262 99.1775C78.9129 87.4663 84.9287 65.1621 92.2856 63.8847C92.8109 63.8497 93.1042 63.951 93.5739 64.4741C97.7784 70.133 90.9189 80.98 88.2606 86.6499ZM41.4532 39.8312C41.0544 36.7908 41.1332 29.6295 42.5842 25.7314C42.8706 25.0306 43.3527 23.9869 44.0893 23.8236C44.95 23.7764 45.9651 24.9247 46.5114 25.5963C46.4043 25.4594 46.5027 25.5841 46.612 25.7224C46.4072 25.4844 47.6708 26.9104 49.0031 29.9471C51.6857 36.2709 52.8437 44.411 54.3926 50.6944C55.3394 54.5485 58.1055 63.3565 59.3299 72.1921C49.5493 61.8629 42.689 47.8527 41.4532 39.8312ZM95.4309 111.094C95.4473 111.102 95.4616 111.112 95.4786 111.118C95.3865 111.233 94.5107 112.398 94.4214 112.515C94.4183 112.515 94.4155 112.512 94.4126 112.51C94.8718 111.802 95.4281 111.099 95.4309 111.094ZM107.542 105.467C110.177 105.142 113.943 105.503 116.059 106.999C116.241 107.145 116.411 107.303 116.566 107.48C116.639 107.583 116.703 107.688 116.76 107.801C116.786 107.882 116.809 107.963 116.826 108.045C116.832 108.123 116.831 108.202 116.827 108.282C116.806 108.384 116.778 108.486 116.747 108.586C116.575 108.959 116.309 109.392 115.443 110.108C109.022 115.029 98.2716 110.291 96.8237 111.154C96.7284 111.043 96.6594 110.966 96.4088 110.889C100.415 108.015 103.556 106.074 107.542 105.467ZM88.0159 130.155C88.1632 129.819 87.3173 132.037 86.2669 133.54C85.6017 134.414 84.6422 135.328 83.5258 134.991C81.4231 133.931 81.6243 121.982 91.4025 116.839C90.6814 121.021 89.5626 126.204 88.0159 130.155ZM96.6568 112.603C96.6573 112.604 96.6579 112.605 96.6587 112.606C96.657 112.605 96.656 112.606 96.654 112.607C96.6553 112.605 96.6563 112.604 96.6568 112.603ZM64.952 103.562C53.2155 105.172 38.6803 100.723 38.929 97.3127C39.183 95.8615 41.4009 95.3921 42.8577 95.1727C49.6215 94.277 61.7573 96.4583 66.6568 97.6648C69.3846 98.3382 72.0475 99.2644 74.6621 100.294C75.2453 100.524 75.8258 100.759 76.406 100.998C72.6313 102.038 68.8315 102.999 64.952 103.562ZM48.8076 89.6893C42.3279 88.9082 30.7977 86.8146 28.1229 80.8677C27.832 80.1349 27.4322 78.7345 27.852 78.0587C28.7528 77.001 31.5666 77.2661 32.9401 77.4325C39.1006 78.2486 47.7033 81.3741 53.4972 83.5219C54.7326 83.9822 55.9829 84.4134 57.217 84.8961C60.8619 86.3625 64.329 88.2043 67.7593 90.1124C58.6348 90.9753 47.0858 89.5471 48.8076 89.6893ZM56.2965 79.6984C57.5617 80.2828 40.1886 74.0513 31.6329 63.3833C32.4063 64.2608 27.8148 59.008 27.0075 54.1417C26.9549 53.7166 26.9238 53.276 27.0517 52.8866C27.138 52.708 27.1976 52.6283 27.5232 52.5614C28.977 52.4337 31.3781 53.7986 32.6298 54.5489C38.0781 57.8213 50.905 69.9105 55.2791 74.2506C52.5939 72.553 52.4436 72.1458 51.7937 72.5332C51.4422 72.7428 51.321 73.1256 51.4115 73.4638C51.5616 74.0076 56.0461 76.7073 56.5289 76.9963C56.9178 77.2288 57.4513 77.0571 57.6654 76.6708C59.3613 78.4132 61.0345 80.176 62.6558 81.9887C60.515 81.2873 58.3923 80.5265 56.2965 79.6984ZM67.3191 82.653C67.3247 82.6669 67.3315 82.6828 67.3378 82.6978C67.3365 82.6934 67.3191 82.653 67.3191 82.653ZM69.3108 39.6173C70.0535 40.6095 70.373 41.8955 70.5709 43.1774C71.4201 49.495 69.4128 58.2466 68.9081 63.6313C68.3324 69.7705 67.7783 75.9166 67.0688 82.0446C59.06 62.1262 63.5312 32.8025 69.3108 39.6173ZM80.2074 50.4332C80.6408 50.2711 80.831 50.2554 81.1196 50.2748C82.9925 50.6616 84.1248 55.0558 83.6072 59.4376C83.0472 63.6987 81.4281 68.2042 79.854 72.2013C80.0607 71.5959 77.3981 78.3569 77.1835 78.9063C77.2085 78.8338 77.2399 78.7629 77.2679 78.6886C76.048 81.7462 74.3726 84.5786 72.8525 87.4873C72.6243 80.1636 70.4849 55.0669 80.2074 50.4332ZM93.9229 62.4481C93.2517 62.0654 92.3606 61.9514 91.3408 62.2728C83.7849 64.6848 80.0032 80.5625 79.3495 88.9284C79.1679 91.2803 79.1406 93.6552 79.3445 96.007C79.4509 97.27 79.6261 98.5407 79.9173 99.7815C77.5605 97.3009 75.3104 94.7186 73.1771 92.0446C73.0786 91.9198 72.9869 91.7884 72.8884 91.6636C73.9066 89.258 75.188 86.9773 76.419 84.6748C78.3287 81.0722 78.6431 80.0885 79.4878 77.9463C79.4564 78.0172 79.4314 78.0897 79.4001 78.1607C82.0488 71.4619 86.4198 61.9508 85.4399 54.8638C85.184 53.0085 84.3766 50.0081 82.4564 48.8572C81.303 48.1686 79.519 48.1758 77.2709 50.3955C68.7743 58.7318 70.9132 78.3193 71.1368 89.3562C70.0824 87.9511 69.0548 86.5282 68.0533 85.0839C68.0852 85.07 68.1183 85.0582 68.148 85.0406C68.2872 84.9575 68.3941 84.8472 68.4718 84.7058C68.5485 84.5717 68.5859 84.4234 68.5863 84.2669C72.0585 51.1161 75.2903 38.7487 68.126 36.8393C61.1287 34.9025 58.1764 60.9425 64.347 79.4972C63.2817 77.8112 62.2421 76.1098 61.2358 74.3902C61.2259 74.2927 61.2025 74.1973 61.1576 74.1085C61.3117 73.7945 61.0171 72.1258 61.0497 72.441C60.4547 68.1777 59.7482 64.0128 57.7397 56.2915C54.063 42.0284 52.0013 25.4828 45.4966 22.4546C44.6692 22.0658 43.7437 22.0177 42.9546 22.4881C42.0924 23.0021 41.5318 23.9681 41.1617 24.9034C40.2252 27.2192 39.8846 30.2519 39.7297 32.763C39.5379 35.8141 39.6544 38.4392 39.8343 39.8324C40.9329 48.3761 48.7055 63.9616 59.3892 74.6089C59.5448 74.9575 60.9531 77.2662 61.1513 77.5941C57.5699 73.7912 53.7762 70.1844 49.9286 66.6579C45.9682 63.0298 30.9829 48.4738 26.4122 51.1984C26.0626 51.4068 25.7699 51.7152 25.5872 52.0757C25.2019 52.8327 25.2648 53.7108 25.3861 54.5273C25.574 55.79 26.0656 57.0189 26.5697 58.1881C27.127 59.4822 27.7921 60.7215 28.549 61.9127C34.6719 71.596 47.1157 78.0778 57.8551 82.0954C60.1277 82.9414 62.4288 83.7141 64.7528 84.4197C64.9859 84.492 65.2259 84.432 65.4188 84.2998C66.2924 85.5992 67.1829 86.8864 68.0963 88.1583C61.9406 84.7051 31.2518 71.5464 26.6263 76.8563C26.0485 77.5291 25.895 78.3662 25.9794 79.2445C26.0199 79.645 26.0855 80.0445 26.1828 80.4366C26.5309 81.8716 27.3508 83.1496 28.3516 84.2152C35.2703 91.5811 56.8602 92.6914 66.8986 91.9358C68.0437 91.8493 69.2004 91.735 70.3319 91.5201C70.4004 91.507 70.4525 91.4664 70.5113 91.4371C70.5213 91.4495 70.5301 91.462 70.5394 91.4753C72.6049 94.1724 74.7776 96.7821 77.0557 99.2991C74.6041 98.292 72.1188 97.3787 69.5751 96.6211C68.113 96.1849 66.6398 95.8197 65.1455 95.5068C58.2237 94.0402 38.068 90.2454 37.151 97.2772C37.0799 97.9475 37.2848 98.6244 37.6328 99.1907C39.9009 102.903 51.2613 105.276 55.5894 105.674C59.6591 106.046 63.7599 105.645 67.7706 104.918C71.7626 104.189 75.6772 103.086 79.5795 101.988C83.2771 105.822 87.0169 109.258 91.9794 113.015C91.6878 113.624 91.3238 114.183 91.6623 114.722C78.3595 120.353 77.8378 140.391 85.8508 136.408C90.368 134.117 93.261 118.215 93.2382 116.661C93.3679 116.642 93.4866 116.597 93.5995 116.526C93.583 116.709 93.615 116.891 93.6996 117.057C93.1459 125.104 102.09 127.852 99.2907 135.471C99.3566 135.31 99.2982 135.454 99.2357 135.619C99.3177 135.377 98.8282 136.808 97.3279 138.872C93.4106 144.139 87.2694 148.628 91.815 156.554C92.0645 156.991 92.6485 157.128 93.0731 156.875C94.0311 156.304 93.1983 155.361 92.7312 154.289C90.4903 148.66 94.5787 145.467 98.2088 140.763C107.616 128.644 94.8091 125.485 95.448 117.042C95.4686 117.021 95.4874 116.998 95.5079 116.977C97.2714 123.553 104.018 125.776 104.951 131.86C105.605 137.707 101.448 141.913 102.82 147.322C103.15 148.614 105.001 152.626 106.046 152.89C106.895 153.105 107.525 152.123 107.082 151.499C102.238 144.707 105.277 142.796 106.495 136.461C108.657 125.405 99.2626 123.893 97.2021 116.718C98.3743 117.501 107.55 123.481 108.892 123.123C109.827 122.852 109.81 121.592 109.107 121.316C105.959 120.052 100.127 116.433 97.3015 114.535C97.6449 113.944 97.9693 113.498 97.5136 112.929C103.552 113.868 112.641 116.099 117.552 110.551C121.774 105.834 112.845 102.293 105.52 104.103C101.555 105.076 95.8675 108.842 95.079 109.767C94.1479 109.33 93.4711 110.544 92.9018 111.399C89.105 108.539 85.5227 105.413 82.1555 102.066C82.2266 101.924 82.2703 101.771 82.2444 101.615C84.0108 98.6951 85.6898 95.7251 87.2732 92.7024C91.0522 85.4903 101.895 66.937 93.9229 62.4481Z" fill="#734D37"/>
<path d="M49.4451 35.3434C47.4921 29.2152 46.6586 25.924 45.2502 26.7635C44.3416 27.3051 45.1737 28.2159 45.7194 29.4594C46.5721 31.5184 47.1174 33.6818 47.8002 35.7952C48.1683 36.9291 49.7644 36.3618 49.4451 35.3434Z" fill="#734D37"/>
<path d="M53.2402 52.1539C51.7922 46.572 52.0745 45.3007 50.8154 45.6564C50.3515 45.783 50.1119 46.2524 50.2183 46.7137C50.6498 48.6839 51.0945 50.6515 51.6136 52.6002C51.8937 53.6539 53.52 53.252 53.2402 52.1539Z" fill="#734D37"/>
<path d="M34.2443 58.9168C33.71 59.2353 33.7656 60.0428 34.2786 60.2925C35.6717 60.9746 36.7039 61.635 37.8383 62.458C38.8349 63.2026 39.6748 61.845 38.9496 61.3043C38.2194 60.753 35.0294 58.4488 34.2443 58.9168Z" fill="#734D37"/>
<path d="M42.5728 64.333C42.1363 64.5932 42.0663 65.2101 42.4353 65.5752C42.7926 65.9232 44.0979 67.208 44.5838 67.2058C45.3332 67.201 45.6187 66.2518 45.1233 65.8496C43.5341 64.5804 43.3086 63.8944 42.5728 64.333Z" fill="#734D37"/>
<path d="M32.6382 79.9576C31.8994 80.398 32.2172 81.5059 33.0619 81.5106C34.3863 81.5205 35.7015 81.6093 37.0134 81.7601C44.7945 82.7369 46.4565 84.564 46.8415 82.9959C46.956 82.5569 46.6813 82.1141 46.2482 82.0005C40.6388 80.4743 33.6258 79.3689 32.6382 79.9576Z" fill="#734D37"/>
<path d="M52.031 84.4192C51.8181 84.3788 51.622 84.3911 51.4294 84.5059C50.7914 84.8862 51.007 85.8473 51.6422 85.9586C52.0789 86.0356 54.0427 86.431 54.4229 86.2043C54.7903 85.9853 54.9338 85.5075 54.699 85.1137C54.6024 84.9516 54.4073 84.7747 54.2141 84.7492C53.483 84.6522 52.7567 84.5408 52.031 84.4192Z" fill="#734D37"/>
<path d="M54.2063 97.5583C51.6309 97.3763 47.6561 96.6163 44.5489 96.8581C43.4187 96.9426 43.5843 98.5228 44.5619 98.4404C46.2763 98.3074 47.9851 98.4548 49.689 98.6568C49.6865 98.6572 49.6835 98.6565 49.6808 98.6565C51.1893 98.8428 52.6993 99.0564 54.22 99.1621C54.8628 99.2098 55.3154 98.3231 54.7674 97.7833C54.6081 97.6283 54.419 97.5738 54.2063 97.5583Z" fill="#734D37"/>
<path d="M62.5564 98.5511C62.3338 98.4898 62.1033 98.5321 61.9147 98.6445C61.248 99.0419 61.3982 100.019 62.1389 100.217C63.211 100.498 64.2907 100.749 65.3804 100.962C65.8366 101.052 66.2989 100.812 66.4184 100.344C66.525 99.9093 66.2583 99.399 65.7996 99.3054C64.7105 99.093 63.6313 98.8364 62.5564 98.5511Z" fill="#734D37"/>
<path d="M66.556 64.3497C65.9833 67.1433 65.7351 69.9898 65.7488 72.8355C65.7513 73.922 67.4012 73.9143 67.3995 72.8246C67.3899 71.1513 67.4747 69.4814 67.6546 67.8161C67.9718 65.2495 68.648 64.0328 67.5515 63.7563C67.1332 63.6496 66.6469 63.9138 66.556 64.3497Z" fill="#734D37"/>
<path d="M68.3574 57.709C68.6319 57.4194 68.6745 56.2604 68.7253 55.8269C69.2408 51.7492 69.9289 50.7995 68.8132 50.5087C68.3824 50.399 67.8815 50.6704 67.7949 51.1156C67.402 53.1062 67.1162 55.117 66.9193 57.1377C66.8547 57.7974 67.7964 58.2881 68.3574 57.709Z" fill="#734D37"/>
<path d="M77.4253 75.2743C77.7887 74.3524 78.4357 73.3831 77.6096 72.9157C77.4224 72.8128 77.1996 72.7893 76.9956 72.8423C76.8002 72.8962 76.5762 73.0459 76.4968 73.2338C75.7285 75.0931 75.0364 76.9859 74.3424 78.8735C74.2718 79.0626 74.331 79.3191 74.4324 79.4892C74.5407 79.6709 74.7214 79.8078 74.9312 79.8611C75.1407 79.914 75.3612 79.882 75.5469 79.7713C75.7474 79.6518 75.839 79.4821 75.9188 79.2724C76.1464 78.6505 77.6001 74.7816 77.4253 75.2743Z" fill="#734D37"/>
<path d="M80.7073 66.8672C80.8469 66.1627 81.0161 65.4653 81.2147 64.7722C81.4926 63.7675 79.931 63.2767 79.6142 64.3664C79.42 65.0578 79.2519 65.7593 79.1127 66.4646C79.0304 66.9057 79.2587 67.3494 79.7079 67.4629C80.1272 67.569 80.625 67.3084 80.7073 66.8672Z" fill="#734D37"/>
<path d="M89.1623 80.4201C87.8528 82.8895 86.408 85.2823 84.7547 87.5343C84.2238 88.2334 84.7132 88.9242 85.3501 88.9194C86.3815 88.907 90.1486 82.1397 90.6254 81.2263C90.8354 80.8241 90.705 80.3157 90.2961 80.0945C89.9013 79.8723 89.3718 80.0192 89.1623 80.4201Z" fill="#734D37"/>
<path d="M91.2266 73.9356C87.0268 84.6388 91.2233 73.9413 91.228 73.929C91.0513 74.369 90.854 74.8015 90.6449 75.2232C90.1265 76.2646 91.6301 76.9411 92.0883 76.0212C92.3616 75.4714 92.5981 74.9116 92.8217 74.339C93.163 73.4654 91.6973 72.738 91.2266 73.9356Z" fill="#734D37"/>
<path d="M91.7558 66.9823C91.7587 67.4878 91.7717 67.9926 91.7913 68.4991C91.8344 69.6336 93.4699 69.5277 93.4349 68.4855C93.4201 67.9778 93.407 67.4732 93.4 66.9696C93.3819 65.8547 91.7385 65.9271 91.7558 66.9823Z" fill="#734D37"/>
</svg>
