<svg width="220" height="80" viewBox="0 0 220 80" fill="none" xmlns="http://www.w3.org/2000/svg">
<path d="M103.634 54.8989C102.33 54.3285 101.1 53.6089 99.9647 52.7441C98.7284 51.7655 97.6281 50.6299 96.6521 49.391C91.2684 42.3314 89.6893 31.9853 88.6505 23.1569C94.6582 27.7124 98.4562 31.0368 101.286 36.4833C101.31 36.7593 101.456 36.9935 101.672 37.1531C102.346 38.2756 104.154 37.3179 103.491 36.0031C103.42 35.8631 103.331 35.7336 103.258 35.5949C103.375 32.7886 103.653 30.9099 103.634 31.0185C104.336 25.92 105.737 20.8752 108.127 16.3943C110.735 23.2184 112.401 28.6583 113.243 35.8357C113.273 36.1274 113.334 36.3629 113.549 36.5775C113.744 36.7711 114.015 36.8836 114.291 36.8836C114.355 36.8836 114.416 36.8561 114.48 36.843C114.556 36.8875 114.627 36.9372 114.717 36.9634C115.218 37.1008 115.816 36.7946 115.933 36.2674C117.432 29.7128 122.019 25.2463 127.238 20.7902C129.51 40.051 122.195 62.4609 103.634 54.8989ZM128.567 17.5848C128.314 17.4357 128.008 17.3951 127.728 17.4723C127.452 17.5482 127.218 17.7327 127.074 17.9721C127.026 18.0545 127.015 18.1382 126.994 18.2207C122.402 22.3052 117.361 26.565 114.949 32.7454C113.901 25.9396 111.818 20.2943 109.353 14.0145C109.256 13.7581 109.139 13.5592 108.893 13.4153C108.662 13.2805 108.382 13.24 108.115 13.3132C106.319 13.7921 102.42 22.5433 101.497 32.7153C97.823 27.4154 93.3957 24.2742 88.1795 20.3493C87.7726 20.0471 86.9432 20.2001 86.7482 20.9576C86.0352 21.9585 88.521 34.4972 88.9946 36.427C90.1603 41.1774 92.0456 46.2864 94.9382 50.1799C100.361 57.492 108.556 59.4492 114.492 58.2233C132.305 54.5208 130.901 18.9638 128.567 17.5848Z" fill="#734D37"/>
<path d="M103.644 30.9648C103.65 30.9138 103.658 30.8615 103.663 30.8105C103.657 30.855 103.657 30.8602 103.644 30.9648Z" fill="#734D37"/>
<path d="M90.0006 12.5152C91.7131 14.7406 92.086 16.274 93.2923 15.5662C94.9237 14.6111 92.6185 12.3229 85.6007 4.14861C84.7517 3.17262 83.1084 4.47702 84.108 5.64141C84.2153 5.76831 90.4323 13.015 90.0006 12.5152Z" fill="#734D37"/>
<path d="M91.9996 9.89603C92.311 10.3552 92.8892 10.5541 93.3903 10.2636C94.7653 9.44464 93.2071 8.71071 91.2996 4.33575C89.8867 0.962945 90.1143 1.71661e-05 89.0336 1.71661e-05C88.3363 1.71661e-05 87.8588 0.685563 88.0393 1.30439C88.9381 4.34488 90.2321 7.25849 91.9996 9.89603Z" fill="#734D37"/>
<path d="M116.995 13.5881C116.665 1.95856 118.174 0.00918865 116.137 0.00918865C115.56 0.00918865 115.035 0.414767 114.987 1.15919C114.675 5.29342 114.588 9.44336 114.711 13.5881C114.763 15.1593 117.03 15.0233 116.995 13.5881Z" fill="#734D37"/>
<path d="M119.883 12.947C120.504 10.0033 122.003 7.88124 124.095 4.7387C124.5 4.11987 124.023 3.16091 123.203 3.16091C122.842 3.16091 122.495 3.35847 122.28 3.68162C120.471 6.40027 118.55 9.13459 117.86 12.3896C117.557 13.8249 119.6 14.233 119.883 12.947Z" fill="#734D37"/>
<path d="M82.0828 74.6531C80.5338 73.3775 82.3537 71.6597 84.006 70.3475C85.5381 69.1739 87.2192 68.1652 88.9658 67.3345C87.0989 71.2541 84.5176 76.4245 82.0828 74.6531ZM64.2638 64.5294C65.5956 61.7244 72.438 58.8553 76.6482 58.2653C76.6573 58.2653 76.6638 58.264 76.6717 58.2627C67.9178 71.5014 63.6528 66.2342 64.2638 64.5294ZM48.8965 46.8752C44.023 42.6978 54.0747 38.7049 60.2473 39.2138C58.0075 41.6237 51.7433 48.8351 48.8965 46.8752ZM31.8336 49.0745C31.6465 50.32 31.2671 51.9671 30.1406 52.5323C29.166 52.8816 27.8524 52.4355 27.0701 51.8886C23.5769 48.9698 27.6339 38.82 30.8471 35.9731C31.2906 38.7664 32.3805 44.5687 31.8441 49.0012C31.882 48.7382 31.7799 49.4958 31.8336 49.0745ZM14.7681 77.5052C7.97409 80.1283 9.53096 70.0609 11.7786 63.2015C13.7947 67.4548 19.1169 75.459 14.7681 77.5052ZM6.53496 46.5325C5.43206 46.6476 2.97376 46.3139 2.74088 45.2673C2.69509 44.1997 4.2415 42.8286 5.07881 42.1627C6.76129 40.8937 8.42022 40.1532 10.9047 39.8078C9.59638 40.0406 13.2099 39.0607 18.3175 40.4541C15.243 42.7266 10.3081 45.9633 6.53496 46.5325ZM43.6973 19.1327C44.6131 18.5295 46.5258 18.6002 47.5581 18.9966C48.1403 19.2727 48.5733 19.5919 49.1032 20.2526C51.0748 22.983 51.2776 27.6052 50.8511 30.9676C47.2153 27.9009 41.7492 20.806 43.6973 19.1327ZM77.1741 33.5933C78.4824 33.5279 82.0397 36.2675 79.1915 43.2996C78.1867 45.6546 76.7973 47.7766 75.4733 49.2393C74.8231 47.146 74.2356 45.0344 73.923 42.86C73.2191 37.1179 75.6552 33.9152 77.1741 33.5933ZM104.001 60.7785C102.763 62.1196 101.574 63.089 99.8574 63.8687C98.1972 64.5373 96.6351 64.7675 94.5536 64.5294C86.8123 63.369 80.5273 56.3172 76.257 51.2894C77.7157 49.8634 79.1078 47.8721 80.0929 46.0143C81.3816 43.5888 82.4204 40.632 82.2752 37.8728C82.0763 34.1847 78.8265 30.2087 75.5596 32.1437C74.9107 32.5271 74.3795 33.1158 73.94 33.7137C70.9911 37.7105 71.5759 42.4584 72.875 47.2743C67.5254 40.8649 61.9062 34.6701 52.5649 31.7303C53.066 31.1363 53.3316 25.0619 51.7865 21.243C50.8995 19.0372 49.4132 17.25 47.0544 16.8837C41.4117 16.0242 37.3559 19.9883 47.6143 30.5921C37.9983 29.132 28.5275 31.9972 21.1945 39.1013C20.9289 38.9312 20.6594 38.8671 20.3585 38.9626C8.71721 34.8912 1.1827 41.2613 0.698623 44.8827C0.490603 46.4657 1.61574 47.5006 3.16215 48.139C5.35879 49.0627 7.63132 48.6152 9.84235 47.7806C12.476 46.7941 14.8243 45.3772 17.127 43.8216C13.8536 48.4399 11.7695 53.7294 10.9858 59.8654C10.3997 61.0363 9.82926 62.8234 9.45901 64.0807C3.99292 82.8509 14.9133 81.4458 17.6555 77.6687C20.123 74.3012 16.3721 67.6354 14.462 63.9263C14.0996 63.2303 13.3708 61.8487 13.1327 61.1004C13.0621 60.8871 12.9339 60.7053 12.7703 60.5718C12.7782 60.5404 12.7638 60.5038 12.769 60.4711C12.9797 60.1911 13.0032 59.8562 13.049 59.4912C12.8802 60.9238 13.2282 56.3303 15.3071 51.2633C18.0127 44.8748 22.4007 39.8287 27.8524 36.5148C24.6275 41.0049 20.7981 51.5367 27.193 54.2017C27.9846 54.5288 28.8794 54.7329 29.7377 54.6609C33.5762 54.3338 33.9949 49.4696 34.0158 46.4998C34.0394 43.666 33.0791 34.9998 32.5335 34.2161C41.5307 30.8407 51.1441 32.1529 59.0476 37.1885C54.0132 37.2906 45.3222 39.8091 45.6231 44.6851C45.7513 46.5756 48.1154 52.2837 55.0729 46.9995C58.1187 44.6956 60.594 41.7218 62.3039 39.9425C62.3733 39.8706 62.4243 39.7881 62.4688 39.7031C68.0539 44.4221 72.162 50.4861 77.284 56.1576C77.055 56.1694 76.8261 56.1864 76.5971 56.2139C75.595 56.3316 74.6137 56.5305 73.6377 56.7908C69.7312 57.8427 62.2346 61.001 62.0776 65.0096C62.0357 66.174 62.7972 67.2141 63.7588 67.9271C64.8211 68.7278 66.0104 69.1857 67.3317 69.0876C69.2471 68.9489 70.9191 67.8355 72.3504 66.6345C73.9701 65.2752 75.3346 63.6189 76.6063 61.9377C77.5273 60.7275 78.3764 59.4624 79.1797 58.1698C81.9703 61.0154 85.0553 63.5914 88.6178 65.3458C82.2163 68.2319 75.9848 73.4652 81.5373 76.7097C82.3759 77.2004 83.4029 77.2815 84.307 76.94C85.3601 76.541 86.2027 75.7534 86.9131 74.9056C89.0351 72.3583 90.6352 68.5172 91.6138 66.5482C93.3198 67.0806 95.0965 67.3672 96.8876 67.2638C102.029 66.959 106.25 63.0105 106.25 61.7088C106.25 60.4986 104.748 59.97 104.001 60.7785Z" fill="#734D37"/>
<path d="M131.035 67.3345C132.781 68.1652 134.463 69.1739 135.996 70.3475C137.648 71.6597 139.466 73.3775 137.917 74.6531C135.484 76.4245 132.902 71.2541 131.035 67.3345ZM143.328 58.2627C143.337 58.264 143.345 58.2653 143.353 58.2653C147.562 58.8553 154.406 61.7244 155.736 64.5294C156.347 66.2342 152.082 71.5014 143.328 58.2627ZM159.755 39.2138C165.925 38.7049 175.978 42.6978 171.103 46.8752C168.259 48.8351 161.995 41.6237 159.755 39.2138ZM188.157 49.0012C187.621 44.5687 188.711 38.7664 189.153 35.9731C192.367 38.82 196.424 48.9698 192.931 51.8886C192.148 52.4355 190.835 52.8816 189.859 52.5323C188.734 51.9671 188.353 50.32 188.166 49.0745C188.22 49.4958 188.118 48.7382 188.157 49.0012ZM208.223 63.2015C210.47 70.0609 212.028 80.1283 205.233 77.5052C200.883 75.459 206.207 67.4548 208.223 63.2015ZM201.684 40.4541C206.791 39.0607 210.405 40.0406 209.097 39.8078C211.58 40.1532 213.24 40.8937 214.922 42.1627C215.758 42.8286 217.306 44.1997 217.262 45.2673C217.027 46.3139 214.568 46.6476 213.465 46.5325C209.693 45.9633 204.758 42.7266 201.684 40.4541ZM169.149 30.9676C168.724 27.6052 168.925 22.983 170.897 20.2526C171.428 19.5919 171.861 19.2727 172.443 18.9966C173.475 18.6002 175.387 18.5295 176.304 19.1327C178.251 20.806 172.786 27.9009 169.149 30.9676ZM146.08 42.86C145.766 45.0344 145.178 47.146 144.528 49.2393C143.203 47.7766 141.815 45.6546 140.81 43.2996C137.96 36.2675 141.519 33.5279 142.827 33.5933C144.345 33.9152 146.782 37.1179 146.08 42.86ZM113.751 61.7088C113.751 63.0105 117.972 66.959 123.114 67.2638C124.905 67.3672 126.68 67.0806 128.386 66.5482C129.365 68.5172 130.966 72.3583 133.087 74.9056C133.797 75.7534 134.64 76.541 135.693 76.94C136.597 77.2815 137.625 77.2004 138.463 76.7097C144.015 73.4652 137.785 68.2319 131.383 65.3458C134.946 63.5914 138.031 61.0154 140.822 58.1698C141.624 59.4624 142.474 60.7275 143.394 61.9377C144.665 63.6189 146.03 65.2752 147.651 66.6345C149.081 67.8355 150.753 68.9489 152.67 69.0876C153.991 69.1857 155.18 68.7278 156.241 67.9271C157.203 67.2141 157.966 66.174 157.922 65.0096C157.765 61.001 150.27 57.8427 146.362 56.7908C145.386 56.5305 144.405 56.3316 143.404 56.2139C143.174 56.1864 142.945 56.1694 142.717 56.1576C147.838 50.4861 151.946 44.4221 157.531 39.7031C157.577 39.7881 157.628 39.8706 157.696 39.9425C159.407 41.7218 161.883 44.6956 164.928 46.9995C171.886 52.2837 174.25 46.5756 174.377 44.6851C174.678 39.8091 165.988 37.2906 160.954 37.1885C168.857 32.1529 178.469 30.8407 187.468 34.2161C186.921 34.9998 185.962 43.666 185.984 46.4998C186.005 49.4696 186.424 54.3338 190.262 54.6609C191.12 54.7329 192.015 54.5288 192.807 54.2017C199.203 51.5367 195.374 41.0049 192.149 36.5148C197.601 39.8287 201.989 44.8748 204.694 51.2633C206.773 56.3303 207.121 60.9238 206.952 59.4912C206.998 59.8562 207.023 60.1911 207.234 60.4711C207.237 60.5038 207.223 60.5404 207.231 60.5718C207.067 60.7053 206.939 60.8871 206.867 61.1004C206.63 61.8487 205.902 63.2303 205.539 63.9263C203.628 67.6354 199.88 74.3012 202.344 77.6687C205.088 81.4458 216.01 82.8509 210.542 64.0807C210.172 62.8234 209.6 61.0363 209.014 59.8654C208.23 53.7294 206.149 48.4399 202.874 43.8216C205.176 45.3772 207.524 46.7941 210.159 47.7806C212.369 48.6152 214.642 49.0627 216.839 48.139C218.384 47.5006 219.511 46.4657 219.301 44.8827C218.819 41.2613 211.283 34.8912 199.643 38.9626C199.341 38.8671 199.072 38.9312 198.805 39.1013C191.474 31.9972 182.004 29.132 172.387 30.5921C182.645 19.9883 178.588 16.0242 172.947 16.8837C170.588 17.25 169.1 19.0372 168.213 21.243C166.67 25.0619 166.935 31.1363 167.436 31.7303C158.095 34.6701 152.476 40.8649 147.125 47.2743C148.425 42.4584 149.009 37.7105 146.061 33.7137C145.622 33.1158 145.091 32.5271 144.442 32.1437C141.175 30.2087 137.925 34.1847 137.726 37.8728C137.58 40.632 138.618 43.5888 139.908 46.0143C140.893 47.8721 142.284 49.8634 143.744 51.2894C139.475 56.3172 133.189 63.369 125.448 64.5294C123.365 64.7675 121.803 64.5373 120.142 63.8687C118.427 63.089 117.238 62.1196 115.999 60.7785C115.253 59.97 113.751 60.4986 113.751 61.7088Z" fill="#734D37"/>
</svg>
