<svg width="191" height="55" viewBox="0 0 191 55" fill="none" xmlns="http://www.w3.org/2000/svg">
<path d="M98.5671 12.959C98.5831 12.9257 98.5964 12.8897 98.6111 12.8537C98.6004 12.8777 98.5778 12.935 98.5671 12.959Z" fill="#734D37"/>
<path d="M94.7272 34.443C91.5712 30.0897 72.4619 7.00173 81.6512 2.53773C82.1339 2.36306 82.4512 2.31773 83.0406 2.36839C83.8912 2.51239 84.8579 2.86172 86.3339 3.96706C90.2686 7.04039 93.9246 12.7244 95.2339 15.6964C95.4126 16.1071 95.4579 16.4417 95.8445 16.6684C96.0739 16.8044 96.3605 16.8457 96.6152 16.7724C96.8152 16.719 96.9859 16.5791 97.1232 16.4124C97.6205 16.2351 97.6819 15.9324 97.7632 15.5017C97.7632 15.5017 98.2445 12.1017 102.049 7.07371C103.013 5.83105 104.077 4.65638 105.306 3.67238C105.882 3.23638 106.49 2.84706 107.15 2.55106C107.517 2.40839 107.886 2.29639 108.273 2.23506C108.519 2.21239 108.762 2.20972 109.006 2.22838C109.246 2.26838 109.477 2.33105 109.701 2.41505C109.943 2.52839 110.171 2.66571 110.39 2.82305C110.675 3.06305 110.935 3.32973 111.173 3.6204C111.985 4.7204 112.427 5.78039 112.645 7.18172C113.878 18.2337 95.8859 33.1097 94.7272 34.443ZM110.551 0.751057C110.089 0.547058 109.635 0.423054 109.135 0.365719C108.986 0.347054 108.838 0.339043 108.691 0.339043C108.367 0.339043 108.043 0.377716 107.713 0.428383C106.775 0.579048 105.875 1.02705 105.078 1.52705C101.481 3.78438 97.7645 9.32439 96.3565 13.4351C94.1845 9.35639 88.1259 0.627045 82.7565 0.39238C81.8725 0.357712 80.9739 0.62038 80.2259 1.09105C70.0432 7.51904 89.0539 29.8137 93.3699 35.8871C93.8566 36.5737 94.6552 36.4991 95.0299 35.9044C95.3966 36.0924 95.8405 36.027 96.1552 35.7404C103.087 29.4897 113.566 18.6551 114.51 9.42838C114.939 5.17905 112.742 1.73772 110.551 0.751057Z" fill="#734D37"/>
<path d="M68.8698 36.6922C68.0991 37.4615 68.9871 38.1762 69.6977 38.9522C70.4937 39.8309 71.9724 38.6095 71.0564 37.5989C70.7804 37.2962 70.5044 36.9935 70.2284 36.6922C69.8751 36.3029 69.2298 36.3322 68.8698 36.6922C82.2031 36.6922 55.5364 36.6922 68.8698 36.6922Z" fill="#734D37"/>
<path d="M55.1738 15.1323C65.7311 15.6323 73.4591 22.9523 72.1257 21.8203C75.3231 24.2937 78.1884 27.1336 80.9431 30.0483C69.8284 27.0163 60.9484 25.1443 55.1738 15.1323ZM84.6884 30.9136C78.3511 24.0643 71.8484 17.7083 63.4284 14.7363C61.7617 14.147 54.4617 12.2896 53.4524 13.4896C52.7164 13.6376 52.5404 14.3363 52.8191 14.8776C59.3644 27.4856 69.8937 29.6403 83.0217 33.0003C84.0617 33.3043 84.6151 32.935 84.7871 32.3096C84.7897 32.299 84.7871 32.2896 84.7897 32.2803C85.0857 31.8603 85.0471 31.299 84.6884 30.9136Z" fill="#734D37"/>
<path d="M72.1819 21.8656C72.2139 21.8883 72.2459 21.9136 72.2766 21.9363C72.2406 21.9083 72.2219 21.8936 72.1819 21.8656Z" fill="#734D37"/>
<path d="M70.6631 41.6655C70.7858 41.2975 70.7444 40.9668 70.4431 40.6415C71.3764 40.3122 72.3164 39.9975 73.2591 39.6948C72.2724 40.3882 72.8338 39.9388 70.6631 41.6655ZM64.3511 46.6242C64.9431 45.4828 65.4378 44.2855 65.8711 43.0788C65.9671 42.8122 65.9098 42.5295 65.7671 42.2962C66.7431 41.9562 67.7178 41.6122 68.6911 41.2628C68.4044 42.1015 68.1671 42.9508 67.9671 43.8148C66.6338 44.9055 65.8431 45.5748 64.3511 46.6242ZM55.4071 50.7642C57.2018 49.1362 59.8658 45.4895 59.4538 44.1562C60.8991 43.8268 62.3258 43.4375 63.7338 42.9828C62.3738 46.5828 61.2178 48.0428 60.0871 49.1495C58.7524 49.7948 57.4298 50.3242 55.4071 50.7642ZM47.1898 50.8108C50.3978 49.1082 52.4524 46.3535 52.7538 45.0428C54.3578 45.0108 55.8004 44.8375 57.4258 44.5628C56.5671 46.8668 54.4444 49.5015 51.4644 51.1922C49.5151 51.2122 48.4231 51.0468 47.1898 50.8108ZM39.9551 48.3575C42.1484 47.8122 46.0284 45.7548 46.4138 44.4215C47.6751 44.6828 48.2591 44.8535 50.5778 44.9855C49.2511 47.3335 46.7031 49.3028 43.9364 49.9762C41.6618 49.2442 41.2884 49.0015 39.9551 48.3575ZM33.1538 44.3002C35.3484 44.0962 37.3338 43.5962 39.3124 42.1282C40.9084 42.8242 42.5431 43.4242 44.2151 43.8988C42.2871 45.6268 39.8218 46.6682 36.8631 46.7055C35.5938 45.9562 34.3564 45.1562 33.1538 44.3002ZM21.5951 34.1922C25.0671 34.9335 28.0378 36.3668 31.2084 38.0268C29.4538 38.4988 27.6098 38.4148 25.7351 38.1908C24.3244 36.8895 22.9471 35.5548 21.5951 34.1922ZM29.9618 30.3042C30.0098 30.4308 30.0818 30.5468 30.1844 30.6455C32.2991 32.6575 33.3911 34.8828 34.6858 37.7615C33.6404 37.2055 32.5911 36.6535 31.5391 36.1082C31.9298 35.0335 28.3364 31.0722 27.4778 30.2788C28.3058 30.2402 29.1351 30.2468 29.9618 30.3042ZM37.3618 39.1468C37.3538 38.5148 35.0284 33.2735 32.9751 30.7415C34.3658 31.0268 35.7324 31.4055 37.0778 31.8588C36.8298 32.3028 36.9231 32.6495 37.2284 33.0402C38.1444 34.1602 39.1218 36.0962 39.7178 37.4975C39.6471 37.3442 40.0018 38.1042 40.9244 40.7948C40.1511 40.4842 39.3191 40.1335 37.3618 39.1468ZM20.6658 32.1415C21.8338 31.5042 22.9711 31.0508 24.8298 30.6468C25.8884 31.4015 27.3031 32.7735 28.7258 34.7348C26.0138 33.4855 23.6311 32.5588 20.6658 32.1415ZM30.6631 42.4242C29.7698 41.7135 28.8858 40.9935 28.0244 40.2482C30.0804 40.3055 31.6058 40.1282 33.4898 39.2322C36.8511 41.0242 36.2498 40.6708 37.1564 41.1175C35.1018 42.2442 33.0084 42.4015 30.6631 42.4242ZM42.3671 34.0108C42.4218 34.4868 43.0431 35.0588 43.4284 35.5415C45.3871 38.1468 46.1671 40.4055 46.6684 42.5895C45.4818 42.3348 44.3151 41.9962 43.1631 41.6122C43.4098 40.5095 40.4698 34.2282 39.4418 32.7295C40.3244 33.0842 40.0111 32.9122 42.3671 34.0108ZM48.7631 42.9588C48.3778 40.5468 47.3138 37.7655 45.7658 35.4588C46.6764 35.8028 47.5991 36.1122 48.5378 36.3762C48.4578 36.6295 48.4791 36.9682 48.6298 37.1708C50.8324 40.1722 50.8778 41.8028 51.5244 43.1362C50.5951 43.1175 49.6938 43.0708 48.7631 42.9588ZM53.4351 37.3362C53.3511 37.5935 53.3738 37.9308 53.5244 38.1322C55.2978 40.4695 55.3164 41.5562 56.0098 42.8908C55.4964 42.9668 54.5284 43.0642 53.3311 43.1148C53.7938 42.0655 51.5111 37.8922 50.8818 36.9335C51.7284 37.0975 52.5791 37.2362 53.4351 37.3362ZM62.7618 41.2735C62.0831 39.9575 61.2471 38.7335 60.3151 37.5882C61.1231 37.5628 61.9298 37.5242 62.7364 37.4748C62.7844 37.6282 62.8564 37.7735 62.9804 37.8882C63.7884 38.6308 64.2711 39.2602 64.7871 40.2322C64.8484 40.3482 64.9378 40.4402 65.0351 40.5175C64.2818 40.7842 63.5231 41.0322 62.7618 41.2735ZM57.8884 42.5495C57.9618 41.6282 56.0871 38.3468 55.4978 37.5175C56.3578 37.5722 57.2191 37.6082 58.0791 37.6162C58.1031 38.1362 58.7124 38.7042 59.0777 39.1588C59.7271 40.0215 60.2871 40.9295 60.8204 41.8615C59.8524 42.1282 58.8738 42.3548 57.8884 42.5495ZM76.0311 36.7948C73.1244 37.5682 70.2351 38.6175 66.6991 39.9215C66.8431 39.1655 65.7711 37.8682 65.2698 37.2895C68.4511 37.0255 72.1311 36.5855 76.0311 36.7948ZM81.6018 35.5202C67.9471 32.0202 61.0084 40.0308 41.9191 31.6562C33.9498 28.1575 25.5218 26.5108 18.2578 31.3842C17.8591 31.6535 17.6884 32.1415 17.8871 32.5882C17.8551 32.8682 17.9311 33.1588 18.1378 33.3788C21.6498 37.0322 25.2844 40.6015 29.2444 43.7682C29.3738 44.1175 29.6938 44.3695 30.0751 44.4082C31.8298 45.7708 33.5138 46.9842 35.4511 48.1682C35.6218 48.5308 35.9364 48.7508 36.4804 48.7615C40.7938 51.2468 45.5524 53.0082 50.5364 53.1988C50.9831 53.5842 51.3431 53.4682 51.8058 53.2388C61.5298 53.0775 67.4764 46.7655 72.9284 42.5455C72.0031 43.2028 76.3858 39.6482 80.6004 38.1495C80.9004 38.0455 81.1284 37.8268 81.2524 37.5588C82.5631 37.6322 82.7658 35.8282 81.6018 35.5202Z" fill="#734D37"/>
<path d="M39.6404 37.3162C39.6524 37.3455 39.6644 37.3762 39.6777 37.4055C39.6391 37.3122 39.6404 37.3162 39.6404 37.3162Z" fill="#734D37"/>
<path d="M30.7765 18.6549C32.3912 17.6016 33.9432 19.147 33.8405 20.7976C33.6659 21.0363 33.6245 21.2736 33.6765 21.5483C31.8299 22.1483 30.1019 21.0723 29.8992 20.111C29.8685 19.507 30.3125 19.0429 30.7765 18.6549ZM38.2859 12.6483C38.9285 12.2136 39.3459 12.187 39.8672 12.363C40.9032 12.8883 41.2632 14.0443 40.3485 14.9203C40.2685 14.9963 40.2099 15.0883 40.1645 15.1843C39.8765 15.3043 39.8285 15.4163 39.7299 15.571C38.0245 15.6896 37.0619 13.7176 38.2859 12.6483ZM35.5379 22.7283C39.1419 23.935 43.0205 24.047 46.7499 23.5043C50.2965 26.335 53.9805 28.6616 58.3552 29.9963C59.6299 30.3816 60.3192 28.387 58.9178 27.9496C53.1818 26.1296 46.6805 21.8203 41.8539 16.1549C44.0525 13.8309 42.1405 10.331 39.3565 10.331C37.8005 10.331 36.2019 11.4376 35.8645 13.071C35.3445 15.579 37.7405 18.1083 40.4245 17.4043C41.7299 18.955 43.1539 20.3963 44.6672 21.7456C41.6619 21.9696 38.6979 21.783 35.8499 20.7976C36.1045 15.815 29.4312 14.7123 28.0299 19.2083C26.9405 22.611 32.6632 25.1936 35.5379 22.7283Z" fill="#734D37"/>
<path d="M15.7738 42.271C15.7698 42.2697 15.7645 42.2697 15.7591 42.2683C15.6405 42.255 15.6618 42.259 15.7738 42.271Z" fill="#734D37"/>
<path d="M14.3498 52.2603C13.0605 51.9963 12.3938 50.7963 13.1898 49.6177C13.6045 49.1457 14.0765 48.9643 14.7058 49.123C14.7792 49.5457 15.0912 49.667 15.3925 50.0163C15.5978 50.3177 15.6538 50.459 15.7138 50.7617C15.7205 50.8777 15.7205 50.9923 15.7138 51.107C15.5645 51.8577 15.1258 52.3097 14.3498 52.2603ZM5.15118 48.391C4.82584 48.507 4.60584 48.5537 4.03384 48.499C3.39651 48.3803 3.08717 48.239 2.72984 48.0003C2.41784 47.739 2.28051 47.571 2.09651 47.207C1.40051 45.3283 2.97517 42.7217 5.3405 43.8817C5.32583 44.0683 5.36584 44.2563 5.47917 44.415C5.88184 44.9843 6.04583 45.4163 6.1565 46.0377C6.18583 46.319 6.18717 46.5963 6.1605 46.8777C6.02317 47.5897 5.80051 48.067 5.15118 48.391ZM5.8085 42.019C1.58583 40.327 -1.3755 45.4363 0.655164 48.555C1.23383 49.4403 2.14984 49.9923 3.14584 50.2737C3.7805 50.451 4.4525 50.4923 5.10316 50.3883C7.8205 49.967 9.16851 46.4643 7.14851 43.4337C10.9872 41.1657 17.0298 42.499 15.5592 42.2403C17.2712 42.4737 18.9538 42.8723 20.6005 43.3737C18.5005 44.2257 16.6405 45.215 14.9085 47.2043C13.3765 46.9457 12.0072 47.6643 11.3245 48.9897C11.1472 49.327 11.0325 49.6923 10.9752 50.0617C10.9072 50.5043 10.9285 50.895 10.9965 51.3323C11.0538 51.7123 11.2258 52.0883 11.4178 52.4163C11.6472 52.807 11.9752 53.1243 12.3352 53.4003C13.0325 53.9363 13.9445 54.2657 14.8352 54.1563C15.6472 54.0617 16.3872 53.671 16.8925 53.0203C18.0005 51.5843 17.8552 49.6617 16.4125 48.3497C17.6738 46.9657 19.0765 46.083 21.0672 45.2243C21.5592 45.023 22.8085 44.659 23.0445 44.2417C23.0498 44.2337 23.0498 44.223 23.0552 44.2137C23.7405 44.4763 23.8098 44.479 24.5592 44.8137C25.5632 45.2657 26.2285 44.4337 26.0338 43.683C25.6392 42.3497 12.6525 37.503 5.8085 42.019Z" fill="#734D37"/>
<path d="M110.014 30.0483C112.767 27.1336 115.634 24.2937 118.831 21.8203C117.497 22.9523 125.225 15.6323 135.783 15.1323C130.009 25.1443 121.129 27.0163 110.014 30.0483ZM106.167 32.2803C106.17 32.2896 106.166 32.299 106.169 32.3096C106.342 32.935 106.895 33.3043 107.934 33.0003C121.063 29.6403 131.593 27.4856 138.138 14.8776C138.417 14.3363 138.241 13.6376 137.505 13.4896C136.494 12.2896 129.195 14.147 127.53 14.7363C119.107 17.7083 112.605 24.0643 106.267 30.9136C105.91 31.299 105.871 31.8603 106.167 32.2803Z" fill="#734D37"/>
<path d="M118.774 21.8656C118.743 21.8883 118.711 21.9136 118.68 21.9363C118.716 21.9083 118.735 21.8936 118.774 21.8656Z" fill="#734D37"/>
<path d="M117.698 39.6948C118.64 39.9975 119.58 40.3122 120.514 40.6415C120.212 40.9668 120.17 41.2975 120.294 41.6655C118.123 39.9388 118.684 40.3882 117.698 39.6948ZM122.99 43.8148C122.79 42.9508 122.551 42.1015 122.266 41.2628C123.239 41.6122 124.214 41.9562 125.19 42.2962C125.046 42.5295 124.988 42.8122 125.086 43.0788C125.519 44.2855 126.014 45.4828 126.606 46.6242C125.114 45.5748 124.323 44.9055 122.99 43.8148ZM130.87 49.1495C129.74 48.0428 128.583 46.5828 127.222 42.9828C128.631 43.4375 130.056 43.8268 131.503 44.1562C131.091 45.4895 133.756 49.1362 135.548 50.7642C133.527 50.3242 132.203 49.7948 130.87 49.1495ZM139.492 51.1922C136.512 49.5015 134.39 46.8668 133.532 44.5628C135.156 44.8375 136.598 45.0108 138.203 45.0428C138.503 46.3535 140.558 49.1082 143.767 50.8108C142.535 51.0468 141.44 51.2122 139.492 51.1922ZM147.02 49.9762C144.254 49.3028 141.706 47.3335 140.378 44.9855C142.699 44.8535 143.282 44.6828 144.543 44.4215C144.928 45.7548 148.808 47.8122 151 48.3575C149.667 49.0015 149.295 49.2442 147.02 49.9762ZM154.094 46.7055C151.135 46.6682 148.67 45.6268 146.742 43.8988C148.415 43.4242 150.048 42.8242 151.646 42.1282C153.623 43.5962 155.607 44.0962 157.803 44.3002C156.6 45.1562 155.363 45.9562 154.094 46.7055ZM165.222 38.1908C163.347 38.4148 161.503 38.4988 159.748 38.0268C162.919 36.3668 165.89 34.9335 169.362 34.1922C168.01 35.5548 166.632 36.8895 165.222 38.1908ZM163.479 30.2788C162.62 31.0722 159.027 35.0335 159.418 36.1082C158.366 36.6535 157.316 37.2055 156.271 37.7615C157.566 34.8828 158.656 32.6575 160.771 30.6455C160.874 30.5468 160.947 30.4308 160.995 30.3042C161.822 30.2468 162.65 30.2402 163.479 30.2788ZM150.032 40.7948C150.956 38.1042 151.311 37.3442 151.239 37.4975C151.834 36.0962 152.814 34.1602 153.728 33.0402C154.035 32.6495 154.127 32.3028 153.879 31.8588C155.223 31.4055 156.591 31.0268 157.982 30.7415C155.928 33.2735 153.603 38.5148 153.595 39.1468C151.638 40.1335 150.806 40.4842 150.032 40.7948ZM162.231 34.7348C163.654 32.7735 165.068 31.4015 166.127 30.6468C167.986 31.0508 169.123 31.5042 170.291 32.1415C167.326 32.5588 164.943 33.4855 162.231 34.7348ZM153.8 41.1175C154.707 40.6708 154.104 41.0242 157.467 39.2322C159.351 40.1282 160.876 40.3055 162.932 40.2482C162.071 40.9935 161.187 41.7135 160.294 42.4242C157.948 42.4015 155.855 42.2442 153.8 41.1175ZM151.515 32.7295C150.486 34.2282 147.547 40.5095 147.794 41.6122C146.642 41.9962 145.475 42.3348 144.288 42.5895C144.79 40.4055 145.57 38.1468 147.528 35.5415C147.915 35.0588 148.535 34.4868 148.591 34.0108C150.944 32.9122 150.632 33.0842 151.515 32.7295ZM139.432 43.1362C140.079 41.8028 140.124 40.1722 142.327 37.1708C142.479 36.9682 142.499 36.6295 142.419 36.3762C143.358 36.1122 144.28 35.8028 145.191 35.4588C143.644 37.7655 142.579 40.5468 142.194 42.9588C141.263 43.0708 140.362 43.1175 139.432 43.1362ZM140.075 36.9335C139.446 37.8922 137.162 42.0655 137.626 43.1148C136.428 43.0642 135.46 42.9668 134.946 42.8908C135.64 41.5562 135.659 40.4695 137.432 38.1322C137.583 37.9308 137.606 37.5935 137.522 37.3362C138.378 37.2362 139.23 37.0975 140.075 36.9335ZM125.922 40.5175C126.019 40.4402 126.107 40.3482 126.17 40.2322C126.686 39.2602 127.168 38.6308 127.978 37.8882C128.1 37.7735 128.174 37.6282 128.22 37.4748C129.027 37.5242 129.834 37.5628 130.642 37.5882C129.71 38.7335 128.874 39.9575 128.195 41.2735C127.434 41.0322 126.675 40.7842 125.922 40.5175ZM130.136 41.8615C130.668 40.9295 131.23 40.0215 131.878 39.1588C132.244 38.7042 132.854 38.1362 132.878 37.6162C133.738 37.6082 134.599 37.5722 135.46 37.5175C134.87 38.3468 132.995 41.6282 133.068 42.5495C132.083 42.3548 131.104 42.1282 130.136 41.8615ZM125.687 37.2895C125.186 37.8682 124.112 39.1655 124.258 39.9215C120.722 38.6175 117.831 37.5682 114.924 36.7948C118.826 36.5855 122.507 37.0255 125.687 37.2895ZM109.703 37.5588C109.827 37.8268 110.056 38.0455 110.356 38.1495C114.571 39.6482 118.954 43.2028 118.028 42.5455C123.48 46.7655 129.427 53.0775 139.15 53.2388C139.614 53.4682 139.974 53.5842 140.42 53.1988C145.404 53.0082 150.163 51.2468 154.476 48.7615C155.02 48.7508 155.335 48.5308 155.506 48.1682C157.443 46.9842 159.127 45.7708 160.882 44.4082C161.263 44.3695 161.583 44.1175 161.711 43.7682C165.672 40.6015 169.307 37.0322 172.819 33.3788C173.026 33.1588 173.102 32.8682 173.07 32.5882C173.267 32.1415 173.098 31.6535 172.7 31.3842C165.435 26.5108 157.007 28.1575 149.038 31.6562C129.948 40.0308 123.01 32.0202 109.356 35.5202C108.191 35.8282 108.394 37.6322 109.703 37.5588Z" fill="#734D37"/>
<path d="M151.316 37.3162C151.306 37.3455 151.292 37.3762 151.279 37.4055C151.316 37.3122 151.316 37.3162 151.316 37.3162Z" fill="#734D37"/>
<path d="M161.058 20.111C160.855 21.0723 159.127 22.1483 157.28 21.5483C157.332 21.2736 157.291 21.0363 157.118 20.7976C157.015 19.147 158.566 17.6016 160.18 18.6549C160.646 19.0429 161.089 19.507 161.058 20.111ZM151.226 15.571C151.129 15.4163 151.081 15.3043 150.793 15.1843C150.747 15.0883 150.689 14.9963 150.607 14.9203C149.694 14.0443 150.053 12.8883 151.091 12.363C151.61 12.187 152.029 12.2136 152.671 12.6483C153.895 13.7176 152.931 15.6896 151.226 15.571ZM162.926 19.2083C161.526 14.7123 154.853 15.815 155.107 20.7976C152.258 21.783 149.295 21.9696 146.29 21.7456C147.803 20.3963 149.226 18.955 150.534 17.4043C153.217 18.1083 155.613 15.579 155.091 13.071C154.757 11.4376 153.155 10.331 151.601 10.331C148.815 10.331 146.905 13.8309 149.102 16.1549C144.277 21.8203 137.774 26.1296 132.038 27.9496C130.638 28.387 131.327 30.3816 132.601 29.9963C136.978 28.6616 140.659 26.335 144.206 23.5043C147.937 24.047 151.815 23.935 155.419 22.7283C158.294 25.1936 164.017 22.611 162.926 19.2083Z" fill="#734D37"/>
<path d="M175.183 42.271C175.187 42.2697 175.192 42.2697 175.198 42.2683C175.316 42.255 175.295 42.259 175.183 42.271Z" fill="#734D37"/>
<path d="M175.243 51.107C175.236 50.9923 175.236 50.8777 175.243 50.7617C175.304 50.459 175.359 50.3177 175.564 50.0163C175.866 49.667 176.178 49.5457 176.251 49.123C176.879 48.9643 177.352 49.1457 177.767 49.6177C178.563 50.7963 177.896 51.9963 176.607 52.2603C175.831 52.3097 175.391 51.8577 175.243 51.107ZM184.796 46.8777C184.768 46.5963 184.77 46.319 184.8 46.0377C184.911 45.4163 185.075 44.9843 185.479 44.415C185.591 44.2563 185.632 44.0683 185.616 43.8817C187.982 42.7217 189.556 45.3283 188.86 47.207C188.676 47.571 188.539 47.739 188.226 48.0003C187.87 48.239 187.56 48.3803 186.924 48.499C186.351 48.5537 186.131 48.507 185.806 48.391C185.155 48.067 184.932 47.5897 184.796 46.8777ZM164.924 43.683C164.728 44.4337 165.394 45.2657 166.398 44.8137C167.147 44.479 167.215 44.4763 167.902 44.2137C167.907 44.223 167.907 44.2337 167.912 44.2417C168.148 44.659 169.398 45.023 169.89 45.2243C171.879 46.083 173.283 46.9657 174.544 48.3497C173.1 49.6617 172.956 51.5843 174.064 53.0203C174.57 53.671 175.31 54.0617 176.122 54.1563C177.012 54.2657 177.924 53.9363 178.622 53.4003C178.98 53.1243 179.31 52.807 179.538 52.4163C179.731 52.0883 179.903 51.7123 179.96 51.3323C180.028 50.895 180.048 50.5043 179.98 50.0617C179.924 49.6923 179.81 49.327 179.632 48.9897C178.95 47.6643 177.58 46.9457 176.047 47.2043C174.316 45.215 172.456 44.2257 170.356 43.3737C172.003 42.8723 173.686 42.4737 175.398 42.2403C173.926 42.499 179.971 41.1657 183.808 43.4337C181.788 46.4643 183.136 49.967 185.854 50.3883C186.504 50.4923 187.176 50.451 187.812 50.2737C188.807 49.9923 189.723 49.4403 190.302 48.555C192.331 45.4363 189.371 40.327 185.148 42.019C178.304 37.503 165.318 42.3497 164.924 43.683Z" fill="#734D37"/>
</svg>
