<svg width="285" height="241" viewBox="0 0 285 241" fill="none" xmlns="http://www.w3.org/2000/svg">
<path d="M66.5659 20.011V92.5276H121.633V20.011H66.5659ZM117.814 87.4714H70.4134V25.0743H117.814V87.4714Z" fill="#C3A28E"/>
<path opacity="0.5" d="M66.5659 20.011V92.5276H121.633V20.011H66.5659ZM117.814 87.4714H70.4134V25.0743H117.814V87.4714Z" fill="white"/>
<path d="M237.094 59.6804V113.231H277.772V59.6804H237.094ZM274.933 109.491H239.954V63.4493H274.954L274.933 109.491Z" fill="#C3A28E"/>
<path opacity="0.5" d="M237.094 59.6804V113.231H277.772V59.6804H237.094ZM274.933 109.491H239.954V63.4493H274.954L274.933 109.491Z" fill="white"/>
<path d="M262.425 155.99H259.393H122.462H119.43V162.054H122.462V223.701H259.393V162.054H262.425V155.99Z" fill="#C3A28E"/>
<path opacity="0.5" d="M262.425 155.99H259.393H122.462H119.43V162.054H122.462V223.701H259.393V162.054H262.425V155.99Z" fill="white"/>
<path d="M126.124 188.208H163.469V168.248H126.124V188.208ZM126.882 169.006H162.718V187.45H126.889L126.882 169.006Z" fill="white"/>
<path d="M172.509 188.208H209.854V168.248H172.509V188.208ZM173.267 169.006H209.096V187.45H173.267V169.006Z" fill="white"/>
<path d="M218.887 168.248V188.208H256.232V168.248H218.887ZM255.474 187.45H219.645V169.006H255.474V187.45Z" fill="white"/>
<path d="M126.124 214.983H163.469V195.038H126.124V214.983ZM126.882 195.753H162.718V214.197H126.889L126.882 195.753Z" fill="white"/>
<path d="M172.509 214.983H209.854V195.038H172.509V214.983ZM173.267 195.753H209.096V214.197H173.267V195.753Z" fill="white"/>
<path d="M218.887 214.983H256.232V195.038H218.887V214.983ZM219.645 195.753H255.474V214.197H219.645V195.753Z" fill="white"/>
<path d="M145.197 180.756C148.546 180.756 151.261 179.738 151.261 178.482C151.261 177.226 148.546 176.208 145.197 176.208C141.847 176.208 139.132 177.226 139.132 178.482C139.132 179.738 141.847 180.756 145.197 180.756Z" fill="white"/>
<path d="M191.353 180.756C194.702 180.756 197.417 179.738 197.417 178.482C197.417 177.226 194.702 176.208 191.353 176.208C188.003 176.208 185.288 177.226 185.288 178.482C185.288 179.738 188.003 180.756 191.353 180.756Z" fill="white"/>
<path d="M238.854 180.756C242.203 180.756 244.918 179.738 244.918 178.482C244.918 177.226 242.203 176.208 238.854 176.208C235.504 176.208 232.789 177.226 232.789 178.482C232.789 179.738 235.504 180.756 238.854 180.756Z" fill="white"/>
<path d="M145.197 202.983C141.85 202.983 139.132 204.005 139.132 205.257C139.132 206.508 141.85 207.531 145.197 207.531C148.544 207.531 151.261 206.516 151.261 205.257C151.261 203.998 148.544 202.983 145.197 202.983Z" fill="white"/>
<path d="M191.324 202.983C187.977 202.983 185.26 204.005 185.26 205.257C185.26 206.508 187.977 207.531 191.324 207.531C194.671 207.531 197.389 206.516 197.389 205.257C197.389 203.998 194.707 202.983 191.324 202.983Z" fill="white"/>
<path d="M238.854 202.983C235.499 202.983 232.789 204.005 232.789 205.257C232.789 206.508 235.499 207.531 238.854 207.531C242.208 207.531 244.918 206.516 244.918 205.257C244.918 203.998 242.2 202.983 238.854 202.983Z" fill="white"/>
<path d="M102.645 150.698C99.8777 154.796 96.0302 160.124 93.9777 164.393C94.7644 161.575 95.5225 158.915 96.2233 156.526C97.2746 154.467 100.085 149.246 103.332 145.799C107.458 141.387 109.225 138.547 107.001 138.297C105.463 138.133 100.958 144.133 98.1328 150.09C98.7478 148.052 99.2341 146.514 99.5631 145.585C99.6989 145.177 99.8277 144.719 99.9564 144.24C102.859 140.129 105.496 135.836 107.852 131.389C112.021 123.601 113.366 116.249 110.584 119.41C108.023 122.321 103.568 136.788 100.035 143.604C100.328 142.431 100.614 141.129 100.865 139.856C101.365 138.612 102.023 137.353 102.395 136.216C102.974 134.457 103.482 132.64 103.89 130.874C104.569 128.064 104.91 125.183 104.905 122.292C104.977 118.897 104.052 115.555 102.245 112.68C101.766 111.965 98.8408 107.581 97.954 109.82C97.8361 110.19 97.814 110.583 97.8896 110.964C98.3116 114.69 99.6632 118.115 100.5 121.741C101.751 127.169 100.922 136.287 100.5 140.164C100.335 140.772 100.135 141.537 99.8992 142.416C100.486 135.665 97.5535 127.663 94.8431 126.261C91.489 124.53 94.7787 131.324 97.3675 137.253C98.5966 139.85 99.1735 142.707 99.0482 145.577C98.5189 147.53 97.9111 149.718 97.2817 151.935C97.1602 152.243 97.0386 152.543 96.9313 152.843C97.2152 151.398 97.3328 149.925 97.2817 148.452C97.0314 144.576 92.6404 136.81 89.7297 137.911C86.819 139.012 91.7464 143.096 94.3854 147.859C95.7532 150.49 96.2729 153.48 95.8729 156.419C95.8729 156.591 95.8157 156.762 95.7942 156.934C95.4938 157.942 95.1935 158.922 94.9003 159.845C94.1851 161.99 93.5772 164.05 92.9694 166.038C93.7153 163.156 94.0452 160.181 93.9491 157.206C93.5772 151.52 90.2518 146.157 87.477 145.427C84.7022 144.698 89.9729 153.959 91.7679 159.165C92.716 162.213 92.8662 165.454 92.2041 168.577C91.3603 171.394 90.5521 174.169 89.7297 177.116C89.9621 173.265 89.8808 169.403 89.4866 165.566C88.9502 159.244 85.1956 155.203 82.5996 155.375C80.0036 155.547 82.7141 159.13 86.4543 166.817C88.4189 170.853 89.2941 175.333 88.9931 179.812C88.657 181.056 88.3137 182.329 87.9633 183.659C87.5699 185.175 87.2481 186.82 86.9692 188.515C86.5902 187.006 86.0324 184.804 85.3816 182.372C84.6237 179.682 84.0738 176.937 83.7367 174.162C83.3863 170.944 82.5424 166.918 79.3814 165.244C79.167 165.093 78.922 164.991 78.6638 164.946C78.4055 164.9 78.1404 164.912 77.8873 164.98C77.6341 165.048 77.399 165.171 77.1987 165.341C76.9984 165.51 76.8378 165.721 76.7282 165.959C76.4314 166.649 76.3638 167.416 76.5351 168.148C76.954 170.34 77.6761 172.462 78.6806 174.455C78.0581 175.646 77.7737 176.984 77.8582 178.324C77.8582 178.832 77.9082 179.333 77.9368 179.826C77.6579 179.318 77.3933 178.846 77.143 178.396C76.6927 177.637 76.1337 176.948 75.4839 176.35C75.6493 175.166 75.7306 173.971 75.727 172.775C75.727 171.201 73.8891 167.211 72.2299 170.171C71.572 171.351 71.7007 173.683 71.6363 175.228C71.1786 175.65 71.0427 176.522 71.4218 177.902C71.0452 181.485 71.2334 185.105 71.9796 188.63L71.4146 187.628C70.602 183.492 70.1237 179.297 69.9843 175.085C69.7769 168.133 70.8926 162.419 68.9903 160.281C67.0879 158.143 66.0438 165.68 66.8448 173.869C67.2286 177.623 68.229 181.289 69.8055 184.718C67.9461 181.378 66.1082 177.974 64.3704 174.706C63.6552 172.946 61.8816 168.212 62.3179 163.406C62.8685 157.342 63.269 152.386 60.9662 148.974C58.6634 145.563 58.1843 147.773 59.3142 154.889C60.0866 159.766 60.9162 166.288 62.3322 170.815C60.9805 168.219 59.7147 165.752 58.5848 163.513C57.9483 161.289 56.4393 155.561 56.4393 150.798C56.4393 144.755 55.7885 141.501 54.0006 142.81C52.7563 143.739 53.5572 151.198 55.5668 157.485C54.6228 155.575 53.9148 154.109 53.5072 153.244C53.3284 152.85 53.1139 152.429 52.8779 151.985C52.2356 147.007 51.2801 142.075 50.0172 137.217C47.743 128.635 43.7096 122.385 43.8312 126.59C43.9527 130.466 50.5679 144.083 52.6347 151.477C52.0483 150.419 51.3689 149.275 50.6823 148.166C50.2032 146.922 49.8241 145.556 49.3164 144.462C48.544 142.788 47.7001 141.136 46.7704 139.541C45.3409 137.022 43.6199 134.679 41.6428 132.562C39.3761 130.031 36.4173 128.221 33.1325 127.355C32.2886 127.155 27.1681 125.925 28.0406 128.213C28.2022 128.563 28.4479 128.868 28.7557 129.1C31.6163 131.532 34.9346 133.112 38.017 135.193C42.6368 138.304 48.2508 145.534 50.5679 148.674C50.8683 149.225 51.2401 149.925 51.6692 150.726C47.4856 145.391 39.8907 141.537 36.9514 142.366C33.3184 143.396 40.3627 146.114 46.2984 148.681C48.9701 149.74 51.342 151.436 53.2068 153.623C54.1508 155.404 55.2021 157.42 56.2534 159.473L56.6181 160.374C55.8385 159.123 54.917 157.966 53.8719 156.927C51.0113 154.259 42.5367 151.585 41.1565 154.374C39.7762 157.163 46.1626 156.791 51.3546 158.464C54.1488 159.435 56.576 161.243 58.3059 163.642L58.5991 164.078C59.0711 165.022 59.5216 165.945 59.9364 166.817C60.9162 168.863 61.8387 170.794 62.7541 172.66C61.335 170.032 59.5428 167.623 57.4334 165.509C53.2926 161.604 47.1924 159.952 44.675 161.311C42.1577 162.67 52.32 165.845 57.1616 168.462C59.9351 170.033 62.2595 172.288 63.9127 175.013C65.2142 177.652 66.523 180.227 67.9318 182.944C65.4758 179.97 62.7801 177.203 59.8721 174.67C55.1663 170.379 49.6597 170.028 47.8861 171.909C46.1125 173.79 50.525 174.584 58.4918 177.631C62.6836 179.24 66.3818 181.917 69.2191 185.397C69.8198 186.534 70.442 187.7 71.0928 188.908C71.808 190.289 72.7162 191.719 73.6745 193.142C72.3729 192.298 70.4635 191.068 68.3252 189.731C65.9365 188.282 63.6627 186.651 61.5241 184.854C59.0639 182.708 55.7027 180.377 52.2271 181.278C51.9686 181.316 51.7217 181.411 51.5038 181.556C51.286 181.7 51.1024 181.89 50.966 182.113C50.8297 182.336 50.7438 182.586 50.7146 182.846C50.6853 183.106 50.7134 183.369 50.7968 183.616C51.0516 184.321 51.5253 184.925 52.1484 185.34C55.4095 187.872 59.7934 189.087 63.5908 190.582C67.0724 191.947 70.639 193.084 74.2681 193.986C75.1692 195.281 76.1132 196.561 77.05 197.776L75.348 197.826C73.3312 197.884 64.2345 193.764 59.6146 192.434C54.9947 191.104 50.6752 193.621 55.5168 196.225C60.3584 198.828 73.5243 198.248 73.5243 198.248L77.329 198.134C78.2157 199.278 79.0954 200.365 79.9178 201.352H61.8816V206.358H65.4574L68.318 224.208H92.3043L95.1649 206.408H98.7406V201.402H86.8119C86.7146 199.241 86.7744 197.076 86.9907 194.923C87.784 194.111 88.6669 193.391 89.6224 192.777C94.8717 189.152 103.775 188.851 106.135 181.871C106.707 180.184 106.064 178.031 104.047 178.124C102.617 178.188 101.065 179.454 100.164 180.498C97.1602 183.967 94.9003 187.564 90.9955 190.189C90.8239 190.31 88.3566 192.27 87.1409 193.485C87.2696 192.348 87.4412 191.133 87.6629 189.831C88.6047 188.155 89.6835 186.559 90.8883 185.061C94.0778 181.092 98.9409 178.768 102.395 174.984C103.453 173.826 104.848 169.664 101.616 170.694C100.185 171.151 98.4832 173.325 97.3604 174.327C94.1851 177.187 90.924 180.234 88.8501 183.995C88.943 183.624 89.0289 183.28 89.1218 182.88C91.3468 179.3 93.858 175.906 96.6309 172.732C101.222 167.504 105.928 164.093 106.007 161.232C106.085 158.371 100.164 163.163 95.1363 169.714C92.8556 172.719 91.0869 176.08 89.9013 179.662C90.8239 175.95 91.8036 172.21 92.762 168.62C93.4199 166.832 95.3723 162.183 98.9766 158.958C103.511 154.903 107.187 151.556 107.837 147.515C108.488 143.475 106.636 144.726 102.645 150.698ZM77.2431 196.697C76.528 195.774 75.8557 194.766 75.0977 193.664C74.6416 191.797 74.3402 189.896 74.1966 187.979C74.0986 186.338 74.1729 184.691 74.4183 183.066C75.6388 184.577 76.9349 186.026 78.3016 187.407C78.2721 188.837 78.0972 190.26 77.7795 191.655C77.7294 191.862 77.2717 194.973 77.2074 196.697H77.2431ZM81.1336 201.402C80.211 200.422 79.2026 199.257 78.1085 197.826C78.14 196.694 78.2984 195.569 78.5805 194.472C79.0096 192.737 79.6383 191.057 80.4542 189.466C82.1062 191.083 83.3362 192.177 83.3362 192.177L86.1968 194.687C85.968 197.183 85.8393 199.521 85.7606 201.424L81.1336 201.402ZM86.2898 194.251L85.0097 193.121C84.2945 192.477 83.0001 189.988 81.5984 187.128C82.1999 185.919 82.7324 184.678 83.1932 183.409C84.7022 186.22 86.0538 188.415 86.8405 189.581C86.5759 191.104 86.3971 192.677 86.2541 194.215L86.2898 194.251Z" fill="#C3A28E"/>
<path opacity="0.5" d="M102.645 150.698C99.8777 154.796 96.0302 160.124 93.9777 164.393C94.7644 161.575 95.5225 158.915 96.2233 156.526C97.2746 154.467 100.085 149.246 103.332 145.799C107.458 141.387 109.225 138.547 107.001 138.297C105.463 138.133 100.958 144.133 98.1328 150.09C98.7478 148.052 99.2341 146.514 99.5631 145.585C99.6989 145.177 99.8277 144.719 99.9564 144.24C102.859 140.129 105.496 135.836 107.852 131.389C112.021 123.601 113.366 116.249 110.584 119.41C108.023 122.321 103.568 136.788 100.035 143.604C100.328 142.431 100.614 141.129 100.865 139.856C101.365 138.612 102.023 137.353 102.395 136.216C102.974 134.457 103.482 132.64 103.89 130.874C104.569 128.064 104.91 125.183 104.905 122.292C104.977 118.897 104.052 115.555 102.245 112.68C101.766 111.965 98.8408 107.581 97.954 109.82C97.8361 110.19 97.814 110.583 97.8896 110.964C98.3116 114.69 99.6632 118.115 100.5 121.741C101.751 127.169 100.922 136.287 100.5 140.164C100.335 140.772 100.135 141.537 99.8992 142.416C100.486 135.665 97.5535 127.663 94.8431 126.261C91.489 124.53 94.7787 131.324 97.3675 137.253C98.5966 139.85 99.1735 142.707 99.0482 145.577C98.5189 147.53 97.9111 149.718 97.2817 151.935C97.1602 152.243 97.0386 152.543 96.9313 152.843C97.2152 151.398 97.3328 149.925 97.2817 148.452C97.0314 144.576 92.6404 136.81 89.7297 137.911C86.819 139.012 91.7464 143.096 94.3854 147.859C95.7532 150.49 96.2729 153.48 95.8729 156.419C95.8729 156.591 95.8157 156.762 95.7942 156.934C95.4938 157.942 95.1935 158.922 94.9003 159.845C94.1851 161.99 93.5772 164.05 92.9694 166.038C93.7153 163.156 94.0452 160.181 93.9491 157.206C93.5772 151.52 90.2518 146.157 87.477 145.427C84.7022 144.698 89.9729 153.959 91.7679 159.165C92.716 162.213 92.8662 165.454 92.2041 168.577C91.3603 171.394 90.5521 174.169 89.7297 177.116C89.9621 173.265 89.8808 169.403 89.4866 165.566C88.9502 159.244 85.1956 155.203 82.5996 155.375C80.0036 155.547 82.7141 159.13 86.4543 166.817C88.4189 170.853 89.2941 175.333 88.9931 179.812C88.657 181.056 88.3137 182.329 87.9633 183.659C87.5699 185.175 87.2481 186.82 86.9692 188.515C86.5902 187.006 86.0324 184.804 85.3816 182.372C84.6237 179.682 84.0738 176.937 83.7367 174.162C83.3863 170.944 82.5424 166.918 79.3814 165.244C79.167 165.093 78.922 164.991 78.6638 164.946C78.4055 164.9 78.1404 164.912 77.8873 164.98C77.6341 165.048 77.399 165.171 77.1987 165.341C76.9984 165.51 76.8378 165.721 76.7282 165.959C76.4314 166.649 76.3638 167.416 76.5351 168.148C76.954 170.34 77.6761 172.462 78.6806 174.455C78.0581 175.646 77.7737 176.984 77.8582 178.324C77.8582 178.832 77.9082 179.333 77.9368 179.826C77.6579 179.318 77.3933 178.846 77.143 178.396C76.6927 177.637 76.1337 176.948 75.4839 176.35C75.6493 175.166 75.7306 173.971 75.727 172.775C75.727 171.201 73.8891 167.211 72.2299 170.171C71.572 171.351 71.7007 173.683 71.6363 175.228C71.1786 175.65 71.0427 176.522 71.4218 177.902C71.0452 181.485 71.2334 185.105 71.9796 188.63L71.4146 187.628C70.602 183.492 70.1237 179.297 69.9843 175.085C69.7769 168.133 70.8926 162.419 68.9903 160.281C67.0879 158.143 66.0438 165.68 66.8448 173.869C67.2286 177.623 68.229 181.289 69.8055 184.718C67.9461 181.378 66.1082 177.974 64.3704 174.706C63.6552 172.946 61.8816 168.212 62.3179 163.406C62.8685 157.342 63.269 152.386 60.9662 148.974C58.6634 145.563 58.1843 147.773 59.3142 154.889C60.0866 159.766 60.9162 166.288 62.3322 170.815C60.9805 168.219 59.7147 165.752 58.5848 163.513C57.9483 161.289 56.4393 155.561 56.4393 150.798C56.4393 144.755 55.7885 141.501 54.0006 142.81C52.7563 143.739 53.5572 151.198 55.5668 157.485C54.6228 155.575 53.9148 154.109 53.5072 153.244C53.3284 152.85 53.1139 152.429 52.8779 151.985C52.2356 147.007 51.2801 142.075 50.0172 137.217C47.743 128.635 43.7096 122.385 43.8312 126.59C43.9527 130.466 50.5679 144.083 52.6347 151.477C52.0483 150.419 51.3689 149.275 50.6823 148.166C50.2032 146.922 49.8241 145.556 49.3164 144.462C48.544 142.788 47.7001 141.136 46.7704 139.541C45.3409 137.022 43.6199 134.679 41.6428 132.562C39.3761 130.031 36.4173 128.221 33.1325 127.355C32.2886 127.155 27.1681 125.925 28.0406 128.213C28.2022 128.563 28.4479 128.868 28.7557 129.1C31.6163 131.532 34.9346 133.112 38.017 135.193C42.6368 138.304 48.2508 145.534 50.5679 148.674C50.8683 149.225 51.2401 149.925 51.6692 150.726C47.4856 145.391 39.8907 141.537 36.9514 142.366C33.3184 143.396 40.3627 146.114 46.2984 148.681C48.9701 149.74 51.342 151.436 53.2068 153.623C54.1508 155.404 55.2021 157.42 56.2534 159.473L56.6181 160.374C55.8385 159.123 54.917 157.966 53.8719 156.927C51.0113 154.259 42.5367 151.585 41.1565 154.374C39.7762 157.163 46.1626 156.791 51.3546 158.464C54.1488 159.435 56.576 161.243 58.3059 163.642L58.5991 164.078C59.0711 165.022 59.5216 165.945 59.9364 166.817C60.9162 168.863 61.8387 170.794 62.7541 172.66C61.335 170.032 59.5428 167.623 57.4334 165.509C53.2926 161.604 47.1924 159.952 44.675 161.311C42.1577 162.67 52.32 165.845 57.1616 168.462C59.9351 170.033 62.2595 172.288 63.9127 175.013C65.2142 177.652 66.523 180.227 67.9318 182.944C65.4758 179.97 62.7801 177.203 59.8721 174.67C55.1663 170.379 49.6597 170.028 47.8861 171.909C46.1125 173.79 50.525 174.584 58.4918 177.631C62.6836 179.24 66.3818 181.917 69.2191 185.397C69.8198 186.534 70.442 187.7 71.0928 188.908C71.808 190.289 72.7162 191.719 73.6745 193.142C72.3729 192.298 70.4635 191.068 68.3252 189.731C65.9365 188.282 63.6627 186.651 61.5241 184.854C59.0639 182.708 55.7027 180.377 52.2271 181.278C51.9686 181.316 51.7217 181.411 51.5038 181.556C51.286 181.7 51.1024 181.89 50.966 182.113C50.8297 182.336 50.7438 182.586 50.7146 182.846C50.6853 183.106 50.7134 183.369 50.7968 183.616C51.0516 184.321 51.5253 184.925 52.1484 185.34C55.4095 187.872 59.7934 189.087 63.5908 190.582C67.0724 191.947 70.639 193.084 74.2681 193.986C75.1692 195.281 76.1132 196.561 77.05 197.776L75.348 197.826C73.3312 197.884 64.2345 193.764 59.6146 192.434C54.9947 191.104 50.6752 193.621 55.5168 196.225C60.3584 198.828 73.5243 198.248 73.5243 198.248L77.329 198.134C78.2157 199.278 79.0954 200.365 79.9178 201.352H61.8816V206.358H65.4574L68.318 224.208H92.3043L95.1649 206.408H98.7406V201.402H86.8119C86.7146 199.241 86.7744 197.076 86.9907 194.923C87.784 194.111 88.6669 193.391 89.6224 192.777C94.8717 189.152 103.775 188.851 106.135 181.871C106.707 180.184 106.064 178.031 104.047 178.124C102.617 178.188 101.065 179.454 100.164 180.498C97.1602 183.967 94.9003 187.564 90.9955 190.189C90.8239 190.31 88.3566 192.27 87.1409 193.485C87.2696 192.348 87.4412 191.133 87.6629 189.831C88.6047 188.155 89.6835 186.559 90.8883 185.061C94.0778 181.092 98.9409 178.768 102.395 174.984C103.453 173.826 104.848 169.664 101.616 170.694C100.185 171.151 98.4832 173.325 97.3604 174.327C94.1851 177.187 90.924 180.234 88.8501 183.995C88.943 183.624 89.0289 183.28 89.1218 182.88C91.3468 179.3 93.858 175.906 96.6309 172.732C101.222 167.504 105.928 164.093 106.007 161.232C106.085 158.371 100.164 163.163 95.1363 169.714C92.8556 172.719 91.0869 176.08 89.9013 179.662C90.8239 175.95 91.8036 172.21 92.762 168.62C93.4199 166.832 95.3723 162.183 98.9766 158.958C103.511 154.903 107.187 151.556 107.837 147.515C108.488 143.475 106.636 144.726 102.645 150.698ZM77.2431 196.697C76.528 195.774 75.8557 194.766 75.0977 193.664C74.6416 191.797 74.3402 189.896 74.1966 187.979C74.0986 186.338 74.1729 184.691 74.4183 183.066C75.6388 184.577 76.9349 186.026 78.3016 187.407C78.2721 188.837 78.0972 190.26 77.7795 191.655C77.7294 191.862 77.2717 194.973 77.2074 196.697H77.2431ZM81.1336 201.402C80.211 200.422 79.2026 199.257 78.1085 197.826C78.14 196.694 78.2984 195.569 78.5805 194.472C79.0096 192.737 79.6383 191.057 80.4542 189.466C82.1062 191.083 83.3362 192.177 83.3362 192.177L86.1968 194.687C85.968 197.183 85.8393 199.521 85.7606 201.424L81.1336 201.402ZM86.2898 194.251L85.0097 193.121C84.2945 192.477 83.0001 189.988 81.5984 187.128C82.1999 185.919 82.7324 184.678 83.1932 183.409C84.7022 186.22 86.0538 188.415 86.8405 189.581C86.5759 191.104 86.3971 192.677 86.2541 194.215L86.2898 194.251Z" fill="#C3A28E"/>
<path d="M247.4 239.034C265.497 239.034 280.168 235.883 280.168 231.997C280.168 228.11 265.497 224.959 247.4 224.959C229.302 224.959 214.631 228.11 214.631 231.997C214.631 235.883 229.302 239.034 247.4 239.034Z" fill="#C3A28E"/>
<g opacity="0.7">
<path d="M247.4 239.034C265.497 239.034 280.168 235.883 280.168 231.997C280.168 228.11 265.497 224.959 247.4 224.959C229.302 224.959 214.631 228.11 214.631 231.997C214.631 235.883 229.302 239.034 247.4 239.034Z" fill="white"/>
</g>
<path d="M216.512 86.0337C216.512 86.0337 216.512 88.4438 211.506 84.5033C206.5 80.5628 205.592 76.844 212.6 72.6818C217.978 69.485 226.603 68.3408 231.144 73.6615C234.605 77.7164 234.67 84.0241 238.439 87.7858C241.936 91.2901 250.038 92.1697 253.321 99.829C256.604 107.488 251.133 106.18 253.543 113.846C255.953 121.512 262.303 121.942 258.356 129.579C254.408 137.217 247.414 142.059 236.687 137.239C225.959 132.419 229.02 124.759 222.019 120.161C208.896 111.6 207.151 98.3057 216.512 86.0337Z" fill="#263238" stroke="#263238" stroke-width="0.759447" stroke-linecap="round" stroke-linejoin="round"/>
<path d="M218.8 92.606C217.488 95.7092 217.055 99.1136 217.549 102.446" stroke="white" stroke-width="0.379724" stroke-linecap="round" stroke-linejoin="round"/>
<path d="M221.46 76.5654C222.49 78.5178 224.743 81.3284 229.713 83.9673C238.531 88.6587 241.871 90.0389 241.871 90.0389" stroke="white" stroke-width="0.379724" stroke-linecap="round" stroke-linejoin="round"/>
<path d="M220.646 74.0405C220.673 74.344 220.733 74.6437 220.824 74.9344" stroke="white" stroke-width="0.379724" stroke-linecap="round" stroke-linejoin="round"/>
<path d="M249.866 101.188C250.064 101.77 250.149 102.384 250.116 102.997" stroke="white" stroke-width="0.379724" stroke-linecap="round" stroke-linejoin="round"/>
<path d="M227.897 85.8191C227.897 85.8191 230.536 88.1076 237.158 90.8609C242.028 92.892 246.899 96.1173 249.023 99.4428" stroke="white" stroke-width="0.379724" stroke-linecap="round" stroke-linejoin="round"/>
<path d="M219.214 71.8381C219.214 71.8381 214.431 71.9025 217.377 77.9377" stroke="white" stroke-width="0.379724" stroke-linecap="round" stroke-linejoin="round"/>
<path d="M231.373 88.3794C233.445 91.3179 235.75 94.085 238.267 96.6537C242.128 100.516 241.578 104.928 240.748 106.859" stroke="white" stroke-width="0.379724" stroke-linecap="round" stroke-linejoin="round"/>
<path d="M245.411 170.551C245.411 170.551 238.846 186.999 237.752 193.536C236.658 200.072 235.478 208.797 234.004 212.981C232.124 218.309 229.427 221.126 229.649 223.093C229.871 225.06 235.12 230.76 233.153 232.29C231.187 233.82 227.239 226.819 227.432 222.879C227.625 218.938 230.493 207.989 230.936 201.202C231.38 194.415 229.842 184.339 230.715 178.432C231.587 172.525 232.903 167.483 232.903 167.483C232.903 167.483 240.376 163.979 245.411 170.551Z" fill="white" stroke="#263238" stroke-width="0.759447" stroke-linecap="round" stroke-linejoin="round"/>
<path d="M231.616 172.517C231.616 172.517 237.752 180.62 239.283 187.843C240.998 195.242 244.283 202.185 248.916 208.203C253.078 213.46 256.518 223.007 256.518 223.007C256.518 223.007 256.082 230.23 256.954 232.419C257.827 234.607 260.237 232.855 260.458 229.351C260.68 225.846 259.028 221.434 258.134 219.245C257.24 217.057 254.608 204.942 252.413 198.134C250.217 191.326 248.251 183.03 246.499 178.432C244.746 173.833 242.344 168.141 242.344 168.141C242.344 168.141 230.965 167.046 231.616 172.517Z" fill="white" stroke="#263238" stroke-width="0.759447" stroke-linecap="round" stroke-linejoin="round"/>
<path d="M241.907 109.026L241.256 113.624C241.256 113.624 239.955 124.13 239.955 127.856C239.955 131.582 244.961 139.677 246.083 151.284C247.206 162.891 245.426 170.551 245.426 170.551C234.698 168.362 231.63 172.517 231.63 172.517C231.63 172.517 222.219 160.918 220.903 153.473C219.587 146.028 222.877 138.362 223.313 132.454C223.749 126.547 220.03 121.942 216.526 115.155C213.022 108.368 212.807 101.145 216.748 100.487C220.688 99.8291 226.381 100.265 226.381 100.265C226.381 100.265 235.356 100.923 239.297 102.017C243.237 103.112 243.459 105.307 243.459 105.307" fill="#C3A28E"/>
<path d="M241.907 109.026L241.256 113.624C241.256 113.624 239.955 124.13 239.955 127.856C239.955 131.582 244.961 139.677 246.083 151.284C247.206 162.891 245.426 170.551 245.426 170.551C234.698 168.362 231.63 172.517 231.63 172.517C231.63 172.517 222.219 160.918 220.903 153.473C219.587 146.028 222.877 138.362 223.313 132.454C223.749 126.547 220.03 121.942 216.526 115.155C213.022 108.368 212.807 101.145 216.748 100.487C220.688 99.8291 226.381 100.265 226.381 100.265C226.381 100.265 235.356 100.923 239.297 102.017C243.237 103.112 243.459 105.307 243.459 105.307" stroke="#263238" stroke-width="0.759447" stroke-miterlimit="10" stroke-linecap="round"/>
<path d="M232.481 142.231C232.481 142.231 240.076 153.988 242.765 162.799" stroke="#263238" stroke-width="0.379724" stroke-linecap="round" stroke-linejoin="round"/>
<path d="M230.521 138.312C230.521 138.312 236.643 144.19 238.846 148.595" stroke="#263238" stroke-width="0.379724" stroke-linecap="round" stroke-linejoin="round"/>
<path d="M222.863 96.3463C222.863 96.3463 225.273 101.603 225.273 102.482C225.273 103.362 229.871 107.732 231.402 106.637C232.932 105.543 231.838 102.919 230.744 100.509C229.65 98.0985 227.461 94.158 227.461 94.158C226.887 94.82 226.182 95.3561 225.391 95.7327C224.599 96.1093 223.739 96.3182 222.863 96.3463Z" fill="white" stroke="#263238" stroke-width="0.759447" stroke-miterlimit="10" stroke-linecap="round"/>
<path d="M217.392 77.9382L214.102 85.1613C214.102 85.1613 216.29 91.5119 218.7 94.5727C221.111 97.6336 224.422 97.8624 226.145 96.7682C229.535 94.6228 227.897 85.8192 227.897 85.8192C227.897 85.8192 218.264 82.0933 217.392 77.9382Z" fill="white" stroke="#263238" stroke-width="0.759447" stroke-miterlimit="10" stroke-linecap="round"/>
<path d="M240.813 102.461C244.327 104.225 247.721 106.218 250.975 108.425C254.994 111.186 265.278 122.149 263.784 124.995C262.289 127.841 244.575 137.868 243.48 137.868C242.386 137.868 241.035 136.438 241.035 136.438C241.035 136.438 239.468 134.256 238.596 134.256C237.723 134.256 239.211 132.211 240.52 131.553C241.828 130.895 243.859 135.537 243.859 135.537C243.859 135.537 254.336 125.153 254.994 122.957C255.652 120.761 239.061 113.374 239.061 113.374" fill="#C3A28E"/>
<path d="M240.813 102.461C244.327 104.225 247.721 106.218 250.975 108.425C254.994 111.186 265.278 122.149 263.784 124.995C262.289 127.841 244.575 137.868 243.48 137.868C242.386 137.868 241.035 136.438 241.035 136.438C241.035 136.438 239.468 134.256 238.596 134.256C237.723 134.256 239.211 132.211 240.52 131.553C241.828 130.895 243.859 135.537 243.859 135.537C243.859 135.537 254.336 125.153 254.994 122.957C255.652 120.761 239.061 113.374 239.061 113.374" stroke="#263238" stroke-width="0.759447" stroke-linecap="round" stroke-linejoin="round"/>
<path d="M238.245 122.307L238.631 116.843C239.355 116.791 240.036 116.481 240.549 115.969C241.063 115.457 241.374 114.777 241.428 114.054L241.714 109.97L235.692 109.541L235.406 113.625C235.354 114.347 235.565 115.065 236 115.644C236.435 116.224 237.065 116.627 237.773 116.778L237.38 122.242L234.369 122.028L234.305 123L241.184 123.487L241.256 122.521L238.245 122.307Z" fill="white" stroke="#263238" stroke-width="0.759447" stroke-linecap="round" stroke-linejoin="round"/>
<path d="M216.734 100.487C216.734 100.487 211.013 101.581 211.256 106.401C211.499 111.222 210.383 137.053 212.572 137.711C214.76 138.369 233.812 121.727 233.812 121.727C233.812 121.727 237.967 123.036 238.818 122.6C239.669 122.163 239.476 121.069 240.126 119.317C240.777 117.565 241.442 117.343 238.381 117.565C237.023 117.665 234.963 117.472 233.762 118.28C231.781 119.575 230.629 121.656 228.555 122.993C225.842 124.733 223.065 126.371 220.224 127.906C215.933 130.209 217.563 121.055 217.764 119.045C218.05 116.07 218.436 113.095 218.893 110.142" fill="#C3A28E"/>
<path d="M216.734 100.487C216.734 100.487 211.013 101.581 211.256 106.401C211.499 111.222 210.383 137.053 212.572 137.711C214.76 138.369 233.812 121.727 233.812 121.727C233.812 121.727 237.967 123.036 238.818 122.6C239.669 122.163 239.476 121.069 240.126 119.317C240.777 117.565 241.442 117.343 238.381 117.565C237.023 117.665 234.963 117.472 233.762 118.28C231.781 119.575 230.629 121.656 228.555 122.993C225.842 124.733 223.065 126.371 220.224 127.906C215.933 130.209 217.563 121.055 217.764 119.045C218.05 116.07 218.436 113.095 218.893 110.142" stroke="#263238" stroke-width="0.759447" stroke-miterlimit="10" stroke-linecap="round"/>
<path d="M238.41 117.565C237.051 117.665 234.992 117.472 233.79 118.28C231.809 119.575 230.658 121.656 228.584 122.993C225.871 124.733 223.094 126.371 220.253 127.906C216.426 129.973 217.328 122.821 217.692 119.875C215.396 120.072 213.172 120.773 211.177 121.927C211.177 129.687 211.392 137.375 212.572 137.732C214.76 138.383 233.812 121.749 233.812 121.749C233.812 121.749 237.967 123.057 238.818 122.621C239.669 122.185 239.476 121.091 240.127 119.339C240.777 117.586 241.471 117.343 238.41 117.565Z" fill="white" stroke="#263238" stroke-width="0.759447" stroke-linecap="round" stroke-linejoin="round"/>
<path d="M263.783 124.996C264.87 122.979 260 116.879 255.638 112.516C252.583 113.435 249.854 115.206 247.771 117.622C251.661 119.682 255.33 121.913 255.016 122.986C254.358 125.181 243.881 135.566 243.881 135.566C243.881 135.566 241.857 130.924 240.541 131.582C239.225 132.24 237.737 134.285 238.617 134.285C239.497 134.285 241.056 136.467 241.056 136.467C241.056 136.467 242.407 137.897 243.502 137.897C244.596 137.897 262.253 127.813 263.783 124.996Z" fill="white" stroke="#263238" stroke-width="0.759447" stroke-linecap="round" stroke-linejoin="round"/>
<path d="M259.6 223.422C259.16 223.087 258.628 222.893 258.075 222.866C257.522 222.84 256.974 222.981 256.504 223.272C256.432 224.588 256.175 230.48 256.954 232.418C257.834 234.607 260.237 232.855 260.458 229.351C260.497 227.341 260.207 225.338 259.6 223.422Z" fill="#263238" stroke="#263238" stroke-width="0.759447" stroke-linecap="round" stroke-linejoin="round"/>
<path d="M229.678 222.471C228.963 222.199 228.14 222.256 227.461 223.522C227.654 227.534 231.287 233.742 233.182 232.29C235.077 230.838 229.9 225.067 229.678 223.093C229.65 222.887 229.65 222.677 229.678 222.471Z" fill="#263238" stroke="#263238" stroke-width="0.759447" stroke-linecap="round" stroke-linejoin="round"/>
<path d="M175.405 239.034C193.502 239.034 208.173 235.883 208.173 231.997C208.173 228.11 193.502 224.959 175.405 224.959C157.308 224.959 142.637 228.11 142.637 231.997C142.637 235.883 157.308 239.034 175.405 239.034Z" fill="#C3A28E"/>
<g opacity="0.7">
<path d="M175.405 239.034C193.502 239.034 208.173 235.883 208.173 231.997C208.173 228.11 193.502 224.959 175.405 224.959C157.308 224.959 142.637 228.11 142.637 231.997C142.637 235.883 157.308 239.034 175.405 239.034Z" fill="white"/>
</g>
<path d="M160.48 143.711C160.48 143.711 157.14 153.48 156.904 154.767C156.668 156.054 151.784 172.339 150.711 182.658C149.638 192.978 150.926 195.738 154.566 203.033C158.206 210.327 165.508 226.19 165.508 226.19L168.511 225.975C168.511 225.975 166.795 207.753 165.293 201.531C163.791 195.309 161.86 190.167 162.504 186.735C163.148 183.302 170.843 164.229 170.843 164.229C170.843 164.229 172.58 181.156 173.653 192.735C174.726 204.313 187.17 230.051 187.17 230.051L190.166 229.622C190.166 229.622 190.381 211.393 188.879 204.106C187.377 196.818 187.384 195.309 187.384 188.022C187.384 180.734 184.481 157.935 184.995 154.581C185.575 150.784 184.144 145.999 184.144 145.999C184.144 145.999 165.629 147.122 160.48 143.711Z" fill="#263238" stroke="#263238" stroke-width="0.759447" stroke-linecap="round" stroke-linejoin="round"/>
<path d="M166.816 157.678L170.871 164.2L162.497 159.623" stroke="white" stroke-width="0.379724" stroke-linecap="round" stroke-linejoin="round"/>
<path d="M180.433 148.174C180.176 148.834 180.062 149.541 180.099 150.249C180.136 150.957 180.323 151.648 180.647 152.279C180.995 152.982 181.512 153.587 182.153 154.039C182.794 154.491 183.537 154.776 184.316 154.867C184.316 154.867 185.396 185.977 185.181 188.144" stroke="white" stroke-width="0.379724" stroke-linecap="round" stroke-linejoin="round"/>
<path d="M185.396 191.161C185.396 191.161 185.617 194.408 185.617 196.997C185.617 199.586 189.286 209.527 189.286 214.497" stroke="white" stroke-width="0.379724" stroke-linecap="round" stroke-linejoin="round"/>
<path d="M201.723 130.581C198.29 121.57 181.162 104.749 178.123 102.604C175.084 100.458 169.541 100.673 169.541 100.673C165.524 100.1 161.866 98.0469 159.286 94.9158C154.787 89.5522 149.853 80.3267 149.424 75.3993C148.995 70.4719 148.137 57.5991 148.137 57.5991C148.137 57.5991 150.497 52.0209 150.282 50.3045C150.067 48.5882 147.064 46.8718 144.918 48.3736C142.773 49.8754 141.7 51.8064 142.773 54.1664C143.378 55.3718 143.742 56.6835 143.846 58.0282C142.747 66.882 143.036 75.8531 144.704 84.6176C147.493 98.5559 154.587 107.781 156.518 111.207C158.449 114.633 160.051 139.448 160.051 142.881C160.051 146.314 161.553 147.172 167.768 147.601C173.982 148.03 182.886 147.301 184.173 146.014C185.46 144.726 184.595 124.723 184.595 124.723C184.595 124.723 195.744 136.945 197.675 138.662C199.606 140.378 205.156 139.584 201.723 130.581Z" fill="white" stroke="#263238" stroke-width="0.759447" stroke-linecap="round" stroke-linejoin="round"/>
<path d="M201.723 130.581C198.29 121.57 181.162 104.749 178.123 102.604C175.083 100.459 169.541 100.673 169.541 100.673C165.524 100.101 161.866 98.0473 159.285 94.9161C155.701 90.4955 152.808 85.5573 150.704 80.2698L144.188 81.7001C144.339 82.6584 144.51 83.631 144.703 84.6036C147.492 98.5419 154.587 107.767 156.518 111.193C158.449 114.619 160.051 139.434 160.051 142.867C160.051 146.3 161.552 147.158 167.767 147.587C173.982 148.016 182.885 147.287 184.173 146C185.46 144.712 184.595 124.709 184.595 124.709C184.595 124.709 195.744 136.931 197.675 138.648C199.606 140.364 205.155 139.585 201.723 130.581Z" fill="#C3A28E" stroke="#263238" stroke-width="0.759447" stroke-linecap="round" stroke-linejoin="round"/>
<path d="M202.609 131.21C202.609 131.21 201.601 127.806 195.923 127.677C190.244 127.549 188.607 131.711 189.994 134.485C191.381 137.26 194.664 141.172 199.455 139.914C204.247 138.655 203.997 133.985 202.609 131.21Z" fill="white" stroke="#263238" stroke-width="0.759447" stroke-linecap="round" stroke-linejoin="round"/>
<path d="M175.269 99.3355C175.269 99.3355 177.358 99.7074 177.851 101.553C178.308 103.498 178.266 105.527 177.729 107.453C177.236 108.804 175.391 112.251 175.391 112.251C175.391 112.251 170.714 106.594 170.099 106.222C169.484 105.851 162.947 107.574 162.947 107.574C162.947 107.574 163.805 102.289 165.808 100.322C167.81 98.3558 174.039 99.0924 175.269 99.3355Z" fill="white" stroke="#263238" stroke-width="0.759447" stroke-miterlimit="10" stroke-linecap="round"/>
<path d="M177.021 95.159C177.021 95.159 175.67 99.9505 175.67 101.796C175.67 103.641 170.013 110.778 170.013 110.778L167.674 101.181L168.661 94.9087C168.661 94.9087 173.667 97.8623 177.021 95.159Z" fill="white" stroke="#263238" stroke-width="0.759447" stroke-miterlimit="10" stroke-linecap="round"/>
<path d="M166.902 80.7702C166.902 80.7702 166.537 87.2853 165.428 89.9885C164.32 92.6918 165.185 97.0042 167.889 98.5704C170.592 100.137 174.654 98.4488 176.985 96.8469C179.317 95.2449 180.432 91.9266 181.662 88.265C182.892 84.6034 183.014 79.2827 179.081 77.5377C175.147 75.7927 166.902 80.7702 166.902 80.7702Z" fill="white" stroke="#263238" stroke-width="0.759447" stroke-miterlimit="10" stroke-linecap="round"/>
<path d="M179.546 91.5047C179.546 91.5047 178.917 91.2973 178.287 89.4165C177.658 87.5356 179.546 87.3211 179.546 85.0183C179.546 82.7155 177.45 80.0122 174.54 80.8275C171.076 81.6362 167.458 81.4904 164.07 80.4055C161.345 79.3614 162.396 72.8678 168.046 71.6092C173.696 70.3505 171.4 74.3339 173.703 74.3339C176.006 74.3339 179.775 72.0311 180.855 73.9191C181.934 75.8071 180.64 77.0586 182.285 77.8953C183.93 78.7321 185.21 79.3614 185.21 82.0861C185.21 84.8109 181.441 91.0899 181.441 91.0899C181.441 91.0899 180.805 93.6001 179.546 91.5047Z" fill="#263238" stroke="#263238" stroke-width="0.759447" stroke-miterlimit="10" stroke-linecap="round"/>
<path d="M178.451 92.8201C178.451 92.8201 180.046 89.6238 181.526 90.2387C183.006 90.8537 182.02 92.5699 180.418 93.9285C178.816 95.2871 177.836 94.7866 177.836 94.7866" fill="white"/>
<path d="M178.451 92.8201C178.451 92.8201 180.046 89.6238 181.526 90.2387C183.006 90.8537 182.02 92.5699 180.418 93.9285C178.816 95.2871 177.836 94.7866 177.836 94.7866" stroke="#263238" stroke-width="0.759447" stroke-miterlimit="10" stroke-linecap="round"/>
<path d="M175.97 127.491L175.005 122.206C175.677 121.983 176.247 121.525 176.608 120.915C176.97 120.305 177.099 119.585 176.971 118.888L176.256 114.94L170.442 116.006L171.157 119.954C171.287 120.651 171.663 121.278 172.218 121.72C172.772 122.163 173.466 122.391 174.175 122.364L175.14 127.642L172.237 128.171L172.409 129.108L179.052 127.892L178.881 126.955L175.97 127.491Z" fill="white" stroke="#263238" stroke-width="0.759447" stroke-linecap="round" stroke-linejoin="round"/>
<path d="M196.173 130.051C196.173 130.051 193.527 129.944 186.526 127.699C180.132 125.639 178.273 123.808 176.628 123.064C175.434 122.528 171.772 121.691 171.343 122.979C170.914 124.266 173.445 124.452 173.445 124.452C173.445 124.452 173.66 124.881 174.947 127.019C176.235 129.158 179.238 128.092 180.096 128.092C180.955 128.092 191.038 136.917 194.464 138.819C197.889 140.722 202.617 139.463 202.617 136.245C202.617 133.027 202.609 130.674 196.173 130.051Z" fill="white" stroke="#263238" stroke-width="0.759447" stroke-miterlimit="10" stroke-linecap="round"/>
<path d="M149.209 54.7807C149.209 54.7807 152.212 52.421 150.281 50.2758C148.35 48.1306 144.275 50.7048 144.489 51.7775C144.704 52.8501 147.492 51.7775 147.492 51.7775C147.492 51.7775 145.776 53.9227 146.634 54.9953" fill="white"/>
<path d="M149.209 54.7807C149.209 54.7807 152.212 52.421 150.281 50.2758C148.35 48.1306 144.275 50.7048 144.489 51.7775C144.704 52.8501 147.492 51.7775 147.492 51.7775C147.492 51.7775 145.776 53.9227 146.634 54.9953" stroke="#263238" stroke-width="0.759447" stroke-linecap="round" stroke-linejoin="round"/>
<path d="M187.198 230.023C187.198 230.023 181.834 236.459 183.336 239.248C184.838 242.037 189.773 236.674 190.194 229.594L187.198 230.023Z" fill="white" stroke="#263238" stroke-width="0.759447" stroke-miterlimit="10" stroke-linecap="round"/>
<path d="M165.536 226.161C165.536 226.161 158.241 228.521 158.241 232.168C158.241 235.816 167.038 229.165 168.539 225.947L165.536 226.161Z" fill="white" stroke="#263238" stroke-width="0.759447" stroke-linecap="round" stroke-linejoin="round"/>
<path d="M150.403 77.4448C149.166 77.2875 142.823 78.4174 142.823 79.9979C142.823 80.8775 143.202 83.6523 144.081 83.9098C144.961 84.1672 151.648 82.9014 152.027 82.5224C152.406 82.1433 151.355 77.7595 150.883 77.5592C150.729 77.5002 150.567 77.4618 150.403 77.4448Z" fill="white" stroke="#263238" stroke-width="0.759447" stroke-linecap="round" stroke-linejoin="round"/>
<path d="M108.238 239.034C126.335 239.034 141.006 235.883 141.006 231.997C141.006 228.11 126.335 224.959 108.238 224.959C90.1401 224.959 75.4692 228.11 75.4692 231.997C75.4692 235.883 90.1401 239.034 108.238 239.034Z" fill="#C3A28E"/>
<g opacity="0.7">
<path d="M108.238 239.034C126.335 239.034 141.006 235.883 141.006 231.997C141.006 228.11 126.335 224.959 108.238 224.959C90.1401 224.959 75.4692 228.11 75.4692 231.997C75.4692 235.883 90.1401 239.034 108.238 239.034Z" fill="white"/>
</g>
<path d="M114.86 95.3523C114.86 95.3523 112.264 100.723 112.264 102.947C112.226 104.073 112.351 105.198 112.636 106.287L105.778 99.8005C105.778 99.8005 108.374 93.8719 108.56 92.7562C108.746 91.6406 114.86 95.3523 114.86 95.3523Z" fill="white" stroke="#263238" stroke-width="0.759447" stroke-linecap="round" stroke-linejoin="round"/>
<path d="M116.526 78.8538C117.742 80.0266 118.47 81.6154 118.564 83.302C118.564 85.898 119.28 87.9362 120.231 88.1222C121.182 88.3081 119.68 89.4238 119.68 89.4238L118.965 90.3463C118.965 90.3463 119.337 95.1664 117.299 96.8327C115.26 98.499 107.844 93.6861 107.844 93.6861C107.844 93.6861 107.844 90.7182 108.216 85.3402C108.588 79.9623 112.264 77.7524 116.526 78.8538Z" fill="white" stroke="#263238" stroke-width="0.759447" stroke-linecap="round" stroke-linejoin="round"/>
<path d="M116.526 81.2637C117.381 81.1671 118.195 80.8409 118.879 80.3197C119.564 79.7984 120.096 79.1016 120.417 78.303C121.532 75.5211 120.602 69.7712 114.86 69.006C109.117 68.2408 112.078 71.602 108.559 72.8964C105.041 74.1909 99.105 73.2683 96.6949 78.2744C94.2848 83.2805 97.2527 89.5738 96.509 91.6192C95.7652 93.6645 88.5422 96.6252 85.2024 102.346C81.8626 108.068 88.3562 120.325 87.7984 123.286C87.2406 126.247 82.7923 128.85 85.2024 134.593C87.6125 140.335 96.323 143.675 103.553 138.884C110.783 134.092 107.072 116.828 104.111 112.194C101.15 107.56 106.771 98.3702 109.918 95.2164C113.065 92.0626 110.783 85.6905 110.783 83.2805C110.783 80.8704 116.526 81.2637 116.526 81.2637Z" fill="#C3A28E" stroke="#263238" stroke-width="0.759447" stroke-linecap="round" stroke-linejoin="round"/>
<path d="M120.395 74.3408C120.395 74.3408 121.976 77.5018 115.654 78.5602C109.332 79.6187 102.781 82.5079 103.275 86.9847C103.768 91.4616 103.804 100.415 97.7465 103.312C91.6892 106.208 87.4769 108.318 86.6831 115.426" stroke="#263238" stroke-width="0.379724" stroke-linecap="round" stroke-linejoin="round"/>
<path d="M87.7343 138.083C87.7343 138.083 84.0513 133.077 88.7927 126.226C93.5342 119.375 97.4819 114.941 101.93 107.789" stroke="#263238" stroke-width="0.379724" stroke-linecap="round" stroke-linejoin="round"/>
<path d="M96.5093 91.6477C97.2887 89.0206 97.705 86.2992 97.7465 83.5593C97.7465 79.347 101.959 75.1348 107.487 74.8702C113.015 74.6056 118.286 73.8189 117.764 70.3933" stroke="#263238" stroke-width="0.379724" stroke-linecap="round" stroke-linejoin="round"/>
<path d="M105.592 139.255C105.592 139.255 101.701 145.184 104.876 155.568C108.052 165.952 113.036 179.29 112.85 183.366C112.664 187.443 110.44 194.487 110.44 200.044C110.44 205.6 108.588 221.92 108.588 221.92L111.921 223.215C111.921 223.215 120.817 200.787 122.119 191.519C123.42 182.251 123.599 166.689 123.599 166.689C123.599 166.689 124.708 152.228 121.375 139.627C121.346 139.649 109.482 135.758 105.592 139.255Z" fill="white" stroke="#263238" stroke-width="0.759447" stroke-linecap="round" stroke-linejoin="round"/>
<path d="M113.809 161.783C113.809 161.783 117.914 180.148 117.914 185.333C117.914 190.518 110.762 222.278 110.762 222.278" stroke="#263238" stroke-width="0.379724" stroke-linecap="round" stroke-linejoin="round"/>
<path d="M137.566 101.96C136.751 101.138 134.706 103.183 134.398 104.106C134.091 105.028 134.906 110.042 134.906 110.042C134.906 110.042 127.461 125.775 125.423 126.304C123.385 126.833 118.565 118.888 118.565 118.888L118.193 129.615C118.193 129.615 125.237 136.288 127.647 134.993C130.057 133.699 137.659 109.777 137.659 109.777C137.861 108.669 138.18 107.585 138.61 106.545C139.204 105.236 138.403 102.783 137.566 101.96Z" fill="white" stroke="#263238" stroke-width="0.759447" stroke-linecap="round" stroke-linejoin="round"/>
<path d="M134.706 107.896C134.706 107.896 133.476 104.213 133.476 103.083C133.529 101.498 133.735 99.9224 134.091 98.3773C134.398 97.2473 135.321 98.3773 135.321 99.3999C135.297 100.256 135.227 101.111 135.113 101.96C135.113 101.96 136.343 103.598 136.236 104.928L136.136 106.258" fill="white"/>
<path d="M134.706 107.896C134.706 107.896 133.476 104.213 133.476 103.083C133.529 101.498 133.735 99.9224 134.091 98.3773C134.398 97.2473 135.321 98.3773 135.321 99.3999C135.297 100.256 135.227 101.111 135.113 101.96C135.113 101.96 136.343 103.598 136.236 104.928L136.136 106.258" stroke="#263238" stroke-width="0.759447" stroke-linecap="round" stroke-linejoin="round"/>
<path d="M138.804 105.751L137.867 100.637C138.517 100.418 139.067 99.9727 139.416 99.3819C139.766 98.7911 139.891 98.0945 139.769 97.4191L139.054 93.593L133.418 94.63L134.134 98.4561C134.26 99.1311 134.625 99.738 135.162 100.166C135.699 100.594 136.372 100.815 137.059 100.787L137.995 105.908L135.178 106.423L135.342 107.324L141.779 106.144L141.614 105.243L138.804 105.751Z" fill="white" stroke="#263238" stroke-width="0.759447" stroke-linecap="round" stroke-linejoin="round"/>
<path d="M140.262 97.562C140.166 97.3441 140.027 97.1477 139.854 96.9844C139.681 96.821 139.477 96.694 139.254 96.611C138.882 96.4894 138.496 96.5323 138.46 97.2045C138.389 98.556 139.29 104.62 139.497 103.29C139.676 102.11 140.913 98.9635 140.262 97.562Z" fill="white" stroke="#263238" stroke-width="0.759447" stroke-linecap="round" stroke-linejoin="round"/>
<path d="M139.547 98.6776C139.453 98.459 139.314 98.262 139.141 98.0986C138.968 97.9351 138.763 97.8085 138.539 97.7265C138.167 97.5978 137.781 97.6407 137.745 98.32C137.674 99.6644 139.29 103.919 139.497 102.61C139.676 101.409 140.198 100.079 139.547 98.6776Z" fill="white" stroke="#263238" stroke-width="0.759447" stroke-linecap="round" stroke-linejoin="round"/>
<path d="M139.39 100.022C139.259 99.7425 139.044 99.5102 138.775 99.3575C138.346 99.1144 137.702 98.9141 137.652 99.8008C137.581 101.145 139.125 104.871 139.333 103.541C139.54 102.211 140.112 101.488 139.39 100.022Z" fill="white" stroke="#263238" stroke-width="0.759447" stroke-linecap="round" stroke-linejoin="round"/>
<path d="M138.81 101.302C138.716 101.084 138.577 100.887 138.404 100.723C138.231 100.56 138.026 100.433 137.802 100.351C137.43 100.222 137.087 100.272 137.016 100.945C136.944 102.289 138.889 106.401 139.096 105.071C139.413 103.817 139.312 102.494 138.81 101.302Z" fill="white" stroke="#263238" stroke-width="0.759447" stroke-linecap="round" stroke-linejoin="round"/>
<path d="M101.73 100.473C101.988 100.06 102.332 99.7072 102.738 99.4391C103.145 99.171 103.604 98.9936 104.085 98.919C104.567 98.8443 105.058 98.8742 105.527 99.0066C105.995 99.1389 106.43 99.3706 106.801 99.686C110.426 102.711 117.27 108.461 119.673 110.735C123.006 113.882 120.389 119.818 120.389 122.228C120.389 124.638 121.504 140.021 121.504 140.943C121.504 141.866 118.164 142.981 114.46 142.059C110.755 141.136 105.592 139.255 105.592 139.255C105.592 139.255 107.444 129.958 105.964 127.026C104.662 124.445 97.1103 108.203 101.73 100.473Z" fill="#263238" stroke="#263238" stroke-width="0.759447" stroke-linecap="round" stroke-linejoin="round"/>
<path d="M105.777 140.385C105.777 140.385 100.771 146.107 102.252 153.551C103.732 160.996 110.412 162.627 114.116 165.595C117.821 168.563 129.499 175.972 129.499 175.972C129.499 175.972 122.269 182.83 118.564 188.952C114.86 195.073 107.837 200.623 107.837 200.623L109.689 203.405C109.689 203.405 127.668 190.432 133.225 185.426C138.782 180.42 142.522 176.529 142.522 174.699C142.522 172.868 127.675 156.512 123.385 151.141C120.558 147.763 116.925 145.15 112.822 143.546" fill="white"/>
<path d="M105.777 140.385C105.777 140.385 100.771 146.107 102.252 153.551C103.732 160.996 110.412 162.627 114.116 165.595C117.821 168.563 129.499 175.972 129.499 175.972C129.499 175.972 122.269 182.83 118.564 188.952C114.86 195.073 107.837 200.623 107.837 200.623L109.689 203.405C109.689 203.405 127.668 190.432 133.225 185.426C138.782 180.42 142.522 176.529 142.522 174.699C142.522 172.868 127.675 156.512 123.385 151.141C120.558 147.763 116.925 145.15 112.822 143.546" stroke="#263238" stroke-width="0.759447" stroke-linecap="round" stroke-linejoin="round"/>
<path d="M129.499 175.972C131.702 175.029 134.113 174.681 136.492 174.963" stroke="#263238" stroke-width="0.379724" stroke-linecap="round" stroke-linejoin="round"/>
<path d="M107.544 142.116C107.544 142.116 104.734 148.381 107.544 152.271C110.355 156.162 131.094 172.796 132.825 173.654C134.555 174.513 135.628 175.385 134.548 176.68C133.468 177.974 109.518 201.746 109.518 201.746" stroke="#263238" stroke-width="0.379724" stroke-linecap="round" stroke-linejoin="round"/>
<path d="M109.854 105.171C109.854 105.171 107.308 98.313 103.11 99.1569C97.3888 100.294 98.5473 126.49 97.067 127.227C95.5866 127.963 85.5745 111.844 84.8307 110.921C84.0869 109.999 85.3885 108.883 83.3503 107.217C81.3122 105.55 80.9403 106.287 78.7161 104.993C76.492 103.698 75.7483 104.435 75.9342 105.357C76.1201 106.28 79.274 107.395 79.274 107.395C79.274 107.395 75.1976 107.395 73.3453 106.845C71.4931 106.294 72.6302 107.56 73.1594 108.511C73.6886 109.462 77.2358 110.921 78.5302 110.921C79.6597 110.992 80.7789 111.179 81.87 111.479C81.87 111.479 87.5912 125.56 90.3946 129.272C93.198 132.984 96.6951 139.091 99.8489 135.758C103.003 132.426 107.816 111.107 107.816 111.107" fill="#263238"/>
<path d="M109.854 105.171C109.854 105.171 107.308 98.313 103.11 99.1569C97.3888 100.294 98.5473 126.49 97.067 127.227C95.5866 127.963 85.5745 111.844 84.8307 110.921C84.0869 109.999 85.3885 108.883 83.3503 107.217C81.3122 105.55 80.9403 106.287 78.7161 104.993C76.492 103.698 75.7483 104.435 75.9342 105.357C76.1201 106.28 79.274 107.395 79.274 107.395C79.274 107.395 75.1976 107.395 73.3453 106.845C71.4931 106.294 72.6302 107.56 73.1594 108.511C73.6886 109.462 77.2358 110.921 78.5302 110.921C79.6597 110.992 80.7789 111.179 81.87 111.479C81.87 111.479 87.5912 125.56 90.3946 129.272C93.198 132.984 96.6951 139.091 99.8489 135.758C103.003 132.426 107.816 111.107 107.816 111.107" stroke="#263238" stroke-width="0.759447" stroke-linecap="round" stroke-linejoin="round"/>
<path d="M98.4763 113.739C97.8899 120.39 97.7611 126.869 97.046 127.227C95.5585 127.942 87.1554 115.784 85.532 110.492C85.1816 109.362 85.3675 108.883 83.3293 107.21C81.2912 105.536 80.9193 106.287 78.6951 104.993C76.471 103.698 75.7273 104.435 75.9132 105.357C76.0991 106.28 79.253 107.396 79.253 107.396C79.253 107.396 75.1766 107.396 73.3243 106.845C71.4721 106.294 72.6092 107.56 73.1384 108.511C73.6676 109.462 77.2148 110.921 78.5092 110.921C79.6387 110.992 80.7579 111.179 81.849 111.479C81.849 111.479 87.5702 125.56 90.3736 129.272C93.177 132.984 96.6741 139.091 99.8279 135.759C101.709 133.756 104.19 125.332 105.885 118.874C103.096 115.441 100.5 114.132 98.4763 113.739Z" fill="white" stroke="#263238" stroke-width="0.759447" stroke-linecap="round" stroke-linejoin="round"/>
<path d="M108.559 221.942C108.559 221.942 104.111 225.088 104.476 226.948C104.841 228.807 108.002 229.916 108.373 230.473C108.745 231.031 112.722 234.979 114.481 235.065C116.24 235.151 115.768 233.949 115.074 232.769C114.381 231.589 112.264 228.063 112.264 226.397C112.255 225.335 112.131 224.278 111.892 223.243L108.559 221.942Z" fill="white" stroke="#263238" stroke-width="0.759447" stroke-linecap="round" stroke-linejoin="round"/>
<path d="M107.816 200.623C107.816 200.623 102.252 201.102 101.73 201.188C101.208 201.274 99.9919 201.188 100.686 204.842C101.379 208.497 100.771 212.151 101.472 214.325C102.173 216.499 102.945 217.186 103.296 216.842C103.646 216.499 104.683 213.102 105.82 210.32C106.928 207.922 108.214 205.61 109.668 203.405L107.816 200.623Z" fill="white" stroke="#263238" stroke-width="0.759447" stroke-linecap="round" stroke-linejoin="round"/>
<path d="M105.506 204.599L105.12 200.866C103.625 200.995 102.023 201.145 101.752 201.188C101.23 201.281 100.014 201.188 100.708 204.842C101.401 208.497 100.793 212.151 101.494 214.325C102.195 216.499 102.967 217.186 103.318 216.842C103.668 216.499 104.705 213.102 105.842 210.32C106.59 208.624 107.455 206.983 108.431 205.407C107.515 204.957 106.523 204.683 105.506 204.599Z" fill="#263238" stroke="#263238" stroke-width="0.759447" stroke-linecap="round" stroke-linejoin="round"/>
<path d="M112.264 226.39C112.262 225.785 112.219 225.18 112.135 224.581L109.518 225.725L106.264 223.866C105.241 224.86 104.304 226.054 104.476 226.941C104.848 228.793 108.002 229.909 108.374 230.467C108.745 231.024 112.722 234.972 114.481 235.058C116.24 235.144 115.768 233.942 115.075 232.762C114.381 231.582 112.264 228.057 112.264 226.39Z" fill="#263238" stroke="#263238" stroke-width="0.759447" stroke-linecap="round" stroke-linejoin="round"/>
<path d="M37.8738 239.034C55.9713 239.034 70.6421 235.883 70.6421 231.997C70.6421 228.11 55.9713 224.959 37.8738 224.959C19.7764 224.959 5.10547 228.11 5.10547 231.997C5.10547 235.883 19.7764 239.034 37.8738 239.034Z" fill="#C3A28E"/>
<g opacity="0.7">
<path d="M37.8738 239.034C55.9713 239.034 70.6421 235.883 70.6421 231.997C70.6421 228.11 55.9713 224.959 37.8738 224.959C19.7764 224.959 5.10547 228.11 5.10547 231.997C5.10547 235.883 19.7764 239.034 37.8738 239.034Z" fill="white"/>
</g>
<path d="M33.1538 140.528C33.1538 140.528 28.2693 175.571 26.1239 182.007C23.9784 188.444 21.1178 209.183 19.9235 215.62C19.2438 219.165 18.7662 222.747 18.4932 226.347L21.5969 227.305C21.5969 227.305 36.136 190.832 39.9478 183.202C42.3934 178.111 44.2343 172.751 45.433 167.232C45.433 167.232 48.2936 186.541 48.2936 192.499C48.2936 198.456 50.2031 217.05 50.6751 220.154C51.1471 223.257 52.1054 227.062 52.1054 227.062L54.966 226.59C54.966 226.59 59.5001 200.365 60.2152 187.013C60.9304 173.662 58.7849 154.832 57.3546 148.638C56.6837 145.472 55.7655 142.364 54.6084 139.341C54.6084 139.341 39.9478 142.674 33.1538 140.528Z" fill="#263238" stroke="#263238" stroke-width="0.759447" stroke-linecap="round" stroke-linejoin="round"/>
<path d="M46.4771 167.283L52.5272 152.808" stroke="white" stroke-width="0.379724" stroke-linecap="round" stroke-linejoin="round"/>
<path d="M47.5566 165.122L52.0973 159.509" stroke="white" stroke-width="0.379724" stroke-linecap="round" stroke-linejoin="round"/>
<path d="M35.4205 100.008C35.4205 100.008 33.0391 100.602 20.5239 107.274C8.00871 113.946 -2.44683 122.156 1.12894 126.447C4.70471 130.738 28.8483 141.022 28.8483 141.022L30.6505 138.383C30.6505 138.383 11.8562 126.09 11.8562 123.708C11.8562 121.327 27.6754 116.457 27.6754 116.457L33.1535 140.529C36.5554 142.049 40.2925 142.665 44.0024 142.316C47.7139 142.12 51.3359 141.104 54.6081 139.341L56.0384 114.547C56.0384 114.547 70.9422 112.166 75.1116 103.698C79.2809 95.2308 73.5597 75.092 73.5597 75.092L71.0566 75.3352C71.0566 75.3352 71.2998 94.8803 69.2688 98.5777C67.2377 102.275 51.0324 99.6504 44.9535 98.9353C38.8747 98.2201 35.4205 100.008 35.4205 100.008Z" fill="#C3A28E" stroke="#263238" stroke-width="0.759447" stroke-linecap="round" stroke-linejoin="round"/>
<path d="M36.5365 114.783L27.6758 116.456L34.813 118.459" stroke="#263238" stroke-width="0.379724" stroke-linecap="round" stroke-linejoin="round"/>
<path d="M56.2031 108.733L56.0386 114.547L59.6572 106.144" stroke="#263238" stroke-width="0.379724" stroke-linecap="round" stroke-linejoin="round"/>
<path d="M36.0139 95.1162C36.0139 95.1162 33.99 95.4738 33.5109 97.2617C33.0687 99.1486 33.1105 101.117 33.6325 102.983C34.1116 104.299 35.8995 107.631 35.8995 107.631C35.8995 107.631 40.3978 103.183 41.0772 103.341C44.4027 104.099 46.2621 104.42 47.9927 104.857C47.9927 104.857 47.0988 97.984 45.1965 96.0817C43.2942 94.1794 37.2082 94.916 36.0139 95.1162Z" fill="white" stroke="#263238" stroke-width="0.759447" stroke-miterlimit="10" stroke-linecap="round"/>
<path d="M34.3477 91.0683C34.3477 91.0683 35.6564 95.7168 35.6564 97.5047C35.6564 99.2926 41.1416 106.201 41.1416 106.201L43.4086 96.904L42.4503 90.8252C42.4503 90.8252 37.5658 93.6858 34.3477 91.0683Z" fill="white" stroke="#263238" stroke-width="0.759447" stroke-miterlimit="10" stroke-linecap="round"/>
<path d="M44.1243 77.1229C44.1243 77.1229 44.4818 83.4377 45.5546 86.0623C46.6273 88.6869 45.7906 92.8563 43.166 94.401C40.5413 95.9457 36.6152 94.2866 34.3481 92.7347C32.0811 91.1828 31.0084 87.9646 29.8212 84.3888C28.634 80.8131 28.5053 75.6926 32.3242 74.0191C36.1432 72.3457 44.1243 77.1229 44.1243 77.1229Z" fill="white" stroke="#263238" stroke-width="0.759447" stroke-miterlimit="10" stroke-linecap="round"/>
<path d="M31.2513 87.4926C31.2513 87.4926 33.7543 86.6559 33.7543 85.4616C33.7543 84.2673 32.6816 83.5593 32.56 81.7714C32.4384 79.9835 34.9415 79.0252 34.9415 77.9525C34.9496 77.3482 34.8701 76.746 34.7055 76.1646C34.7055 76.1646 40.3051 78.1956 43.6449 78.1956C46.9846 78.1956 47.6998 75.4494 46.7415 74.7343C45.7832 74.0191 48.7725 75.2134 47.5782 72.7104C46.3839 70.2074 40.5483 68.2979 34.827 69.9714C29.1058 71.6448 28.3907 74.1407 28.3907 74.1407C28.3907 74.1407 23.499 76.2862 23.8566 79.7404C24.2142 83.1945 29.6994 87.371 30.1785 87.7644C30.6577 88.1577 31.2513 87.4926 31.2513 87.4926Z" fill="#263238" stroke="#263238" stroke-width="0.759447" stroke-miterlimit="10" stroke-linecap="round"/>
<path d="M32.9171 88.8012C32.9171 88.8012 31.3654 85.705 29.9353 86.2985C28.5051 86.892 29.4633 88.5653 31.0079 89.8738C32.5524 91.1824 33.5106 90.7105 33.5106 90.7105" fill="white"/>
<path d="M32.9171 88.8012C32.9171 88.8012 31.3654 85.705 29.9353 86.2985C28.5051 86.892 29.4633 88.5653 31.0079 89.8738C32.5524 91.1824 33.5106 90.7105 33.5106 90.7105" stroke="#263238" stroke-width="0.759447" stroke-miterlimit="10" stroke-linecap="round"/>
<path d="M70.928 75.3342C70.928 75.3342 70.1342 70.4932 70.4346 69.6137C70.7349 68.7342 72.7013 66.7534 73.4951 67.54C74.2888 68.3266 75.0682 70.7006 74.4818 71.9806C74.066 72.9846 73.7569 74.0296 73.5594 75.0983L70.928 75.3342Z" fill="white" stroke="#263238" stroke-width="0.759447" stroke-linecap="round" stroke-linejoin="round"/>
<path d="M70.7277 73.2611C70.7277 73.2611 69.5405 69.6853 69.5405 68.6198C69.5938 67.0906 69.7925 65.57 70.1341 64.0786C70.4345 62.9915 71.3213 64.0785 71.3213 65.0655C71.2982 65.8908 71.2314 66.7144 71.121 67.5327C71.121 67.5327 72.3082 69.1132 72.208 70.3934L72.1079 71.6806" fill="white"/>
<path d="M70.7277 73.2611C70.7277 73.2611 69.5405 69.6853 69.5405 68.6198C69.5938 67.0906 69.7925 65.57 70.1341 64.0786C70.4345 62.9915 71.3213 64.0785 71.3213 65.0655C71.2982 65.8908 71.2314 66.7144 71.121 67.5327C71.121 67.5327 72.3082 69.1132 72.208 70.3934L72.1079 71.6806" stroke="#263238" stroke-width="0.759447" stroke-linecap="round" stroke-linejoin="round"/>
<path d="M74.6829 71.187L73.7747 66.2525C74.4041 66.0441 74.9369 65.6151 75.2747 65.0446C75.6125 64.4742 75.7325 63.8007 75.6126 63.1487L74.9404 59.4585L69.498 60.4526L70.1775 64.1428C70.2983 64.8021 70.6556 65.3947 71.1822 65.8095C71.7089 66.2242 72.3687 66.4326 73.0381 66.3955L73.9392 71.33L71.2216 71.8307L71.3789 72.7031L77.5936 71.5661L77.4363 70.6936L74.6829 71.187Z" fill="white" stroke="#263238" stroke-width="0.759447" stroke-linecap="round" stroke-linejoin="round"/>
<path d="M76.0914 63.2918C75.9989 63.0806 75.8644 62.8906 75.6959 62.7332C75.5275 62.5758 75.3287 62.4544 75.1117 62.3765C74.7542 62.255 74.3967 62.2979 74.3538 62.9486C74.2823 64.25 75.1546 70.0993 75.3477 68.8193C75.5265 67.6823 76.7135 64.6504 76.0914 63.2918Z" fill="white" stroke="#263238" stroke-width="0.759447" stroke-linecap="round" stroke-linejoin="round"/>
<path d="M75.3974 64.3643C75.3054 64.1541 75.1718 63.9646 75.0047 63.8073C74.8376 63.65 74.6403 63.5281 74.4249 63.449C74.0674 63.3275 73.7098 63.3704 73.6669 64.0211C73.5954 65.3225 75.1543 69.427 75.3473 68.147C75.5261 67.0244 76.0267 65.7229 75.3974 64.3643Z" fill="white" stroke="#263238" stroke-width="0.759447" stroke-linecap="round" stroke-linejoin="round"/>
<path d="M75.2475 65.6661C75.1199 65.3984 74.9159 65.1745 74.6612 65.0225C74.2393 64.7937 73.6243 64.6007 73.5743 65.4516C73.5099 66.753 75.0044 70.3427 75.1903 69.0269C75.3763 67.7112 75.9483 67.0819 75.2475 65.6661Z" fill="white" stroke="#263238" stroke-width="0.759447" stroke-linecap="round" stroke-linejoin="round"/>
<path d="M74.6895 66.8961C74.5964 66.6865 74.4625 66.4976 74.2955 66.3404C74.1285 66.1832 73.9318 66.061 73.717 65.9808C73.3595 65.8592 73.0019 65.9021 72.959 66.5528C72.8875 67.8543 74.7681 71.8157 74.9684 70.5358C75.2691 69.3241 75.1713 68.0478 74.6895 66.8961Z" fill="white" stroke="#263238" stroke-width="0.759447" stroke-linecap="round" stroke-linejoin="round"/>
<path d="M18.493 226.347C18.493 226.347 14.2021 231.832 13.9661 234.929C13.7301 238.025 20.4025 233.262 21.5968 227.305L18.493 226.347Z" fill="white" stroke="#263238" stroke-width="0.759447" stroke-linecap="round" stroke-linejoin="round"/>
<path d="M54.9661 226.59C54.9661 226.59 64.5062 231.832 62.3608 232.783C60.2153 233.734 54.9661 230.402 52.1055 227.062L54.9661 226.59Z" fill="white" stroke="#263238" stroke-width="0.759447" stroke-linecap="round" stroke-linejoin="round"/>
<path d="M30.6501 138.383C30.6501 138.383 36.9427 139.241 36.9427 140.528C36.9562 140.885 36.8729 141.239 36.7017 141.552C36.5305 141.866 36.2778 142.127 35.9702 142.309C35.9702 142.309 35.484 143.439 33.0599 143.739C30.6358 144.039 28.8481 140.986 28.8481 140.986L30.6501 138.383Z" fill="white" stroke="#263238" stroke-width="0.759447" stroke-linecap="round" stroke-linejoin="round"/>
</svg>
