<svg width="106" height="50" viewBox="0 0 106 50" fill="none" xmlns="http://www.w3.org/2000/svg">
<path d="M66.0421 47.1256C58.1781 45.9882 54.1674 42.6122 51.5714 36.6135C48.7768 29.8269 49.8608 24.1869 49.8048 24.4842C50.2008 21.6736 51.1221 19.0736 53.0208 16.9482C54.8354 19.4069 55.1767 20.5869 55.6021 21.9202C53.7207 23.6576 50.0234 37.8122 63.9248 42.5642C79.9901 48.0536 90.0408 26.4696 75.1488 17.9336C71.8474 16.0549 67.8421 15.2109 64.2821 16.7362C63.4501 14.4096 62.5861 12.8336 61.5434 11.2616C62.8768 10.6402 66.7727 7.25224 76.1341 11.1669C94.4714 19.1882 91.9914 50.4589 66.0421 47.1256ZM50.0101 37.9202C43.9648 41.2922 37.0261 40.1229 31.4981 35.9429C22.1581 28.6682 25.1968 19.4335 24.7261 21.9522C26.3568 10.3842 41.6874 4.78157 51.7674 15.5029C46.4527 21.3096 46.9194 31.0256 50.0101 37.9202ZM56.3181 25.1922C56.5101 27.2509 56.4021 29.2735 55.7968 31.2522C55.4354 29.0375 55.7741 27.0309 56.3181 25.1922ZM72.6248 18.9069C89.1474 26.0709 77.0848 48.8522 61.2461 39.1962C65.9114 33.2482 66.7848 25.5709 64.8808 18.5989C67.4221 17.5122 70.0301 17.8722 72.6248 18.9069ZM18.6541 26.7855C19.3541 30.7362 14.5474 11.0362 31.4221 3.7949C33.2701 3.04157 35.2648 2.49488 37.3461 2.21222C37.3208 2.21622 37.2941 2.22156 37.2687 2.22556C40.7047 1.80956 43.5127 2.2549 43.3674 2.22823C47.6247 2.82157 51.3434 4.36424 54.7114 6.89757C54.6941 6.8829 54.6768 6.86823 54.6594 6.85356C54.6994 6.88423 54.8381 6.99222 54.8674 7.01489C54.8514 7.00422 54.8368 6.99222 54.8221 6.98155C67.2368 16.7749 62.9688 31.9442 63.6234 28.2696C62.7701 34.5469 59.6634 37.8496 60.0394 37.4056C59.8301 37.6696 59.7514 37.7589 59.5861 37.9976C58.2568 36.8416 57.1781 35.5482 56.4914 33.8176C56.7354 33.7482 56.9914 33.5896 57.0861 33.3696C63.2074 19.2296 47.9648 3.80686 33.9141 8.65486C17.1688 14.4615 20.0848 36.3455 37.6901 41.1495C41.9674 42.3269 46.5727 41.9895 50.8661 39.6429C51.6101 41.0149 52.3648 42.1336 53.6394 43.4842C39.2114 50.0469 20.8354 42.7002 18.6541 26.7855ZM76.9301 9.31756C68.6194 5.74156 62.1567 7.81487 60.4381 9.7322C52.7194 -0.0477947 39.1834 -2.68377 28.6648 2.8589C5.97545 14.8389 16.5701 52.8309 47.6327 47.3789C50.2607 46.9202 52.8968 46.0216 55.1941 44.8976C62.5434 50.6802 75.9408 50.9136 83.2901 45.0256C93.5074 36.8309 92.3794 15.9696 76.9301 9.31756Z" fill="#734D37"/>
<path d="M9.02328 10.5748C7.24728 9.74685 5.4766 8.92818 3.65926 8.20551C2.52993 7.77351 1.6726 9.63749 3.1126 10.1842C4.93927 10.9095 6.59527 11.6255 8.01794 12.2935C8.62194 12.5695 9.1246 12.3708 9.37793 11.9348C9.6326 11.5015 9.51261 10.8042 9.02328 10.5748Z" fill="#734D37"/>
<path d="M4.67795 17.759C3.81528 17.6323 1.99529 17.2523 1.99529 17.2523C0.717952 17.2523 0.525957 19.0283 1.70062 19.343C3.51262 19.8283 5.38728 20.015 7.25795 20.0363C7.82995 20.0417 8.30995 19.5523 8.30995 18.9843C8.30995 17.6416 6.91662 18.0297 4.67795 17.759Z" fill="#734D37"/>
<path d="M7.05931 26.6481C6.57398 26.6481 3.44199 27.4121 2.95666 27.5374C1.62066 27.8814 2.10731 29.976 3.52998 29.6107C4.78998 29.2987 6.05531 29.0068 7.33131 28.7561C7.90465 28.6428 8.22732 27.9654 8.08198 27.4281C7.96332 26.9974 7.56598 26.6481 7.05931 26.6481Z" fill="#734D37"/>
<path d="M101.859 16.1923C102.305 16.0043 102.754 15.8283 103.21 15.6563C103.851 15.4123 104.065 14.8923 103.929 14.3856C103.543 13.003 102.29 13.583 96.0486 16.6363C95.5432 16.8857 95.4072 17.5936 95.6792 18.0523C96.4032 19.291 97.4206 18.0963 101.859 16.1923Z" fill="#734D37"/>
<path d="M98.0447 23.7856C97.3714 23.8363 97.0181 24.2923 97.0181 24.8123C97.0181 26.2523 98.3261 25.8763 104.055 25.2496C104.751 25.171 105.081 24.731 105.081 24.223C105.081 22.6697 103.698 23.331 98.0447 23.7856Z" fill="#734D37"/>
<path d="M97.7207 31.6003C96.4607 30.8976 95.5061 32.7616 96.6647 33.4083C98.5701 34.4723 103.57 36.203 103.57 34.023C103.57 32.239 101.57 33.7456 97.7207 31.6003Z" fill="#734D37"/>
</svg>
