<svg width="105" height="50" viewBox="0 0 105 50" fill="none" xmlns="http://www.w3.org/2000/svg">
<path d="M65.1229 47.1256C57.2589 45.9882 53.2482 42.6122 50.6522 36.6135C47.8576 29.8269 48.9416 24.1869 48.8856 24.4842C49.2816 21.6736 50.2029 19.0736 52.1016 16.9482C53.9162 19.4069 54.2576 20.5869 54.6829 21.9202C52.8016 23.6576 49.1042 37.8122 63.0056 42.5642C79.0709 48.0536 89.1216 26.4696 74.2296 17.9336C70.9282 16.0549 66.9229 15.2109 63.3629 16.7362C62.5309 14.4096 61.6669 12.8336 60.6242 11.2616C61.9576 10.6402 65.8536 7.25224 75.2149 11.1669C93.5522 19.1882 91.0722 50.4589 65.1229 47.1256ZM49.0909 37.9202C43.0456 41.2922 36.1069 40.1229 30.5789 35.9429C21.2389 28.6682 24.2776 19.4335 23.8069 21.9522C25.4376 10.3842 40.7682 4.78157 50.8482 15.5029C45.5336 21.3096 46.0002 31.0256 49.0909 37.9202ZM55.3989 25.1922C55.5909 27.2509 55.4829 29.2735 54.8776 31.2522C54.5163 29.0375 54.8549 27.0309 55.3989 25.1922ZM71.7056 18.9069C88.2282 26.0709 76.1656 48.8522 60.3269 39.1962C64.9922 33.2482 65.8656 25.5709 63.9616 18.5989C66.5029 17.5122 69.1109 17.8722 71.7056 18.9069ZM17.7349 26.7855C18.4349 30.7362 13.6282 11.0362 30.5029 3.7949C32.3509 3.04157 34.3456 2.49488 36.4269 2.21222C36.4016 2.21622 36.3749 2.22156 36.3496 2.22556C39.7856 1.80956 42.5936 2.2549 42.4482 2.22823C46.7056 2.82157 50.4242 4.36424 53.7922 6.89757C53.7749 6.8829 53.7576 6.86823 53.7402 6.85356C53.7802 6.88423 53.9189 6.99222 53.9482 7.01489C53.9322 7.00422 53.9176 6.99222 53.9029 6.98155C66.3176 16.7749 62.0496 31.9442 62.7042 28.2696C61.8509 34.5469 58.7442 37.8496 59.1202 37.4056C58.9109 37.6696 58.8322 37.7589 58.6669 37.9976C57.3376 36.8416 56.2589 35.5482 55.5722 33.8176C55.8162 33.7482 56.0722 33.5896 56.1669 33.3696C62.2882 19.2296 47.0456 3.80686 32.9949 8.65486C16.2496 14.4615 19.1656 36.3455 36.7709 41.1495C41.0482 42.3269 45.6536 41.9895 49.9469 39.6429C50.6909 41.0149 51.4456 42.1336 52.7202 43.4842C38.2922 50.0469 19.9162 42.7002 17.7349 26.7855ZM76.0109 9.31756C67.7003 5.74156 61.2376 7.81487 59.5189 9.7322C51.8002 -0.0477947 38.2643 -2.68377 27.7456 2.8589C5.05626 14.8389 15.6509 52.8309 46.7136 47.3789C49.3416 46.9202 51.9776 46.0216 54.2749 44.8976C61.6242 50.6802 75.0216 50.9136 82.3709 45.0256C92.5882 36.8309 91.4603 15.9696 76.0109 9.31756Z" fill="#FFFCF9"/>
<path d="M8.10384 10.5748C6.32784 9.74685 4.55716 8.92818 2.73983 8.20551C1.6105 7.77351 0.753167 9.63749 2.19317 10.1842C4.01983 10.9095 5.67584 11.6255 7.09851 12.2935C7.70251 12.5695 8.20517 12.3708 8.4585 11.9348C8.71317 11.5015 8.59318 10.8042 8.10384 10.5748Z" fill="#FFFCF9"/>
<path d="M3.75852 17.759C2.89585 17.6323 1.07585 17.2523 1.07585 17.2523C-0.201482 17.2523 -0.393476 19.0283 0.78119 19.343C2.59319 19.8283 4.46785 20.015 6.33852 20.0363C6.91052 20.0417 7.39052 19.5523 7.39052 18.9843C7.39052 17.6416 5.99718 18.0297 3.75852 17.759Z" fill="#FFFCF9"/>
<path d="M6.13988 26.6481C5.65454 26.6481 2.52256 27.4121 2.03722 27.5374C0.701222 27.8814 1.18788 29.976 2.61055 29.6107C3.87055 29.2987 5.13588 29.0068 6.41188 28.7561C6.98521 28.6428 7.30788 27.9654 7.16255 27.4281C7.04388 26.9974 6.64654 26.6481 6.13988 26.6481Z" fill="#FFFCF9"/>
<path d="M100.94 16.1923C101.385 16.0043 101.834 15.8283 102.29 15.6563C102.932 15.4123 103.145 14.8923 103.009 14.3856C102.624 13.003 101.37 13.583 95.1289 16.6363C94.6235 16.8857 94.4875 17.5936 94.7595 18.0523C95.4835 19.291 96.5009 18.0963 100.94 16.1923Z" fill="#FFFCF9"/>
<path d="M97.1253 23.7856C96.452 23.8363 96.0986 24.2923 96.0986 24.8123C96.0986 26.2523 97.4066 25.8763 103.136 25.2496C103.832 25.171 104.161 24.731 104.161 24.223C104.161 22.6697 102.779 23.331 97.1253 23.7856Z" fill="#FFFCF9"/>
<path d="M96.801 31.6003C95.541 30.8976 94.5864 32.7616 95.745 33.4083C97.6504 34.4723 102.65 36.203 102.65 34.023C102.65 32.239 100.65 33.7456 96.801 31.6003Z" fill="#FFFCF9"/>
</svg>
