<svg width="224" height="240" viewBox="0 0 224 240" fill="none" xmlns="http://www.w3.org/2000/svg">
<path d="M97.284 121.509C97.284 128.164 91.7344 138.691 86.9562 138.691C82.9744 138.691 76.6284 128.164 76.6284 121.509C76.6284 114.855 81.2523 109.459 86.9562 109.459C92.6601 109.459 97.284 114.84 97.284 121.509Z" fill="#263238" stroke="#263238" stroke-linecap="round" stroke-linejoin="round"/>
<path d="M86.6675 139.009L86.767 141.423L88.7778 140.92L86.9562 138.691" fill="#263238"/>
<path d="M86.6675 139.009L86.767 141.423L88.7778 140.92L86.9562 138.691" stroke="#263238" stroke-linecap="round" stroke-linejoin="round"/>
<path d="M94.3276 114.282C95.547 116.114 95.5122 118.264 94.2579 119.105C93.0036 119.946 90.9978 119.13 89.7784 117.299C88.5589 115.467 88.5938 113.317 89.853 112.476C91.1123 111.634 93.1131 112.451 94.3276 114.282Z" fill="white"/>
<path d="M88.753 111.754C88.6734 112.162 88.101 112.391 87.4739 112.252C86.8467 112.112 86.4038 111.694 86.4784 111.286C86.5531 110.878 87.1304 110.649 87.7576 110.788C88.3847 110.928 88.8327 111.356 88.753 111.754Z" fill="white"/>
<path d="M87.5837 139.93C87.2065 141.419 86.96 142.937 86.8471 144.469C86.7525 145.549 86.7376 146.634 86.7426 147.724C86.7023 148.508 86.7575 149.293 86.9068 150.064C87.2877 151.243 87.8485 152.356 88.5692 153.363C89.4227 154.633 90.1813 155.964 90.8388 157.345C91.1621 158.075 91.4154 158.833 91.5954 159.61C91.6867 160.014 91.7532 160.422 91.7945 160.834C91.7945 160.969 91.7945 161.098 91.8293 161.232C91.8691 161.675 91.8293 160.924 91.8293 160.899C91.7746 161.208 91.7895 161.541 91.7497 161.85C91.4461 164.144 90.3411 166.135 89.0918 168.036C87.9421 169.783 86.7127 171.471 85.4933 173.168C84.6378 174.282 83.888 175.473 83.2535 176.727C82.62 178.14 82.257 179.659 82.1834 181.206C82.0615 183.436 82.0964 185.671 82.2879 187.896C82.2879 187.597 82.3178 187.069 82.2879 186.696C82.054 183.471 81.9993 180.226 83.582 177.319C84.2756 176.109 85.0471 174.945 85.8915 173.835C87.091 172.187 88.2706 170.525 89.3755 168.818C90.4518 167.349 91.2066 165.669 91.5908 163.889C91.975 162.109 91.9799 160.267 91.6053 158.485C90.9981 155.623 89.2212 153.329 87.7977 150.85C87.4706 150.303 87.1988 149.724 86.9865 149.123C86.7371 148.204 86.6678 147.246 86.7824 146.301C86.8731 144.559 87.1349 142.83 87.5638 141.139C87.6683 140.751 87.4593 140.283 87.5638 139.895L87.5837 139.93Z" fill="#263238"/>
<path d="M26.2987 45.7554C26.2987 52.41 20.749 62.9369 15.9709 62.9369C11.9891 62.9369 5.64307 52.41 5.64307 45.7554C5.64307 39.1008 10.2669 33.7104 15.9709 33.7104C21.6748 33.7104 26.2987 39.1008 26.2987 45.7554Z" fill="#263238" stroke="#263238" stroke-linecap="round" stroke-linejoin="round"/>
<path d="M15.6821 63.2553L15.7817 65.6643L17.7925 65.1616L15.9708 62.9368" fill="#263238"/>
<path d="M15.6821 63.2553L15.7817 65.6643L17.7925 65.1616L15.9708 62.9368" stroke="#263238" stroke-linecap="round" stroke-linejoin="round"/>
<path d="M23.3473 38.5235C24.5618 40.3551 24.5269 42.5053 23.2727 43.3464C22.0184 44.1876 20.0126 43.3464 18.7931 41.5397C17.5737 39.7329 17.6135 37.5579 18.8678 36.7167C20.1221 35.8756 22.1279 36.6968 23.3473 38.5235Z" fill="white"/>
<path d="M17.7775 35.9999C17.6979 36.4081 17.1255 36.637 16.4983 36.4977C15.8712 36.3583 15.4332 35.9402 15.5029 35.5321C15.5726 35.1239 16.1549 34.895 16.782 35.0343C17.4092 35.1737 17.8521 35.5918 17.7775 35.9999Z" fill="white"/>
<path d="M16.5978 64.1763C16.2231 65.6639 15.9767 67.1809 15.8612 68.7106C15.7716 69.7956 15.7517 70.8807 15.7567 71.9657C15.7166 72.7509 15.7718 73.5381 15.9209 74.31C16.3036 75.4877 16.8661 76.5991 17.5883 77.6049C18.4421 78.8821 19.1991 80.2214 19.853 81.6116C20.1769 82.3389 20.4302 83.0956 20.6095 83.8713C20.7004 84.275 20.7669 84.6839 20.8086 85.0957C20.8086 85.2301 20.8086 85.3645 20.8434 85.4988C20.8833 85.9368 20.8434 85.1853 20.8434 85.1604C20.7887 85.469 20.8036 85.8025 20.7638 86.116C20.4602 88.4056 19.3602 90.3965 18.1059 92.3027C16.9612 94.0498 15.7268 95.737 14.5074 97.4293C13.6508 98.5444 12.9009 99.7376 12.2676 100.993C11.6363 102.407 11.2734 103.926 11.1975 105.473C11.0801 107.699 11.1167 109.931 11.307 112.152C11.307 111.858 11.3369 111.331 11.307 110.952C11.0731 107.732 11.0183 104.482 12.6011 101.58C13.2949 100.37 14.0663 99.2065 14.9106 98.0963C16.1101 96.4488 17.2947 94.7914 18.3946 93.0792C19.4709 91.61 20.2257 89.9305 20.6099 88.1503C20.9941 86.37 20.999 84.5288 20.6244 82.7464C20.0172 79.8845 18.2453 77.595 16.8218 75.1113C16.492 74.5664 16.2185 73.9894 16.0055 73.3892C15.7562 72.4688 15.6869 71.5088 15.8015 70.5621C15.8922 68.8218 16.154 67.0947 16.5829 65.4057C16.6874 65.0175 16.4834 64.5446 16.5829 64.1614L16.5978 64.1763Z" fill="#263238"/>
<path d="M222.895 70.4725C222.895 77.1271 217.34 87.654 212.562 87.654C208.58 87.654 202.234 77.1271 202.234 70.4725C202.234 63.8179 206.858 58.4226 212.562 58.4226C218.266 58.4226 222.895 63.8179 222.895 70.4725Z" fill="#263238" stroke="#263238" stroke-linecap="round" stroke-linejoin="round"/>
<path d="M212.273 87.9724L212.373 90.3813L214.384 89.8786L212.562 87.6538" fill="#263238"/>
<path d="M212.273 87.9724L212.373 90.3813L214.384 89.8786L212.562 87.6538" stroke="#263238" stroke-linecap="round" stroke-linejoin="round"/>
<path d="M219.939 63.2406C221.153 65.0722 221.118 67.2224 219.864 68.0635C218.61 68.9047 216.604 68.0635 215.384 66.2568C214.165 64.45 214.205 62.275 215.459 61.4338C216.713 60.5927 218.724 61.4089 219.939 63.2406Z" fill="white"/>
<path d="M214.379 60.717C214.299 61.1251 213.727 61.3541 213.1 61.2147C212.473 61.0753 212.035 60.6572 212.104 60.2491C212.174 59.841 212.756 59.612 213.384 59.7514C214.011 59.8907 214.444 60.3039 214.379 60.717Z" fill="white"/>
<path d="M213.189 88.8933C212.815 90.3809 212.568 91.8979 212.453 93.4276C212.363 94.5126 212.343 95.5976 212.348 96.6827C212.308 97.4679 212.363 98.255 212.513 99.027C212.896 100.204 213.459 101.316 214.18 102.322C215.032 103.592 215.789 104.923 216.445 106.304C216.768 107.033 217.021 107.791 217.201 108.568C217.295 108.972 217.361 109.381 217.4 109.793C217.4 109.927 217.4 110.062 217.435 110.191C217.475 110.634 217.435 109.882 217.435 109.857C217.38 110.166 217.395 110.5 217.355 110.808C217.052 113.103 215.952 115.094 214.698 116.995C213.553 118.742 212.323 120.429 211.099 122.126C210.242 123.241 209.492 124.435 208.859 125.69C208.228 127.104 207.865 128.623 207.789 130.17C207.67 132.399 207.705 134.634 207.894 136.859C207.894 136.565 207.923 136.033 207.894 135.66C207.66 132.439 207.605 129.189 209.188 126.287C209.881 125.076 210.655 123.912 211.502 122.803C212.697 121.156 213.881 119.498 214.986 117.786C216.062 116.317 216.817 114.638 217.201 112.857C217.586 111.077 217.591 109.236 217.216 107.453C216.614 104.592 214.837 102.297 213.413 99.8184C213.084 99.2735 212.81 98.6965 212.597 98.0962C212.348 97.1758 212.278 96.2159 212.393 95.2691C212.483 93.5288 212.745 91.8017 213.174 90.1127C213.279 89.7195 213.075 89.2517 213.174 88.8684L213.189 88.8933Z" fill="#263238"/>
<path d="M176.308 23.537C176.308 30.1916 170.753 40.7184 165.98 40.7184C161.998 40.7184 155.647 30.1916 155.647 23.537C155.647 16.8824 160.276 11.4871 165.98 11.4871C171.684 11.4871 176.308 16.8824 176.308 23.537Z" fill="#263238" stroke="#263238" stroke-linecap="round" stroke-linejoin="round"/>
<path d="M165.687 41.037L165.786 43.451L167.797 42.9483L165.975 40.7185" fill="#263238"/>
<path d="M165.687 41.037L165.786 43.451L167.797 42.9483L165.975 40.7185" stroke="#263238" stroke-linecap="round" stroke-linejoin="round"/>
<path d="M173.351 16.2902C174.566 18.1218 174.531 20.272 173.277 21.1131C172.022 21.9543 170.016 21.138 168.797 19.3064C167.578 17.4748 167.617 15.3246 168.872 14.4834C170.126 13.6423 172.137 14.4785 173.351 16.2902Z" fill="white"/>
<path d="M167.772 13.8014C167.692 14.2096 167.12 14.4435 166.493 14.2992C165.866 14.1548 165.428 13.7417 165.498 13.3336C165.567 12.9254 166.15 12.6965 166.777 12.8359C167.404 12.9752 167.857 13.3734 167.772 13.8014Z" fill="white"/>
<path d="M166.597 41.9578C166.222 43.447 165.976 44.9657 165.86 46.497C165.771 47.5771 165.751 48.6621 165.756 49.7521C165.716 50.5373 165.771 51.3245 165.92 52.0964C166.304 53.2737 166.866 54.3849 167.588 55.3914C168.439 56.6611 169.196 57.992 169.852 59.3732C170.176 60.1024 170.429 60.8607 170.609 61.6378C170.703 62.041 170.769 62.4501 170.808 62.8622C170.808 62.9966 170.808 63.126 170.843 63.2604C170.883 63.7034 170.843 62.9518 170.843 62.9269C170.788 63.2355 170.803 63.569 170.763 63.8776C170.459 66.1721 169.36 68.163 168.105 70.0643C166.96 71.8113 165.731 73.4986 164.507 75.1958C163.651 76.31 162.901 77.5013 162.267 78.7546C161.636 80.1685 161.273 81.6875 161.197 83.2341C161.077 85.4636 161.112 87.6988 161.301 89.9235C161.301 89.6299 161.336 89.0973 161.301 88.724C161.072 85.4987 161.013 82.2536 162.595 79.3469C163.29 78.1363 164.063 76.9725 164.91 75.8628C166.104 74.2153 167.289 72.5529 168.394 70.8457C169.47 69.3765 170.225 67.6971 170.609 65.9168C170.993 64.1365 170.998 62.2953 170.624 60.5129C170.021 57.651 168.245 55.3565 166.821 52.8778C166.49 52.3318 166.217 51.753 166.005 51.1507C165.755 50.232 165.686 49.2737 165.801 48.3286C165.901 46.5982 166.168 44.8814 166.597 43.2021C166.702 42.8139 166.498 42.346 166.597 41.9578Z" fill="#263238"/>
<path d="M88.9124 13.0499C88.9124 19.7045 83.3628 30.2314 78.5846 30.2314C74.6028 30.2314 68.2568 19.7045 68.2568 13.0499C68.2568 6.39534 72.8807 1 78.5846 1C84.2886 1 88.9124 6.39534 88.9124 13.0499Z" fill="#263238" stroke="#263238" stroke-linecap="round" stroke-linejoin="round"/>
<path d="M78.291 30.55L78.3906 32.964L80.4014 32.4613L78.5847 30.2314" fill="#263238"/>
<path d="M78.291 30.55L78.3906 32.964L80.4014 32.4613L78.5847 30.2314" stroke="#263238" stroke-linecap="round" stroke-linejoin="round"/>
<path d="M85.9659 5.83784C87.1804 7.66947 87.1455 9.81964 85.8913 10.6658C84.637 11.5119 82.6362 10.6658 81.4118 8.85903C80.1874 7.05229 80.2321 4.87723 81.4864 4.0311C82.7407 3.18496 84.7415 3.99128 85.9659 5.83784Z" fill="white"/>
<path d="M80.3816 3.29447C80.297 3.70261 79.7246 3.93156 79.0975 3.7922C78.4703 3.65283 78.0323 3.23972 78.102 2.83159C78.1717 2.42345 78.759 2.18952 79.3812 2.33386C80.0033 2.4782 80.4612 2.88634 80.3816 3.29447Z" fill="white"/>
<path d="M79.2067 31.4707C78.8424 32.9592 78.6059 34.4762 78.4999 36.005C78.4054 37.09 78.3904 38.1751 78.3954 39.2601C78.3508 40.0451 78.4043 40.8326 78.5547 41.6044C78.9373 42.7836 79.4998 43.8967 80.2221 44.9043C81.0739 46.174 81.8308 47.5049 82.4867 48.8861C82.8138 49.6143 83.0688 50.3728 83.2482 51.1507C83.3395 51.5544 83.406 51.9633 83.4473 52.3751L83.4772 52.7733C83.522 53.2163 83.4772 52.4598 83.4772 52.4399C83.4224 52.7484 83.4423 53.0769 83.3975 53.3905C83.0939 55.685 81.994 57.6709 80.7447 59.5772C79.5949 61.3242 78.3655 63.0115 77.1411 64.7038C76.2874 65.8209 75.5376 67.0137 74.9014 68.2675C74.2716 69.6817 73.9105 71.2007 73.8362 72.747C73.7143 74.9765 73.7492 77.2118 73.9408 79.4364C73.9159 79.1378 73.9706 78.6102 73.9408 78.232C73.7118 75.0117 73.6521 71.7615 75.2349 68.8598C75.9284 67.6485 76.7016 66.4846 77.5493 65.3757C78.7488 63.7233 79.9284 62.0659 81.0333 60.3537C82.1067 58.8839 82.8597 57.2053 83.2438 55.4263C83.6279 53.6473 83.6345 51.8076 83.2632 50.0259C82.6559 47.164 80.8791 44.8695 79.4556 42.3858C79.1262 41.8445 78.8496 41.2728 78.6293 40.6786C78.3849 39.759 78.3157 38.8017 78.4253 37.8565C78.5197 36.1215 78.7814 34.3997 79.2067 32.715C79.3112 32.3268 79.1071 31.8589 79.2067 31.4707Z" fill="#263238"/>
<path d="M39.304 33.5563C39.304 40.2108 33.7544 50.7377 28.9762 50.7377C24.9944 50.7377 18.6484 40.2108 18.6484 33.5563C18.6484 26.9017 23.2524 21.5063 28.9762 21.5063C34.7001 21.5063 39.304 26.9017 39.304 33.5563Z" fill="#C3A28E" stroke="#263238" stroke-linecap="round" stroke-linejoin="round"/>
<path d="M28.6826 51.0561L28.7822 53.4701L30.793 52.9674L28.9763 50.7375" fill="#263238"/>
<path d="M28.6826 51.0561L28.7822 53.4701L30.793 52.9674L28.9763 50.7375" stroke="#263238" stroke-linecap="round" stroke-linejoin="round"/>
<path d="M36.3478 26.3293C37.5622 28.156 37.5274 30.3111 36.2731 31.1523C35.0188 31.9934 33.018 31.1523 31.7936 29.3455C30.5692 27.5388 30.614 25.3637 31.8682 24.5176C33.1225 23.6715 35.1333 24.4977 36.3478 26.3293Z" fill="white"/>
<path d="M30.7732 23.8008C30.6886 24.209 30.1162 24.4379 29.4891 24.2985C28.8619 24.1592 28.4239 23.7461 28.4936 23.3379C28.5633 22.9298 29.1506 22.6959 29.7728 22.8402C30.3949 22.9846 30.8528 23.3927 30.7732 23.8008Z" fill="white"/>
<path d="M29.5985 53.2212C31.8454 55.3117 33.849 57.6492 35.5712 60.1894C36.5667 61.7124 37.3879 63.2902 37.4825 65.1318C37.5074 65.5997 37.5372 64.0915 37.4825 64.7485C37.4825 64.873 37.4825 64.9924 37.4476 65.1119C37.4201 65.3308 37.3752 65.5472 37.3133 65.7589C37.1868 66.1444 37.0058 66.5098 36.7757 66.844C36.0341 67.9539 35.0934 68.9444 34.2871 69.9946C32.5906 72.1085 31.0645 74.3536 29.723 76.7089C29.2094 77.6024 28.8303 78.5667 28.5981 79.5708C28.4572 80.3923 28.4088 81.2271 28.4538 82.0594C28.5174 83.4588 29.0013 84.8065 29.8424 85.9267C30.9026 87.4647 32.1817 88.8285 33.1871 90.4063C34.4968 92.4781 35.2762 94.8404 35.4568 97.2848C35.4219 96.8767 35.4866 96.4536 35.4568 96.0405C35.2994 93.832 34.6479 91.6871 33.5505 89.7642C32.6251 88.2984 31.6042 86.8951 30.4944 85.5634C29.6035 84.4136 28.7574 83.1644 28.5035 81.6961C28.4737 81.497 28.4438 80.7006 28.4488 81.4621C28.4538 82.2237 28.4836 81.3526 28.5135 81.1635C28.5876 80.7186 28.6992 80.2807 28.847 79.8545C29.2602 78.7386 29.8049 77.6759 30.4695 76.689C31.8333 74.5466 33.312 72.4797 34.8993 70.4973C35.6902 69.6346 36.403 68.7035 37.0296 67.715C37.4359 66.8276 37.6073 65.8507 37.5273 64.8779C37.5555 64.182 37.5138 63.485 37.4029 62.7975C37.1971 61.9229 36.8616 61.084 36.4074 60.3088C34.7002 57.208 32.1767 54.4257 29.6135 51.9968C29.6732 52.0516 29.6135 52.5344 29.6135 52.619C29.6135 52.7036 29.5438 53.1715 29.6135 53.2411L29.5985 53.2212Z" fill="#263238"/>
<path d="M146.479 15.4242C146.479 22.0788 140.93 32.6056 136.152 32.6056C132.17 32.6056 125.824 22.0788 125.824 15.4242C125.824 8.76961 130.448 3.37427 136.152 3.37427C141.855 3.37427 146.479 8.76961 146.479 15.4242Z" fill="#C3A28E" stroke="#263238" stroke-linecap="round" stroke-linejoin="round"/>
<path d="M135.858 32.924L135.962 35.338L137.968 34.8353L136.152 32.6055" fill="#263238"/>
<path d="M135.858 32.924L135.962 35.338L137.968 34.8353L136.152 32.6055" stroke="#263238" stroke-linecap="round" stroke-linejoin="round"/>
<path d="M143.523 8.1971C144.737 10.0287 144.708 12.1789 143.448 13.0201C142.189 13.8612 140.193 13.0449 138.969 11.2133C137.744 9.38168 137.784 7.23151 139.039 6.39036C140.293 5.5492 142.309 6.36547 143.523 8.1971Z" fill="white"/>
<path d="M137.948 5.66863C137.869 6.07676 137.291 6.31069 136.669 6.16635C136.047 6.02201 135.599 5.6089 135.674 5.20077C135.748 4.79263 136.331 4.56368 136.958 4.70304C137.585 4.84241 138.028 5.26049 137.948 5.66863Z" fill="white"/>
<path d="M136.778 35.0941C139.026 37.1842 141.029 39.5218 142.751 42.0623C143.747 43.5853 144.573 45.1631 144.662 47.0047C144.687 47.4725 144.722 45.9644 144.662 46.6264C144.662 46.7459 144.662 46.8653 144.628 46.9848C144.603 47.2042 144.558 47.4208 144.493 47.6318C144.367 48.0173 144.186 48.3827 143.956 48.7169C143.214 49.8318 142.278 50.8173 141.467 51.8724C139.764 53.988 138.232 56.2366 136.888 58.5967C136.37 59.4904 135.989 60.4568 135.758 61.4636C135.619 62.2853 135.572 63.1201 135.619 63.9522C135.679 65.3514 136.161 66.6996 137.002 67.8195C138.063 69.3575 139.347 70.7213 140.347 72.2991C141.658 74.3723 142.437 76.7365 142.617 79.1826C142.582 78.7695 142.647 78.3464 142.617 77.9383C142.466 75.7183 141.816 73.5609 140.715 71.6271C139.793 70.1591 138.772 68.7556 137.659 67.4263C136.773 66.2766 135.922 65.0273 135.669 63.559C135.639 63.3599 135.614 62.5636 135.614 63.3251C135.614 64.0866 135.649 63.2206 135.678 63.0264C135.753 62.5815 135.864 62.1436 136.012 61.7174C136.425 60.6015 136.97 59.5389 137.635 58.5519C139 56.4107 140.479 54.3439 142.064 52.3602C142.856 51.4985 143.569 50.5673 144.195 49.5779C144.6 48.6922 144.772 47.7169 144.692 46.7459C144.72 46.0501 144.68 45.3534 144.573 44.6654C144.367 43.791 144.031 42.9522 143.577 42.1768C141.87 39.071 139.352 36.2936 136.788 33.8647C136.843 33.9145 136.788 34.3973 136.788 34.4869C136.788 34.5765 136.719 35.0344 136.788 35.1091L136.778 35.0941Z" fill="#263238"/>
<path d="M197.954 32.058C197.954 38.7126 192.404 49.2394 187.626 49.2394C183.644 49.2394 177.298 38.7126 177.298 32.058C177.298 25.4034 181.922 20.0081 187.626 20.0081C193.33 20.0081 197.954 25.4034 197.954 32.058Z" fill="#C3A28E" stroke="#263238" stroke-linecap="round" stroke-linejoin="round"/>
<path d="M187.348 49.558L187.447 51.972L189.458 51.4693L187.641 49.2395" fill="#263238"/>
<path d="M187.348 49.558L187.447 51.972L189.458 51.4693L187.641 49.2395" stroke="#263238" stroke-linecap="round" stroke-linejoin="round"/>
<path d="M195.012 24.8311C196.227 26.6628 196.197 28.8129 194.938 29.6541C193.678 30.4952 191.683 29.6541 190.458 27.8473C189.234 26.0406 189.274 23.8655 190.528 23.0244C191.782 22.1832 193.798 22.9995 195.012 24.8311Z" fill="white"/>
<path d="M189.438 22.3027C189.353 22.7108 188.781 22.9447 188.159 22.8004C187.537 22.656 187.089 22.2429 187.163 21.8348C187.238 21.4267 187.82 21.1977 188.448 21.3371C189.075 21.4764 189.518 21.8945 189.438 22.3027Z" fill="white"/>
<path d="M188.268 51.7232C190.514 53.8147 192.518 56.1521 194.241 58.6913C195.236 60.2144 196.058 61.7921 196.152 63.6337C196.152 64.1016 196.207 62.5935 196.152 63.2555C196.152 63.3749 196.152 63.4944 196.117 63.6138C196.09 63.8328 196.045 64.0492 195.983 64.2609C195.857 64.6464 195.676 65.0118 195.446 65.3459C194.704 66.4608 193.768 67.4463 192.957 68.5015C191.257 70.6056 189.726 72.8407 188.378 75.1859C187.864 76.0794 187.485 77.0438 187.253 78.0478C187.114 78.8696 187.067 79.7043 187.114 80.5365C187.174 81.9357 187.656 83.2839 188.497 84.4038C189.557 85.9418 190.842 87.3055 191.842 88.8833C193.152 90.9566 193.932 93.3207 194.112 95.7668C194.077 95.3537 194.141 94.9307 194.112 94.5225C193.955 92.3124 193.303 90.1657 192.205 88.2412C191.282 86.7743 190.261 85.3709 189.149 84.0404C188.263 82.8907 187.412 81.6414 187.158 80.1731C187.129 79.974 187.099 79.1777 187.104 79.9392C187.109 80.7007 187.138 79.8297 187.168 79.6406C187.242 79.1956 187.354 78.7577 187.502 78.3315C187.915 77.2156 188.46 76.153 189.124 75.166C190.488 73.0237 191.967 70.9567 193.554 68.9743C194.346 68.1126 195.059 67.1814 195.684 66.192C196.09 65.3063 196.262 64.3311 196.182 63.36C196.211 62.6641 196.169 61.967 196.058 61.2795C195.854 60.4044 195.518 59.5653 195.062 58.7909C193.355 55.6851 190.832 52.9078 188.273 50.4739C188.3 50.6804 188.3 50.8895 188.273 51.096C188.273 51.2006 188.204 51.6485 188.273 51.7182L188.268 51.7232Z" fill="#263238"/>
<path d="M216.3 235.846C216.3 237.837 170.241 239.44 113.421 239.44C56.6004 239.44 10.5459 237.832 10.5459 235.846C10.5459 233.86 56.6054 232.258 113.421 232.258C170.236 232.258 216.3 233.865 216.3 235.846Z" fill="#263238"/>
<path d="M178.946 73.1105C178.946 73.1105 179.414 70.0097 185.381 69.7011C191.349 69.3925 193.684 75.0517 193.604 76.5249C193.524 77.9982 193.216 78.7746 193.912 79.4715C194.609 80.1683 198.725 81.8755 197.795 84.5134C196.864 87.1514 195.774 87.3803 196.476 88.0821C197.178 88.7839 199.885 89.7097 197.561 91.8001C195.236 93.8905 194.301 93.8209 194.535 94.438C194.769 95.0552 196.55 96.3792 195.386 97.3099C194.633 97.8884 193.758 98.2868 192.827 98.4746C192.827 98.4746 191.897 101.341 191.046 101.73C190.194 102.118 188.796 101.267 188.642 102.038C188.487 102.81 189.104 103.671 186.78 103.591C184.456 103.512 184.142 101.809 183.366 102.038C182.589 102.267 181.504 102.74 180.962 101.65C180.419 100.56 180.728 99.9479 180.031 99.6343C179.334 99.3207 176.776 98.395 176.388 97.1457C175.999 95.8964 177.084 93.9652 176.542 93.1091C175.999 92.253 174.218 91.0933 174.601 89.6997C174.984 88.3061 178.015 86.8278 176.776 85.8224C175.536 84.817 174.526 81.7112 175.148 80.8452C175.77 79.9791 176.079 79.143 175.691 78.909C175.303 78.6751 173.441 77.7444 174.198 75.5743C174.954 73.4042 176.776 72.568 178.946 73.1105Z" fill="#263238" stroke="#263238" stroke-linecap="round" stroke-linejoin="round"/>
<path d="M167.065 162.064C167.065 162.064 165.229 170.61 165.229 172.665C165.229 174.721 167.608 191.699 167.822 196.785C168.036 201.872 170.31 217.008 170.634 218.307C170.958 219.606 171.824 228.903 170.853 231.502C169.882 234.1 168.738 235.573 167.931 234.528C166.095 232.149 168.255 221.657 168.255 221.657C168.255 221.657 155.384 185.86 153.761 180.992C152.139 176.125 151.272 169.201 151.272 163.906C151.271 160.689 151.09 157.476 150.73 154.28L167.065 162.064Z" fill="white" stroke="#263238" stroke-linecap="round" stroke-linejoin="round"/>
<path d="M164.144 162.805L151.636 159.909L164.736 160.367L164.144 162.805Z" fill="#263238" stroke="#263238" stroke-linecap="round" stroke-linejoin="round"/>
<path d="M167.932 234.528C167.24 233.632 167.115 231.586 167.23 229.381C167.319 229.792 167.488 230.18 167.728 230.526C168.265 231.068 169.345 230.849 170.107 230.849C170.868 230.849 171.102 225.987 171.102 225.987L171.251 224.12C171.401 227.017 171.391 230.158 170.888 231.501C169.878 234.095 168.738 235.573 167.932 234.528Z" fill="#263238" stroke="#263238" stroke-linecap="round" stroke-linejoin="round"/>
<path d="M182.072 162.457C182.072 162.457 170.898 185.223 171.619 186.164C172.341 187.104 178.408 195.352 178.722 199.324C179.036 203.295 183.421 216.032 184.57 220.313C185.72 224.593 186.138 225.643 185.825 228.46C185.511 231.278 184.152 235.563 182.898 234.622C181.644 233.682 181.121 230.446 180.907 227.415C180.693 224.384 180.698 219.999 180.698 219.999C180.698 219.999 176.716 210.289 172.973 204.963C169.23 199.637 165.557 194.416 164.407 190.235C163.258 186.054 161.799 186.164 162.317 180.106C162.446 178.648 164.721 160.367 164.721 160.367L182.072 162.457Z" fill="white" stroke="#263238" stroke-linecap="round" stroke-linejoin="round"/>
<path d="M180.439 165.543L165.881 161.666L180.808 163.886L180.439 165.543Z" fill="#263238" stroke="#263238" stroke-linecap="round" stroke-linejoin="round"/>
<path d="M184.894 229.316C185.447 227.588 185.666 225.771 185.541 223.961C185.938 225.433 186.038 226.969 185.835 228.48C185.521 231.302 184.162 235.583 182.908 234.642C181.863 233.856 181.325 231.472 181.057 228.943L184.894 229.316Z" fill="#263238" stroke="#263238" stroke-linecap="round" stroke-linejoin="round"/>
<path d="M181.201 132.952C181.201 132.952 185.103 140.94 187.099 146.39C189.095 151.841 188.278 156.196 187.188 158.644C186.098 161.093 182.211 163.731 182.211 163.731L150.71 159.824C150.71 159.824 145.813 150.746 147.171 145.3C148.53 139.855 153.438 132.594 155.886 129.687C158.335 126.78 159.789 126.327 159.789 126.327L181.201 132.952Z" fill="#C3A28E" stroke="#263238" stroke-linecap="round" stroke-linejoin="round"/>
<path d="M154.577 155.071L152.691 155.126" stroke="#263238" stroke-linecap="round" stroke-linejoin="round"/>
<path d="M174.471 154.523L156.424 155.021" stroke="#263238" stroke-linecap="round" stroke-linejoin="round"/>
<path d="M161.481 152.094L150.735 154.279" stroke="#263238" stroke-linecap="round" stroke-linejoin="round"/>
<path d="M163.282 151.726L162.551 151.875" stroke="#263238" stroke-linecap="round" stroke-linejoin="round"/>
<path d="M155.598 83.5727C157.295 80.5614 174.8 53.8286 174.8 53.8286C174.8 53.8286 172.77 50.3446 172.312 49.1351C171.854 47.9256 171.874 45.3623 171.874 42.9733C171.874 41.3905 172.929 42.6199 172.929 42.6199C172.929 42.6199 173.72 41.5647 173.984 42.0027C174.088 42.1769 174.278 42.5004 174.482 42.8638C174.641 42.6597 174.915 42.4457 175.149 42.9733C175.502 43.7646 177.523 47.9007 177.523 47.9007C177.361 46.998 177.245 46.0876 177.174 45.1732C177.174 44.4664 177.702 44.2922 178.23 45.3474C178.757 46.4026 178.847 47.5473 178.931 48.9559C179.016 50.3645 179.374 50.8921 178.847 52.211C178.319 53.53 176.468 56.7901 176.468 56.7901L162.76 85.2699L168.235 98.0714L163.532 106.533C163.532 106.533 153.906 86.5839 155.598 83.5727Z" fill="white" stroke="#263238" stroke-linecap="round" stroke-linejoin="round"/>
<path d="M176.109 53.8835C176.109 53.8835 176.905 51.9474 176.288 51.156C175.567 50.402 174.77 49.7248 173.909 49.1352L172.943 46.4923C172.943 46.4923 172.57 44.1181 172.072 44.2923" stroke="#263238" stroke-linecap="round" stroke-linejoin="round"/>
<path d="M174.477 42.8638L176.288 47.9007" stroke="#263238" stroke-linecap="round" stroke-linejoin="round"/>
<path d="M172.943 42.6199C172.943 42.6199 173.909 46.6714 174.616 48.0948" stroke="#263238" stroke-linecap="round" stroke-linejoin="round"/>
<path d="M182.286 96.1851L180.295 102.904C180.295 102.904 186.651 106.354 188.01 107.08C189.369 107.807 191.464 112.615 189.647 117.532C187.831 122.45 181.748 128.696 181.659 129.244C181.569 129.791 181.206 132.967 181.206 132.967L159.804 126.337L161.167 122.525C161.167 122.525 160.62 110.908 161.894 108.638C163.168 106.369 168.24 98.0864 168.24 98.0864L172.934 100.246L175.054 95.6575L182.286 96.1851Z" fill="white" stroke="#263238" stroke-linecap="round" stroke-linejoin="round"/>
<path d="M161.123 122.51C161.123 122.51 160.575 110.893 161.849 108.623C163.124 106.353 168.195 98.0713 168.195 98.0713L172.391 99.9328L168.384 108.892L177.548 112.351L181.878 103.785L185.984 106.01L182.724 115.621L187.522 121.504C185.033 125.302 181.699 128.836 181.634 129.239C181.544 129.781 181.181 132.962 181.181 132.962L159.779 126.332L161.123 122.51Z" fill="#C3A28E" stroke="#263238" stroke-linecap="round" stroke-linejoin="round"/>
<path d="M161.122 122.604L181.619 129.572C181.489 130.568 181.221 132.927 181.221 132.927L159.818 126.297L161.122 122.604Z" fill="#263238" stroke="#263238" stroke-linecap="round" stroke-linejoin="round"/>
<path d="M187.557 89.9535C187.557 89.9535 189.339 88.7888 189.418 90.725C189.498 92.6611 185.228 94.2091 185.228 94.2091L187.557 89.9535Z" stroke="#263238" stroke-linecap="round" stroke-linejoin="round"/>
<path d="M172.899 84.9016C172.899 84.9016 171.346 83.2691 171.191 84.9016C171.037 86.5341 172.043 89.2418 172.043 89.2418L172.899 84.9016Z" stroke="#263238" stroke-linecap="round" stroke-linejoin="round"/>
<path d="M183.679 76.8334C183.679 76.8334 188.716 79.9342 189.03 83.269C189.344 86.6037 188.254 87.848 187.537 89.9435C186.82 92.0389 184.277 96.613 179.857 98.6288C175.437 100.645 173.267 94.7515 172.799 93.0443C172.331 91.3371 171.714 89.5602 172.177 87.1512C172.64 84.7422 173.421 79.9342 177.065 77.3013C180.708 74.6683 183.679 76.8334 183.679 76.8334Z" fill="white" stroke="#263238" stroke-linecap="round" stroke-linejoin="round"/>
<path d="M184.222 79.6258C184.222 79.6258 179.643 84.6031 176 84.9017C172.356 85.2003 171.112 84.7474 172.356 81.333C173.601 77.9186 179.026 74.7382 181.972 74.6635C182.755 74.6012 183.533 74.8267 184.161 75.2978C184.789 75.7689 185.223 76.4531 185.382 77.2218C185.382 77.2218 188.562 79.0833 189.418 81.9552C190.274 84.827 188.423 89.5554 187.557 89.9188C186.691 90.2821 186.561 87.898 186.561 87.898C186.561 87.898 185.864 87.4351 185.785 84.4886C185.705 81.5421 185.541 79.8597 184.222 79.6258Z" fill="#263238" stroke="#263238" stroke-linecap="round" stroke-linejoin="round"/>
<path d="M179.722 92.1136C179.448 92.3231 179.119 92.4491 178.774 92.4765C178.43 92.5039 178.085 92.4314 177.781 92.2679C176.621 91.7254 177.01 91.1829 177.01 91.1829" stroke="#263238" stroke-linecap="round" stroke-linejoin="round"/>
<path d="M176.388 93.1987C176.854 93.5229 177.385 93.7435 177.944 93.8456C178.503 93.9478 179.077 93.9292 179.628 93.791C179.628 93.791 178.135 96.1801 177.483 95.7819C176.831 95.3837 176.388 93.1987 176.388 93.1987Z" fill="#263238" stroke="#263238" stroke-linecap="round" stroke-linejoin="round"/>
<path d="M184.222 89.5554C184.222 89.5554 184.376 87.6939 181.35 88.6246" stroke="#263238" stroke-linecap="round" stroke-linejoin="round"/>
<path d="M176.851 87.9227C176.851 87.9227 176.308 85.9318 174.915 86.0612" stroke="#263238" stroke-linecap="round" stroke-linejoin="round"/>
<path d="M185.227 88.1567C185.227 88.1567 184.376 85.7527 182.206 86.0613" stroke="#263238" stroke-linecap="round" stroke-linejoin="round"/>
<path d="M178.17 84.9762C178.17 84.9762 177.393 83.4831 174.915 84.1998" stroke="#263238" stroke-linecap="round" stroke-linejoin="round"/>
<path d="M167.095 120.967C168.009 120.967 168.885 120.604 169.531 119.958C170.177 119.312 170.54 118.436 170.54 117.522L169.484 108.867H164.662L163.611 117.522C163.611 117.978 163.702 118.429 163.877 118.85C164.053 119.27 164.31 119.652 164.634 119.972C164.958 120.292 165.343 120.545 165.765 120.716C166.188 120.887 166.64 120.972 167.095 120.967Z" fill="white" stroke="#263238" stroke-linecap="round" stroke-linejoin="round"/>
<path d="M170.171 114.601L170.519 117.522C170.486 118.414 170.108 119.258 169.465 119.876C168.822 120.495 167.965 120.841 167.073 120.841C166.181 120.841 165.323 120.495 164.681 119.876C164.038 119.258 163.66 118.414 163.626 117.522L163.974 114.601H170.171Z" fill="#C3A28E" stroke="#263238" stroke-linecap="round" stroke-linejoin="round"/>
<path d="M167.075 120.967V129.239" stroke="#263238" stroke-linecap="round" stroke-linejoin="round"/>
<path d="M167.075 129.239L172.336 130.483H161.62L167.075 129.239Z" fill="white" stroke="#263238" stroke-linecap="round" stroke-linejoin="round"/>
<path d="M186.009 106C186.009 106 190.737 106.896 192.37 111.256C194.002 115.616 195.998 140.483 195.092 140.667C194.186 140.851 172.49 126.049 172.49 126.049C172.49 126.049 169.858 126.959 168.768 126.959C167.677 126.959 166.498 127.049 165.592 126.233C164.686 125.416 165.229 124.69 165.134 124.416C165.04 124.142 163.775 123.421 164.139 122.425C164.502 121.43 163.955 121.698 164.502 121.43C165.05 121.161 170.31 120.703 170.853 120.977C171.395 121.251 174.397 124.152 174.397 124.152L187.193 129.602L186.377 114.895" fill="white"/>
<path d="M186.009 106C186.009 106 190.737 106.896 192.37 111.256C194.002 115.616 195.998 140.483 195.092 140.667C194.186 140.851 172.49 126.049 172.49 126.049C172.49 126.049 169.858 126.959 168.768 126.959C167.677 126.959 166.498 127.049 165.592 126.233C164.686 125.416 165.229 124.69 165.134 124.416C165.04 124.142 163.775 123.421 164.139 122.425C164.502 121.43 163.955 121.698 164.502 121.43C165.05 121.161 170.31 120.703 170.853 120.977C171.395 121.251 174.397 124.152 174.397 124.152L187.193 129.602L186.377 114.895" stroke="#263238" stroke-linecap="round" stroke-linejoin="round"/>
<path d="M187.188 129.592L191.817 131.588" stroke="#263238" stroke-linecap="round" stroke-linejoin="round"/>
<path d="M53.0167 72.5329C53.0167 72.5329 50.9064 70.0194 49.6023 70.0194C48.2983 70.0194 49.901 71.8311 49.901 71.8311C49.901 71.8311 44.5803 72.1298 44.5803 73.2347C44.5627 73.5242 44.6558 73.8096 44.8405 74.0332C45.0253 74.2568 45.2881 74.4019 45.5757 74.4392C45.5757 74.4392 39.4487 78.7595 37.8411 82.2784C36.2334 85.7973 38.946 85.6928 38.946 85.6928C38.946 85.6928 36.2334 90.3166 36.9551 91.7202C37.6768 93.1238 39.3641 93.3279 39.3641 93.3279C39.3641 93.3279 39.4637 96.7422 41.1709 97.5486C42.8781 98.3549 43.8835 97.9517 43.8835 97.9517C43.8835 97.9517 46.5961 99.5594 47.8055 100.162C48.3825 100.501 49.0425 100.673 49.7118 100.659C49.7118 100.659 56.3415 102.267 58.4519 101.864C60.5622 101.461 62.2694 99.1512 62.2694 99.1512C62.2694 99.1512 64.5789 98.7481 65.2856 97.9467C65.9363 97.0596 66.5076 96.117 66.9928 95.1296C67.4619 95.157 67.9276 95.0362 68.3242 94.7843C68.7208 94.5324 69.0281 94.1622 69.2027 93.726C70.0041 92.1184 69.3023 88.1017 69.3023 88.1017C69.3023 88.1017 71.109 87.395 71.109 85.8869C71.109 84.3788 69.6158 82.572 69.6158 82.572C69.6158 82.572 72.0248 80.4617 69.1181 77.8536C66.2114 75.2455 60.5772 72.9311 60.5772 72.9311C60.5772 72.9311 62.2844 72.0252 60.7762 71.3234C59.6528 70.7814 58.378 70.6391 57.1628 70.9203C56.665 71.1194 57.6605 69.5117 56.0578 69.5117C54.4551 69.5117 53.0167 72.5329 53.0167 72.5329Z" fill="#263238" stroke="#263238" stroke-linecap="round" stroke-linejoin="round"/>
<path d="M55.326 162.064C55.326 162.064 57.1626 170.61 57.1626 172.665C57.1626 174.721 54.7835 191.698 54.5695 196.785C54.3555 201.872 52.0809 217.008 51.7574 218.307C51.4338 219.606 50.5678 228.903 51.5384 231.501C52.5089 234.099 53.6537 235.573 54.46 234.527C56.3016 232.148 54.1365 221.656 54.1365 221.656C54.1365 221.656 67.0076 185.86 68.6302 180.992C70.2528 176.124 71.1188 169.201 71.1188 163.905C71.1203 160.689 71.2997 157.476 71.6564 154.279L55.326 162.064Z" fill="#C2C2C2" stroke="#263238" stroke-linecap="round" stroke-linejoin="round"/>
<path d="M54.4599 234.528C55.1517 233.632 55.2761 231.586 55.1666 229.381C55.0748 229.791 54.9059 230.179 54.6689 230.526C54.1264 231.068 53.0463 230.849 52.2898 230.849C51.5332 230.849 51.2943 225.987 51.2943 225.987L51.145 224.12C50.9957 227.017 51.0056 230.158 51.5084 231.501C52.5138 234.095 53.6535 235.573 54.4599 234.528Z" fill="#263238" stroke="#263238" stroke-linecap="round" stroke-linejoin="round"/>
<path d="M69.9293 158.062C69.9293 158.062 81.1729 169.853 81.0684 171.366C80.9639 172.879 55.3261 183.371 51.2049 184.561C47.0837 185.751 35.9546 191.594 35.6311 192.241C35.3076 192.888 32.819 196.133 32.147 198.189C31.4751 200.244 32.0375 202.17 30.9575 201.867C29.8774 201.563 28.9019 198.731 28.9019 196.457C28.9019 194.182 30.6339 190.076 30.7385 188.453C30.843 186.831 31.3905 186.184 33.0131 186.074C34.6356 185.965 35.8252 186.726 36.6863 186.507C37.5473 186.288 42.659 184.018 47.6362 180.669C52.6135 177.319 62.568 171.043 62.568 171.043C62.568 171.043 54.7786 169.744 49.6968 163.796C44.615 157.848 65.2756 154.384 69.9293 158.062Z" fill="#C2C2C2" stroke="#263238" stroke-linecap="round" stroke-linejoin="round"/>
<path d="M70.8799 170.938C71.2559 170.863 71.6241 170.753 71.9799 170.61" stroke="#263238" stroke-linecap="round" stroke-linejoin="round"/>
<path d="M62.5728 171.043C64.452 171.243 66.3429 171.313 68.2319 171.252" stroke="#263238" stroke-linecap="round" stroke-linejoin="round"/>
<path d="M30.9921 201.867C32.0722 202.19 31.5297 200.244 32.1817 198.189C32.2759 197.898 32.3889 197.613 32.5201 197.337C31.6889 197.261 30.894 196.96 30.2207 196.466C30.2207 196.466 31.0867 190.738 31.8432 188.682C32.2411 187.709 32.8301 186.825 33.5753 186.084C33.3946 186.074 33.2135 186.074 33.0328 186.084C31.4102 186.193 30.8677 186.84 30.7582 188.463C30.6487 190.086 28.9365 194.187 28.9365 196.466C28.9365 198.746 29.9121 201.543 30.9921 201.867Z" fill="#263238" stroke="#263238" stroke-linecap="round" stroke-linejoin="round"/>
<path d="M50.8065 99.2011C50.8065 99.2011 50.1595 103.218 49.9455 103.795C49.7314 104.372 43.699 104.731 40.6828 105.159C37.6666 105.587 35.4418 108.752 34.6504 110.763C33.859 112.774 24.885 125.79 25.7411 128.213C26.5972 130.637 28.5383 130.583 31.2161 127.422C33.8938 124.262 41.3448 116.218 41.4891 115.93C41.6334 115.641 45.5107 127.208 45.5107 127.208C42.7356 131.66 40.7833 136.574 39.7471 141.717C38.2539 149.835 41.738 157.948 43.699 160.605C45.66 163.263 49.174 165.991 49.174 165.991C49.174 165.991 57.7199 160.018 63.394 159.097C66.6928 158.518 70.0795 158.688 73.3037 159.595C73.3037 159.595 73.3783 148.177 71.5119 141.423C69.6454 134.669 64.8324 125.914 64.8324 125.914C64.8324 125.914 66.8233 119.09 67.0572 117.01C67.2912 114.929 67.1319 110.116 67.1319 110.116C70.2372 107.409 72.9806 104.312 75.2946 100.903C79.3909 95.0152 82.6211 88.4602 82.8351 87.6191C83.0491 86.7779 70.392 62.3396 70.392 62.3396C70.392 62.3396 70.8897 58.8904 70.5363 58.0293C70.2432 57.3632 69.9108 56.715 69.5409 56.0882C69.7711 55.1748 69.8434 54.2288 69.7549 53.291C69.6155 51.7082 69.6155 51.2055 69.3269 51.5639C69.0382 51.9222 68.5355 54.7991 68.5355 54.7991C68.5355 54.7991 67.7441 52.8579 67.3161 51.8525C66.9531 51.0186 66.546 50.2045 66.0966 49.4137C65.7333 48.7666 64.6582 50.0558 64.5139 51.2055C64.3695 52.3552 64.1555 56.3769 64.5139 57.9596C64.8722 59.5424 67.7441 63.7034 68.0328 64.2061C68.3215 64.7088 73.5625 80.7206 74.1399 82.373C74.7172 84.0255 75.429 86.972 75.429 86.972C75.429 86.972 70.1182 95.1596 69.3269 96.0903C68.5355 97.0211 68.8291 97.0261 67.1717 98.0812C65.5143 99.1364 62.1447 101.097 61.4976 101.6C60.8506 102.103 60.2036 102.536 60.2036 102.536L58.7104 102.82L58.138 98.9423L50.8065 99.2011Z" fill="#C2C2C2" stroke="#263238" stroke-linecap="round" stroke-linejoin="round"/>
<path d="M67.1123 110.116L68.2372 104.477" stroke="#263238" stroke-linecap="round" stroke-linejoin="round"/>
<path d="M66.7938 61.7922C66.7938 61.7922 65.2658 58.5769 65.1861 57.9298C65.0212 56.4976 64.7786 55.0753 64.4595 53.6693C64.0563 52.0617 65.664 52.6241 65.9875 53.4304C66.2593 54.376 66.4475 55.3436 66.5499 56.3222C66.5499 56.3222 68.3218 57.447 68.6403 58.4126C68.8451 59.0927 68.9539 59.7979 68.9639 60.508" fill="#C2C2C2"/>
<path d="M66.7938 61.7922C66.7938 61.7922 65.2658 58.5769 65.1861 57.9298C65.0212 56.4976 64.7786 55.0753 64.4595 53.6693C64.0563 52.0617 65.664 52.6241 65.9875 53.4304C66.2593 54.376 66.4475 55.3436 66.5499 56.3222C66.5499 56.3222 68.3218 57.447 68.6403 58.4126C68.8451 59.0927 68.9539 59.7979 68.9639 60.508" stroke="#263238" stroke-linecap="round" stroke-linejoin="round"/>
<path d="M64.5239 51.2254C64.5911 51.1783 64.6675 51.1459 64.7481 51.1304C64.8287 51.1149 64.9117 51.1166 64.9916 51.1354C65.0715 51.1542 65.1465 51.1896 65.2117 51.2395C65.277 51.2893 65.3309 51.3523 65.3701 51.4245C65.6608 52.0587 65.8683 52.7279 65.9872 53.4154" stroke="#263238" stroke-linecap="round" stroke-linejoin="round"/>
<path d="M65.0615 49.9412C65.0615 49.9412 65.7534 49.6426 65.9524 50.7326C66.3774 52.3256 66.8892 53.8941 67.4854 55.4311" stroke="#263238" stroke-linecap="round" stroke-linejoin="round"/>
<path d="M58.5614 101.899H58.4419C58.4419 101.899 58.5016 101.968 58.5912 102.098L58.5614 101.899Z" stroke="#263238" stroke-linecap="round" stroke-linejoin="round"/>
<path d="M67.1519 114.212L67.0375 114.063C67.0375 114.063 62.8715 105.303 62.2245 104.606C61.8114 104.143 60.8358 103.208 60.1888 102.615L59.0141 102.839C59.4682 103.773 59.7305 104.789 59.7856 105.826C59.9299 108.339 58.4915 112.296 57.4164 113.939C56.3414 115.581 54.9726 117.891 54.9726 117.891L49.8012 109.2C48.8549 107.737 48.3646 106.025 48.3927 104.283C48.099 104.333 47.7755 104.377 47.3972 104.422L42.7385 119.264C43.9132 122.594 45.471 127.228 45.471 127.228C42.7121 131.676 40.7734 136.584 39.7472 141.717C38.254 149.835 41.7381 157.948 43.6991 160.605C45.6602 163.263 49.1741 165.991 49.1741 165.991C49.1741 165.991 57.72 160.018 63.3941 159.097C66.6929 158.518 70.0797 158.688 73.3038 159.595C73.3038 159.595 73.3785 148.177 71.512 141.423C69.6455 134.669 64.8325 125.914 64.8325 125.914C64.8325 125.914 66.8234 119.09 67.0574 117.01C67.1121 116.298 67.142 115.263 67.1519 114.212Z" fill="#C3A28E" stroke="#263238" stroke-linecap="round" stroke-linejoin="round"/>
<path d="M52.6486 83.0798C52.6486 83.0798 47.7211 88.0969 47.3727 88.8734C47.0243 89.6498 47.7211 91.8149 47.7211 91.8149C47.7211 91.8149 46.3374 89.0476 45.556 89.6548C44.7746 90.262 44.8642 92.0737 45.8148 93.4574C46.0977 93.8619 46.4686 94.197 46.8996 94.4376C47.3307 94.6781 47.8106 94.8178 48.3034 94.8461C48.3034 94.8461 49.3437 98.0464 50.0355 99.1663C50.7273 100.286 53.1612 102.516 53.8531 102.775C54.5449 103.034 56.1426 102.775 56.491 102.342C56.8394 101.909 59.7212 99.2559 60.2439 97.7826C60.7665 96.3094 61.1945 94.6718 61.1945 94.6718C62.1791 93.8097 62.9233 92.707 63.3546 91.4715C63.8524 89.6548 63.0958 88.7041 63.0958 88.7041L61.4533 91.1231L60.8461 87.7535C59.8746 87.4093 58.9678 86.9046 58.1634 86.2603C56.8693 85.225 54.8784 83.4929 54.8784 83.4929C54.8784 83.4929 53.4947 85.3096 52.9771 85.1354C52.4594 84.9612 52.6486 83.0798 52.6486 83.0798Z" fill="#C2C2C2" stroke="#263238" stroke-linecap="round" stroke-linejoin="round"/>
<path d="M48.1391 90.0628C46.8998 90.008 46.7953 90.227 46.85 90.6003C46.9048 90.9736 47.4373 93.1288 47.8156 93.6663C48.1939 94.2039 50.0205 94.6618 51.2001 94.4179C52.3797 94.174 53.0318 93.7758 53.3503 93.2333C53.628 92.6482 53.8448 92.0361 53.9974 91.4066L54.2661 90.6003C54.2661 90.6003 49.3586 90.1175 48.1391 90.0628Z" fill="white" stroke="#263238" stroke-linecap="round" stroke-linejoin="round"/>
<path d="M60.9156 90.0629C59.6812 90.1177 54.7886 90.6005 54.7886 90.6005C54.7886 90.6005 55.0026 91.2475 55.0573 91.4068C55.2099 92.0362 55.4267 92.6483 55.7044 93.2334C56.0229 93.7759 56.67 94.1492 57.8546 94.418C59.0391 94.6868 60.8409 94.204 61.2391 93.6665C61.6373 93.1289 62.1549 90.9787 62.2345 90.6005C62.3142 90.2222 62.1549 90.0082 60.9156 90.0629Z" fill="white" stroke="#263238" stroke-linecap="round" stroke-linejoin="round"/>
<path d="M53.9824 91.4067H55.0575L54.7887 90.6003H54.2512L53.9824 91.4067Z" stroke="#263238" stroke-linecap="round" stroke-linejoin="round"/>
<path d="M53.0017 91.0634C53.0017 91.0634 48.1638 90.5657 47.8602 90.7598C47.5565 90.9539 48.0095 92.8502 48.3579 93.1538C49.1977 93.6627 50.189 93.8616 51.1601 93.7163C51.6236 93.6668 52.0598 93.4729 52.4072 93.1622C52.7546 92.8514 52.9956 92.4393 53.0962 91.9842C53.2057 91.4715 53.5641 91.2675 53.0017 91.0634Z" fill="#263238" stroke="#263238" stroke-linecap="round" stroke-linejoin="round"/>
<path d="M56.063 91.0634C56.063 91.0634 60.9008 90.5657 61.2045 90.7598C61.5081 90.9539 61.0551 92.8502 60.7067 93.1538C59.867 93.6627 58.8756 93.8616 57.9045 93.7163C57.441 93.6668 57.0048 93.4729 56.6574 93.1622C56.31 92.8514 56.069 92.4393 55.9684 91.9842C55.8589 91.4715 55.5005 91.2675 56.063 91.0634Z" fill="#263238" stroke="#263238" stroke-linecap="round" stroke-linejoin="round"/>
<path d="M53.002 96.4238C53.3919 96.6677 53.8241 96.8366 54.2761 96.9216C54.8816 96.913 55.4695 96.7164 55.9584 96.3591" stroke="#263238" stroke-linecap="round" stroke-linejoin="round"/>
<path d="M56.1475 89.3761C56.1475 89.3761 58.5316 88.5648 60.1293 89.6797" stroke="#263238" stroke-linecap="round" stroke-linejoin="round"/>
<path d="M53.4597 89.6298C53.4597 89.6298 50.9711 88.1366 48.8906 89.376" stroke="#263238" stroke-linecap="round" stroke-linejoin="round"/>
<path d="M52.4941 98.1061C53.1685 98.4142 53.8793 98.6349 54.6095 98.7631C55.5253 98.8677 56.69 97.8523 56.69 97.8523C56.69 97.8523 56.0827 99.5744 54.8135 100.032C53.5443 100.49 52.4941 98.1061 52.4941 98.1061Z" fill="#263238" stroke="#263238" stroke-linecap="round" stroke-linejoin="round"/>
<path d="M45.038 108.245C44.1245 108.245 43.2485 107.882 42.6026 107.236C41.9566 106.59 41.5938 105.714 41.5938 104.801L42.624 96.1401H47.452L48.4823 104.801C48.4823 105.714 48.1194 106.59 47.4735 107.236C46.8275 107.882 45.9515 108.245 45.038 108.245Z" fill="white" stroke="#263238" stroke-linecap="round" stroke-linejoin="round"/>
<path d="M41.9422 101.899L41.5938 104.815C41.5937 105.729 41.9566 106.605 42.6026 107.251C43.2485 107.897 44.1245 108.26 45.038 108.26C45.9515 108.26 46.8275 107.897 47.4735 107.251C48.1194 106.605 48.4823 105.729 48.4823 104.815L48.1388 101.899H41.9422Z" fill="#C3A28E" stroke="#263238" stroke-linecap="round" stroke-linejoin="round"/>
<path d="M45.0381 108.245V116.522" stroke="#263238" stroke-linecap="round" stroke-linejoin="round"/>
<path d="M45.0379 116.522L39.772 117.766H50.488L45.0379 116.522Z" fill="white" stroke="#263238" stroke-linecap="round" stroke-linejoin="round"/>
<path d="M39.8867 114.302C39.8867 114.302 41.4097 111.385 41.6785 110.524C41.9472 109.663 44.8589 108.533 45.7897 107.802C46.7204 107.07 47.8453 106.677 48.2435 106.876C48.6416 107.075 48.5073 107.672 48.3729 107.936C48.2503 108.15 48.1406 108.371 48.0444 108.598C47.9747 108.797 48.6367 110.853 48.2435 111.714C47.7014 112.698 47.1032 113.65 46.4517 114.566C46.4517 114.566 48.2435 112.988 48.2435 113.705C48.2435 114.635 47.4471 115.034 46.4517 115.825C45.7658 116.389 44.9403 116.757 44.0626 116.89C43.2662 117.089 41.2803 117.682 41.2803 117.682C41.2803 117.682 38.6921 119.14 37.4976 121.395C36.303 123.649 31.8633 129.358 30.8679 130.682C29.8724 132.006 26.7567 133.201 25.4974 133.4C24.2382 133.599 22.6455 132.668 23.6409 128.955C24.6364 125.242 26.3585 125.705 29.0114 123.186C31.6642 120.668 39.0256 115.626 39.0256 115.626L39.8867 114.302Z" fill="#C2C2C2" stroke="#263238" stroke-linecap="round" stroke-linejoin="round"/>
<path d="M57.8696 149.865C61.2044 151.94 66.0025 155.111 68.5209 157.629" stroke="#263238" stroke-linecap="round" stroke-linejoin="round"/>
<path d="M54.2461 147.689C54.2461 147.689 54.8931 148.063 55.9234 148.685" stroke="#263238" stroke-linecap="round" stroke-linejoin="round"/>
</svg>
