<svg width="25" height="24" viewBox="0 0 25 24" fill="none" xmlns="http://www.w3.org/2000/svg">
<path d="M4.08057 18C3.79724 18 3.55957 17.904 3.36757 17.712C3.17557 17.52 3.0799 17.2827 3.08057 17C3.08057 16.7167 3.17657 16.479 3.36857 16.287C3.56057 16.095 3.7979 15.9993 4.08057 16H20.0806C20.3639 16 20.6016 16.096 20.7936 16.288C20.9856 16.48 21.0812 16.7173 21.0806 17C21.0806 17.2833 20.9846 17.521 20.7926 17.713C20.6006 17.905 20.3632 18.0007 20.0806 18H4.08057ZM4.08057 13C3.79724 13 3.55957 12.904 3.36757 12.712C3.17557 12.52 3.0799 12.2827 3.08057 12C3.08057 11.7167 3.17657 11.479 3.36857 11.287C3.56057 11.095 3.7979 10.9993 4.08057 11H20.0806C20.3639 11 20.6016 11.096 20.7936 11.288C20.9856 11.48 21.0812 11.7173 21.0806 12C21.0806 12.2833 20.9846 12.521 20.7926 12.713C20.6006 12.905 20.3632 13.0007 20.0806 13H4.08057ZM4.08057 8C3.79724 8 3.55957 7.904 3.36757 7.712C3.17557 7.52 3.0799 7.28267 3.08057 7C3.08057 6.71667 3.17657 6.479 3.36857 6.287C3.56057 6.095 3.7979 5.99934 4.08057 6H20.0806C20.3639 6 20.6016 6.096 20.7936 6.288C20.9856 6.48 21.0812 6.71734 21.0806 7C21.0806 7.28334 20.9846 7.521 20.7926 7.713C20.6006 7.905 20.3632 8.00067 20.0806 8H4.08057Z" fill="#FFFCF9"/>
</svg>
